G04 MADE WITH FRITZING*
G04 WWW.FRITZING.ORG*
G04 DOUBLE SIDED*
G04 HOLES PLATED*
G04 CONTOUR ON CENTER OF CONTOUR VECTOR*
%ASAXBY*%
%FSLAX23Y23*%
%MOIN*%
%OFA0B0*%
%SFA1.0B1.0*%
%ADD10R,2.480310X1.574800X2.464310X1.558800*%
%ADD11C,0.008000*%
%ADD12R,0.632695X0.947653X0.627139X0.942097*%
%ADD13C,0.002778*%
%ADD14R,0.477764X0.602764X0.472208X0.597208*%
%ADD15R,0.001000X0.001000*%
%LNSILK0*%
G90*
G70*
G54D11*
X4Y1571D02*
X2476Y1571D01*
X2476Y4D01*
X4Y4D01*
X4Y1571D01*
D02*
G54D13*
X1416Y1369D02*
X2046Y1369D01*
X2046Y425D01*
X1416Y425D01*
X1416Y1369D01*
D02*
X1493Y1074D02*
X1968Y1074D01*
X1968Y474D01*
X1493Y474D01*
X1493Y1074D01*
D02*
X1444Y1157D02*
X1461Y1157D01*
X1461Y1324D01*
X1532Y1324D01*
X1532Y1217D01*
X1648Y1217D01*
X1648Y1324D01*
X1721Y1324D01*
X1721Y1217D01*
X1836Y1217D01*
X1836Y1324D01*
X1907Y1324D01*
X1907Y1157D01*
X1924Y1157D01*
X1924Y1324D01*
X1994Y1324D01*
X1994Y1157D01*
X2017Y1157D01*
X2017Y1341D01*
X1819Y1341D01*
X1819Y1234D01*
X1738Y1234D01*
X1738Y1341D01*
X1631Y1341D01*
X1631Y1234D01*
X1549Y1234D01*
X1549Y1341D01*
X1444Y1341D01*
X1444Y1157D01*
D02*
G54D15*
X1450Y1472D02*
X1456Y1472D01*
X1550Y1472D02*
X1557Y1472D01*
X1449Y1471D02*
X1457Y1471D01*
X1549Y1471D02*
X1558Y1471D01*
X1448Y1470D02*
X1458Y1470D01*
X1549Y1470D02*
X1558Y1470D01*
X1398Y1469D02*
X1416Y1469D01*
X1448Y1469D02*
X1458Y1469D01*
X1549Y1469D02*
X1558Y1469D01*
X1585Y1469D02*
X1593Y1469D01*
X1610Y1469D02*
X1619Y1469D01*
X1699Y1469D02*
X1718Y1469D01*
X1750Y1469D02*
X1768Y1469D01*
X1936Y1469D02*
X1945Y1469D01*
X1962Y1469D02*
X1970Y1469D01*
X2038Y1469D02*
X2041Y1469D01*
X2066Y1469D02*
X2069Y1469D01*
X1398Y1468D02*
X1417Y1468D01*
X1448Y1468D02*
X1458Y1468D01*
X1549Y1468D02*
X1558Y1468D01*
X1585Y1468D02*
X1594Y1468D01*
X1610Y1468D02*
X1619Y1468D01*
X1699Y1468D02*
X1718Y1468D01*
X1748Y1468D02*
X1769Y1468D01*
X1936Y1468D02*
X1945Y1468D01*
X1961Y1468D02*
X1970Y1468D01*
X2037Y1468D02*
X2042Y1468D01*
X2065Y1468D02*
X2070Y1468D01*
X1398Y1467D02*
X1418Y1467D01*
X1448Y1467D02*
X1458Y1467D01*
X1549Y1467D02*
X1558Y1467D01*
X1585Y1467D02*
X1595Y1467D01*
X1609Y1467D02*
X1619Y1467D01*
X1699Y1467D02*
X1719Y1467D01*
X1747Y1467D02*
X1769Y1467D01*
X1936Y1467D02*
X1946Y1467D01*
X1960Y1467D02*
X1970Y1467D01*
X2037Y1467D02*
X2043Y1467D01*
X2065Y1467D02*
X2070Y1467D01*
X1398Y1466D02*
X1418Y1466D01*
X1448Y1466D02*
X1458Y1466D01*
X1549Y1466D02*
X1558Y1466D01*
X1585Y1466D02*
X1595Y1466D01*
X1608Y1466D02*
X1619Y1466D01*
X1699Y1466D02*
X1719Y1466D01*
X1746Y1466D02*
X1769Y1466D01*
X1936Y1466D02*
X1947Y1466D01*
X1960Y1466D02*
X1970Y1466D01*
X2037Y1466D02*
X2043Y1466D01*
X2064Y1466D02*
X2070Y1466D01*
X1398Y1465D02*
X1418Y1465D01*
X1449Y1465D02*
X1457Y1465D01*
X1549Y1465D02*
X1558Y1465D01*
X1585Y1465D02*
X1596Y1465D01*
X1607Y1465D02*
X1619Y1465D01*
X1699Y1465D02*
X1719Y1465D01*
X1745Y1465D02*
X1769Y1465D01*
X1936Y1465D02*
X1948Y1465D01*
X1959Y1465D02*
X1970Y1465D01*
X2037Y1465D02*
X2043Y1465D01*
X2064Y1465D02*
X2070Y1465D01*
X1398Y1464D02*
X1417Y1464D01*
X1449Y1464D02*
X1457Y1464D01*
X1550Y1464D02*
X1557Y1464D01*
X1585Y1464D02*
X1597Y1464D01*
X1607Y1464D02*
X1619Y1464D01*
X1699Y1464D02*
X1718Y1464D01*
X1744Y1464D02*
X1768Y1464D01*
X1936Y1464D02*
X1948Y1464D01*
X1958Y1464D02*
X1970Y1464D01*
X2037Y1464D02*
X2043Y1464D01*
X2064Y1464D02*
X2070Y1464D01*
X1398Y1463D02*
X1415Y1463D01*
X1451Y1463D02*
X1455Y1463D01*
X1551Y1463D02*
X1556Y1463D01*
X1585Y1463D02*
X1598Y1463D01*
X1606Y1463D02*
X1619Y1463D01*
X1699Y1463D02*
X1717Y1463D01*
X1744Y1463D02*
X1767Y1463D01*
X1936Y1463D02*
X1949Y1463D01*
X1957Y1463D02*
X1970Y1463D01*
X2037Y1463D02*
X2043Y1463D01*
X2064Y1463D02*
X2070Y1463D01*
X1398Y1462D02*
X1404Y1462D01*
X1585Y1462D02*
X1598Y1462D01*
X1605Y1462D02*
X1619Y1462D01*
X1699Y1462D02*
X1705Y1462D01*
X1743Y1462D02*
X1751Y1462D01*
X1756Y1462D02*
X1762Y1462D01*
X1936Y1462D02*
X1950Y1462D01*
X1957Y1462D02*
X1970Y1462D01*
X2037Y1462D02*
X2043Y1462D01*
X2064Y1462D02*
X2070Y1462D01*
X1398Y1461D02*
X1404Y1461D01*
X1585Y1461D02*
X1599Y1461D01*
X1605Y1461D02*
X1619Y1461D01*
X1699Y1461D02*
X1705Y1461D01*
X1743Y1461D02*
X1750Y1461D01*
X1756Y1461D02*
X1762Y1461D01*
X1936Y1461D02*
X1950Y1461D01*
X1956Y1461D02*
X1970Y1461D01*
X2037Y1461D02*
X2043Y1461D01*
X2064Y1461D02*
X2070Y1461D01*
X1398Y1460D02*
X1404Y1460D01*
X1585Y1460D02*
X1600Y1460D01*
X1604Y1460D02*
X1619Y1460D01*
X1699Y1460D02*
X1705Y1460D01*
X1742Y1460D02*
X1749Y1460D01*
X1756Y1460D02*
X1762Y1460D01*
X1936Y1460D02*
X1951Y1460D01*
X1955Y1460D02*
X1970Y1460D01*
X2037Y1460D02*
X2043Y1460D01*
X2064Y1460D02*
X2070Y1460D01*
X1398Y1459D02*
X1404Y1459D01*
X1585Y1459D02*
X1591Y1459D01*
X1593Y1459D02*
X1600Y1459D01*
X1603Y1459D02*
X1611Y1459D01*
X1613Y1459D02*
X1619Y1459D01*
X1699Y1459D02*
X1705Y1459D01*
X1742Y1459D02*
X1749Y1459D01*
X1756Y1459D02*
X1762Y1459D01*
X1936Y1459D02*
X1942Y1459D01*
X1944Y1459D02*
X1952Y1459D01*
X1955Y1459D02*
X1962Y1459D01*
X1964Y1459D02*
X1970Y1459D01*
X2037Y1459D02*
X2043Y1459D01*
X2064Y1459D02*
X2070Y1459D01*
X1398Y1458D02*
X1404Y1458D01*
X1585Y1458D02*
X1591Y1458D01*
X1593Y1458D02*
X1610Y1458D01*
X1613Y1458D02*
X1619Y1458D01*
X1699Y1458D02*
X1705Y1458D01*
X1741Y1458D02*
X1748Y1458D01*
X1756Y1458D02*
X1762Y1458D01*
X1936Y1458D02*
X1942Y1458D01*
X1945Y1458D02*
X1962Y1458D01*
X1964Y1458D02*
X1970Y1458D01*
X2037Y1458D02*
X2043Y1458D01*
X2064Y1458D02*
X2070Y1458D01*
X1398Y1457D02*
X1404Y1457D01*
X1585Y1457D02*
X1591Y1457D01*
X1594Y1457D02*
X1609Y1457D01*
X1613Y1457D02*
X1619Y1457D01*
X1699Y1457D02*
X1705Y1457D01*
X1741Y1457D02*
X1748Y1457D01*
X1756Y1457D02*
X1762Y1457D01*
X1936Y1457D02*
X1942Y1457D01*
X1946Y1457D02*
X1961Y1457D01*
X1964Y1457D02*
X1970Y1457D01*
X2037Y1457D02*
X2043Y1457D01*
X2064Y1457D02*
X2070Y1457D01*
X1398Y1456D02*
X1404Y1456D01*
X1585Y1456D02*
X1591Y1456D01*
X1595Y1456D02*
X1609Y1456D01*
X1613Y1456D02*
X1619Y1456D01*
X1699Y1456D02*
X1705Y1456D01*
X1740Y1456D02*
X1747Y1456D01*
X1756Y1456D02*
X1762Y1456D01*
X1936Y1456D02*
X1942Y1456D01*
X1946Y1456D02*
X1960Y1456D01*
X1964Y1456D02*
X1970Y1456D01*
X2037Y1456D02*
X2043Y1456D01*
X2064Y1456D02*
X2070Y1456D01*
X1398Y1455D02*
X1404Y1455D01*
X1452Y1455D02*
X1461Y1455D01*
X1496Y1455D02*
X1499Y1455D01*
X1552Y1455D02*
X1562Y1455D01*
X1585Y1455D02*
X1591Y1455D01*
X1596Y1455D02*
X1608Y1455D01*
X1613Y1455D02*
X1619Y1455D01*
X1699Y1455D02*
X1705Y1455D01*
X1740Y1455D02*
X1747Y1455D01*
X1756Y1455D02*
X1762Y1455D01*
X1846Y1455D02*
X1860Y1455D01*
X1899Y1455D02*
X1907Y1455D01*
X1936Y1455D02*
X1942Y1455D01*
X1947Y1455D02*
X1959Y1455D01*
X1964Y1455D02*
X1970Y1455D01*
X1999Y1455D02*
X2008Y1455D01*
X2037Y1455D02*
X2043Y1455D01*
X2064Y1455D02*
X2070Y1455D01*
X1398Y1454D02*
X1404Y1454D01*
X1449Y1454D02*
X1463Y1454D01*
X1491Y1454D02*
X1503Y1454D01*
X1513Y1454D02*
X1517Y1454D01*
X1550Y1454D02*
X1564Y1454D01*
X1585Y1454D02*
X1591Y1454D01*
X1596Y1454D02*
X1607Y1454D01*
X1613Y1454D02*
X1619Y1454D01*
X1699Y1454D02*
X1705Y1454D01*
X1739Y1454D02*
X1746Y1454D01*
X1756Y1454D02*
X1762Y1454D01*
X1841Y1454D02*
X1864Y1454D01*
X1895Y1454D02*
X1911Y1454D01*
X1936Y1454D02*
X1942Y1454D01*
X1948Y1454D02*
X1959Y1454D01*
X1964Y1454D02*
X1970Y1454D01*
X1995Y1454D02*
X2012Y1454D01*
X2037Y1454D02*
X2043Y1454D01*
X2064Y1454D02*
X2070Y1454D01*
X1398Y1453D02*
X1404Y1453D01*
X1449Y1453D02*
X1464Y1453D01*
X1490Y1453D02*
X1505Y1453D01*
X1513Y1453D02*
X1518Y1453D01*
X1549Y1453D02*
X1565Y1453D01*
X1585Y1453D02*
X1591Y1453D01*
X1597Y1453D02*
X1607Y1453D01*
X1613Y1453D02*
X1619Y1453D01*
X1699Y1453D02*
X1705Y1453D01*
X1739Y1453D02*
X1746Y1453D01*
X1756Y1453D02*
X1762Y1453D01*
X1840Y1453D02*
X1865Y1453D01*
X1893Y1453D02*
X1913Y1453D01*
X1936Y1453D02*
X1942Y1453D01*
X1948Y1453D02*
X1958Y1453D01*
X1964Y1453D02*
X1970Y1453D01*
X1993Y1453D02*
X2013Y1453D01*
X2037Y1453D02*
X2043Y1453D01*
X2064Y1453D02*
X2070Y1453D01*
X1398Y1452D02*
X1404Y1452D01*
X1448Y1452D02*
X1464Y1452D01*
X1489Y1452D02*
X1507Y1452D01*
X1512Y1452D02*
X1518Y1452D01*
X1549Y1452D02*
X1565Y1452D01*
X1585Y1452D02*
X1591Y1452D01*
X1598Y1452D02*
X1606Y1452D01*
X1613Y1452D02*
X1619Y1452D01*
X1699Y1452D02*
X1705Y1452D01*
X1738Y1452D02*
X1745Y1452D01*
X1756Y1452D02*
X1762Y1452D01*
X1839Y1452D02*
X1867Y1452D01*
X1892Y1452D02*
X1914Y1452D01*
X1936Y1452D02*
X1942Y1452D01*
X1949Y1452D02*
X1957Y1452D01*
X1964Y1452D02*
X1970Y1452D01*
X1992Y1452D02*
X2015Y1452D01*
X2037Y1452D02*
X2043Y1452D01*
X2064Y1452D02*
X2070Y1452D01*
X1398Y1451D02*
X1404Y1451D01*
X1448Y1451D02*
X1464Y1451D01*
X1488Y1451D02*
X1508Y1451D01*
X1512Y1451D02*
X1518Y1451D01*
X1549Y1451D02*
X1565Y1451D01*
X1585Y1451D02*
X1591Y1451D01*
X1598Y1451D02*
X1605Y1451D01*
X1613Y1451D02*
X1619Y1451D01*
X1699Y1451D02*
X1705Y1451D01*
X1738Y1451D02*
X1745Y1451D01*
X1756Y1451D02*
X1762Y1451D01*
X1838Y1451D02*
X1867Y1451D01*
X1891Y1451D02*
X1915Y1451D01*
X1936Y1451D02*
X1942Y1451D01*
X1950Y1451D02*
X1957Y1451D01*
X1964Y1451D02*
X1970Y1451D01*
X1991Y1451D02*
X2016Y1451D01*
X2037Y1451D02*
X2043Y1451D01*
X2052Y1451D02*
X2056Y1451D01*
X2064Y1451D02*
X2070Y1451D01*
X1398Y1450D02*
X1404Y1450D01*
X1448Y1450D02*
X1464Y1450D01*
X1487Y1450D02*
X1510Y1450D01*
X1512Y1450D02*
X1518Y1450D01*
X1549Y1450D02*
X1565Y1450D01*
X1585Y1450D02*
X1591Y1450D01*
X1599Y1450D02*
X1605Y1450D01*
X1613Y1450D02*
X1619Y1450D01*
X1699Y1450D02*
X1705Y1450D01*
X1737Y1450D02*
X1744Y1450D01*
X1756Y1450D02*
X1762Y1450D01*
X1837Y1450D02*
X1868Y1450D01*
X1890Y1450D02*
X1917Y1450D01*
X1936Y1450D02*
X1942Y1450D01*
X1950Y1450D02*
X1956Y1450D01*
X1964Y1450D02*
X1970Y1450D01*
X1990Y1450D02*
X2017Y1450D01*
X2037Y1450D02*
X2043Y1450D01*
X2051Y1450D02*
X2056Y1450D01*
X2064Y1450D02*
X2070Y1450D01*
X1398Y1449D02*
X1404Y1449D01*
X1448Y1449D02*
X1463Y1449D01*
X1486Y1449D02*
X1518Y1449D01*
X1549Y1449D02*
X1564Y1449D01*
X1585Y1449D02*
X1591Y1449D01*
X1599Y1449D02*
X1605Y1449D01*
X1613Y1449D02*
X1619Y1449D01*
X1699Y1449D02*
X1705Y1449D01*
X1737Y1449D02*
X1744Y1449D01*
X1756Y1449D02*
X1762Y1449D01*
X1837Y1449D02*
X1868Y1449D01*
X1889Y1449D02*
X1917Y1449D01*
X1936Y1449D02*
X1942Y1449D01*
X1950Y1449D02*
X1956Y1449D01*
X1964Y1449D02*
X1970Y1449D01*
X1989Y1449D02*
X2018Y1449D01*
X2037Y1449D02*
X2043Y1449D01*
X2051Y1449D02*
X2057Y1449D01*
X2064Y1449D02*
X2070Y1449D01*
X1398Y1448D02*
X1404Y1448D01*
X1448Y1448D02*
X1455Y1448D01*
X1486Y1448D02*
X1495Y1448D01*
X1501Y1448D02*
X1518Y1448D01*
X1549Y1448D02*
X1555Y1448D01*
X1585Y1448D02*
X1591Y1448D01*
X1599Y1448D02*
X1605Y1448D01*
X1613Y1448D02*
X1619Y1448D01*
X1699Y1448D02*
X1705Y1448D01*
X1737Y1448D02*
X1743Y1448D01*
X1756Y1448D02*
X1762Y1448D01*
X1837Y1448D02*
X1845Y1448D01*
X1861Y1448D02*
X1869Y1448D01*
X1888Y1448D02*
X1898Y1448D01*
X1908Y1448D02*
X1918Y1448D01*
X1936Y1448D02*
X1942Y1448D01*
X1950Y1448D02*
X1956Y1448D01*
X1964Y1448D02*
X1970Y1448D01*
X1988Y1448D02*
X1999Y1448D01*
X2008Y1448D02*
X2018Y1448D01*
X2037Y1448D02*
X2043Y1448D01*
X2051Y1448D02*
X2057Y1448D01*
X2064Y1448D02*
X2070Y1448D01*
X1398Y1447D02*
X1404Y1447D01*
X1448Y1447D02*
X1454Y1447D01*
X1486Y1447D02*
X1493Y1447D01*
X1502Y1447D02*
X1518Y1447D01*
X1549Y1447D02*
X1555Y1447D01*
X1585Y1447D02*
X1591Y1447D01*
X1599Y1447D02*
X1604Y1447D01*
X1613Y1447D02*
X1619Y1447D01*
X1699Y1447D02*
X1705Y1447D01*
X1736Y1447D02*
X1743Y1447D01*
X1756Y1447D02*
X1762Y1447D01*
X1837Y1447D02*
X1843Y1447D01*
X1863Y1447D02*
X1869Y1447D01*
X1887Y1447D02*
X1896Y1447D01*
X1910Y1447D02*
X1919Y1447D01*
X1936Y1447D02*
X1942Y1447D01*
X1951Y1447D02*
X1956Y1447D01*
X1964Y1447D02*
X1970Y1447D01*
X1988Y1447D02*
X1996Y1447D01*
X2011Y1447D02*
X2019Y1447D01*
X2037Y1447D02*
X2043Y1447D01*
X2051Y1447D02*
X2057Y1447D01*
X2064Y1447D02*
X2070Y1447D01*
X1398Y1446D02*
X1404Y1446D01*
X1448Y1446D02*
X1454Y1446D01*
X1486Y1446D02*
X1492Y1446D01*
X1504Y1446D02*
X1518Y1446D01*
X1549Y1446D02*
X1555Y1446D01*
X1585Y1446D02*
X1591Y1446D01*
X1600Y1446D02*
X1604Y1446D01*
X1613Y1446D02*
X1619Y1446D01*
X1699Y1446D02*
X1705Y1446D01*
X1736Y1446D02*
X1742Y1446D01*
X1756Y1446D02*
X1762Y1446D01*
X1838Y1446D02*
X1841Y1446D01*
X1863Y1446D02*
X1869Y1446D01*
X1887Y1446D02*
X1894Y1446D01*
X1912Y1446D02*
X1919Y1446D01*
X1936Y1446D02*
X1942Y1446D01*
X1951Y1446D02*
X1955Y1446D01*
X1964Y1446D02*
X1970Y1446D01*
X1987Y1446D02*
X1995Y1446D01*
X2012Y1446D02*
X2019Y1446D01*
X2037Y1446D02*
X2043Y1446D01*
X2051Y1446D02*
X2057Y1446D01*
X2064Y1446D02*
X2070Y1446D01*
X1398Y1445D02*
X1404Y1445D01*
X1448Y1445D02*
X1454Y1445D01*
X1486Y1445D02*
X1492Y1445D01*
X1506Y1445D02*
X1518Y1445D01*
X1549Y1445D02*
X1555Y1445D01*
X1585Y1445D02*
X1591Y1445D01*
X1613Y1445D02*
X1619Y1445D01*
X1699Y1445D02*
X1705Y1445D01*
X1736Y1445D02*
X1742Y1445D01*
X1756Y1445D02*
X1762Y1445D01*
X1862Y1445D02*
X1869Y1445D01*
X1887Y1445D02*
X1893Y1445D01*
X1913Y1445D02*
X1919Y1445D01*
X1936Y1445D02*
X1942Y1445D01*
X1964Y1445D02*
X1970Y1445D01*
X1987Y1445D02*
X1994Y1445D01*
X2013Y1445D02*
X2020Y1445D01*
X2037Y1445D02*
X2043Y1445D01*
X2051Y1445D02*
X2057Y1445D01*
X2064Y1445D02*
X2070Y1445D01*
X1398Y1444D02*
X1404Y1444D01*
X1448Y1444D02*
X1454Y1444D01*
X1485Y1444D02*
X1491Y1444D01*
X1507Y1444D02*
X1518Y1444D01*
X1549Y1444D02*
X1555Y1444D01*
X1585Y1444D02*
X1591Y1444D01*
X1613Y1444D02*
X1619Y1444D01*
X1699Y1444D02*
X1705Y1444D01*
X1736Y1444D02*
X1742Y1444D01*
X1756Y1444D02*
X1762Y1444D01*
X1861Y1444D02*
X1868Y1444D01*
X1886Y1444D02*
X1893Y1444D01*
X1913Y1444D02*
X1920Y1444D01*
X1936Y1444D02*
X1942Y1444D01*
X1964Y1444D02*
X1970Y1444D01*
X1987Y1444D02*
X1993Y1444D01*
X2014Y1444D02*
X2020Y1444D01*
X2037Y1444D02*
X2043Y1444D01*
X2051Y1444D02*
X2057Y1444D01*
X2064Y1444D02*
X2070Y1444D01*
X1398Y1443D02*
X1404Y1443D01*
X1448Y1443D02*
X1454Y1443D01*
X1485Y1443D02*
X1491Y1443D01*
X1509Y1443D02*
X1518Y1443D01*
X1549Y1443D02*
X1555Y1443D01*
X1585Y1443D02*
X1591Y1443D01*
X1613Y1443D02*
X1619Y1443D01*
X1699Y1443D02*
X1705Y1443D01*
X1736Y1443D02*
X1742Y1443D01*
X1756Y1443D02*
X1762Y1443D01*
X1859Y1443D02*
X1868Y1443D01*
X1886Y1443D02*
X1892Y1443D01*
X1914Y1443D02*
X1920Y1443D01*
X1936Y1443D02*
X1942Y1443D01*
X1964Y1443D02*
X1970Y1443D01*
X1987Y1443D02*
X1993Y1443D01*
X2014Y1443D02*
X2020Y1443D01*
X2037Y1443D02*
X2043Y1443D01*
X2051Y1443D02*
X2057Y1443D01*
X2064Y1443D02*
X2070Y1443D01*
X1398Y1442D02*
X1404Y1442D01*
X1448Y1442D02*
X1454Y1442D01*
X1485Y1442D02*
X1491Y1442D01*
X1510Y1442D02*
X1518Y1442D01*
X1549Y1442D02*
X1555Y1442D01*
X1585Y1442D02*
X1591Y1442D01*
X1613Y1442D02*
X1619Y1442D01*
X1699Y1442D02*
X1705Y1442D01*
X1736Y1442D02*
X1742Y1442D01*
X1756Y1442D02*
X1762Y1442D01*
X1856Y1442D02*
X1868Y1442D01*
X1886Y1442D02*
X1892Y1442D01*
X1914Y1442D02*
X1920Y1442D01*
X1936Y1442D02*
X1942Y1442D01*
X1964Y1442D02*
X1970Y1442D01*
X1987Y1442D02*
X1993Y1442D01*
X2014Y1442D02*
X2020Y1442D01*
X2037Y1442D02*
X2043Y1442D01*
X2051Y1442D02*
X2057Y1442D01*
X2064Y1442D02*
X2070Y1442D01*
X1398Y1441D02*
X1404Y1441D01*
X1448Y1441D02*
X1454Y1441D01*
X1485Y1441D02*
X1491Y1441D01*
X1512Y1441D02*
X1518Y1441D01*
X1549Y1441D02*
X1555Y1441D01*
X1585Y1441D02*
X1591Y1441D01*
X1613Y1441D02*
X1619Y1441D01*
X1699Y1441D02*
X1705Y1441D01*
X1736Y1441D02*
X1742Y1441D01*
X1756Y1441D02*
X1762Y1441D01*
X1854Y1441D02*
X1867Y1441D01*
X1886Y1441D02*
X1892Y1441D01*
X1914Y1441D02*
X1920Y1441D01*
X1936Y1441D02*
X1942Y1441D01*
X1964Y1441D02*
X1970Y1441D01*
X1987Y1441D02*
X1993Y1441D01*
X2014Y1441D02*
X2020Y1441D01*
X2037Y1441D02*
X2043Y1441D01*
X2051Y1441D02*
X2057Y1441D01*
X2064Y1441D02*
X2070Y1441D01*
X1386Y1440D02*
X1388Y1440D01*
X1398Y1440D02*
X1404Y1440D01*
X1448Y1440D02*
X1454Y1440D01*
X1485Y1440D02*
X1491Y1440D01*
X1512Y1440D02*
X1518Y1440D01*
X1549Y1440D02*
X1555Y1440D01*
X1585Y1440D02*
X1591Y1440D01*
X1613Y1440D02*
X1619Y1440D01*
X1688Y1440D02*
X1689Y1440D01*
X1699Y1440D02*
X1705Y1440D01*
X1736Y1440D02*
X1742Y1440D01*
X1756Y1440D02*
X1762Y1440D01*
X1852Y1440D02*
X1866Y1440D01*
X1886Y1440D02*
X1892Y1440D01*
X1914Y1440D02*
X1920Y1440D01*
X1936Y1440D02*
X1942Y1440D01*
X1964Y1440D02*
X1970Y1440D01*
X1987Y1440D02*
X1993Y1440D01*
X2014Y1440D02*
X2020Y1440D01*
X2037Y1440D02*
X2043Y1440D01*
X2051Y1440D02*
X2057Y1440D01*
X2064Y1440D02*
X2070Y1440D01*
X1385Y1439D02*
X1389Y1439D01*
X1398Y1439D02*
X1404Y1439D01*
X1448Y1439D02*
X1454Y1439D01*
X1485Y1439D02*
X1491Y1439D01*
X1512Y1439D02*
X1518Y1439D01*
X1549Y1439D02*
X1555Y1439D01*
X1585Y1439D02*
X1591Y1439D01*
X1613Y1439D02*
X1619Y1439D01*
X1686Y1439D02*
X1691Y1439D01*
X1699Y1439D02*
X1705Y1439D01*
X1736Y1439D02*
X1742Y1439D01*
X1756Y1439D02*
X1762Y1439D01*
X1849Y1439D02*
X1865Y1439D01*
X1886Y1439D02*
X1892Y1439D01*
X1914Y1439D02*
X1920Y1439D01*
X1936Y1439D02*
X1942Y1439D01*
X1964Y1439D02*
X1970Y1439D01*
X1987Y1439D02*
X1993Y1439D01*
X2014Y1439D02*
X2020Y1439D01*
X2037Y1439D02*
X2043Y1439D01*
X2051Y1439D02*
X2057Y1439D01*
X2064Y1439D02*
X2070Y1439D01*
X1384Y1438D02*
X1390Y1438D01*
X1398Y1438D02*
X1404Y1438D01*
X1448Y1438D02*
X1454Y1438D01*
X1485Y1438D02*
X1491Y1438D01*
X1512Y1438D02*
X1518Y1438D01*
X1549Y1438D02*
X1555Y1438D01*
X1585Y1438D02*
X1591Y1438D01*
X1613Y1438D02*
X1619Y1438D01*
X1686Y1438D02*
X1691Y1438D01*
X1699Y1438D02*
X1705Y1438D01*
X1736Y1438D02*
X1743Y1438D01*
X1756Y1438D02*
X1762Y1438D01*
X1847Y1438D02*
X1863Y1438D01*
X1886Y1438D02*
X1892Y1438D01*
X1914Y1438D02*
X1920Y1438D01*
X1936Y1438D02*
X1942Y1438D01*
X1964Y1438D02*
X1970Y1438D01*
X1987Y1438D02*
X1993Y1438D01*
X2014Y1438D02*
X2020Y1438D01*
X2037Y1438D02*
X2043Y1438D01*
X2051Y1438D02*
X2057Y1438D01*
X2064Y1438D02*
X2070Y1438D01*
X1384Y1437D02*
X1390Y1437D01*
X1398Y1437D02*
X1404Y1437D01*
X1448Y1437D02*
X1454Y1437D01*
X1485Y1437D02*
X1491Y1437D01*
X1512Y1437D02*
X1518Y1437D01*
X1549Y1437D02*
X1555Y1437D01*
X1585Y1437D02*
X1591Y1437D01*
X1613Y1437D02*
X1619Y1437D01*
X1685Y1437D02*
X1691Y1437D01*
X1699Y1437D02*
X1705Y1437D01*
X1737Y1437D02*
X1743Y1437D01*
X1756Y1437D02*
X1762Y1437D01*
X1845Y1437D02*
X1861Y1437D01*
X1886Y1437D02*
X1892Y1437D01*
X1914Y1437D02*
X1920Y1437D01*
X1936Y1437D02*
X1942Y1437D01*
X1964Y1437D02*
X1970Y1437D01*
X1987Y1437D02*
X2020Y1437D01*
X2037Y1437D02*
X2043Y1437D01*
X2051Y1437D02*
X2057Y1437D01*
X2064Y1437D02*
X2070Y1437D01*
X1384Y1436D02*
X1390Y1436D01*
X1398Y1436D02*
X1404Y1436D01*
X1448Y1436D02*
X1454Y1436D01*
X1485Y1436D02*
X1491Y1436D01*
X1512Y1436D02*
X1518Y1436D01*
X1549Y1436D02*
X1555Y1436D01*
X1585Y1436D02*
X1591Y1436D01*
X1613Y1436D02*
X1619Y1436D01*
X1685Y1436D02*
X1691Y1436D01*
X1699Y1436D02*
X1705Y1436D01*
X1737Y1436D02*
X1744Y1436D01*
X1756Y1436D02*
X1762Y1436D01*
X1842Y1436D02*
X1859Y1436D01*
X1886Y1436D02*
X1892Y1436D01*
X1914Y1436D02*
X1920Y1436D01*
X1936Y1436D02*
X1942Y1436D01*
X1964Y1436D02*
X1970Y1436D01*
X1987Y1436D02*
X2020Y1436D01*
X2037Y1436D02*
X2043Y1436D01*
X2051Y1436D02*
X2057Y1436D01*
X2064Y1436D02*
X2070Y1436D01*
X1384Y1435D02*
X1390Y1435D01*
X1398Y1435D02*
X1404Y1435D01*
X1448Y1435D02*
X1454Y1435D01*
X1485Y1435D02*
X1491Y1435D01*
X1512Y1435D02*
X1518Y1435D01*
X1549Y1435D02*
X1555Y1435D01*
X1585Y1435D02*
X1591Y1435D01*
X1613Y1435D02*
X1619Y1435D01*
X1685Y1435D02*
X1691Y1435D01*
X1699Y1435D02*
X1705Y1435D01*
X1738Y1435D02*
X1744Y1435D01*
X1756Y1435D02*
X1762Y1435D01*
X1841Y1435D02*
X1857Y1435D01*
X1886Y1435D02*
X1892Y1435D01*
X1914Y1435D02*
X1920Y1435D01*
X1936Y1435D02*
X1942Y1435D01*
X1964Y1435D02*
X1970Y1435D01*
X1987Y1435D02*
X2020Y1435D01*
X2037Y1435D02*
X2043Y1435D01*
X2051Y1435D02*
X2057Y1435D01*
X2064Y1435D02*
X2070Y1435D01*
X1384Y1434D02*
X1390Y1434D01*
X1398Y1434D02*
X1404Y1434D01*
X1448Y1434D02*
X1454Y1434D01*
X1485Y1434D02*
X1491Y1434D01*
X1512Y1434D02*
X1518Y1434D01*
X1549Y1434D02*
X1555Y1434D01*
X1585Y1434D02*
X1591Y1434D01*
X1613Y1434D02*
X1619Y1434D01*
X1685Y1434D02*
X1691Y1434D01*
X1699Y1434D02*
X1705Y1434D01*
X1738Y1434D02*
X1745Y1434D01*
X1756Y1434D02*
X1762Y1434D01*
X1840Y1434D02*
X1854Y1434D01*
X1886Y1434D02*
X1892Y1434D01*
X1914Y1434D02*
X1920Y1434D01*
X1936Y1434D02*
X1942Y1434D01*
X1964Y1434D02*
X1970Y1434D01*
X1987Y1434D02*
X2020Y1434D01*
X2037Y1434D02*
X2043Y1434D01*
X2051Y1434D02*
X2057Y1434D01*
X2064Y1434D02*
X2070Y1434D01*
X1384Y1433D02*
X1390Y1433D01*
X1398Y1433D02*
X1404Y1433D01*
X1448Y1433D02*
X1454Y1433D01*
X1485Y1433D02*
X1491Y1433D01*
X1512Y1433D02*
X1518Y1433D01*
X1549Y1433D02*
X1555Y1433D01*
X1585Y1433D02*
X1591Y1433D01*
X1613Y1433D02*
X1619Y1433D01*
X1685Y1433D02*
X1691Y1433D01*
X1699Y1433D02*
X1705Y1433D01*
X1739Y1433D02*
X1745Y1433D01*
X1756Y1433D02*
X1762Y1433D01*
X1839Y1433D02*
X1852Y1433D01*
X1886Y1433D02*
X1892Y1433D01*
X1914Y1433D02*
X1920Y1433D01*
X1936Y1433D02*
X1942Y1433D01*
X1964Y1433D02*
X1970Y1433D01*
X1987Y1433D02*
X2020Y1433D01*
X2037Y1433D02*
X2043Y1433D01*
X2051Y1433D02*
X2057Y1433D01*
X2064Y1433D02*
X2070Y1433D01*
X1384Y1432D02*
X1390Y1432D01*
X1398Y1432D02*
X1404Y1432D01*
X1448Y1432D02*
X1454Y1432D01*
X1485Y1432D02*
X1491Y1432D01*
X1512Y1432D02*
X1518Y1432D01*
X1549Y1432D02*
X1555Y1432D01*
X1585Y1432D02*
X1591Y1432D01*
X1613Y1432D02*
X1619Y1432D01*
X1685Y1432D02*
X1691Y1432D01*
X1699Y1432D02*
X1705Y1432D01*
X1739Y1432D02*
X1746Y1432D01*
X1756Y1432D02*
X1762Y1432D01*
X1838Y1432D02*
X1850Y1432D01*
X1886Y1432D02*
X1892Y1432D01*
X1914Y1432D02*
X1920Y1432D01*
X1936Y1432D02*
X1942Y1432D01*
X1964Y1432D02*
X1970Y1432D01*
X1987Y1432D02*
X2020Y1432D01*
X2037Y1432D02*
X2043Y1432D01*
X2051Y1432D02*
X2057Y1432D01*
X2064Y1432D02*
X2070Y1432D01*
X1384Y1431D02*
X1390Y1431D01*
X1398Y1431D02*
X1404Y1431D01*
X1448Y1431D02*
X1454Y1431D01*
X1485Y1431D02*
X1491Y1431D01*
X1512Y1431D02*
X1518Y1431D01*
X1549Y1431D02*
X1555Y1431D01*
X1585Y1431D02*
X1591Y1431D01*
X1613Y1431D02*
X1619Y1431D01*
X1685Y1431D02*
X1691Y1431D01*
X1699Y1431D02*
X1705Y1431D01*
X1740Y1431D02*
X1746Y1431D01*
X1756Y1431D02*
X1762Y1431D01*
X1837Y1431D02*
X1847Y1431D01*
X1886Y1431D02*
X1892Y1431D01*
X1914Y1431D02*
X1920Y1431D01*
X1936Y1431D02*
X1942Y1431D01*
X1964Y1431D02*
X1970Y1431D01*
X1988Y1431D02*
X2020Y1431D01*
X2037Y1431D02*
X2043Y1431D01*
X2051Y1431D02*
X2057Y1431D01*
X2064Y1431D02*
X2070Y1431D01*
X1384Y1430D02*
X1390Y1430D01*
X1398Y1430D02*
X1404Y1430D01*
X1448Y1430D02*
X1454Y1430D01*
X1485Y1430D02*
X1491Y1430D01*
X1512Y1430D02*
X1518Y1430D01*
X1549Y1430D02*
X1555Y1430D01*
X1585Y1430D02*
X1591Y1430D01*
X1613Y1430D02*
X1619Y1430D01*
X1685Y1430D02*
X1691Y1430D01*
X1699Y1430D02*
X1705Y1430D01*
X1740Y1430D02*
X1747Y1430D01*
X1756Y1430D02*
X1762Y1430D01*
X1837Y1430D02*
X1845Y1430D01*
X1886Y1430D02*
X1892Y1430D01*
X1914Y1430D02*
X1920Y1430D01*
X1936Y1430D02*
X1942Y1430D01*
X1964Y1430D02*
X1970Y1430D01*
X2014Y1430D02*
X2020Y1430D01*
X2037Y1430D02*
X2043Y1430D01*
X2051Y1430D02*
X2057Y1430D01*
X2064Y1430D02*
X2070Y1430D01*
X1384Y1429D02*
X1390Y1429D01*
X1398Y1429D02*
X1404Y1429D01*
X1448Y1429D02*
X1454Y1429D01*
X1485Y1429D02*
X1491Y1429D01*
X1512Y1429D02*
X1518Y1429D01*
X1549Y1429D02*
X1555Y1429D01*
X1585Y1429D02*
X1591Y1429D01*
X1613Y1429D02*
X1619Y1429D01*
X1685Y1429D02*
X1691Y1429D01*
X1699Y1429D02*
X1705Y1429D01*
X1741Y1429D02*
X1747Y1429D01*
X1756Y1429D02*
X1762Y1429D01*
X1837Y1429D02*
X1843Y1429D01*
X1886Y1429D02*
X1892Y1429D01*
X1914Y1429D02*
X1920Y1429D01*
X1936Y1429D02*
X1942Y1429D01*
X1964Y1429D02*
X1970Y1429D01*
X2014Y1429D02*
X2020Y1429D01*
X2037Y1429D02*
X2043Y1429D01*
X2051Y1429D02*
X2057Y1429D01*
X2064Y1429D02*
X2070Y1429D01*
X1384Y1428D02*
X1390Y1428D01*
X1398Y1428D02*
X1404Y1428D01*
X1448Y1428D02*
X1454Y1428D01*
X1485Y1428D02*
X1491Y1428D01*
X1512Y1428D02*
X1518Y1428D01*
X1549Y1428D02*
X1555Y1428D01*
X1585Y1428D02*
X1591Y1428D01*
X1613Y1428D02*
X1619Y1428D01*
X1685Y1428D02*
X1691Y1428D01*
X1699Y1428D02*
X1705Y1428D01*
X1741Y1428D02*
X1748Y1428D01*
X1756Y1428D02*
X1762Y1428D01*
X1836Y1428D02*
X1843Y1428D01*
X1886Y1428D02*
X1892Y1428D01*
X1914Y1428D02*
X1920Y1428D01*
X1936Y1428D02*
X1942Y1428D01*
X1964Y1428D02*
X1970Y1428D01*
X2014Y1428D02*
X2020Y1428D01*
X2037Y1428D02*
X2043Y1428D01*
X2051Y1428D02*
X2057Y1428D01*
X2064Y1428D02*
X2070Y1428D01*
X1384Y1427D02*
X1390Y1427D01*
X1398Y1427D02*
X1404Y1427D01*
X1448Y1427D02*
X1454Y1427D01*
X1485Y1427D02*
X1491Y1427D01*
X1512Y1427D02*
X1518Y1427D01*
X1549Y1427D02*
X1555Y1427D01*
X1585Y1427D02*
X1591Y1427D01*
X1613Y1427D02*
X1619Y1427D01*
X1685Y1427D02*
X1691Y1427D01*
X1699Y1427D02*
X1705Y1427D01*
X1742Y1427D02*
X1749Y1427D01*
X1756Y1427D02*
X1762Y1427D01*
X1836Y1427D02*
X1842Y1427D01*
X1886Y1427D02*
X1892Y1427D01*
X1913Y1427D02*
X1920Y1427D01*
X1936Y1427D02*
X1942Y1427D01*
X1964Y1427D02*
X1970Y1427D01*
X2014Y1427D02*
X2020Y1427D01*
X2037Y1427D02*
X2043Y1427D01*
X2051Y1427D02*
X2057Y1427D01*
X2064Y1427D02*
X2070Y1427D01*
X1384Y1426D02*
X1390Y1426D01*
X1398Y1426D02*
X1404Y1426D01*
X1448Y1426D02*
X1454Y1426D01*
X1485Y1426D02*
X1491Y1426D01*
X1512Y1426D02*
X1518Y1426D01*
X1549Y1426D02*
X1555Y1426D01*
X1585Y1426D02*
X1591Y1426D01*
X1613Y1426D02*
X1619Y1426D01*
X1685Y1426D02*
X1691Y1426D01*
X1699Y1426D02*
X1705Y1426D01*
X1742Y1426D02*
X1749Y1426D01*
X1756Y1426D02*
X1762Y1426D01*
X1836Y1426D02*
X1842Y1426D01*
X1886Y1426D02*
X1893Y1426D01*
X1913Y1426D02*
X1920Y1426D01*
X1936Y1426D02*
X1942Y1426D01*
X1964Y1426D02*
X1970Y1426D01*
X2013Y1426D02*
X2020Y1426D01*
X2037Y1426D02*
X2043Y1426D01*
X2051Y1426D02*
X2057Y1426D01*
X2064Y1426D02*
X2070Y1426D01*
X1384Y1425D02*
X1390Y1425D01*
X1398Y1425D02*
X1404Y1425D01*
X1448Y1425D02*
X1454Y1425D01*
X1485Y1425D02*
X1491Y1425D01*
X1512Y1425D02*
X1518Y1425D01*
X1549Y1425D02*
X1555Y1425D01*
X1585Y1425D02*
X1591Y1425D01*
X1613Y1425D02*
X1619Y1425D01*
X1685Y1425D02*
X1691Y1425D01*
X1699Y1425D02*
X1705Y1425D01*
X1743Y1425D02*
X1750Y1425D01*
X1756Y1425D02*
X1762Y1425D01*
X1836Y1425D02*
X1842Y1425D01*
X1865Y1425D02*
X1868Y1425D01*
X1887Y1425D02*
X1894Y1425D01*
X1912Y1425D02*
X1919Y1425D01*
X1936Y1425D02*
X1942Y1425D01*
X1964Y1425D02*
X1970Y1425D01*
X2012Y1425D02*
X2020Y1425D01*
X2037Y1425D02*
X2043Y1425D01*
X2050Y1425D02*
X2057Y1425D01*
X2064Y1425D02*
X2070Y1425D01*
X1384Y1424D02*
X1390Y1424D01*
X1398Y1424D02*
X1404Y1424D01*
X1448Y1424D02*
X1454Y1424D01*
X1485Y1424D02*
X1491Y1424D01*
X1512Y1424D02*
X1518Y1424D01*
X1549Y1424D02*
X1555Y1424D01*
X1585Y1424D02*
X1591Y1424D01*
X1613Y1424D02*
X1619Y1424D01*
X1685Y1424D02*
X1691Y1424D01*
X1699Y1424D02*
X1705Y1424D01*
X1743Y1424D02*
X1750Y1424D01*
X1756Y1424D02*
X1762Y1424D01*
X1836Y1424D02*
X1843Y1424D01*
X1864Y1424D02*
X1869Y1424D01*
X1887Y1424D02*
X1895Y1424D01*
X1911Y1424D02*
X1919Y1424D01*
X1936Y1424D02*
X1942Y1424D01*
X1964Y1424D02*
X1970Y1424D01*
X2011Y1424D02*
X2019Y1424D01*
X2037Y1424D02*
X2044Y1424D01*
X2049Y1424D02*
X2058Y1424D01*
X2063Y1424D02*
X2070Y1424D01*
X1384Y1423D02*
X1390Y1423D01*
X1398Y1423D02*
X1404Y1423D01*
X1448Y1423D02*
X1454Y1423D01*
X1485Y1423D02*
X1491Y1423D01*
X1512Y1423D02*
X1518Y1423D01*
X1549Y1423D02*
X1555Y1423D01*
X1585Y1423D02*
X1591Y1423D01*
X1613Y1423D02*
X1619Y1423D01*
X1685Y1423D02*
X1691Y1423D01*
X1699Y1423D02*
X1705Y1423D01*
X1744Y1423D02*
X1751Y1423D01*
X1756Y1423D02*
X1762Y1423D01*
X1837Y1423D02*
X1844Y1423D01*
X1862Y1423D02*
X1869Y1423D01*
X1888Y1423D02*
X1897Y1423D01*
X1909Y1423D02*
X1918Y1423D01*
X1936Y1423D02*
X1942Y1423D01*
X1964Y1423D02*
X1970Y1423D01*
X2010Y1423D02*
X2019Y1423D01*
X2037Y1423D02*
X2045Y1423D01*
X2049Y1423D02*
X2058Y1423D01*
X2063Y1423D02*
X2070Y1423D01*
X1384Y1422D02*
X1416Y1422D01*
X1440Y1422D02*
X1463Y1422D01*
X1485Y1422D02*
X1491Y1422D01*
X1512Y1422D02*
X1518Y1422D01*
X1540Y1422D02*
X1563Y1422D01*
X1585Y1422D02*
X1591Y1422D01*
X1613Y1422D02*
X1619Y1422D01*
X1685Y1422D02*
X1717Y1422D01*
X1744Y1422D02*
X1768Y1422D01*
X1837Y1422D02*
X1870Y1422D01*
X1888Y1422D02*
X1918Y1422D01*
X1936Y1422D02*
X1942Y1422D01*
X1964Y1422D02*
X1970Y1422D01*
X1988Y1422D02*
X2018Y1422D01*
X2038Y1422D02*
X2069Y1422D01*
X1384Y1421D02*
X1417Y1421D01*
X1439Y1421D02*
X1464Y1421D01*
X1485Y1421D02*
X1491Y1421D01*
X1512Y1421D02*
X1518Y1421D01*
X1539Y1421D02*
X1564Y1421D01*
X1585Y1421D02*
X1591Y1421D01*
X1613Y1421D02*
X1619Y1421D01*
X1685Y1421D02*
X1718Y1421D01*
X1745Y1421D02*
X1769Y1421D01*
X1838Y1421D02*
X1869Y1421D01*
X1889Y1421D02*
X1917Y1421D01*
X1936Y1421D02*
X1942Y1421D01*
X1964Y1421D02*
X1970Y1421D01*
X1987Y1421D02*
X2017Y1421D01*
X2039Y1421D02*
X2069Y1421D01*
X1384Y1420D02*
X1418Y1420D01*
X1438Y1420D02*
X1464Y1420D01*
X1485Y1420D02*
X1491Y1420D01*
X1512Y1420D02*
X1518Y1420D01*
X1538Y1420D02*
X1565Y1420D01*
X1585Y1420D02*
X1591Y1420D01*
X1613Y1420D02*
X1619Y1420D01*
X1685Y1420D02*
X1719Y1420D01*
X1745Y1420D02*
X1769Y1420D01*
X1838Y1420D02*
X1869Y1420D01*
X1890Y1420D02*
X1916Y1420D01*
X1936Y1420D02*
X1942Y1420D01*
X1964Y1420D02*
X1970Y1420D01*
X1987Y1420D02*
X2016Y1420D01*
X2039Y1420D02*
X2068Y1420D01*
X1384Y1419D02*
X1418Y1419D01*
X1438Y1419D02*
X1465Y1419D01*
X1485Y1419D02*
X1491Y1419D01*
X1512Y1419D02*
X1518Y1419D01*
X1538Y1419D02*
X1565Y1419D01*
X1585Y1419D02*
X1591Y1419D01*
X1613Y1419D02*
X1619Y1419D01*
X1685Y1419D02*
X1719Y1419D01*
X1746Y1419D02*
X1769Y1419D01*
X1839Y1419D02*
X1868Y1419D01*
X1891Y1419D02*
X1915Y1419D01*
X1936Y1419D02*
X1942Y1419D01*
X1964Y1419D02*
X1970Y1419D01*
X1987Y1419D02*
X2015Y1419D01*
X2040Y1419D02*
X2067Y1419D01*
X1384Y1418D02*
X1418Y1418D01*
X1438Y1418D02*
X1464Y1418D01*
X1485Y1418D02*
X1490Y1418D01*
X1512Y1418D02*
X1518Y1418D01*
X1539Y1418D02*
X1565Y1418D01*
X1585Y1418D02*
X1591Y1418D01*
X1613Y1418D02*
X1618Y1418D01*
X1686Y1418D02*
X1719Y1418D01*
X1747Y1418D02*
X1769Y1418D01*
X1840Y1418D02*
X1867Y1418D01*
X1893Y1418D02*
X1913Y1418D01*
X1937Y1418D02*
X1942Y1418D01*
X1964Y1418D02*
X1970Y1418D01*
X1987Y1418D02*
X2014Y1418D01*
X2040Y1418D02*
X2067Y1418D01*
X1385Y1417D02*
X1417Y1417D01*
X1439Y1417D02*
X1464Y1417D01*
X1485Y1417D02*
X1490Y1417D01*
X1513Y1417D02*
X1517Y1417D01*
X1539Y1417D02*
X1564Y1417D01*
X1586Y1417D02*
X1590Y1417D01*
X1613Y1417D02*
X1618Y1417D01*
X1686Y1417D02*
X1718Y1417D01*
X1749Y1417D02*
X1768Y1417D01*
X1842Y1417D02*
X1865Y1417D01*
X1894Y1417D02*
X1912Y1417D01*
X1937Y1417D02*
X1942Y1417D01*
X1965Y1417D02*
X1969Y1417D01*
X1987Y1417D02*
X2012Y1417D01*
X2041Y1417D02*
X2052Y1417D01*
X2055Y1417D02*
X2066Y1417D01*
X1386Y1416D02*
X1416Y1416D01*
X1440Y1416D02*
X1463Y1416D01*
X1487Y1416D02*
X1489Y1416D01*
X1514Y1416D02*
X1516Y1416D01*
X1540Y1416D02*
X1563Y1416D01*
X1587Y1416D02*
X1589Y1416D01*
X1615Y1416D02*
X1617Y1416D01*
X1687Y1416D02*
X1717Y1416D01*
X1751Y1416D02*
X1767Y1416D01*
X1844Y1416D02*
X1862Y1416D01*
X1896Y1416D02*
X1909Y1416D01*
X1938Y1416D02*
X1940Y1416D01*
X1966Y1416D02*
X1968Y1416D01*
X1989Y1416D02*
X2010Y1416D01*
X2042Y1416D02*
X2051Y1416D01*
X2056Y1416D02*
X2065Y1416D01*
X1397Y1370D02*
X2063Y1370D01*
X1384Y1369D02*
X2076Y1369D01*
X1376Y1368D02*
X2084Y1368D01*
X1370Y1367D02*
X2089Y1367D01*
X1366Y1366D02*
X2094Y1366D01*
X1361Y1365D02*
X2098Y1365D01*
X1357Y1364D02*
X2102Y1364D01*
X1354Y1363D02*
X2106Y1363D01*
X1350Y1362D02*
X1396Y1362D01*
X2064Y1362D02*
X2109Y1362D01*
X1347Y1361D02*
X1383Y1361D01*
X2077Y1361D02*
X2112Y1361D01*
X1345Y1360D02*
X1376Y1360D01*
X2084Y1360D02*
X2115Y1360D01*
X1342Y1359D02*
X1370Y1359D01*
X2090Y1359D02*
X2118Y1359D01*
X1339Y1358D02*
X1366Y1358D01*
X2094Y1358D02*
X2120Y1358D01*
X1337Y1357D02*
X1361Y1357D01*
X2099Y1357D02*
X2123Y1357D01*
X1334Y1356D02*
X1358Y1356D01*
X2102Y1356D02*
X2125Y1356D01*
X1332Y1355D02*
X1354Y1355D01*
X2106Y1355D02*
X2128Y1355D01*
X1330Y1354D02*
X1351Y1354D01*
X2109Y1354D02*
X2130Y1354D01*
X1328Y1353D02*
X1348Y1353D01*
X2112Y1353D02*
X2132Y1353D01*
X1325Y1352D02*
X1345Y1352D01*
X2115Y1352D02*
X2134Y1352D01*
X1324Y1351D02*
X1343Y1351D01*
X2117Y1351D02*
X2136Y1351D01*
X1322Y1350D02*
X1340Y1350D01*
X2120Y1350D02*
X2138Y1350D01*
X1320Y1349D02*
X1338Y1349D01*
X2122Y1349D02*
X2140Y1349D01*
X1318Y1348D02*
X1335Y1348D01*
X2125Y1348D02*
X2142Y1348D01*
X1316Y1347D02*
X1333Y1347D01*
X2127Y1347D02*
X2143Y1347D01*
X1314Y1346D02*
X1331Y1346D01*
X2129Y1346D02*
X2145Y1346D01*
X1313Y1345D02*
X1329Y1345D01*
X2131Y1345D02*
X2147Y1345D01*
X1311Y1344D02*
X1327Y1344D01*
X2133Y1344D02*
X2148Y1344D01*
X1309Y1343D02*
X1325Y1343D01*
X2135Y1343D02*
X2150Y1343D01*
X1308Y1342D02*
X1323Y1342D01*
X2137Y1342D02*
X2152Y1342D01*
X1306Y1341D02*
X1321Y1341D01*
X2139Y1341D02*
X2153Y1341D01*
X1305Y1340D02*
X1319Y1340D01*
X2141Y1340D02*
X2155Y1340D01*
X1303Y1339D02*
X1318Y1339D01*
X2142Y1339D02*
X2156Y1339D01*
X1302Y1338D02*
X1316Y1338D01*
X2144Y1338D02*
X2158Y1338D01*
X1300Y1337D02*
X1314Y1337D01*
X2146Y1337D02*
X2159Y1337D01*
X1299Y1336D02*
X1313Y1336D01*
X2147Y1336D02*
X2160Y1336D01*
X1298Y1335D02*
X1311Y1335D01*
X2149Y1335D02*
X2162Y1335D01*
X1296Y1334D02*
X1310Y1334D01*
X2150Y1334D02*
X2163Y1334D01*
X1295Y1333D02*
X1308Y1333D01*
X2152Y1333D02*
X2164Y1333D01*
X1294Y1332D02*
X1307Y1332D01*
X2153Y1332D02*
X2166Y1332D01*
X1293Y1331D02*
X1305Y1331D01*
X2155Y1331D02*
X2167Y1331D01*
X1291Y1330D02*
X1304Y1330D01*
X2156Y1330D02*
X2168Y1330D01*
X1290Y1329D02*
X1303Y1329D01*
X2158Y1329D02*
X2169Y1329D01*
X1289Y1328D02*
X1301Y1328D01*
X2159Y1328D02*
X2170Y1328D01*
X1288Y1327D02*
X1300Y1327D01*
X2160Y1327D02*
X2172Y1327D01*
X1287Y1326D02*
X1299Y1326D01*
X2161Y1326D02*
X2173Y1326D01*
X1286Y1325D02*
X1297Y1325D01*
X2163Y1325D02*
X2174Y1325D01*
X1284Y1324D02*
X1296Y1324D01*
X2164Y1324D02*
X2175Y1324D01*
X1283Y1323D02*
X1295Y1323D01*
X2165Y1323D02*
X2176Y1323D01*
X1282Y1322D02*
X1294Y1322D01*
X2166Y1322D02*
X2177Y1322D01*
X1281Y1321D02*
X1293Y1321D01*
X2167Y1321D02*
X2178Y1321D01*
X1280Y1320D02*
X1291Y1320D01*
X2169Y1320D02*
X2179Y1320D01*
X1279Y1319D02*
X1290Y1319D01*
X2170Y1319D02*
X2180Y1319D01*
X1278Y1318D02*
X1289Y1318D01*
X2171Y1318D02*
X2181Y1318D01*
X1277Y1317D02*
X1288Y1317D01*
X2172Y1317D02*
X2182Y1317D01*
X1276Y1316D02*
X1287Y1316D01*
X2173Y1316D02*
X2183Y1316D01*
X1275Y1315D02*
X1286Y1315D01*
X2174Y1315D02*
X2184Y1315D01*
X1274Y1314D02*
X1285Y1314D01*
X2175Y1314D02*
X2185Y1314D01*
X1273Y1313D02*
X1284Y1313D01*
X2176Y1313D02*
X2186Y1313D01*
X1272Y1312D02*
X1283Y1312D01*
X2177Y1312D02*
X2187Y1312D01*
X1272Y1311D02*
X1282Y1311D01*
X2178Y1311D02*
X2188Y1311D01*
X1271Y1310D02*
X1281Y1310D01*
X2179Y1310D02*
X2189Y1310D01*
X1270Y1309D02*
X1280Y1309D01*
X2180Y1309D02*
X2190Y1309D01*
X1269Y1308D02*
X1279Y1308D01*
X2181Y1308D02*
X2191Y1308D01*
X1268Y1307D02*
X1278Y1307D01*
X2182Y1307D02*
X2191Y1307D01*
X1267Y1306D02*
X1277Y1306D01*
X2183Y1306D02*
X2192Y1306D01*
X1266Y1305D02*
X1276Y1305D01*
X2184Y1305D02*
X2193Y1305D01*
X1266Y1304D02*
X1275Y1304D01*
X2185Y1304D02*
X2194Y1304D01*
X1265Y1303D02*
X1275Y1303D01*
X2185Y1303D02*
X2195Y1303D01*
X1264Y1302D02*
X1274Y1302D01*
X2186Y1302D02*
X2196Y1302D01*
X1263Y1301D02*
X1273Y1301D01*
X2187Y1301D02*
X2196Y1301D01*
X1263Y1300D02*
X1272Y1300D01*
X2188Y1300D02*
X2197Y1300D01*
X1262Y1299D02*
X1271Y1299D01*
X2189Y1299D02*
X2198Y1299D01*
X1261Y1298D02*
X1270Y1298D01*
X2190Y1298D02*
X2199Y1298D01*
X1260Y1297D02*
X1270Y1297D01*
X2190Y1297D02*
X2199Y1297D01*
X1260Y1296D02*
X1269Y1296D01*
X2191Y1296D02*
X2200Y1296D01*
X1259Y1295D02*
X1268Y1295D01*
X2192Y1295D02*
X2201Y1295D01*
X1258Y1294D02*
X1267Y1294D01*
X2193Y1294D02*
X2201Y1294D01*
X1257Y1293D02*
X1267Y1293D01*
X2193Y1293D02*
X2202Y1293D01*
X1257Y1292D02*
X1266Y1292D01*
X2194Y1292D02*
X2203Y1292D01*
X1256Y1291D02*
X1265Y1291D01*
X2195Y1291D02*
X2204Y1291D01*
X1256Y1290D02*
X1264Y1290D01*
X2196Y1290D02*
X2204Y1290D01*
X1255Y1289D02*
X1264Y1289D01*
X2196Y1289D02*
X2205Y1289D01*
X1254Y1288D02*
X1263Y1288D01*
X2197Y1288D02*
X2205Y1288D01*
X1254Y1287D02*
X1262Y1287D01*
X2198Y1287D02*
X2206Y1287D01*
X1253Y1286D02*
X1262Y1286D01*
X2198Y1286D02*
X2207Y1286D01*
X1252Y1285D02*
X1261Y1285D01*
X2199Y1285D02*
X2207Y1285D01*
X1252Y1284D02*
X1260Y1284D01*
X2200Y1284D02*
X2208Y1284D01*
X1251Y1283D02*
X1260Y1283D01*
X2200Y1283D02*
X2209Y1283D01*
X1251Y1282D02*
X1259Y1282D01*
X2201Y1282D02*
X2209Y1282D01*
X1250Y1281D02*
X1259Y1281D01*
X2201Y1281D02*
X2210Y1281D01*
X1249Y1280D02*
X1258Y1280D01*
X2202Y1280D02*
X2210Y1280D01*
X1249Y1279D02*
X1257Y1279D01*
X2203Y1279D02*
X2211Y1279D01*
X1248Y1278D02*
X1257Y1278D01*
X2203Y1278D02*
X2211Y1278D01*
X1248Y1277D02*
X1256Y1277D01*
X2204Y1277D02*
X2212Y1277D01*
X1247Y1276D02*
X1256Y1276D01*
X2204Y1276D02*
X2213Y1276D01*
X1247Y1275D02*
X1255Y1275D01*
X2205Y1275D02*
X2213Y1275D01*
X1246Y1274D02*
X1254Y1274D01*
X2206Y1274D02*
X2214Y1274D01*
X1246Y1273D02*
X1254Y1273D01*
X2206Y1273D02*
X2214Y1273D01*
X1245Y1272D02*
X1253Y1272D01*
X2207Y1272D02*
X2215Y1272D01*
X1245Y1271D02*
X1253Y1271D01*
X2207Y1271D02*
X2215Y1271D01*
X1244Y1270D02*
X1252Y1270D01*
X2208Y1270D02*
X2216Y1270D01*
X1244Y1269D02*
X1252Y1269D01*
X2208Y1269D02*
X2216Y1269D01*
X1243Y1268D02*
X1251Y1268D01*
X2209Y1268D02*
X2217Y1268D01*
X1243Y1267D02*
X1251Y1267D01*
X2209Y1267D02*
X2217Y1267D01*
X1242Y1266D02*
X1250Y1266D01*
X2210Y1266D02*
X2217Y1266D01*
X1242Y1265D02*
X1250Y1265D01*
X2210Y1265D02*
X2218Y1265D01*
X1241Y1264D02*
X1249Y1264D01*
X2211Y1264D02*
X2218Y1264D01*
X1241Y1263D02*
X1249Y1263D01*
X2211Y1263D02*
X2219Y1263D01*
X1241Y1262D02*
X1249Y1262D01*
X2211Y1262D02*
X2219Y1262D01*
X1240Y1261D02*
X1248Y1261D01*
X2212Y1261D02*
X2220Y1261D01*
X1240Y1260D02*
X1248Y1260D01*
X2212Y1260D02*
X2220Y1260D01*
X1239Y1259D02*
X1247Y1259D01*
X2213Y1259D02*
X2220Y1259D01*
X1239Y1258D02*
X1247Y1258D01*
X2213Y1258D02*
X2221Y1258D01*
X1239Y1257D02*
X1246Y1257D01*
X2214Y1257D02*
X2221Y1257D01*
X1238Y1256D02*
X1246Y1256D01*
X2214Y1256D02*
X2222Y1256D01*
X1238Y1255D02*
X1246Y1255D01*
X2214Y1255D02*
X2222Y1255D01*
X1237Y1254D02*
X1245Y1254D01*
X2215Y1254D02*
X2222Y1254D01*
X1237Y1253D02*
X1245Y1253D01*
X2215Y1253D02*
X2223Y1253D01*
X1237Y1252D02*
X1244Y1252D01*
X2216Y1252D02*
X2223Y1252D01*
X1236Y1251D02*
X1244Y1251D01*
X2216Y1251D02*
X2223Y1251D01*
X1236Y1250D02*
X1244Y1250D01*
X2216Y1250D02*
X2224Y1250D01*
X1236Y1249D02*
X1243Y1249D01*
X2217Y1249D02*
X2224Y1249D01*
X1235Y1248D02*
X1243Y1248D01*
X2217Y1248D02*
X2225Y1248D01*
X1235Y1247D02*
X1243Y1247D01*
X2217Y1247D02*
X2225Y1247D01*
X1235Y1246D02*
X1242Y1246D01*
X2218Y1246D02*
X2225Y1246D01*
X1234Y1245D02*
X1242Y1245D01*
X2218Y1245D02*
X2226Y1245D01*
X1234Y1244D02*
X1242Y1244D01*
X2218Y1244D02*
X2226Y1244D01*
X1234Y1243D02*
X1241Y1243D01*
X2219Y1243D02*
X2226Y1243D01*
X1234Y1242D02*
X1241Y1242D01*
X2219Y1242D02*
X2226Y1242D01*
X1233Y1241D02*
X1241Y1241D01*
X2219Y1241D02*
X2227Y1241D01*
X1233Y1240D02*
X1240Y1240D01*
X2220Y1240D02*
X2227Y1240D01*
X1233Y1239D02*
X1240Y1239D01*
X2220Y1239D02*
X2227Y1239D01*
X1232Y1238D02*
X1240Y1238D01*
X2220Y1238D02*
X2228Y1238D01*
X1232Y1237D02*
X1240Y1237D01*
X2220Y1237D02*
X2228Y1237D01*
X1232Y1236D02*
X1239Y1236D01*
X2221Y1236D02*
X2228Y1236D01*
X1232Y1235D02*
X1239Y1235D01*
X2221Y1235D02*
X2228Y1235D01*
X1231Y1234D02*
X1239Y1234D01*
X2221Y1234D02*
X2228Y1234D01*
X1231Y1233D02*
X1239Y1233D01*
X2221Y1233D02*
X2229Y1233D01*
X1231Y1232D02*
X1238Y1232D01*
X2222Y1232D02*
X2229Y1232D01*
X1231Y1231D02*
X1238Y1231D01*
X2222Y1231D02*
X2229Y1231D01*
X1231Y1230D02*
X1238Y1230D01*
X2222Y1230D02*
X2229Y1230D01*
X1230Y1229D02*
X1238Y1229D01*
X2222Y1229D02*
X2230Y1229D01*
X1230Y1228D02*
X1237Y1228D01*
X2223Y1228D02*
X2230Y1228D01*
X1230Y1227D02*
X1237Y1227D01*
X2223Y1227D02*
X2230Y1227D01*
X1230Y1226D02*
X1237Y1226D01*
X2223Y1226D02*
X2230Y1226D01*
X1230Y1225D02*
X1237Y1225D01*
X2223Y1225D02*
X2230Y1225D01*
X1229Y1224D02*
X1237Y1224D01*
X2223Y1224D02*
X2231Y1224D01*
X1229Y1223D02*
X1236Y1223D01*
X2224Y1223D02*
X2231Y1223D01*
X1229Y1222D02*
X1236Y1222D01*
X2224Y1222D02*
X2231Y1222D01*
X1229Y1221D02*
X1236Y1221D01*
X2224Y1221D02*
X2231Y1221D01*
X1229Y1220D02*
X1236Y1220D01*
X2224Y1220D02*
X2231Y1220D01*
X1229Y1219D02*
X1236Y1219D01*
X2224Y1219D02*
X2231Y1219D01*
X1228Y1218D02*
X1236Y1218D01*
X2224Y1218D02*
X2232Y1218D01*
X1228Y1217D02*
X1235Y1217D01*
X2225Y1217D02*
X2232Y1217D01*
X1228Y1216D02*
X1235Y1216D01*
X2225Y1216D02*
X2232Y1216D01*
X1228Y1215D02*
X1235Y1215D01*
X2225Y1215D02*
X2232Y1215D01*
X1228Y1214D02*
X1235Y1214D01*
X2225Y1214D02*
X2232Y1214D01*
X1228Y1213D02*
X1235Y1213D01*
X2225Y1213D02*
X2232Y1213D01*
X1228Y1212D02*
X1235Y1212D01*
X2225Y1212D02*
X2232Y1212D01*
X1228Y1211D02*
X1235Y1211D01*
X2225Y1211D02*
X2232Y1211D01*
X1227Y1210D02*
X1235Y1210D01*
X2226Y1210D02*
X2233Y1210D01*
X1227Y1209D02*
X1234Y1209D01*
X2226Y1209D02*
X2233Y1209D01*
X1227Y1208D02*
X1234Y1208D01*
X2226Y1208D02*
X2233Y1208D01*
X1227Y1207D02*
X1234Y1207D01*
X2226Y1207D02*
X2233Y1207D01*
X1227Y1206D02*
X1234Y1206D01*
X2226Y1206D02*
X2233Y1206D01*
X1227Y1205D02*
X1234Y1205D01*
X2226Y1205D02*
X2233Y1205D01*
X1227Y1204D02*
X1234Y1204D01*
X2226Y1204D02*
X2233Y1204D01*
X1227Y1203D02*
X1234Y1203D01*
X2226Y1203D02*
X2233Y1203D01*
X1227Y1202D02*
X1234Y1202D01*
X2226Y1202D02*
X2233Y1202D01*
X1227Y1201D02*
X1234Y1201D01*
X2226Y1201D02*
X2233Y1201D01*
X1227Y1200D02*
X1234Y1200D01*
X2226Y1200D02*
X2233Y1200D01*
X1227Y1199D02*
X1234Y1199D01*
X2226Y1199D02*
X2233Y1199D01*
X1227Y1198D02*
X1234Y1198D01*
X2226Y1198D02*
X2233Y1198D01*
X1227Y1197D02*
X1234Y1197D01*
X2226Y1197D02*
X2233Y1197D01*
X1227Y1196D02*
X1234Y1196D01*
X2226Y1196D02*
X2233Y1196D01*
X1227Y1195D02*
X1234Y1195D01*
X2226Y1195D02*
X2233Y1195D01*
X1227Y1194D02*
X1234Y1194D01*
X2226Y1194D02*
X2233Y1194D01*
X1227Y1193D02*
X1234Y1193D01*
X2226Y1193D02*
X2233Y1193D01*
X1227Y1192D02*
X1234Y1192D01*
X2226Y1192D02*
X2233Y1192D01*
X1227Y1191D02*
X1234Y1191D01*
X2226Y1191D02*
X2233Y1191D01*
X1227Y1190D02*
X1234Y1190D01*
X2226Y1190D02*
X2233Y1190D01*
X1227Y1189D02*
X1234Y1189D01*
X2226Y1189D02*
X2233Y1189D01*
X1227Y1188D02*
X1234Y1188D01*
X2226Y1188D02*
X2233Y1188D01*
X1227Y1187D02*
X1234Y1187D01*
X2226Y1187D02*
X2233Y1187D01*
X1227Y1186D02*
X1234Y1186D01*
X2226Y1186D02*
X2233Y1186D01*
X1227Y1185D02*
X1234Y1185D01*
X2226Y1185D02*
X2233Y1185D01*
X1227Y1184D02*
X1234Y1184D01*
X2226Y1184D02*
X2233Y1184D01*
X1227Y1183D02*
X1234Y1183D01*
X2226Y1183D02*
X2233Y1183D01*
X1227Y1182D02*
X1234Y1182D01*
X2226Y1182D02*
X2233Y1182D01*
X1227Y1181D02*
X1234Y1181D01*
X2226Y1181D02*
X2233Y1181D01*
X1227Y1180D02*
X1234Y1180D01*
X2226Y1180D02*
X2233Y1180D01*
X1227Y1179D02*
X1234Y1179D01*
X2226Y1179D02*
X2233Y1179D01*
X1227Y1178D02*
X1234Y1178D01*
X2226Y1178D02*
X2233Y1178D01*
X1227Y1177D02*
X1234Y1177D01*
X2226Y1177D02*
X2233Y1177D01*
X1227Y1176D02*
X1234Y1176D01*
X2226Y1176D02*
X2233Y1176D01*
X1227Y1175D02*
X1234Y1175D01*
X2226Y1175D02*
X2233Y1175D01*
X1227Y1174D02*
X1234Y1174D01*
X2226Y1174D02*
X2233Y1174D01*
X1227Y1173D02*
X1234Y1173D01*
X2226Y1173D02*
X2233Y1173D01*
X1227Y1172D02*
X1234Y1172D01*
X2226Y1172D02*
X2233Y1172D01*
X1227Y1171D02*
X1234Y1171D01*
X2226Y1171D02*
X2233Y1171D01*
X1227Y1170D02*
X1234Y1170D01*
X2226Y1170D02*
X2233Y1170D01*
X1227Y1169D02*
X1234Y1169D01*
X2226Y1169D02*
X2233Y1169D01*
X1227Y1168D02*
X1234Y1168D01*
X2226Y1168D02*
X2233Y1168D01*
X1227Y1167D02*
X1234Y1167D01*
X2226Y1167D02*
X2233Y1167D01*
X1227Y1166D02*
X1234Y1166D01*
X2226Y1166D02*
X2233Y1166D01*
X1227Y1165D02*
X1234Y1165D01*
X2226Y1165D02*
X2233Y1165D01*
X1227Y1164D02*
X1234Y1164D01*
X2226Y1164D02*
X2233Y1164D01*
X1227Y1163D02*
X1234Y1163D01*
X2226Y1163D02*
X2233Y1163D01*
X1227Y1162D02*
X1234Y1162D01*
X2226Y1162D02*
X2233Y1162D01*
X1227Y1161D02*
X1234Y1161D01*
X2226Y1161D02*
X2233Y1161D01*
X1227Y1160D02*
X1234Y1160D01*
X2226Y1160D02*
X2233Y1160D01*
X1227Y1159D02*
X1234Y1159D01*
X2226Y1159D02*
X2233Y1159D01*
X1227Y1158D02*
X1234Y1158D01*
X2226Y1158D02*
X2233Y1158D01*
X1227Y1157D02*
X1234Y1157D01*
X2226Y1157D02*
X2233Y1157D01*
X1227Y1156D02*
X1234Y1156D01*
X2226Y1156D02*
X2233Y1156D01*
X1227Y1155D02*
X1234Y1155D01*
X2226Y1155D02*
X2233Y1155D01*
X1227Y1154D02*
X1234Y1154D01*
X2226Y1154D02*
X2233Y1154D01*
X1227Y1153D02*
X1234Y1153D01*
X2226Y1153D02*
X2233Y1153D01*
X1227Y1152D02*
X1234Y1152D01*
X2226Y1152D02*
X2233Y1152D01*
X1227Y1151D02*
X1234Y1151D01*
X2226Y1151D02*
X2233Y1151D01*
X1227Y1150D02*
X1234Y1150D01*
X2226Y1150D02*
X2233Y1150D01*
X1227Y1149D02*
X1234Y1149D01*
X2226Y1149D02*
X2233Y1149D01*
X1227Y1148D02*
X1234Y1148D01*
X2226Y1148D02*
X2233Y1148D01*
X1227Y1147D02*
X1234Y1147D01*
X2226Y1147D02*
X2233Y1147D01*
X1227Y1146D02*
X1234Y1146D01*
X2226Y1146D02*
X2233Y1146D01*
X1227Y1145D02*
X1234Y1145D01*
X2226Y1145D02*
X2233Y1145D01*
X1227Y1144D02*
X1234Y1144D01*
X2226Y1144D02*
X2233Y1144D01*
X1227Y1143D02*
X1234Y1143D01*
X2226Y1143D02*
X2233Y1143D01*
X1227Y1142D02*
X1234Y1142D01*
X2226Y1142D02*
X2233Y1142D01*
X1227Y1141D02*
X1234Y1141D01*
X2226Y1141D02*
X2233Y1141D01*
X1227Y1140D02*
X1234Y1140D01*
X2226Y1140D02*
X2233Y1140D01*
X1227Y1139D02*
X1234Y1139D01*
X2226Y1139D02*
X2233Y1139D01*
X1227Y1138D02*
X1234Y1138D01*
X2226Y1138D02*
X2233Y1138D01*
X1227Y1137D02*
X1234Y1137D01*
X2226Y1137D02*
X2233Y1137D01*
X1227Y1136D02*
X1234Y1136D01*
X2226Y1136D02*
X2233Y1136D01*
X1227Y1135D02*
X1234Y1135D01*
X2226Y1135D02*
X2233Y1135D01*
X1227Y1134D02*
X1234Y1134D01*
X2226Y1134D02*
X2233Y1134D01*
X1227Y1133D02*
X1234Y1133D01*
X2226Y1133D02*
X2233Y1133D01*
X1227Y1132D02*
X1234Y1132D01*
X2226Y1132D02*
X2233Y1132D01*
X1227Y1131D02*
X1234Y1131D01*
X2226Y1131D02*
X2233Y1131D01*
X1227Y1130D02*
X1234Y1130D01*
X2226Y1130D02*
X2233Y1130D01*
X1227Y1129D02*
X1234Y1129D01*
X2226Y1129D02*
X2233Y1129D01*
X1227Y1128D02*
X1234Y1128D01*
X2101Y1128D02*
X2104Y1128D01*
X2226Y1128D02*
X2233Y1128D01*
X1227Y1127D02*
X1234Y1127D01*
X2101Y1127D02*
X2105Y1127D01*
X2226Y1127D02*
X2233Y1127D01*
X1227Y1126D02*
X1234Y1126D01*
X2100Y1126D02*
X2105Y1126D01*
X2226Y1126D02*
X2233Y1126D01*
X1227Y1125D02*
X1234Y1125D01*
X2100Y1125D02*
X2105Y1125D01*
X2226Y1125D02*
X2233Y1125D01*
X1227Y1124D02*
X1234Y1124D01*
X2100Y1124D02*
X2105Y1124D01*
X2226Y1124D02*
X2233Y1124D01*
X1227Y1123D02*
X1234Y1123D01*
X2100Y1123D02*
X2105Y1123D01*
X2226Y1123D02*
X2233Y1123D01*
X1227Y1122D02*
X1234Y1122D01*
X2100Y1122D02*
X2105Y1122D01*
X2226Y1122D02*
X2233Y1122D01*
X1227Y1121D02*
X1234Y1121D01*
X2100Y1121D02*
X2105Y1121D01*
X2226Y1121D02*
X2233Y1121D01*
X1227Y1120D02*
X1234Y1120D01*
X2100Y1120D02*
X2105Y1120D01*
X2226Y1120D02*
X2233Y1120D01*
X1227Y1119D02*
X1234Y1119D01*
X2100Y1119D02*
X2105Y1119D01*
X2226Y1119D02*
X2233Y1119D01*
X1227Y1118D02*
X1234Y1118D01*
X2070Y1118D02*
X2105Y1118D01*
X2226Y1118D02*
X2233Y1118D01*
X1227Y1117D02*
X1234Y1117D01*
X2069Y1117D02*
X2105Y1117D01*
X2226Y1117D02*
X2233Y1117D01*
X1227Y1116D02*
X1234Y1116D01*
X2069Y1116D02*
X2105Y1116D01*
X2226Y1116D02*
X2233Y1116D01*
X1227Y1115D02*
X1234Y1115D01*
X2069Y1115D02*
X2105Y1115D01*
X2226Y1115D02*
X2233Y1115D01*
X1227Y1114D02*
X1234Y1114D01*
X2070Y1114D02*
X2105Y1114D01*
X2226Y1114D02*
X2233Y1114D01*
X1227Y1113D02*
X1234Y1113D01*
X2100Y1113D02*
X2105Y1113D01*
X2226Y1113D02*
X2233Y1113D01*
X1227Y1112D02*
X1234Y1112D01*
X1356Y1112D02*
X1360Y1112D01*
X1387Y1112D02*
X1390Y1112D01*
X2100Y1112D02*
X2105Y1112D01*
X2226Y1112D02*
X2233Y1112D01*
X1227Y1111D02*
X1234Y1111D01*
X1356Y1111D02*
X1361Y1111D01*
X1385Y1111D02*
X1390Y1111D01*
X2100Y1111D02*
X2105Y1111D01*
X2226Y1111D02*
X2233Y1111D01*
X1227Y1110D02*
X1234Y1110D01*
X1356Y1110D02*
X1363Y1110D01*
X1384Y1110D02*
X1391Y1110D01*
X2100Y1110D02*
X2105Y1110D01*
X2226Y1110D02*
X2233Y1110D01*
X1227Y1109D02*
X1234Y1109D01*
X1356Y1109D02*
X1364Y1109D01*
X1382Y1109D02*
X1390Y1109D01*
X2100Y1109D02*
X2105Y1109D01*
X2226Y1109D02*
X2233Y1109D01*
X1227Y1108D02*
X1234Y1108D01*
X1357Y1108D02*
X1366Y1108D01*
X1381Y1108D02*
X1389Y1108D01*
X2100Y1108D02*
X2105Y1108D01*
X2226Y1108D02*
X2233Y1108D01*
X1227Y1107D02*
X1234Y1107D01*
X1358Y1107D02*
X1367Y1107D01*
X1379Y1107D02*
X1388Y1107D01*
X2100Y1107D02*
X2105Y1107D01*
X2226Y1107D02*
X2233Y1107D01*
X1227Y1106D02*
X1234Y1106D01*
X1360Y1106D02*
X1369Y1106D01*
X1378Y1106D02*
X1387Y1106D01*
X2100Y1106D02*
X2105Y1106D01*
X2226Y1106D02*
X2233Y1106D01*
X1227Y1105D02*
X1234Y1105D01*
X1361Y1105D02*
X1370Y1105D01*
X1376Y1105D02*
X1385Y1105D01*
X2100Y1105D02*
X2105Y1105D01*
X2226Y1105D02*
X2233Y1105D01*
X1227Y1104D02*
X1234Y1104D01*
X1363Y1104D02*
X1372Y1104D01*
X1375Y1104D02*
X1384Y1104D01*
X2101Y1104D02*
X2105Y1104D01*
X2226Y1104D02*
X2233Y1104D01*
X1227Y1103D02*
X1234Y1103D01*
X1364Y1103D02*
X1382Y1103D01*
X2102Y1103D02*
X2104Y1103D01*
X2226Y1103D02*
X2233Y1103D01*
X1227Y1102D02*
X1234Y1102D01*
X1366Y1102D02*
X1381Y1102D01*
X2226Y1102D02*
X2233Y1102D01*
X1227Y1101D02*
X1234Y1101D01*
X1367Y1101D02*
X1379Y1101D01*
X2226Y1101D02*
X2233Y1101D01*
X1227Y1100D02*
X1234Y1100D01*
X1368Y1100D02*
X1378Y1100D01*
X2226Y1100D02*
X2233Y1100D01*
X1227Y1099D02*
X1234Y1099D01*
X1367Y1099D02*
X1379Y1099D01*
X2226Y1099D02*
X2233Y1099D01*
X1227Y1098D02*
X1234Y1098D01*
X1366Y1098D02*
X1380Y1098D01*
X2226Y1098D02*
X2233Y1098D01*
X1227Y1097D02*
X1234Y1097D01*
X1364Y1097D02*
X1382Y1097D01*
X2075Y1097D02*
X2083Y1097D01*
X2097Y1097D02*
X2098Y1097D01*
X2226Y1097D02*
X2233Y1097D01*
X1227Y1096D02*
X1234Y1096D01*
X1363Y1096D02*
X1372Y1096D01*
X1374Y1096D02*
X1383Y1096D01*
X2074Y1096D02*
X2084Y1096D01*
X2095Y1096D02*
X2099Y1096D01*
X2226Y1096D02*
X2233Y1096D01*
X1227Y1095D02*
X1234Y1095D01*
X1361Y1095D02*
X1370Y1095D01*
X1376Y1095D02*
X1385Y1095D01*
X2074Y1095D02*
X2085Y1095D01*
X2095Y1095D02*
X2100Y1095D01*
X2226Y1095D02*
X2233Y1095D01*
X1227Y1094D02*
X1234Y1094D01*
X1360Y1094D02*
X1369Y1094D01*
X1377Y1094D02*
X1386Y1094D01*
X2073Y1094D02*
X2086Y1094D01*
X2095Y1094D02*
X2101Y1094D01*
X2226Y1094D02*
X2233Y1094D01*
X1227Y1093D02*
X1234Y1093D01*
X1358Y1093D02*
X1367Y1093D01*
X1379Y1093D02*
X1388Y1093D01*
X2072Y1093D02*
X2086Y1093D01*
X2095Y1093D02*
X2102Y1093D01*
X2226Y1093D02*
X2233Y1093D01*
X1227Y1092D02*
X1234Y1092D01*
X1357Y1092D02*
X1366Y1092D01*
X1380Y1092D02*
X1389Y1092D01*
X2071Y1092D02*
X2087Y1092D01*
X2096Y1092D02*
X2103Y1092D01*
X2226Y1092D02*
X2233Y1092D01*
X1227Y1091D02*
X1234Y1091D01*
X1356Y1091D02*
X1364Y1091D01*
X1382Y1091D02*
X1390Y1091D01*
X2069Y1091D02*
X2077Y1091D01*
X2082Y1091D02*
X2088Y1091D01*
X2097Y1091D02*
X2104Y1091D01*
X2226Y1091D02*
X2233Y1091D01*
X1227Y1090D02*
X1234Y1090D01*
X1356Y1090D02*
X1363Y1090D01*
X1383Y1090D02*
X1391Y1090D01*
X2069Y1090D02*
X2076Y1090D01*
X2083Y1090D02*
X2089Y1090D01*
X2098Y1090D02*
X2105Y1090D01*
X2226Y1090D02*
X2233Y1090D01*
X1227Y1089D02*
X1234Y1089D01*
X1356Y1089D02*
X1361Y1089D01*
X1385Y1089D02*
X1391Y1089D01*
X2069Y1089D02*
X2075Y1089D01*
X2083Y1089D02*
X2089Y1089D01*
X2099Y1089D02*
X2105Y1089D01*
X2226Y1089D02*
X2233Y1089D01*
X1227Y1088D02*
X1234Y1088D01*
X1356Y1088D02*
X1360Y1088D01*
X1386Y1088D02*
X1390Y1088D01*
X2069Y1088D02*
X2074Y1088D01*
X2084Y1088D02*
X2089Y1088D01*
X2100Y1088D02*
X2105Y1088D01*
X2226Y1088D02*
X2233Y1088D01*
X1227Y1087D02*
X1234Y1087D01*
X1358Y1087D02*
X1358Y1087D01*
X1388Y1087D02*
X1389Y1087D01*
X2069Y1087D02*
X2074Y1087D01*
X2084Y1087D02*
X2089Y1087D01*
X2100Y1087D02*
X2105Y1087D01*
X2226Y1087D02*
X2233Y1087D01*
X1227Y1086D02*
X1234Y1086D01*
X2069Y1086D02*
X2074Y1086D01*
X2084Y1086D02*
X2089Y1086D01*
X2100Y1086D02*
X2105Y1086D01*
X2226Y1086D02*
X2233Y1086D01*
X1227Y1085D02*
X1234Y1085D01*
X2069Y1085D02*
X2074Y1085D01*
X2084Y1085D02*
X2089Y1085D01*
X2100Y1085D02*
X2105Y1085D01*
X2226Y1085D02*
X2233Y1085D01*
X1227Y1084D02*
X1234Y1084D01*
X2069Y1084D02*
X2074Y1084D01*
X2084Y1084D02*
X2089Y1084D01*
X2100Y1084D02*
X2105Y1084D01*
X2226Y1084D02*
X2233Y1084D01*
X1227Y1083D02*
X1234Y1083D01*
X2069Y1083D02*
X2074Y1083D01*
X2084Y1083D02*
X2089Y1083D01*
X2100Y1083D02*
X2105Y1083D01*
X2226Y1083D02*
X2233Y1083D01*
X1227Y1082D02*
X1234Y1082D01*
X2069Y1082D02*
X2074Y1082D01*
X2084Y1082D02*
X2089Y1082D01*
X2100Y1082D02*
X2105Y1082D01*
X2226Y1082D02*
X2233Y1082D01*
X1227Y1081D02*
X1234Y1081D01*
X1387Y1081D02*
X1390Y1081D01*
X2069Y1081D02*
X2074Y1081D01*
X2084Y1081D02*
X2089Y1081D01*
X2100Y1081D02*
X2105Y1081D01*
X2226Y1081D02*
X2233Y1081D01*
X1227Y1080D02*
X1234Y1080D01*
X1386Y1080D02*
X1390Y1080D01*
X2069Y1080D02*
X2074Y1080D01*
X2084Y1080D02*
X2089Y1080D01*
X2100Y1080D02*
X2105Y1080D01*
X2226Y1080D02*
X2233Y1080D01*
X1227Y1079D02*
X1234Y1079D01*
X1386Y1079D02*
X1391Y1079D01*
X2069Y1079D02*
X2075Y1079D01*
X2084Y1079D02*
X2090Y1079D01*
X2099Y1079D02*
X2105Y1079D01*
X2226Y1079D02*
X2233Y1079D01*
X1227Y1078D02*
X1234Y1078D01*
X1386Y1078D02*
X1391Y1078D01*
X2069Y1078D02*
X2076Y1078D01*
X2084Y1078D02*
X2091Y1078D01*
X2098Y1078D02*
X2105Y1078D01*
X2226Y1078D02*
X2233Y1078D01*
X1227Y1077D02*
X1234Y1077D01*
X1386Y1077D02*
X1391Y1077D01*
X2070Y1077D02*
X2077Y1077D01*
X2085Y1077D02*
X2092Y1077D01*
X2097Y1077D02*
X2104Y1077D01*
X2226Y1077D02*
X2233Y1077D01*
X1227Y1076D02*
X1234Y1076D01*
X1386Y1076D02*
X1391Y1076D01*
X2071Y1076D02*
X2078Y1076D01*
X2086Y1076D02*
X2103Y1076D01*
X2226Y1076D02*
X2233Y1076D01*
X1227Y1075D02*
X1234Y1075D01*
X1386Y1075D02*
X1391Y1075D01*
X2072Y1075D02*
X2079Y1075D01*
X2087Y1075D02*
X2102Y1075D01*
X2226Y1075D02*
X2233Y1075D01*
X1227Y1074D02*
X1234Y1074D01*
X1386Y1074D02*
X1391Y1074D01*
X2073Y1074D02*
X2079Y1074D01*
X2088Y1074D02*
X2101Y1074D01*
X2226Y1074D02*
X2233Y1074D01*
X1227Y1073D02*
X1234Y1073D01*
X1386Y1073D02*
X1391Y1073D01*
X2074Y1073D02*
X2079Y1073D01*
X2089Y1073D02*
X2100Y1073D01*
X2226Y1073D02*
X2233Y1073D01*
X1227Y1072D02*
X1234Y1072D01*
X1386Y1072D02*
X1391Y1072D01*
X2075Y1072D02*
X2078Y1072D01*
X2090Y1072D02*
X2099Y1072D01*
X2226Y1072D02*
X2233Y1072D01*
X1227Y1071D02*
X1234Y1071D01*
X1386Y1071D02*
X1391Y1071D01*
X2092Y1071D02*
X2092Y1071D01*
X2097Y1071D02*
X2097Y1071D01*
X2226Y1071D02*
X2233Y1071D01*
X1227Y1070D02*
X1234Y1070D01*
X1356Y1070D02*
X1391Y1070D01*
X2226Y1070D02*
X2233Y1070D01*
X1227Y1069D02*
X1234Y1069D01*
X1356Y1069D02*
X1391Y1069D01*
X2226Y1069D02*
X2233Y1069D01*
X1227Y1068D02*
X1234Y1068D01*
X1356Y1068D02*
X1391Y1068D01*
X2226Y1068D02*
X2233Y1068D01*
X1227Y1067D02*
X1234Y1067D01*
X1356Y1067D02*
X1391Y1067D01*
X2226Y1067D02*
X2233Y1067D01*
X1227Y1066D02*
X1234Y1066D01*
X1357Y1066D02*
X1391Y1066D01*
X2086Y1066D02*
X2087Y1066D01*
X2096Y1066D02*
X2098Y1066D01*
X2226Y1066D02*
X2233Y1066D01*
X1227Y1065D02*
X1234Y1065D01*
X1386Y1065D02*
X1391Y1065D01*
X2070Y1065D02*
X2073Y1065D01*
X2085Y1065D02*
X2099Y1065D01*
X2226Y1065D02*
X2233Y1065D01*
X1227Y1064D02*
X1234Y1064D01*
X1386Y1064D02*
X1391Y1064D01*
X2069Y1064D02*
X2074Y1064D01*
X2084Y1064D02*
X2100Y1064D01*
X2226Y1064D02*
X2233Y1064D01*
X1227Y1063D02*
X1234Y1063D01*
X1386Y1063D02*
X1391Y1063D01*
X2069Y1063D02*
X2075Y1063D01*
X2083Y1063D02*
X2101Y1063D01*
X2226Y1063D02*
X2233Y1063D01*
X1227Y1062D02*
X1234Y1062D01*
X1386Y1062D02*
X1391Y1062D01*
X2069Y1062D02*
X2076Y1062D01*
X2082Y1062D02*
X2102Y1062D01*
X2226Y1062D02*
X2233Y1062D01*
X1227Y1061D02*
X1234Y1061D01*
X1386Y1061D02*
X1391Y1061D01*
X2070Y1061D02*
X2077Y1061D01*
X2082Y1061D02*
X2103Y1061D01*
X2226Y1061D02*
X2233Y1061D01*
X1227Y1060D02*
X1234Y1060D01*
X1386Y1060D02*
X1391Y1060D01*
X2071Y1060D02*
X2078Y1060D01*
X2081Y1060D02*
X2087Y1060D01*
X2097Y1060D02*
X2104Y1060D01*
X2226Y1060D02*
X2233Y1060D01*
X1227Y1059D02*
X1234Y1059D01*
X1386Y1059D02*
X1391Y1059D01*
X2072Y1059D02*
X2086Y1059D01*
X2098Y1059D02*
X2105Y1059D01*
X2226Y1059D02*
X2233Y1059D01*
X1227Y1058D02*
X1234Y1058D01*
X1386Y1058D02*
X1391Y1058D01*
X2073Y1058D02*
X2085Y1058D01*
X2099Y1058D02*
X2105Y1058D01*
X2226Y1058D02*
X2233Y1058D01*
X1227Y1057D02*
X1234Y1057D01*
X1386Y1057D02*
X1390Y1057D01*
X2074Y1057D02*
X2085Y1057D01*
X2100Y1057D02*
X2105Y1057D01*
X2226Y1057D02*
X2233Y1057D01*
X1227Y1056D02*
X1234Y1056D01*
X1387Y1056D02*
X1389Y1056D01*
X2075Y1056D02*
X2084Y1056D01*
X2100Y1056D02*
X2105Y1056D01*
X2226Y1056D02*
X2233Y1056D01*
X1227Y1055D02*
X1234Y1055D01*
X2076Y1055D02*
X2084Y1055D01*
X2100Y1055D02*
X2105Y1055D01*
X2226Y1055D02*
X2233Y1055D01*
X1227Y1054D02*
X1234Y1054D01*
X2077Y1054D02*
X2084Y1054D01*
X2100Y1054D02*
X2105Y1054D01*
X2226Y1054D02*
X2233Y1054D01*
X1227Y1053D02*
X1234Y1053D01*
X2078Y1053D02*
X2084Y1053D01*
X2100Y1053D02*
X2105Y1053D01*
X2226Y1053D02*
X2233Y1053D01*
X1227Y1052D02*
X1234Y1052D01*
X2079Y1052D02*
X2084Y1052D01*
X2100Y1052D02*
X2105Y1052D01*
X2226Y1052D02*
X2233Y1052D01*
X1227Y1051D02*
X1234Y1051D01*
X2080Y1051D02*
X2084Y1051D01*
X2100Y1051D02*
X2105Y1051D01*
X2226Y1051D02*
X2233Y1051D01*
X1227Y1050D02*
X1234Y1050D01*
X2080Y1050D02*
X2084Y1050D01*
X2100Y1050D02*
X2105Y1050D01*
X2226Y1050D02*
X2233Y1050D01*
X1227Y1049D02*
X1234Y1049D01*
X2080Y1049D02*
X2084Y1049D01*
X2100Y1049D02*
X2105Y1049D01*
X2226Y1049D02*
X2233Y1049D01*
X1227Y1048D02*
X1234Y1048D01*
X2080Y1048D02*
X2084Y1048D01*
X2100Y1048D02*
X2105Y1048D01*
X2226Y1048D02*
X2233Y1048D01*
X1227Y1047D02*
X1234Y1047D01*
X2080Y1047D02*
X2084Y1047D01*
X2100Y1047D02*
X2105Y1047D01*
X2226Y1047D02*
X2233Y1047D01*
X1227Y1046D02*
X1234Y1046D01*
X2080Y1046D02*
X2084Y1046D01*
X2100Y1046D02*
X2105Y1046D01*
X2226Y1046D02*
X2233Y1046D01*
X1227Y1045D02*
X1234Y1045D01*
X2071Y1045D02*
X2105Y1045D01*
X2226Y1045D02*
X2233Y1045D01*
X1227Y1044D02*
X1234Y1044D01*
X2069Y1044D02*
X2105Y1044D01*
X2226Y1044D02*
X2233Y1044D01*
X1227Y1043D02*
X1234Y1043D01*
X2069Y1043D02*
X2105Y1043D01*
X2226Y1043D02*
X2233Y1043D01*
X1227Y1042D02*
X1234Y1042D01*
X2069Y1042D02*
X2105Y1042D01*
X2226Y1042D02*
X2233Y1042D01*
X1227Y1041D02*
X1234Y1041D01*
X2069Y1041D02*
X2105Y1041D01*
X2226Y1041D02*
X2233Y1041D01*
X1227Y1040D02*
X1234Y1040D01*
X2071Y1040D02*
X2104Y1040D01*
X2226Y1040D02*
X2233Y1040D01*
X1227Y1039D02*
X1234Y1039D01*
X2226Y1039D02*
X2233Y1039D01*
X1227Y1038D02*
X1234Y1038D01*
X2226Y1038D02*
X2233Y1038D01*
X1227Y1037D02*
X1234Y1037D01*
X2226Y1037D02*
X2233Y1037D01*
X1227Y1036D02*
X1234Y1036D01*
X2226Y1036D02*
X2233Y1036D01*
X1227Y1035D02*
X1234Y1035D01*
X2226Y1035D02*
X2233Y1035D01*
X1227Y1034D02*
X1234Y1034D01*
X2226Y1034D02*
X2233Y1034D01*
X1227Y1033D02*
X1234Y1033D01*
X2226Y1033D02*
X2233Y1033D01*
X1227Y1032D02*
X1234Y1032D01*
X2226Y1032D02*
X2233Y1032D01*
X1227Y1031D02*
X1234Y1031D01*
X2226Y1031D02*
X2233Y1031D01*
X1227Y1030D02*
X1234Y1030D01*
X2226Y1030D02*
X2233Y1030D01*
X1227Y1029D02*
X1234Y1029D01*
X2226Y1029D02*
X2233Y1029D01*
X1227Y1028D02*
X1234Y1028D01*
X2226Y1028D02*
X2233Y1028D01*
X1227Y1027D02*
X1234Y1027D01*
X2226Y1027D02*
X2233Y1027D01*
X1227Y1026D02*
X1234Y1026D01*
X2226Y1026D02*
X2233Y1026D01*
X1227Y1025D02*
X1234Y1025D01*
X2226Y1025D02*
X2233Y1025D01*
X1227Y1024D02*
X1234Y1024D01*
X2226Y1024D02*
X2233Y1024D01*
X1227Y1023D02*
X1234Y1023D01*
X2226Y1023D02*
X2233Y1023D01*
X1227Y1022D02*
X1234Y1022D01*
X2226Y1022D02*
X2233Y1022D01*
X1227Y1021D02*
X1234Y1021D01*
X2226Y1021D02*
X2233Y1021D01*
X1227Y1020D02*
X1234Y1020D01*
X2226Y1020D02*
X2233Y1020D01*
X1227Y1019D02*
X1234Y1019D01*
X2226Y1019D02*
X2233Y1019D01*
X1227Y1018D02*
X1234Y1018D01*
X2226Y1018D02*
X2233Y1018D01*
X1227Y1017D02*
X1234Y1017D01*
X2226Y1017D02*
X2233Y1017D01*
X1227Y1016D02*
X1234Y1016D01*
X2226Y1016D02*
X2233Y1016D01*
X1227Y1015D02*
X1234Y1015D01*
X2226Y1015D02*
X2233Y1015D01*
X1227Y1014D02*
X1234Y1014D01*
X2226Y1014D02*
X2233Y1014D01*
X1227Y1013D02*
X1234Y1013D01*
X2076Y1013D02*
X2098Y1013D01*
X2226Y1013D02*
X2233Y1013D01*
X1227Y1012D02*
X1234Y1012D01*
X1356Y1012D02*
X1359Y1012D01*
X1387Y1012D02*
X1390Y1012D01*
X2074Y1012D02*
X2100Y1012D01*
X2226Y1012D02*
X2233Y1012D01*
X1227Y1011D02*
X1234Y1011D01*
X1355Y1011D02*
X1361Y1011D01*
X1385Y1011D02*
X1391Y1011D01*
X2074Y1011D02*
X2100Y1011D01*
X2226Y1011D02*
X2233Y1011D01*
X1227Y1010D02*
X1234Y1010D01*
X1355Y1010D02*
X1362Y1010D01*
X1384Y1010D02*
X1391Y1010D01*
X2073Y1010D02*
X2101Y1010D01*
X2226Y1010D02*
X2233Y1010D01*
X1227Y1009D02*
X1234Y1009D01*
X1356Y1009D02*
X1364Y1009D01*
X1382Y1009D02*
X1391Y1009D01*
X2072Y1009D02*
X2102Y1009D01*
X2226Y1009D02*
X2233Y1009D01*
X1227Y1008D02*
X1234Y1008D01*
X1356Y1008D02*
X1365Y1008D01*
X1381Y1008D02*
X1390Y1008D01*
X2071Y1008D02*
X2103Y1008D01*
X2226Y1008D02*
X2233Y1008D01*
X1227Y1007D02*
X1234Y1007D01*
X1358Y1007D02*
X1367Y1007D01*
X1379Y1007D02*
X1388Y1007D01*
X2070Y1007D02*
X2077Y1007D01*
X2091Y1007D02*
X2104Y1007D01*
X2226Y1007D02*
X2233Y1007D01*
X1227Y1006D02*
X1234Y1006D01*
X1359Y1006D02*
X1368Y1006D01*
X1378Y1006D02*
X1387Y1006D01*
X2069Y1006D02*
X2076Y1006D01*
X2090Y1006D02*
X2104Y1006D01*
X2226Y1006D02*
X2233Y1006D01*
X1227Y1005D02*
X1234Y1005D01*
X1361Y1005D02*
X1370Y1005D01*
X1376Y1005D02*
X1385Y1005D01*
X2069Y1005D02*
X2075Y1005D01*
X2089Y1005D02*
X2096Y1005D01*
X2099Y1005D02*
X2105Y1005D01*
X2226Y1005D02*
X2233Y1005D01*
X1227Y1004D02*
X1234Y1004D01*
X1362Y1004D02*
X1372Y1004D01*
X1375Y1004D02*
X1384Y1004D01*
X2069Y1004D02*
X2074Y1004D01*
X2088Y1004D02*
X2095Y1004D01*
X2100Y1004D02*
X2105Y1004D01*
X2226Y1004D02*
X2233Y1004D01*
X1227Y1003D02*
X1234Y1003D01*
X1364Y1003D02*
X1382Y1003D01*
X2069Y1003D02*
X2074Y1003D01*
X2087Y1003D02*
X2094Y1003D01*
X2100Y1003D02*
X2104Y1003D01*
X2226Y1003D02*
X2233Y1003D01*
X1227Y1002D02*
X1234Y1002D01*
X1365Y1002D02*
X1381Y1002D01*
X2069Y1002D02*
X2074Y1002D01*
X2086Y1002D02*
X2093Y1002D01*
X2100Y1002D02*
X2104Y1002D01*
X2226Y1002D02*
X2233Y1002D01*
X1227Y1001D02*
X1234Y1001D01*
X1367Y1001D02*
X1379Y1001D01*
X2069Y1001D02*
X2074Y1001D01*
X2084Y1001D02*
X2092Y1001D01*
X2100Y1001D02*
X2104Y1001D01*
X2226Y1001D02*
X2233Y1001D01*
X1227Y1000D02*
X1234Y1000D01*
X1368Y1000D02*
X1378Y1000D01*
X2069Y1000D02*
X2074Y1000D01*
X2083Y1000D02*
X2090Y1000D01*
X2100Y1000D02*
X2104Y1000D01*
X2226Y1000D02*
X2233Y1000D01*
X1227Y999D02*
X1234Y999D01*
X1367Y999D02*
X1379Y999D01*
X2069Y999D02*
X2074Y999D01*
X2082Y999D02*
X2089Y999D01*
X2100Y999D02*
X2104Y999D01*
X2226Y999D02*
X2233Y999D01*
X1227Y998D02*
X1234Y998D01*
X1366Y998D02*
X1381Y998D01*
X2069Y998D02*
X2074Y998D01*
X2081Y998D02*
X2088Y998D01*
X2100Y998D02*
X2104Y998D01*
X2226Y998D02*
X2233Y998D01*
X1227Y997D02*
X1234Y997D01*
X1364Y997D02*
X1382Y997D01*
X2069Y997D02*
X2074Y997D01*
X2080Y997D02*
X2087Y997D01*
X2100Y997D02*
X2104Y997D01*
X2226Y997D02*
X2233Y997D01*
X1227Y996D02*
X1234Y996D01*
X1362Y996D02*
X1372Y996D01*
X1375Y996D02*
X1384Y996D01*
X2069Y996D02*
X2074Y996D01*
X2079Y996D02*
X2086Y996D01*
X2100Y996D02*
X2105Y996D01*
X2226Y996D02*
X2233Y996D01*
X1227Y995D02*
X1234Y995D01*
X1361Y995D02*
X1370Y995D01*
X1376Y995D02*
X1385Y995D01*
X2069Y995D02*
X2075Y995D01*
X2078Y995D02*
X2085Y995D01*
X2099Y995D02*
X2105Y995D01*
X2226Y995D02*
X2233Y995D01*
X1227Y994D02*
X1234Y994D01*
X1359Y994D02*
X1369Y994D01*
X1378Y994D02*
X1387Y994D01*
X2069Y994D02*
X2084Y994D01*
X2098Y994D02*
X2104Y994D01*
X2226Y994D02*
X2233Y994D01*
X1227Y993D02*
X1234Y993D01*
X1358Y993D02*
X1367Y993D01*
X1379Y993D02*
X1388Y993D01*
X2070Y993D02*
X2083Y993D01*
X2097Y993D02*
X2104Y993D01*
X2226Y993D02*
X2233Y993D01*
X1227Y992D02*
X1234Y992D01*
X1356Y992D02*
X1366Y992D01*
X1381Y992D02*
X1390Y992D01*
X2071Y992D02*
X2103Y992D01*
X2226Y992D02*
X2233Y992D01*
X1227Y991D02*
X1234Y991D01*
X1356Y991D02*
X1364Y991D01*
X1382Y991D02*
X1391Y991D01*
X2072Y991D02*
X2102Y991D01*
X2226Y991D02*
X2233Y991D01*
X1227Y990D02*
X1234Y990D01*
X1355Y990D02*
X1362Y990D01*
X1384Y990D02*
X1391Y990D01*
X2073Y990D02*
X2101Y990D01*
X2226Y990D02*
X2233Y990D01*
X1227Y989D02*
X1234Y989D01*
X1355Y989D02*
X1361Y989D01*
X1385Y989D02*
X1391Y989D01*
X2074Y989D02*
X2100Y989D01*
X2226Y989D02*
X2233Y989D01*
X1227Y988D02*
X1234Y988D01*
X1356Y988D02*
X1359Y988D01*
X1387Y988D02*
X1390Y988D01*
X2074Y988D02*
X2100Y988D01*
X2226Y988D02*
X2233Y988D01*
X1227Y987D02*
X1234Y987D01*
X1357Y987D02*
X1357Y987D01*
X1389Y987D02*
X1389Y987D01*
X2075Y987D02*
X2098Y987D01*
X2226Y987D02*
X2233Y987D01*
X1227Y986D02*
X1234Y986D01*
X2226Y986D02*
X2233Y986D01*
X1227Y985D02*
X1234Y985D01*
X2226Y985D02*
X2233Y985D01*
X1227Y984D02*
X1234Y984D01*
X2226Y984D02*
X2233Y984D01*
X1227Y983D02*
X1234Y983D01*
X2226Y983D02*
X2233Y983D01*
X1227Y982D02*
X1234Y982D01*
X2226Y982D02*
X2233Y982D01*
X1227Y981D02*
X1234Y981D01*
X1356Y981D02*
X1359Y981D01*
X1371Y981D02*
X1385Y981D01*
X2070Y981D02*
X2094Y981D01*
X2226Y981D02*
X2233Y981D01*
X1227Y980D02*
X1234Y980D01*
X1355Y980D02*
X1360Y980D01*
X1370Y980D02*
X1386Y980D01*
X2070Y980D02*
X2095Y980D01*
X2226Y980D02*
X2233Y980D01*
X1227Y979D02*
X1234Y979D01*
X1355Y979D02*
X1361Y979D01*
X1370Y979D02*
X1387Y979D01*
X2069Y979D02*
X2095Y979D01*
X2226Y979D02*
X2233Y979D01*
X1227Y978D02*
X1234Y978D01*
X1355Y978D02*
X1362Y978D01*
X1369Y978D02*
X1388Y978D01*
X2070Y978D02*
X2096Y978D01*
X2226Y978D02*
X2233Y978D01*
X1227Y977D02*
X1234Y977D01*
X1356Y977D02*
X1363Y977D01*
X1368Y977D02*
X1389Y977D01*
X2070Y977D02*
X2097Y977D01*
X2226Y977D02*
X2233Y977D01*
X1227Y976D02*
X1234Y976D01*
X1357Y976D02*
X1364Y976D01*
X1367Y976D02*
X1374Y976D01*
X1382Y976D02*
X1390Y976D01*
X2084Y976D02*
X2098Y976D01*
X2226Y976D02*
X2233Y976D01*
X1227Y975D02*
X1234Y975D01*
X1358Y975D02*
X1373Y975D01*
X1384Y975D02*
X1391Y975D01*
X2085Y975D02*
X2089Y975D01*
X2093Y975D02*
X2099Y975D01*
X2226Y975D02*
X2233Y975D01*
X1227Y974D02*
X1234Y974D01*
X1359Y974D02*
X1372Y974D01*
X1385Y974D02*
X1391Y974D01*
X2085Y974D02*
X2089Y974D01*
X2093Y974D02*
X2100Y974D01*
X2226Y974D02*
X2233Y974D01*
X1227Y973D02*
X1234Y973D01*
X1360Y973D02*
X1371Y973D01*
X1386Y973D02*
X1391Y973D01*
X2085Y973D02*
X2089Y973D01*
X2094Y973D02*
X2101Y973D01*
X2226Y973D02*
X2233Y973D01*
X1227Y972D02*
X1234Y972D01*
X1361Y972D02*
X1371Y972D01*
X1386Y972D02*
X1391Y972D01*
X2085Y972D02*
X2089Y972D01*
X2095Y972D02*
X2102Y972D01*
X2226Y972D02*
X2233Y972D01*
X1227Y971D02*
X1234Y971D01*
X1362Y971D02*
X1370Y971D01*
X1387Y971D02*
X1391Y971D01*
X2085Y971D02*
X2089Y971D01*
X2096Y971D02*
X2103Y971D01*
X2226Y971D02*
X2233Y971D01*
X1227Y970D02*
X1234Y970D01*
X1363Y970D02*
X1370Y970D01*
X1387Y970D02*
X1391Y970D01*
X2085Y970D02*
X2089Y970D01*
X2097Y970D02*
X2104Y970D01*
X2226Y970D02*
X2233Y970D01*
X1227Y969D02*
X1234Y969D01*
X1364Y969D02*
X1371Y969D01*
X1387Y969D02*
X1391Y969D01*
X2085Y969D02*
X2089Y969D01*
X2098Y969D02*
X2104Y969D01*
X2226Y969D02*
X2233Y969D01*
X1227Y968D02*
X1234Y968D01*
X1365Y968D02*
X1371Y968D01*
X1387Y968D02*
X1391Y968D01*
X2085Y968D02*
X2089Y968D01*
X2098Y968D02*
X2105Y968D01*
X2226Y968D02*
X2233Y968D01*
X1227Y967D02*
X1234Y967D01*
X1366Y967D02*
X1371Y967D01*
X1387Y967D02*
X1391Y967D01*
X2085Y967D02*
X2089Y967D01*
X2098Y967D02*
X2104Y967D01*
X2226Y967D02*
X2233Y967D01*
X1227Y966D02*
X1234Y966D01*
X1366Y966D02*
X1370Y966D01*
X1387Y966D02*
X1391Y966D01*
X2085Y966D02*
X2089Y966D01*
X2097Y966D02*
X2104Y966D01*
X2226Y966D02*
X2233Y966D01*
X1227Y965D02*
X1234Y965D01*
X1366Y965D02*
X1370Y965D01*
X1387Y965D02*
X1391Y965D01*
X2085Y965D02*
X2089Y965D01*
X2096Y965D02*
X2102Y965D01*
X2226Y965D02*
X2233Y965D01*
X1227Y964D02*
X1234Y964D01*
X1366Y964D02*
X1370Y964D01*
X1387Y964D02*
X1391Y964D01*
X2085Y964D02*
X2089Y964D01*
X2095Y964D02*
X2101Y964D01*
X2226Y964D02*
X2233Y964D01*
X1227Y963D02*
X1234Y963D01*
X1366Y963D02*
X1370Y963D01*
X1387Y963D02*
X1391Y963D01*
X2085Y963D02*
X2089Y963D01*
X2094Y963D02*
X2100Y963D01*
X2226Y963D02*
X2233Y963D01*
X1227Y962D02*
X1234Y962D01*
X1366Y962D02*
X1370Y962D01*
X1387Y962D02*
X1391Y962D01*
X2085Y962D02*
X2089Y962D01*
X2093Y962D02*
X2099Y962D01*
X2226Y962D02*
X2233Y962D01*
X1227Y961D02*
X1234Y961D01*
X1358Y961D02*
X1391Y961D01*
X2072Y961D02*
X2098Y961D01*
X2226Y961D02*
X2233Y961D01*
X1227Y960D02*
X1234Y960D01*
X1356Y960D02*
X1391Y960D01*
X2070Y960D02*
X2097Y960D01*
X2226Y960D02*
X2233Y960D01*
X1227Y959D02*
X1234Y959D01*
X1355Y959D02*
X1391Y959D01*
X2070Y959D02*
X2096Y959D01*
X2226Y959D02*
X2233Y959D01*
X1227Y958D02*
X1234Y958D01*
X1355Y958D02*
X1391Y958D01*
X2069Y958D02*
X2095Y958D01*
X2226Y958D02*
X2233Y958D01*
X1227Y957D02*
X1234Y957D01*
X1356Y957D02*
X1391Y957D01*
X2070Y957D02*
X2095Y957D01*
X2226Y957D02*
X2233Y957D01*
X1227Y956D02*
X1234Y956D01*
X1356Y956D02*
X1390Y956D01*
X2071Y956D02*
X2094Y956D01*
X2226Y956D02*
X2233Y956D01*
X1227Y955D02*
X1234Y955D01*
X2226Y955D02*
X2233Y955D01*
X1227Y954D02*
X1234Y954D01*
X2226Y954D02*
X2233Y954D01*
X1227Y953D02*
X1234Y953D01*
X2226Y953D02*
X2233Y953D01*
X1227Y952D02*
X1234Y952D01*
X2226Y952D02*
X2233Y952D01*
X1227Y951D02*
X1234Y951D01*
X2226Y951D02*
X2233Y951D01*
X1227Y950D02*
X1234Y950D01*
X2226Y950D02*
X2233Y950D01*
X1227Y949D02*
X1234Y949D01*
X2226Y949D02*
X2233Y949D01*
X1227Y948D02*
X1234Y948D01*
X2226Y948D02*
X2233Y948D01*
X1227Y947D02*
X1234Y947D01*
X2226Y947D02*
X2233Y947D01*
X1227Y946D02*
X1234Y946D01*
X2226Y946D02*
X2233Y946D01*
X1227Y945D02*
X1234Y945D01*
X2226Y945D02*
X2233Y945D01*
X1227Y944D02*
X1234Y944D01*
X2226Y944D02*
X2233Y944D01*
X1227Y943D02*
X1234Y943D01*
X2226Y943D02*
X2233Y943D01*
X1227Y942D02*
X1234Y942D01*
X2226Y942D02*
X2233Y942D01*
X1227Y941D02*
X1234Y941D01*
X2226Y941D02*
X2233Y941D01*
X1227Y940D02*
X1234Y940D01*
X2226Y940D02*
X2233Y940D01*
X1227Y939D02*
X1234Y939D01*
X2226Y939D02*
X2233Y939D01*
X1227Y938D02*
X1234Y938D01*
X2226Y938D02*
X2233Y938D01*
X1227Y937D02*
X1234Y937D01*
X2226Y937D02*
X2233Y937D01*
X1227Y936D02*
X1234Y936D01*
X2226Y936D02*
X2233Y936D01*
X1227Y935D02*
X1234Y935D01*
X2226Y935D02*
X2233Y935D01*
X1227Y934D02*
X1234Y934D01*
X2226Y934D02*
X2233Y934D01*
X1227Y933D02*
X1234Y933D01*
X2226Y933D02*
X2233Y933D01*
X1227Y932D02*
X1234Y932D01*
X2226Y932D02*
X2233Y932D01*
X1227Y931D02*
X1234Y931D01*
X2226Y931D02*
X2233Y931D01*
X1227Y930D02*
X1234Y930D01*
X2226Y930D02*
X2233Y930D01*
X1227Y929D02*
X1234Y929D01*
X2226Y929D02*
X2233Y929D01*
X1227Y928D02*
X1234Y928D01*
X2226Y928D02*
X2233Y928D01*
X1227Y927D02*
X1234Y927D01*
X2226Y927D02*
X2233Y927D01*
X1227Y926D02*
X1234Y926D01*
X2226Y926D02*
X2233Y926D01*
X1227Y925D02*
X1234Y925D01*
X2226Y925D02*
X2233Y925D01*
X1227Y924D02*
X1234Y924D01*
X2226Y924D02*
X2233Y924D01*
X1227Y923D02*
X1234Y923D01*
X2226Y923D02*
X2233Y923D01*
X1227Y922D02*
X1234Y922D01*
X2226Y922D02*
X2233Y922D01*
X1227Y921D02*
X1234Y921D01*
X2226Y921D02*
X2233Y921D01*
X1227Y920D02*
X1234Y920D01*
X2226Y920D02*
X2233Y920D01*
X1227Y919D02*
X1234Y919D01*
X2226Y919D02*
X2233Y919D01*
X1227Y918D02*
X1234Y918D01*
X2226Y918D02*
X2233Y918D01*
X1227Y917D02*
X1234Y917D01*
X2226Y917D02*
X2233Y917D01*
X1227Y916D02*
X1234Y916D01*
X2226Y916D02*
X2233Y916D01*
X1227Y915D02*
X1234Y915D01*
X2226Y915D02*
X2233Y915D01*
X1227Y914D02*
X1234Y914D01*
X2226Y914D02*
X2233Y914D01*
X1227Y913D02*
X1234Y913D01*
X1358Y913D02*
X1358Y913D01*
X2076Y913D02*
X2098Y913D01*
X2226Y913D02*
X2233Y913D01*
X1227Y912D02*
X1234Y912D01*
X1356Y912D02*
X1360Y912D01*
X2075Y912D02*
X2099Y912D01*
X2226Y912D02*
X2233Y912D01*
X1227Y911D02*
X1234Y911D01*
X1356Y911D02*
X1360Y911D01*
X2074Y911D02*
X2100Y911D01*
X2226Y911D02*
X2233Y911D01*
X1227Y910D02*
X1234Y910D01*
X1356Y910D02*
X1360Y910D01*
X2073Y910D02*
X2101Y910D01*
X2226Y910D02*
X2233Y910D01*
X1227Y909D02*
X1234Y909D01*
X1356Y909D02*
X1360Y909D01*
X2072Y909D02*
X2102Y909D01*
X2226Y909D02*
X2233Y909D01*
X1227Y908D02*
X1234Y908D01*
X1356Y908D02*
X1360Y908D01*
X2071Y908D02*
X2103Y908D01*
X2226Y908D02*
X2233Y908D01*
X1227Y907D02*
X1234Y907D01*
X1356Y907D02*
X1360Y907D01*
X2070Y907D02*
X2077Y907D01*
X2090Y907D02*
X2104Y907D01*
X2226Y907D02*
X2233Y907D01*
X1227Y906D02*
X1234Y906D01*
X1356Y906D02*
X1360Y906D01*
X2069Y906D02*
X2076Y906D01*
X2089Y906D02*
X2096Y906D01*
X2098Y906D02*
X2105Y906D01*
X2226Y906D02*
X2233Y906D01*
X1227Y905D02*
X1234Y905D01*
X1356Y905D02*
X1360Y905D01*
X2069Y905D02*
X2075Y905D01*
X2088Y905D02*
X2095Y905D01*
X2099Y905D02*
X2105Y905D01*
X2226Y905D02*
X2233Y905D01*
X1227Y904D02*
X1234Y904D01*
X1356Y904D02*
X1360Y904D01*
X2069Y904D02*
X2074Y904D01*
X2087Y904D02*
X2094Y904D01*
X2100Y904D02*
X2105Y904D01*
X2226Y904D02*
X2233Y904D01*
X1227Y903D02*
X1234Y903D01*
X1356Y903D02*
X1389Y903D01*
X2069Y903D02*
X2074Y903D01*
X2086Y903D02*
X2093Y903D01*
X2100Y903D02*
X2105Y903D01*
X2226Y903D02*
X2233Y903D01*
X1227Y902D02*
X1234Y902D01*
X1356Y902D02*
X1390Y902D01*
X2069Y902D02*
X2074Y902D01*
X2085Y902D02*
X2092Y902D01*
X2100Y902D02*
X2105Y902D01*
X2226Y902D02*
X2233Y902D01*
X1227Y901D02*
X1234Y901D01*
X1355Y901D02*
X1391Y901D01*
X2069Y901D02*
X2074Y901D01*
X2084Y901D02*
X2091Y901D01*
X2100Y901D02*
X2105Y901D01*
X2226Y901D02*
X2233Y901D01*
X1227Y900D02*
X1234Y900D01*
X1355Y900D02*
X1391Y900D01*
X2069Y900D02*
X2074Y900D01*
X2083Y900D02*
X2090Y900D01*
X2100Y900D02*
X2105Y900D01*
X2226Y900D02*
X2233Y900D01*
X1227Y899D02*
X1234Y899D01*
X1356Y899D02*
X1390Y899D01*
X2069Y899D02*
X2074Y899D01*
X2082Y899D02*
X2089Y899D01*
X2100Y899D02*
X2105Y899D01*
X2226Y899D02*
X2233Y899D01*
X1227Y898D02*
X1234Y898D01*
X1356Y898D02*
X1390Y898D01*
X2069Y898D02*
X2074Y898D01*
X2081Y898D02*
X2088Y898D01*
X2100Y898D02*
X2105Y898D01*
X2226Y898D02*
X2233Y898D01*
X1227Y897D02*
X1234Y897D01*
X1356Y897D02*
X1360Y897D01*
X1382Y897D02*
X1388Y897D01*
X2069Y897D02*
X2074Y897D01*
X2080Y897D02*
X2087Y897D01*
X2100Y897D02*
X2105Y897D01*
X2226Y897D02*
X2233Y897D01*
X1227Y896D02*
X1234Y896D01*
X1356Y896D02*
X1360Y896D01*
X1381Y896D02*
X1388Y896D01*
X2069Y896D02*
X2074Y896D01*
X2079Y896D02*
X2086Y896D01*
X2100Y896D02*
X2105Y896D01*
X2226Y896D02*
X2233Y896D01*
X1227Y895D02*
X1234Y895D01*
X1356Y895D02*
X1360Y895D01*
X1380Y895D02*
X1387Y895D01*
X2069Y895D02*
X2075Y895D01*
X2078Y895D02*
X2085Y895D01*
X2099Y895D02*
X2105Y895D01*
X2226Y895D02*
X2233Y895D01*
X1227Y894D02*
X1234Y894D01*
X1356Y894D02*
X1360Y894D01*
X1379Y894D02*
X1386Y894D01*
X2069Y894D02*
X2084Y894D01*
X2098Y894D02*
X2105Y894D01*
X2226Y894D02*
X2233Y894D01*
X1227Y893D02*
X1234Y893D01*
X1356Y893D02*
X1360Y893D01*
X1378Y893D02*
X1385Y893D01*
X2070Y893D02*
X2083Y893D01*
X2097Y893D02*
X2104Y893D01*
X2226Y893D02*
X2233Y893D01*
X1227Y892D02*
X1234Y892D01*
X1356Y892D02*
X1360Y892D01*
X1377Y892D02*
X1384Y892D01*
X2071Y892D02*
X2103Y892D01*
X2226Y892D02*
X2233Y892D01*
X1227Y891D02*
X1234Y891D01*
X1356Y891D02*
X1360Y891D01*
X1377Y891D02*
X1383Y891D01*
X2072Y891D02*
X2102Y891D01*
X2226Y891D02*
X2233Y891D01*
X1227Y890D02*
X1234Y890D01*
X1356Y890D02*
X1360Y890D01*
X1376Y890D02*
X1382Y890D01*
X2073Y890D02*
X2101Y890D01*
X2226Y890D02*
X2233Y890D01*
X1227Y889D02*
X1234Y889D01*
X1356Y889D02*
X1360Y889D01*
X1376Y889D02*
X1381Y889D01*
X2074Y889D02*
X2100Y889D01*
X2226Y889D02*
X2233Y889D01*
X1227Y888D02*
X1234Y888D01*
X1356Y888D02*
X1360Y888D01*
X1377Y888D02*
X1380Y888D01*
X2075Y888D02*
X2099Y888D01*
X2226Y888D02*
X2233Y888D01*
X1227Y887D02*
X1234Y887D01*
X1358Y887D02*
X1358Y887D01*
X2076Y887D02*
X2098Y887D01*
X2226Y887D02*
X2233Y887D01*
X1227Y886D02*
X1234Y886D01*
X2226Y886D02*
X2233Y886D01*
X1227Y885D02*
X1234Y885D01*
X2226Y885D02*
X2233Y885D01*
X1227Y884D02*
X1234Y884D01*
X2226Y884D02*
X2233Y884D01*
X1227Y883D02*
X1234Y883D01*
X2226Y883D02*
X2233Y883D01*
X1227Y882D02*
X1234Y882D01*
X2226Y882D02*
X2233Y882D01*
X1227Y881D02*
X1234Y881D01*
X1361Y881D02*
X1385Y881D01*
X2075Y881D02*
X2099Y881D01*
X2226Y881D02*
X2233Y881D01*
X1227Y880D02*
X1234Y880D01*
X1360Y880D02*
X1386Y880D01*
X2074Y880D02*
X2100Y880D01*
X2226Y880D02*
X2233Y880D01*
X1227Y879D02*
X1234Y879D01*
X1359Y879D02*
X1387Y879D01*
X2073Y879D02*
X2101Y879D01*
X2226Y879D02*
X2233Y879D01*
X1227Y878D02*
X1234Y878D01*
X1358Y878D02*
X1388Y878D01*
X2072Y878D02*
X2102Y878D01*
X2226Y878D02*
X2233Y878D01*
X1227Y877D02*
X1234Y877D01*
X1358Y877D02*
X1389Y877D01*
X2071Y877D02*
X2103Y877D01*
X2226Y877D02*
X2233Y877D01*
X1227Y876D02*
X1234Y876D01*
X1357Y876D02*
X1363Y876D01*
X1383Y876D02*
X1390Y876D01*
X2070Y876D02*
X2078Y876D01*
X2096Y876D02*
X2104Y876D01*
X2226Y876D02*
X2233Y876D01*
X1227Y875D02*
X1234Y875D01*
X1356Y875D02*
X1362Y875D01*
X1384Y875D02*
X1390Y875D01*
X2069Y875D02*
X2076Y875D01*
X2098Y875D02*
X2105Y875D01*
X2226Y875D02*
X2233Y875D01*
X1227Y874D02*
X1234Y874D01*
X1355Y874D02*
X1361Y874D01*
X1385Y874D02*
X1391Y874D01*
X2069Y874D02*
X2075Y874D01*
X2099Y874D02*
X2105Y874D01*
X2226Y874D02*
X2233Y874D01*
X1227Y873D02*
X1234Y873D01*
X1355Y873D02*
X1361Y873D01*
X1386Y873D02*
X1391Y873D01*
X2069Y873D02*
X2074Y873D01*
X2100Y873D02*
X2105Y873D01*
X2226Y873D02*
X2233Y873D01*
X1227Y872D02*
X1234Y872D01*
X1356Y872D02*
X1360Y872D01*
X1386Y872D02*
X1391Y872D01*
X2069Y872D02*
X2074Y872D01*
X2100Y872D02*
X2105Y872D01*
X2226Y872D02*
X2233Y872D01*
X1227Y871D02*
X1234Y871D01*
X1356Y871D02*
X1360Y871D01*
X1386Y871D02*
X1391Y871D01*
X2069Y871D02*
X2074Y871D01*
X2100Y871D02*
X2105Y871D01*
X2226Y871D02*
X2233Y871D01*
X1227Y870D02*
X1234Y870D01*
X1356Y870D02*
X1360Y870D01*
X1386Y870D02*
X1391Y870D01*
X2069Y870D02*
X2074Y870D01*
X2100Y870D02*
X2105Y870D01*
X2226Y870D02*
X2233Y870D01*
X1227Y869D02*
X1234Y869D01*
X1356Y869D02*
X1360Y869D01*
X1386Y869D02*
X1391Y869D01*
X2069Y869D02*
X2074Y869D01*
X2100Y869D02*
X2105Y869D01*
X2226Y869D02*
X2233Y869D01*
X1227Y868D02*
X1234Y868D01*
X1356Y868D02*
X1360Y868D01*
X1386Y868D02*
X1391Y868D01*
X2069Y868D02*
X2074Y868D01*
X2100Y868D02*
X2105Y868D01*
X2226Y868D02*
X2233Y868D01*
X1227Y867D02*
X1234Y867D01*
X1356Y867D02*
X1360Y867D01*
X1386Y867D02*
X1391Y867D01*
X2069Y867D02*
X2074Y867D01*
X2100Y867D02*
X2105Y867D01*
X2226Y867D02*
X2233Y867D01*
X1227Y866D02*
X1234Y866D01*
X1356Y866D02*
X1360Y866D01*
X1386Y866D02*
X1391Y866D01*
X2069Y866D02*
X2074Y866D01*
X2100Y866D02*
X2105Y866D01*
X2226Y866D02*
X2233Y866D01*
X1227Y865D02*
X1234Y865D01*
X1356Y865D02*
X1360Y865D01*
X1386Y865D02*
X1391Y865D01*
X2069Y865D02*
X2074Y865D01*
X2100Y865D02*
X2105Y865D01*
X2226Y865D02*
X2233Y865D01*
X1227Y864D02*
X1234Y864D01*
X1356Y864D02*
X1360Y864D01*
X1386Y864D02*
X1391Y864D01*
X2069Y864D02*
X2074Y864D01*
X2100Y864D02*
X2105Y864D01*
X2226Y864D02*
X2233Y864D01*
X1227Y863D02*
X1234Y863D01*
X1356Y863D02*
X1360Y863D01*
X1386Y863D02*
X1391Y863D01*
X2069Y863D02*
X2074Y863D01*
X2100Y863D02*
X2105Y863D01*
X2226Y863D02*
X2233Y863D01*
X1227Y862D02*
X1234Y862D01*
X1356Y862D02*
X1360Y862D01*
X1386Y862D02*
X1391Y862D01*
X2069Y862D02*
X2074Y862D01*
X2100Y862D02*
X2105Y862D01*
X2226Y862D02*
X2233Y862D01*
X1227Y861D02*
X1234Y861D01*
X1356Y861D02*
X1391Y861D01*
X2069Y861D02*
X2105Y861D01*
X2226Y861D02*
X2233Y861D01*
X1227Y860D02*
X1234Y860D01*
X1356Y860D02*
X1391Y860D01*
X2069Y860D02*
X2105Y860D01*
X2226Y860D02*
X2233Y860D01*
X1227Y859D02*
X1234Y859D01*
X1355Y859D02*
X1391Y859D01*
X2069Y859D02*
X2105Y859D01*
X2226Y859D02*
X2233Y859D01*
X1227Y858D02*
X1234Y858D01*
X1355Y858D02*
X1391Y858D01*
X2069Y858D02*
X2105Y858D01*
X2226Y858D02*
X2233Y858D01*
X1227Y857D02*
X1234Y857D01*
X1356Y857D02*
X1390Y857D01*
X2069Y857D02*
X2105Y857D01*
X2226Y857D02*
X2233Y857D01*
X1227Y856D02*
X1234Y856D01*
X1357Y856D02*
X1390Y856D01*
X2070Y856D02*
X2104Y856D01*
X2226Y856D02*
X2233Y856D01*
X1227Y855D02*
X1234Y855D01*
X2226Y855D02*
X2233Y855D01*
X1227Y854D02*
X1234Y854D01*
X2226Y854D02*
X2233Y854D01*
X1227Y853D02*
X1234Y853D01*
X2226Y853D02*
X2233Y853D01*
X1227Y852D02*
X1234Y852D01*
X2226Y852D02*
X2233Y852D01*
X1227Y851D02*
X1234Y851D01*
X2226Y851D02*
X2233Y851D01*
X1227Y850D02*
X1234Y850D01*
X2226Y850D02*
X2233Y850D01*
X1227Y849D02*
X1234Y849D01*
X2226Y849D02*
X2233Y849D01*
X1227Y848D02*
X1234Y848D01*
X2226Y848D02*
X2233Y848D01*
X1227Y847D02*
X1234Y847D01*
X2226Y847D02*
X2233Y847D01*
X1227Y846D02*
X1234Y846D01*
X2226Y846D02*
X2233Y846D01*
X1227Y845D02*
X1234Y845D01*
X2226Y845D02*
X2233Y845D01*
X1227Y844D02*
X1234Y844D01*
X2226Y844D02*
X2233Y844D01*
X1227Y843D02*
X1234Y843D01*
X2226Y843D02*
X2233Y843D01*
X1227Y842D02*
X1234Y842D01*
X2226Y842D02*
X2233Y842D01*
X1227Y841D02*
X1234Y841D01*
X2226Y841D02*
X2233Y841D01*
X1227Y840D02*
X1234Y840D01*
X2226Y840D02*
X2233Y840D01*
X1227Y839D02*
X1234Y839D01*
X2226Y839D02*
X2233Y839D01*
X1227Y838D02*
X1234Y838D01*
X2226Y838D02*
X2233Y838D01*
X1227Y837D02*
X1234Y837D01*
X2226Y837D02*
X2233Y837D01*
X1227Y836D02*
X1234Y836D01*
X2226Y836D02*
X2233Y836D01*
X1227Y835D02*
X1234Y835D01*
X2226Y835D02*
X2233Y835D01*
X1227Y834D02*
X1234Y834D01*
X2226Y834D02*
X2233Y834D01*
X1227Y833D02*
X1234Y833D01*
X2226Y833D02*
X2233Y833D01*
X1227Y832D02*
X1234Y832D01*
X2226Y832D02*
X2233Y832D01*
X1227Y831D02*
X1234Y831D01*
X2226Y831D02*
X2233Y831D01*
X1227Y830D02*
X1234Y830D01*
X2226Y830D02*
X2233Y830D01*
X1227Y829D02*
X1234Y829D01*
X2226Y829D02*
X2233Y829D01*
X1227Y828D02*
X1234Y828D01*
X2226Y828D02*
X2233Y828D01*
X1227Y827D02*
X1234Y827D01*
X2226Y827D02*
X2233Y827D01*
X1227Y826D02*
X1234Y826D01*
X2226Y826D02*
X2233Y826D01*
X1227Y825D02*
X1234Y825D01*
X2226Y825D02*
X2233Y825D01*
X1227Y824D02*
X1234Y824D01*
X2226Y824D02*
X2233Y824D01*
X1227Y823D02*
X1234Y823D01*
X2226Y823D02*
X2233Y823D01*
X1227Y822D02*
X1234Y822D01*
X2226Y822D02*
X2233Y822D01*
X1227Y821D02*
X1234Y821D01*
X2226Y821D02*
X2233Y821D01*
X1227Y820D02*
X1234Y820D01*
X2226Y820D02*
X2233Y820D01*
X1227Y819D02*
X1234Y819D01*
X2226Y819D02*
X2233Y819D01*
X1227Y818D02*
X1234Y818D01*
X2226Y818D02*
X2233Y818D01*
X1227Y817D02*
X1234Y817D01*
X2226Y817D02*
X2233Y817D01*
X1227Y816D02*
X1234Y816D01*
X2226Y816D02*
X2233Y816D01*
X1227Y815D02*
X1234Y815D01*
X2226Y815D02*
X2233Y815D01*
X1227Y814D02*
X1234Y814D01*
X2226Y814D02*
X2233Y814D01*
X1227Y813D02*
X1234Y813D01*
X1357Y813D02*
X1358Y813D01*
X1377Y813D02*
X1384Y813D01*
X2076Y813D02*
X2088Y813D01*
X2102Y813D02*
X2103Y813D01*
X2226Y813D02*
X2233Y813D01*
X1227Y812D02*
X1234Y812D01*
X1356Y812D02*
X1359Y812D01*
X1376Y812D02*
X1385Y812D01*
X2075Y812D02*
X2089Y812D01*
X2101Y812D02*
X2104Y812D01*
X2226Y812D02*
X2233Y812D01*
X1227Y811D02*
X1234Y811D01*
X1355Y811D02*
X1360Y811D01*
X1375Y811D02*
X1386Y811D01*
X2074Y811D02*
X2090Y811D01*
X2100Y811D02*
X2105Y811D01*
X2226Y811D02*
X2233Y811D01*
X1227Y810D02*
X1234Y810D01*
X1355Y810D02*
X1360Y810D01*
X1374Y810D02*
X1387Y810D01*
X2073Y810D02*
X2091Y810D01*
X2100Y810D02*
X2105Y810D01*
X2226Y810D02*
X2233Y810D01*
X1227Y809D02*
X1234Y809D01*
X1355Y809D02*
X1360Y809D01*
X1373Y809D02*
X1388Y809D01*
X2072Y809D02*
X2092Y809D01*
X2100Y809D02*
X2105Y809D01*
X2226Y809D02*
X2233Y809D01*
X1227Y808D02*
X1234Y808D01*
X1355Y808D02*
X1360Y808D01*
X1372Y808D02*
X1389Y808D01*
X2071Y808D02*
X2093Y808D01*
X2100Y808D02*
X2105Y808D01*
X2226Y808D02*
X2233Y808D01*
X1227Y807D02*
X1234Y807D01*
X1355Y807D02*
X1360Y807D01*
X1371Y807D02*
X1378Y807D01*
X1383Y807D02*
X1390Y807D01*
X2070Y807D02*
X2077Y807D01*
X2087Y807D02*
X2094Y807D01*
X2100Y807D02*
X2105Y807D01*
X2226Y807D02*
X2233Y807D01*
X1227Y806D02*
X1234Y806D01*
X1355Y806D02*
X1360Y806D01*
X1370Y806D02*
X1377Y806D01*
X1384Y806D02*
X1391Y806D01*
X2069Y806D02*
X2076Y806D01*
X2088Y806D02*
X2095Y806D01*
X2100Y806D02*
X2105Y806D01*
X2226Y806D02*
X2233Y806D01*
X1227Y805D02*
X1234Y805D01*
X1355Y805D02*
X1360Y805D01*
X1369Y805D02*
X1376Y805D01*
X1385Y805D02*
X1391Y805D01*
X2069Y805D02*
X2075Y805D01*
X2089Y805D02*
X2095Y805D01*
X2100Y805D02*
X2105Y805D01*
X2226Y805D02*
X2233Y805D01*
X1227Y804D02*
X1234Y804D01*
X1355Y804D02*
X1360Y804D01*
X1368Y804D02*
X1375Y804D01*
X1386Y804D02*
X1391Y804D01*
X2069Y804D02*
X2074Y804D01*
X2090Y804D02*
X2095Y804D01*
X2100Y804D02*
X2105Y804D01*
X2226Y804D02*
X2233Y804D01*
X1227Y803D02*
X1234Y803D01*
X1355Y803D02*
X1360Y803D01*
X1367Y803D02*
X1374Y803D01*
X1387Y803D02*
X1391Y803D01*
X2069Y803D02*
X2074Y803D01*
X2090Y803D02*
X2095Y803D01*
X2100Y803D02*
X2105Y803D01*
X2226Y803D02*
X2233Y803D01*
X1227Y802D02*
X1234Y802D01*
X1355Y802D02*
X1360Y802D01*
X1366Y802D02*
X1373Y802D01*
X1387Y802D02*
X1391Y802D01*
X2069Y802D02*
X2074Y802D01*
X2090Y802D02*
X2095Y802D01*
X2100Y802D02*
X2105Y802D01*
X2226Y802D02*
X2233Y802D01*
X1227Y801D02*
X1234Y801D01*
X1355Y801D02*
X1360Y801D01*
X1365Y801D02*
X1372Y801D01*
X1387Y801D02*
X1391Y801D01*
X2069Y801D02*
X2074Y801D01*
X2090Y801D02*
X2095Y801D01*
X2100Y801D02*
X2105Y801D01*
X2226Y801D02*
X2233Y801D01*
X1227Y800D02*
X1234Y800D01*
X1355Y800D02*
X1360Y800D01*
X1364Y800D02*
X1371Y800D01*
X1387Y800D02*
X1391Y800D01*
X2069Y800D02*
X2074Y800D01*
X2090Y800D02*
X2095Y800D01*
X2100Y800D02*
X2105Y800D01*
X2226Y800D02*
X2233Y800D01*
X1227Y799D02*
X1234Y799D01*
X1355Y799D02*
X1360Y799D01*
X1363Y799D02*
X1370Y799D01*
X1387Y799D02*
X1391Y799D01*
X1624Y799D02*
X1632Y799D01*
X1654Y799D02*
X1662Y799D01*
X1691Y799D02*
X1698Y799D01*
X1720Y799D02*
X1728Y799D01*
X1775Y799D02*
X1783Y799D01*
X1798Y799D02*
X1807Y799D01*
X1823Y799D02*
X1841Y799D01*
X2069Y799D02*
X2074Y799D01*
X2089Y799D02*
X2095Y799D01*
X2100Y799D02*
X2105Y799D01*
X2226Y799D02*
X2233Y799D01*
X1227Y798D02*
X1234Y798D01*
X1355Y798D02*
X1360Y798D01*
X1362Y798D02*
X1369Y798D01*
X1387Y798D02*
X1391Y798D01*
X1623Y798D02*
X1635Y798D01*
X1654Y798D02*
X1665Y798D01*
X1689Y798D02*
X1701Y798D01*
X1718Y798D02*
X1730Y798D01*
X1768Y798D02*
X1784Y798D01*
X1795Y798D02*
X1810Y798D01*
X1822Y798D02*
X1842Y798D01*
X2069Y798D02*
X2074Y798D01*
X2089Y798D02*
X2094Y798D01*
X2100Y798D02*
X2105Y798D01*
X2226Y798D02*
X2233Y798D01*
X1227Y797D02*
X1234Y797D01*
X1355Y797D02*
X1368Y797D01*
X1386Y797D02*
X1391Y797D01*
X1623Y797D02*
X1637Y797D01*
X1654Y797D02*
X1667Y797D01*
X1687Y797D02*
X1703Y797D01*
X1717Y797D02*
X1732Y797D01*
X1766Y797D02*
X1784Y797D01*
X1793Y797D02*
X1811Y797D01*
X1822Y797D02*
X1842Y797D01*
X2069Y797D02*
X2074Y797D01*
X2088Y797D02*
X2094Y797D01*
X2100Y797D02*
X2105Y797D01*
X2226Y797D02*
X2233Y797D01*
X1227Y796D02*
X1234Y796D01*
X1355Y796D02*
X1367Y796D01*
X1386Y796D02*
X1391Y796D01*
X1623Y796D02*
X1638Y796D01*
X1654Y796D02*
X1668Y796D01*
X1686Y796D02*
X1704Y796D01*
X1716Y796D02*
X1733Y796D01*
X1764Y796D02*
X1784Y796D01*
X1794Y796D02*
X1812Y796D01*
X1822Y796D02*
X1842Y796D01*
X2069Y796D02*
X2074Y796D01*
X2088Y796D02*
X2093Y796D01*
X2100Y796D02*
X2105Y796D01*
X2226Y796D02*
X2233Y796D01*
X1227Y795D02*
X1234Y795D01*
X1355Y795D02*
X1366Y795D01*
X1385Y795D02*
X1391Y795D01*
X1632Y795D02*
X1639Y795D01*
X1662Y795D02*
X1670Y795D01*
X1685Y795D02*
X1692Y795D01*
X1698Y795D02*
X1705Y795D01*
X1715Y795D02*
X1721Y795D01*
X1728Y795D02*
X1734Y795D01*
X1763Y795D02*
X1784Y795D01*
X1794Y795D02*
X1800Y795D01*
X1805Y795D02*
X1813Y795D01*
X1822Y795D02*
X1842Y795D01*
X2069Y795D02*
X2075Y795D01*
X2087Y795D02*
X2093Y795D01*
X2100Y795D02*
X2105Y795D01*
X2226Y795D02*
X2233Y795D01*
X1227Y794D02*
X1234Y794D01*
X1355Y794D02*
X1365Y794D01*
X1384Y794D02*
X1391Y794D01*
X1634Y794D02*
X1640Y794D01*
X1665Y794D02*
X1670Y794D01*
X1685Y794D02*
X1690Y794D01*
X1700Y794D02*
X1705Y794D01*
X1714Y794D02*
X1719Y794D01*
X1729Y794D02*
X1734Y794D01*
X1763Y794D02*
X1769Y794D01*
X1780Y794D02*
X1784Y794D01*
X1795Y794D02*
X1796Y794D01*
X1808Y794D02*
X1813Y794D01*
X1838Y794D02*
X1842Y794D01*
X2069Y794D02*
X2076Y794D01*
X2087Y794D02*
X2092Y794D01*
X2100Y794D02*
X2105Y794D01*
X2226Y794D02*
X2233Y794D01*
X1227Y793D02*
X1234Y793D01*
X1355Y793D02*
X1364Y793D01*
X1383Y793D02*
X1390Y793D01*
X1636Y793D02*
X1640Y793D01*
X1666Y793D02*
X1671Y793D01*
X1684Y793D02*
X1689Y793D01*
X1702Y793D02*
X1704Y793D01*
X1714Y793D02*
X1718Y793D01*
X1730Y793D02*
X1735Y793D01*
X1762Y793D02*
X1768Y793D01*
X1780Y793D02*
X1784Y793D01*
X1809Y793D02*
X1814Y793D01*
X1838Y793D02*
X1842Y793D01*
X2070Y793D02*
X2077Y793D01*
X2086Y793D02*
X2092Y793D01*
X2100Y793D02*
X2105Y793D01*
X2226Y793D02*
X2233Y793D01*
X1227Y792D02*
X1234Y792D01*
X1355Y792D02*
X1363Y792D01*
X1382Y792D02*
X1389Y792D01*
X1637Y792D02*
X1641Y792D01*
X1667Y792D02*
X1672Y792D01*
X1684Y792D02*
X1688Y792D01*
X1703Y792D02*
X1703Y792D01*
X1714Y792D02*
X1718Y792D01*
X1731Y792D02*
X1735Y792D01*
X1762Y792D02*
X1767Y792D01*
X1780Y792D02*
X1784Y792D01*
X1810Y792D02*
X1814Y792D01*
X1838Y792D02*
X1842Y792D01*
X2071Y792D02*
X2078Y792D01*
X2086Y792D02*
X2105Y792D01*
X2226Y792D02*
X2233Y792D01*
X1227Y791D02*
X1234Y791D01*
X1355Y791D02*
X1362Y791D01*
X1382Y791D02*
X1388Y791D01*
X1637Y791D02*
X1642Y791D01*
X1668Y791D02*
X1672Y791D01*
X1684Y791D02*
X1688Y791D01*
X1714Y791D02*
X1718Y791D01*
X1731Y791D02*
X1735Y791D01*
X1761Y791D02*
X1766Y791D01*
X1780Y791D02*
X1784Y791D01*
X1810Y791D02*
X1814Y791D01*
X1838Y791D02*
X1842Y791D01*
X2072Y791D02*
X2079Y791D01*
X2085Y791D02*
X2105Y791D01*
X2226Y791D02*
X2233Y791D01*
X1227Y790D02*
X1234Y790D01*
X1355Y790D02*
X1361Y790D01*
X1381Y790D02*
X1387Y790D01*
X1638Y790D02*
X1642Y790D01*
X1669Y790D02*
X1673Y790D01*
X1684Y790D02*
X1688Y790D01*
X1714Y790D02*
X1717Y790D01*
X1731Y790D02*
X1735Y790D01*
X1761Y790D02*
X1765Y790D01*
X1780Y790D02*
X1784Y790D01*
X1811Y790D02*
X1814Y790D01*
X1838Y790D02*
X1842Y790D01*
X2073Y790D02*
X2079Y790D01*
X2085Y790D02*
X2105Y790D01*
X2226Y790D02*
X2233Y790D01*
X1227Y789D02*
X1234Y789D01*
X1355Y789D02*
X1360Y789D01*
X1381Y789D02*
X1386Y789D01*
X1638Y789D02*
X1642Y789D01*
X1669Y789D02*
X1673Y789D01*
X1684Y789D02*
X1688Y789D01*
X1714Y789D02*
X1718Y789D01*
X1731Y789D02*
X1735Y789D01*
X1761Y789D02*
X1765Y789D01*
X1780Y789D02*
X1784Y789D01*
X1811Y789D02*
X1814Y789D01*
X1838Y789D02*
X1842Y789D01*
X2074Y789D02*
X2079Y789D01*
X2085Y789D02*
X2105Y789D01*
X2226Y789D02*
X2233Y789D01*
X1227Y788D02*
X1234Y788D01*
X1356Y788D02*
X1359Y788D01*
X1382Y788D02*
X1385Y788D01*
X1639Y788D02*
X1643Y788D01*
X1669Y788D02*
X1673Y788D01*
X1684Y788D02*
X1688Y788D01*
X1714Y788D02*
X1718Y788D01*
X1731Y788D02*
X1735Y788D01*
X1761Y788D02*
X1765Y788D01*
X1780Y788D02*
X1784Y788D01*
X1810Y788D02*
X1814Y788D01*
X1838Y788D02*
X1842Y788D01*
X2075Y788D02*
X2078Y788D01*
X2085Y788D02*
X2104Y788D01*
X2226Y788D02*
X2233Y788D01*
X1227Y787D02*
X1234Y787D01*
X1357Y787D02*
X1358Y787D01*
X1639Y787D02*
X1643Y787D01*
X1670Y787D02*
X1674Y787D01*
X1684Y787D02*
X1688Y787D01*
X1714Y787D02*
X1718Y787D01*
X1730Y787D02*
X1734Y787D01*
X1761Y787D02*
X1765Y787D01*
X1780Y787D02*
X1784Y787D01*
X1810Y787D02*
X1814Y787D01*
X1838Y787D02*
X1842Y787D01*
X2087Y787D02*
X2103Y787D01*
X2226Y787D02*
X2233Y787D01*
X1227Y786D02*
X1234Y786D01*
X1639Y786D02*
X1643Y786D01*
X1670Y786D02*
X1674Y786D01*
X1684Y786D02*
X1688Y786D01*
X1715Y786D02*
X1719Y786D01*
X1730Y786D02*
X1734Y786D01*
X1761Y786D02*
X1765Y786D01*
X1780Y786D02*
X1784Y786D01*
X1810Y786D02*
X1814Y786D01*
X1838Y786D02*
X1842Y786D01*
X2226Y786D02*
X2233Y786D01*
X1227Y785D02*
X1234Y785D01*
X1640Y785D02*
X1644Y785D01*
X1670Y785D02*
X1674Y785D01*
X1684Y785D02*
X1688Y785D01*
X1715Y785D02*
X1720Y785D01*
X1729Y785D02*
X1734Y785D01*
X1761Y785D02*
X1765Y785D01*
X1780Y785D02*
X1784Y785D01*
X1809Y785D02*
X1814Y785D01*
X1838Y785D02*
X1842Y785D01*
X2226Y785D02*
X2233Y785D01*
X1227Y784D02*
X1234Y784D01*
X1629Y784D02*
X1632Y784D01*
X1640Y784D02*
X1644Y784D01*
X1660Y784D02*
X1663Y784D01*
X1670Y784D02*
X1674Y784D01*
X1685Y784D02*
X1689Y784D01*
X1716Y784D02*
X1721Y784D01*
X1728Y784D02*
X1733Y784D01*
X1761Y784D02*
X1766Y784D01*
X1780Y784D02*
X1784Y784D01*
X1808Y784D02*
X1813Y784D01*
X1838Y784D02*
X1842Y784D01*
X2226Y784D02*
X2233Y784D01*
X1227Y783D02*
X1234Y783D01*
X1626Y783D02*
X1635Y783D01*
X1640Y783D02*
X1644Y783D01*
X1657Y783D02*
X1666Y783D01*
X1671Y783D02*
X1674Y783D01*
X1685Y783D02*
X1689Y783D01*
X1717Y783D02*
X1723Y783D01*
X1726Y783D02*
X1732Y783D01*
X1762Y783D02*
X1766Y783D01*
X1780Y783D02*
X1784Y783D01*
X1806Y783D02*
X1813Y783D01*
X1838Y783D02*
X1842Y783D01*
X2226Y783D02*
X2233Y783D01*
X1227Y782D02*
X1234Y782D01*
X1363Y782D02*
X1363Y782D01*
X1625Y782D02*
X1637Y782D01*
X1640Y782D02*
X1644Y782D01*
X1655Y782D02*
X1667Y782D01*
X1671Y782D02*
X1675Y782D01*
X1686Y782D02*
X1690Y782D01*
X1718Y782D02*
X1731Y782D01*
X1762Y782D02*
X1767Y782D01*
X1780Y782D02*
X1784Y782D01*
X1804Y782D02*
X1812Y782D01*
X1823Y782D02*
X1842Y782D01*
X2226Y782D02*
X2233Y782D01*
X1227Y781D02*
X1234Y781D01*
X1361Y781D02*
X1385Y781D01*
X1623Y781D02*
X1638Y781D01*
X1640Y781D02*
X1644Y781D01*
X1654Y781D02*
X1668Y781D01*
X1671Y781D02*
X1675Y781D01*
X1686Y781D02*
X1690Y781D01*
X1720Y781D02*
X1730Y781D01*
X1762Y781D02*
X1768Y781D01*
X1780Y781D02*
X1784Y781D01*
X1802Y781D02*
X1811Y781D01*
X1823Y781D02*
X1842Y781D01*
X2075Y781D02*
X2099Y781D01*
X2226Y781D02*
X2233Y781D01*
X1227Y780D02*
X1234Y780D01*
X1360Y780D02*
X1386Y780D01*
X1623Y780D02*
X1629Y780D01*
X1634Y780D02*
X1644Y780D01*
X1653Y780D02*
X1660Y780D01*
X1665Y780D02*
X1669Y780D01*
X1671Y780D02*
X1675Y780D01*
X1687Y780D02*
X1691Y780D01*
X1720Y780D02*
X1729Y780D01*
X1763Y780D02*
X1769Y780D01*
X1780Y780D02*
X1784Y780D01*
X1800Y780D02*
X1810Y780D01*
X1823Y780D02*
X1842Y780D01*
X2074Y780D02*
X2100Y780D01*
X2226Y780D02*
X2233Y780D01*
X1227Y779D02*
X1234Y779D01*
X1359Y779D02*
X1387Y779D01*
X1622Y779D02*
X1627Y779D01*
X1637Y779D02*
X1644Y779D01*
X1653Y779D02*
X1657Y779D01*
X1667Y779D02*
X1675Y779D01*
X1688Y779D02*
X1692Y779D01*
X1719Y779D02*
X1731Y779D01*
X1764Y779D02*
X1784Y779D01*
X1798Y779D02*
X1808Y779D01*
X1823Y779D02*
X1842Y779D01*
X2073Y779D02*
X2101Y779D01*
X2226Y779D02*
X2233Y779D01*
X1227Y778D02*
X1234Y778D01*
X1358Y778D02*
X1388Y778D01*
X1621Y778D02*
X1626Y778D01*
X1638Y778D02*
X1644Y778D01*
X1652Y778D02*
X1656Y778D01*
X1669Y778D02*
X1675Y778D01*
X1688Y778D02*
X1693Y778D01*
X1717Y778D02*
X1724Y778D01*
X1726Y778D02*
X1732Y778D01*
X1765Y778D02*
X1784Y778D01*
X1796Y778D02*
X1806Y778D01*
X1824Y778D02*
X1842Y778D01*
X2072Y778D02*
X2102Y778D01*
X2226Y778D02*
X2233Y778D01*
X1227Y777D02*
X1234Y777D01*
X1357Y777D02*
X1389Y777D01*
X1621Y777D02*
X1625Y777D01*
X1639Y777D02*
X1644Y777D01*
X1652Y777D02*
X1656Y777D01*
X1670Y777D02*
X1675Y777D01*
X1689Y777D02*
X1694Y777D01*
X1716Y777D02*
X1722Y777D01*
X1728Y777D02*
X1733Y777D01*
X1766Y777D02*
X1784Y777D01*
X1795Y777D02*
X1804Y777D01*
X1838Y777D02*
X1842Y777D01*
X2071Y777D02*
X2103Y777D01*
X2226Y777D02*
X2233Y777D01*
X1227Y776D02*
X1234Y776D01*
X1356Y776D02*
X1364Y776D01*
X1383Y776D02*
X1390Y776D01*
X1621Y776D02*
X1625Y776D01*
X1640Y776D02*
X1644Y776D01*
X1651Y776D02*
X1655Y776D01*
X1670Y776D02*
X1675Y776D01*
X1690Y776D02*
X1695Y776D01*
X1715Y776D02*
X1720Y776D01*
X1729Y776D02*
X1734Y776D01*
X1742Y776D02*
X1755Y776D01*
X1768Y776D02*
X1784Y776D01*
X1794Y776D02*
X1801Y776D01*
X1838Y776D02*
X1842Y776D01*
X2070Y776D02*
X2077Y776D01*
X2096Y776D02*
X2104Y776D01*
X2226Y776D02*
X2233Y776D01*
X1227Y775D02*
X1234Y775D01*
X1355Y775D02*
X1362Y775D01*
X1384Y775D02*
X1391Y775D01*
X1621Y775D02*
X1624Y775D01*
X1640Y775D02*
X1644Y775D01*
X1651Y775D02*
X1655Y775D01*
X1671Y775D02*
X1675Y775D01*
X1691Y775D02*
X1695Y775D01*
X1714Y775D02*
X1719Y775D01*
X1730Y775D02*
X1735Y775D01*
X1742Y775D02*
X1755Y775D01*
X1773Y775D02*
X1784Y775D01*
X1794Y775D02*
X1800Y775D01*
X1838Y775D02*
X1842Y775D01*
X2069Y775D02*
X2076Y775D01*
X2098Y775D02*
X2105Y775D01*
X2226Y775D02*
X2233Y775D01*
X1227Y774D02*
X1234Y774D01*
X1355Y774D02*
X1361Y774D01*
X1385Y774D02*
X1391Y774D01*
X1620Y774D02*
X1624Y774D01*
X1640Y774D02*
X1644Y774D01*
X1651Y774D02*
X1655Y774D01*
X1671Y774D02*
X1675Y774D01*
X1692Y774D02*
X1696Y774D01*
X1713Y774D02*
X1718Y774D01*
X1731Y774D02*
X1735Y774D01*
X1742Y774D02*
X1755Y774D01*
X1780Y774D02*
X1784Y774D01*
X1793Y774D02*
X1798Y774D01*
X1838Y774D02*
X1842Y774D01*
X2069Y774D02*
X2075Y774D01*
X2099Y774D02*
X2105Y774D01*
X2226Y774D02*
X2233Y774D01*
X1227Y773D02*
X1234Y773D01*
X1355Y773D02*
X1360Y773D01*
X1386Y773D02*
X1391Y773D01*
X1620Y773D02*
X1624Y773D01*
X1640Y773D02*
X1644Y773D01*
X1651Y773D02*
X1655Y773D01*
X1671Y773D02*
X1675Y773D01*
X1693Y773D02*
X1697Y773D01*
X1713Y773D02*
X1717Y773D01*
X1732Y773D02*
X1736Y773D01*
X1742Y773D02*
X1755Y773D01*
X1780Y773D02*
X1784Y773D01*
X1793Y773D02*
X1797Y773D01*
X1838Y773D02*
X1842Y773D01*
X2069Y773D02*
X2074Y773D01*
X2100Y773D02*
X2105Y773D01*
X2226Y773D02*
X2233Y773D01*
X1227Y772D02*
X1234Y772D01*
X1355Y772D02*
X1360Y772D01*
X1386Y772D02*
X1391Y772D01*
X1620Y772D02*
X1624Y772D01*
X1640Y772D02*
X1644Y772D01*
X1651Y772D02*
X1655Y772D01*
X1671Y772D02*
X1675Y772D01*
X1693Y772D02*
X1698Y772D01*
X1713Y772D02*
X1717Y772D01*
X1732Y772D02*
X1736Y772D01*
X1743Y772D02*
X1754Y772D01*
X1780Y772D02*
X1784Y772D01*
X1793Y772D02*
X1797Y772D01*
X1838Y772D02*
X1842Y772D01*
X2069Y772D02*
X2074Y772D01*
X2100Y772D02*
X2105Y772D01*
X2226Y772D02*
X2233Y772D01*
X1227Y771D02*
X1234Y771D01*
X1355Y771D02*
X1360Y771D01*
X1387Y771D02*
X1391Y771D01*
X1620Y771D02*
X1624Y771D01*
X1640Y771D02*
X1644Y771D01*
X1651Y771D02*
X1655Y771D01*
X1671Y771D02*
X1674Y771D01*
X1694Y771D02*
X1699Y771D01*
X1712Y771D02*
X1716Y771D01*
X1732Y771D02*
X1736Y771D01*
X1780Y771D02*
X1784Y771D01*
X1793Y771D02*
X1797Y771D01*
X1838Y771D02*
X1842Y771D01*
X2069Y771D02*
X2074Y771D01*
X2100Y771D02*
X2105Y771D01*
X2226Y771D02*
X2233Y771D01*
X1227Y770D02*
X1234Y770D01*
X1355Y770D02*
X1360Y770D01*
X1387Y770D02*
X1391Y770D01*
X1620Y770D02*
X1624Y770D01*
X1640Y770D02*
X1644Y770D01*
X1651Y770D02*
X1655Y770D01*
X1671Y770D02*
X1674Y770D01*
X1695Y770D02*
X1700Y770D01*
X1712Y770D02*
X1716Y770D01*
X1732Y770D02*
X1736Y770D01*
X1780Y770D02*
X1784Y770D01*
X1793Y770D02*
X1797Y770D01*
X1838Y770D02*
X1842Y770D01*
X2069Y770D02*
X2074Y770D01*
X2100Y770D02*
X2105Y770D01*
X2226Y770D02*
X2233Y770D01*
X1227Y769D02*
X1234Y769D01*
X1355Y769D02*
X1360Y769D01*
X1387Y769D02*
X1391Y769D01*
X1621Y769D02*
X1624Y769D01*
X1640Y769D02*
X1643Y769D01*
X1651Y769D02*
X1655Y769D01*
X1670Y769D02*
X1674Y769D01*
X1696Y769D02*
X1701Y769D01*
X1712Y769D02*
X1716Y769D01*
X1732Y769D02*
X1736Y769D01*
X1780Y769D02*
X1784Y769D01*
X1793Y769D02*
X1797Y769D01*
X1838Y769D02*
X1842Y769D01*
X2069Y769D02*
X2074Y769D01*
X2100Y769D02*
X2105Y769D01*
X2226Y769D02*
X2233Y769D01*
X1227Y768D02*
X1234Y768D01*
X1355Y768D02*
X1360Y768D01*
X1387Y768D02*
X1391Y768D01*
X1621Y768D02*
X1625Y768D01*
X1639Y768D02*
X1643Y768D01*
X1651Y768D02*
X1655Y768D01*
X1670Y768D02*
X1674Y768D01*
X1697Y768D02*
X1702Y768D01*
X1713Y768D02*
X1716Y768D01*
X1732Y768D02*
X1736Y768D01*
X1780Y768D02*
X1784Y768D01*
X1793Y768D02*
X1797Y768D01*
X1838Y768D02*
X1842Y768D01*
X2069Y768D02*
X2074Y768D01*
X2100Y768D02*
X2105Y768D01*
X2226Y768D02*
X2233Y768D01*
X1227Y767D02*
X1234Y767D01*
X1355Y767D02*
X1360Y767D01*
X1387Y767D02*
X1391Y767D01*
X1621Y767D02*
X1625Y767D01*
X1639Y767D02*
X1643Y767D01*
X1652Y767D02*
X1656Y767D01*
X1669Y767D02*
X1673Y767D01*
X1698Y767D02*
X1703Y767D01*
X1713Y767D02*
X1717Y767D01*
X1732Y767D02*
X1736Y767D01*
X1780Y767D02*
X1784Y767D01*
X1793Y767D02*
X1797Y767D01*
X1838Y767D02*
X1842Y767D01*
X2069Y767D02*
X2074Y767D01*
X2100Y767D02*
X2105Y767D01*
X2226Y767D02*
X2233Y767D01*
X1227Y766D02*
X1234Y766D01*
X1355Y766D02*
X1360Y766D01*
X1387Y766D02*
X1391Y766D01*
X1621Y766D02*
X1626Y766D01*
X1638Y766D02*
X1642Y766D01*
X1652Y766D02*
X1656Y766D01*
X1669Y766D02*
X1673Y766D01*
X1699Y766D02*
X1704Y766D01*
X1713Y766D02*
X1717Y766D01*
X1732Y766D02*
X1736Y766D01*
X1780Y766D02*
X1784Y766D01*
X1793Y766D02*
X1798Y766D01*
X1838Y766D02*
X1842Y766D01*
X2069Y766D02*
X2074Y766D01*
X2100Y766D02*
X2105Y766D01*
X2226Y766D02*
X2233Y766D01*
X1227Y765D02*
X1234Y765D01*
X1355Y765D02*
X1360Y765D01*
X1387Y765D02*
X1391Y765D01*
X1622Y765D02*
X1626Y765D01*
X1637Y765D02*
X1642Y765D01*
X1652Y765D02*
X1657Y765D01*
X1668Y765D02*
X1672Y765D01*
X1700Y765D02*
X1705Y765D01*
X1713Y765D02*
X1718Y765D01*
X1731Y765D02*
X1735Y765D01*
X1780Y765D02*
X1784Y765D01*
X1794Y765D02*
X1798Y765D01*
X1815Y765D02*
X1815Y765D01*
X1838Y765D02*
X1842Y765D01*
X2069Y765D02*
X2074Y765D01*
X2100Y765D02*
X2105Y765D01*
X2226Y765D02*
X2233Y765D01*
X1227Y764D02*
X1234Y764D01*
X1355Y764D02*
X1360Y764D01*
X1387Y764D02*
X1391Y764D01*
X1622Y764D02*
X1628Y764D01*
X1636Y764D02*
X1641Y764D01*
X1653Y764D02*
X1658Y764D01*
X1667Y764D02*
X1672Y764D01*
X1700Y764D02*
X1706Y764D01*
X1714Y764D02*
X1719Y764D01*
X1730Y764D02*
X1735Y764D01*
X1780Y764D02*
X1784Y764D01*
X1794Y764D02*
X1800Y764D01*
X1812Y764D02*
X1815Y764D01*
X1837Y764D02*
X1842Y764D01*
X2069Y764D02*
X2074Y764D01*
X2100Y764D02*
X2105Y764D01*
X2226Y764D02*
X2233Y764D01*
X1227Y763D02*
X1234Y763D01*
X1355Y763D02*
X1360Y763D01*
X1387Y763D02*
X1391Y763D01*
X1623Y763D02*
X1640Y763D01*
X1654Y763D02*
X1671Y763D01*
X1682Y763D02*
X1706Y763D01*
X1715Y763D02*
X1723Y763D01*
X1726Y763D02*
X1734Y763D01*
X1780Y763D02*
X1784Y763D01*
X1795Y763D02*
X1815Y763D01*
X1822Y763D02*
X1842Y763D01*
X2069Y763D02*
X2074Y763D01*
X2100Y763D02*
X2105Y763D01*
X2226Y763D02*
X2233Y763D01*
X1227Y762D02*
X1234Y762D01*
X1355Y762D02*
X1360Y762D01*
X1387Y762D02*
X1391Y762D01*
X1624Y762D02*
X1639Y762D01*
X1655Y762D02*
X1670Y762D01*
X1682Y762D02*
X1706Y762D01*
X1716Y762D02*
X1733Y762D01*
X1780Y762D02*
X1784Y762D01*
X1796Y762D02*
X1815Y762D01*
X1822Y762D02*
X1842Y762D01*
X2069Y762D02*
X2074Y762D01*
X2100Y762D02*
X2105Y762D01*
X2226Y762D02*
X2233Y762D01*
X1227Y761D02*
X1234Y761D01*
X1355Y761D02*
X1391Y761D01*
X1625Y761D02*
X1638Y761D01*
X1656Y761D02*
X1669Y761D01*
X1682Y761D02*
X1706Y761D01*
X1717Y761D02*
X1732Y761D01*
X1780Y761D02*
X1784Y761D01*
X1797Y761D02*
X1815Y761D01*
X1822Y761D02*
X1842Y761D01*
X2069Y761D02*
X2105Y761D01*
X2226Y761D02*
X2233Y761D01*
X1227Y760D02*
X1234Y760D01*
X1355Y760D02*
X1391Y760D01*
X1627Y760D02*
X1637Y760D01*
X1657Y760D02*
X1667Y760D01*
X1682Y760D02*
X1706Y760D01*
X1719Y760D02*
X1730Y760D01*
X1780Y760D02*
X1784Y760D01*
X1799Y760D02*
X1813Y760D01*
X1822Y760D02*
X1842Y760D01*
X2069Y760D02*
X2105Y760D01*
X2226Y760D02*
X2233Y760D01*
X1227Y759D02*
X1234Y759D01*
X1355Y759D02*
X1391Y759D01*
X1630Y759D02*
X1633Y759D01*
X1661Y759D02*
X1664Y759D01*
X1722Y759D02*
X1726Y759D01*
X1803Y759D02*
X1808Y759D01*
X2069Y759D02*
X2105Y759D01*
X2226Y759D02*
X2233Y759D01*
X1227Y758D02*
X1234Y758D01*
X1355Y758D02*
X1391Y758D01*
X2069Y758D02*
X2105Y758D01*
X2226Y758D02*
X2233Y758D01*
X1227Y757D02*
X1234Y757D01*
X1355Y757D02*
X1391Y757D01*
X2069Y757D02*
X2105Y757D01*
X2226Y757D02*
X2233Y757D01*
X1227Y756D02*
X1234Y756D01*
X1356Y756D02*
X1390Y756D01*
X2070Y756D02*
X2104Y756D01*
X2226Y756D02*
X2233Y756D01*
X1227Y755D02*
X1234Y755D01*
X2226Y755D02*
X2233Y755D01*
X1227Y754D02*
X1234Y754D01*
X2226Y754D02*
X2233Y754D01*
X1227Y753D02*
X1234Y753D01*
X2226Y753D02*
X2233Y753D01*
X1227Y752D02*
X1234Y752D01*
X2226Y752D02*
X2233Y752D01*
X1227Y751D02*
X1234Y751D01*
X2226Y751D02*
X2233Y751D01*
X1227Y750D02*
X1234Y750D01*
X2226Y750D02*
X2233Y750D01*
X1227Y749D02*
X1234Y749D01*
X2226Y749D02*
X2233Y749D01*
X1227Y748D02*
X1234Y748D01*
X2226Y748D02*
X2233Y748D01*
X1227Y747D02*
X1234Y747D01*
X2226Y747D02*
X2233Y747D01*
X1227Y746D02*
X1234Y746D01*
X2226Y746D02*
X2233Y746D01*
X1227Y745D02*
X1234Y745D01*
X2226Y745D02*
X2233Y745D01*
X1227Y744D02*
X1234Y744D01*
X2226Y744D02*
X2233Y744D01*
X1227Y743D02*
X1234Y743D01*
X2226Y743D02*
X2233Y743D01*
X1227Y742D02*
X1234Y742D01*
X2226Y742D02*
X2233Y742D01*
X1227Y741D02*
X1234Y741D01*
X2226Y741D02*
X2233Y741D01*
X1227Y740D02*
X1234Y740D01*
X2226Y740D02*
X2233Y740D01*
X1227Y739D02*
X1234Y739D01*
X2226Y739D02*
X2233Y739D01*
X1227Y738D02*
X1234Y738D01*
X2226Y738D02*
X2233Y738D01*
X1227Y737D02*
X1234Y737D01*
X2226Y737D02*
X2233Y737D01*
X1227Y736D02*
X1234Y736D01*
X2226Y736D02*
X2233Y736D01*
X1227Y735D02*
X1234Y735D01*
X2226Y735D02*
X2233Y735D01*
X1227Y734D02*
X1234Y734D01*
X2226Y734D02*
X2233Y734D01*
X1227Y733D02*
X1234Y733D01*
X2226Y733D02*
X2233Y733D01*
X1227Y732D02*
X1234Y732D01*
X2226Y732D02*
X2233Y732D01*
X1227Y731D02*
X1234Y731D01*
X2226Y731D02*
X2233Y731D01*
X1227Y730D02*
X1234Y730D01*
X2226Y730D02*
X2233Y730D01*
X1227Y729D02*
X1234Y729D01*
X2226Y729D02*
X2233Y729D01*
X1227Y728D02*
X1234Y728D01*
X2226Y728D02*
X2233Y728D01*
X1227Y727D02*
X1234Y727D01*
X2226Y727D02*
X2233Y727D01*
X1227Y726D02*
X1234Y726D01*
X2226Y726D02*
X2233Y726D01*
X1227Y725D02*
X1234Y725D01*
X2226Y725D02*
X2233Y725D01*
X1227Y724D02*
X1234Y724D01*
X2226Y724D02*
X2233Y724D01*
X1227Y723D02*
X1234Y723D01*
X2226Y723D02*
X2233Y723D01*
X1227Y722D02*
X1234Y722D01*
X2226Y722D02*
X2233Y722D01*
X1227Y721D02*
X1234Y721D01*
X2226Y721D02*
X2233Y721D01*
X1227Y720D02*
X1234Y720D01*
X2226Y720D02*
X2233Y720D01*
X1227Y719D02*
X1234Y719D01*
X2226Y719D02*
X2233Y719D01*
X1227Y718D02*
X1234Y718D01*
X2226Y718D02*
X2233Y718D01*
X1227Y717D02*
X1234Y717D01*
X2226Y717D02*
X2233Y717D01*
X1227Y716D02*
X1234Y716D01*
X2226Y716D02*
X2233Y716D01*
X1227Y715D02*
X1234Y715D01*
X2226Y715D02*
X2233Y715D01*
X1227Y714D02*
X1234Y714D01*
X2226Y714D02*
X2233Y714D01*
X1227Y713D02*
X1234Y713D01*
X1362Y713D02*
X1369Y713D01*
X1378Y713D02*
X1384Y713D01*
X2076Y713D02*
X2083Y713D01*
X2102Y713D02*
X2103Y713D01*
X2226Y713D02*
X2233Y713D01*
X1227Y712D02*
X1234Y712D01*
X1361Y712D02*
X1370Y712D01*
X1377Y712D02*
X1385Y712D01*
X2075Y712D02*
X2084Y712D01*
X2101Y712D02*
X2104Y712D01*
X2226Y712D02*
X2233Y712D01*
X1227Y711D02*
X1234Y711D01*
X1360Y711D02*
X1371Y711D01*
X1376Y711D02*
X1386Y711D01*
X2074Y711D02*
X2085Y711D01*
X2100Y711D02*
X2105Y711D01*
X2226Y711D02*
X2233Y711D01*
X1227Y710D02*
X1234Y710D01*
X1359Y710D02*
X1372Y710D01*
X1375Y710D02*
X1387Y710D01*
X2073Y710D02*
X2085Y710D01*
X2100Y710D02*
X2105Y710D01*
X2226Y710D02*
X2233Y710D01*
X1227Y709D02*
X1234Y709D01*
X1358Y709D02*
X1388Y709D01*
X2072Y709D02*
X2086Y709D01*
X2099Y709D02*
X2104Y709D01*
X2226Y709D02*
X2233Y709D01*
X1227Y708D02*
X1234Y708D01*
X1357Y708D02*
X1389Y708D01*
X2071Y708D02*
X2087Y708D01*
X2099Y708D02*
X2104Y708D01*
X2226Y708D02*
X2233Y708D01*
X1227Y707D02*
X1234Y707D01*
X1356Y707D02*
X1363Y707D01*
X1368Y707D02*
X1379Y707D01*
X1383Y707D02*
X1390Y707D01*
X2070Y707D02*
X2077Y707D01*
X2082Y707D02*
X2088Y707D01*
X2098Y707D02*
X2103Y707D01*
X2226Y707D02*
X2233Y707D01*
X1227Y706D02*
X1234Y706D01*
X1355Y706D02*
X1362Y706D01*
X1369Y706D02*
X1378Y706D01*
X1384Y706D02*
X1391Y706D01*
X2069Y706D02*
X2076Y706D01*
X2083Y706D02*
X2089Y706D01*
X2098Y706D02*
X2103Y706D01*
X2226Y706D02*
X2233Y706D01*
X1227Y705D02*
X1234Y705D01*
X1355Y705D02*
X1361Y705D01*
X1370Y705D02*
X1377Y705D01*
X1385Y705D02*
X1391Y705D01*
X2069Y705D02*
X2075Y705D01*
X2083Y705D02*
X2089Y705D01*
X2097Y705D02*
X2102Y705D01*
X2226Y705D02*
X2233Y705D01*
X1227Y704D02*
X1234Y704D01*
X1355Y704D02*
X1360Y704D01*
X1371Y704D02*
X1376Y704D01*
X1386Y704D02*
X1391Y704D01*
X2069Y704D02*
X2074Y704D01*
X2084Y704D02*
X2089Y704D01*
X2096Y704D02*
X2102Y704D01*
X2226Y704D02*
X2233Y704D01*
X1227Y703D02*
X1234Y703D01*
X1355Y703D02*
X1360Y703D01*
X1371Y703D02*
X1376Y703D01*
X1387Y703D02*
X1391Y703D01*
X2069Y703D02*
X2074Y703D01*
X2084Y703D02*
X2089Y703D01*
X2096Y703D02*
X2101Y703D01*
X2226Y703D02*
X2233Y703D01*
X1227Y702D02*
X1234Y702D01*
X1355Y702D02*
X1360Y702D01*
X1371Y702D02*
X1376Y702D01*
X1387Y702D02*
X1391Y702D01*
X2069Y702D02*
X2074Y702D01*
X2084Y702D02*
X2089Y702D01*
X2095Y702D02*
X2101Y702D01*
X2226Y702D02*
X2233Y702D01*
X1227Y701D02*
X1234Y701D01*
X1355Y701D02*
X1360Y701D01*
X1371Y701D02*
X1376Y701D01*
X1387Y701D02*
X1391Y701D01*
X2069Y701D02*
X2074Y701D01*
X2084Y701D02*
X2089Y701D01*
X2094Y701D02*
X2100Y701D01*
X2226Y701D02*
X2233Y701D01*
X1227Y700D02*
X1234Y700D01*
X1355Y700D02*
X1360Y700D01*
X1371Y700D02*
X1376Y700D01*
X1387Y700D02*
X1391Y700D01*
X2069Y700D02*
X2074Y700D01*
X2084Y700D02*
X2089Y700D01*
X2093Y700D02*
X2100Y700D01*
X2226Y700D02*
X2233Y700D01*
X1227Y699D02*
X1234Y699D01*
X1355Y699D02*
X1360Y699D01*
X1372Y699D02*
X1375Y699D01*
X1387Y699D02*
X1391Y699D01*
X2069Y699D02*
X2074Y699D01*
X2084Y699D02*
X2089Y699D01*
X2092Y699D02*
X2099Y699D01*
X2226Y699D02*
X2233Y699D01*
X1227Y698D02*
X1234Y698D01*
X1355Y698D02*
X1360Y698D01*
X1373Y698D02*
X1374Y698D01*
X1387Y698D02*
X1391Y698D01*
X2069Y698D02*
X2074Y698D01*
X2084Y698D02*
X2089Y698D01*
X2091Y698D02*
X2098Y698D01*
X2226Y698D02*
X2233Y698D01*
X1227Y697D02*
X1234Y697D01*
X1355Y697D02*
X1360Y697D01*
X1386Y697D02*
X1391Y697D01*
X2069Y697D02*
X2074Y697D01*
X2084Y697D02*
X2097Y697D01*
X2226Y697D02*
X2233Y697D01*
X1227Y696D02*
X1234Y696D01*
X1355Y696D02*
X1360Y696D01*
X1386Y696D02*
X1391Y696D01*
X2069Y696D02*
X2074Y696D01*
X2084Y696D02*
X2096Y696D01*
X2226Y696D02*
X2233Y696D01*
X1227Y695D02*
X1234Y695D01*
X1355Y695D02*
X1361Y695D01*
X1385Y695D02*
X1391Y695D01*
X2069Y695D02*
X2075Y695D01*
X2084Y695D02*
X2095Y695D01*
X2226Y695D02*
X2233Y695D01*
X1227Y694D02*
X1234Y694D01*
X1355Y694D02*
X1362Y694D01*
X1384Y694D02*
X1391Y694D01*
X2069Y694D02*
X2076Y694D01*
X2084Y694D02*
X2094Y694D01*
X2226Y694D02*
X2233Y694D01*
X1227Y693D02*
X1234Y693D01*
X1356Y693D02*
X1363Y693D01*
X1383Y693D02*
X1390Y693D01*
X2070Y693D02*
X2077Y693D01*
X2084Y693D02*
X2093Y693D01*
X2226Y693D02*
X2233Y693D01*
X1227Y692D02*
X1234Y692D01*
X1357Y692D02*
X1364Y692D01*
X1382Y692D02*
X1389Y692D01*
X2071Y692D02*
X2092Y692D01*
X2226Y692D02*
X2233Y692D01*
X1227Y691D02*
X1234Y691D01*
X1358Y691D02*
X1365Y691D01*
X1381Y691D02*
X1388Y691D01*
X2072Y691D02*
X2091Y691D01*
X2226Y691D02*
X2233Y691D01*
X1227Y690D02*
X1234Y690D01*
X1359Y690D02*
X1365Y690D01*
X1381Y690D02*
X1387Y690D01*
X2073Y690D02*
X2090Y690D01*
X2226Y690D02*
X2233Y690D01*
X1227Y689D02*
X1234Y689D01*
X1360Y689D02*
X1365Y689D01*
X1381Y689D02*
X1386Y689D01*
X2074Y689D02*
X2089Y689D01*
X2226Y689D02*
X2233Y689D01*
X1227Y688D02*
X1234Y688D01*
X1361Y688D02*
X1364Y688D01*
X1382Y688D02*
X1385Y688D01*
X2075Y688D02*
X2088Y688D01*
X2226Y688D02*
X2233Y688D01*
X1227Y687D02*
X1234Y687D01*
X2076Y687D02*
X2078Y687D01*
X2085Y687D02*
X2087Y687D01*
X2226Y687D02*
X2233Y687D01*
X1227Y686D02*
X1234Y686D01*
X2226Y686D02*
X2233Y686D01*
X1227Y685D02*
X1234Y685D01*
X2226Y685D02*
X2233Y685D01*
X1227Y684D02*
X1234Y684D01*
X2226Y684D02*
X2233Y684D01*
X1227Y683D02*
X1234Y683D01*
X2226Y683D02*
X2233Y683D01*
X1227Y682D02*
X1234Y682D01*
X1363Y682D02*
X1363Y682D01*
X1383Y682D02*
X1383Y682D01*
X2077Y682D02*
X2077Y682D01*
X2097Y682D02*
X2097Y682D01*
X2226Y682D02*
X2233Y682D01*
X1227Y681D02*
X1234Y681D01*
X1361Y681D02*
X1385Y681D01*
X2075Y681D02*
X2099Y681D01*
X2226Y681D02*
X2233Y681D01*
X1227Y680D02*
X1234Y680D01*
X1360Y680D02*
X1386Y680D01*
X2074Y680D02*
X2100Y680D01*
X2226Y680D02*
X2233Y680D01*
X1227Y679D02*
X1234Y679D01*
X1359Y679D02*
X1387Y679D01*
X2073Y679D02*
X2101Y679D01*
X2226Y679D02*
X2233Y679D01*
X1227Y678D02*
X1234Y678D01*
X1358Y678D02*
X1388Y678D01*
X2072Y678D02*
X2102Y678D01*
X2226Y678D02*
X2233Y678D01*
X1227Y677D02*
X1234Y677D01*
X1357Y677D02*
X1389Y677D01*
X2071Y677D02*
X2103Y677D01*
X2226Y677D02*
X2233Y677D01*
X1227Y676D02*
X1234Y676D01*
X1356Y676D02*
X1363Y676D01*
X1383Y676D02*
X1390Y676D01*
X2070Y676D02*
X2077Y676D01*
X2097Y676D02*
X2104Y676D01*
X2226Y676D02*
X2233Y676D01*
X1227Y675D02*
X1234Y675D01*
X1355Y675D02*
X1362Y675D01*
X1384Y675D02*
X1391Y675D01*
X2069Y675D02*
X2076Y675D01*
X2098Y675D02*
X2105Y675D01*
X2226Y675D02*
X2233Y675D01*
X1227Y674D02*
X1234Y674D01*
X1355Y674D02*
X1361Y674D01*
X1385Y674D02*
X1391Y674D01*
X2069Y674D02*
X2075Y674D01*
X2099Y674D02*
X2105Y674D01*
X2226Y674D02*
X2233Y674D01*
X1227Y673D02*
X1234Y673D01*
X1355Y673D02*
X1360Y673D01*
X1386Y673D02*
X1391Y673D01*
X2069Y673D02*
X2074Y673D01*
X2100Y673D02*
X2105Y673D01*
X2226Y673D02*
X2233Y673D01*
X1227Y672D02*
X1234Y672D01*
X1355Y672D02*
X1360Y672D01*
X1386Y672D02*
X1391Y672D01*
X2069Y672D02*
X2074Y672D01*
X2100Y672D02*
X2105Y672D01*
X2226Y672D02*
X2233Y672D01*
X1227Y671D02*
X1234Y671D01*
X1355Y671D02*
X1360Y671D01*
X1387Y671D02*
X1391Y671D01*
X2069Y671D02*
X2074Y671D01*
X2100Y671D02*
X2105Y671D01*
X2226Y671D02*
X2233Y671D01*
X1227Y670D02*
X1234Y670D01*
X1355Y670D02*
X1360Y670D01*
X1387Y670D02*
X1391Y670D01*
X2069Y670D02*
X2074Y670D01*
X2100Y670D02*
X2105Y670D01*
X2226Y670D02*
X2233Y670D01*
X1227Y669D02*
X1234Y669D01*
X1355Y669D02*
X1360Y669D01*
X1387Y669D02*
X1391Y669D01*
X2069Y669D02*
X2074Y669D01*
X2100Y669D02*
X2105Y669D01*
X2226Y669D02*
X2233Y669D01*
X1227Y668D02*
X1234Y668D01*
X1355Y668D02*
X1360Y668D01*
X1387Y668D02*
X1391Y668D01*
X2069Y668D02*
X2074Y668D01*
X2100Y668D02*
X2105Y668D01*
X2226Y668D02*
X2233Y668D01*
X1227Y667D02*
X1234Y667D01*
X1355Y667D02*
X1360Y667D01*
X1387Y667D02*
X1391Y667D01*
X2069Y667D02*
X2074Y667D01*
X2100Y667D02*
X2105Y667D01*
X2226Y667D02*
X2233Y667D01*
X1227Y666D02*
X1234Y666D01*
X1355Y666D02*
X1360Y666D01*
X1387Y666D02*
X1391Y666D01*
X2069Y666D02*
X2074Y666D01*
X2100Y666D02*
X2105Y666D01*
X2226Y666D02*
X2233Y666D01*
X1227Y665D02*
X1234Y665D01*
X1355Y665D02*
X1360Y665D01*
X1387Y665D02*
X1391Y665D01*
X2069Y665D02*
X2074Y665D01*
X2100Y665D02*
X2105Y665D01*
X2226Y665D02*
X2233Y665D01*
X1227Y664D02*
X1234Y664D01*
X1355Y664D02*
X1360Y664D01*
X1387Y664D02*
X1391Y664D01*
X2069Y664D02*
X2074Y664D01*
X2100Y664D02*
X2105Y664D01*
X2226Y664D02*
X2233Y664D01*
X1227Y663D02*
X1234Y663D01*
X1355Y663D02*
X1360Y663D01*
X1387Y663D02*
X1391Y663D01*
X2069Y663D02*
X2074Y663D01*
X2100Y663D02*
X2105Y663D01*
X2226Y663D02*
X2233Y663D01*
X1227Y662D02*
X1234Y662D01*
X1355Y662D02*
X1360Y662D01*
X1387Y662D02*
X1391Y662D01*
X2069Y662D02*
X2074Y662D01*
X2100Y662D02*
X2105Y662D01*
X2226Y662D02*
X2233Y662D01*
X1227Y661D02*
X1234Y661D01*
X1355Y661D02*
X1391Y661D01*
X2069Y661D02*
X2105Y661D01*
X2226Y661D02*
X2233Y661D01*
X1227Y660D02*
X1234Y660D01*
X1355Y660D02*
X1391Y660D01*
X2069Y660D02*
X2105Y660D01*
X2226Y660D02*
X2233Y660D01*
X1227Y659D02*
X1234Y659D01*
X1355Y659D02*
X1391Y659D01*
X2069Y659D02*
X2105Y659D01*
X2226Y659D02*
X2233Y659D01*
X1227Y658D02*
X1234Y658D01*
X1355Y658D02*
X1391Y658D01*
X2069Y658D02*
X2105Y658D01*
X2226Y658D02*
X2233Y658D01*
X1227Y657D02*
X1234Y657D01*
X1355Y657D02*
X1391Y657D01*
X2069Y657D02*
X2105Y657D01*
X2226Y657D02*
X2233Y657D01*
X1227Y656D02*
X1234Y656D01*
X1356Y656D02*
X1390Y656D01*
X2070Y656D02*
X2104Y656D01*
X2226Y656D02*
X2233Y656D01*
X1227Y655D02*
X1234Y655D01*
X2226Y655D02*
X2233Y655D01*
X1227Y654D02*
X1234Y654D01*
X2226Y654D02*
X2233Y654D01*
X1227Y653D02*
X1234Y653D01*
X2226Y653D02*
X2233Y653D01*
X1227Y652D02*
X1234Y652D01*
X2226Y652D02*
X2233Y652D01*
X1227Y651D02*
X1234Y651D01*
X2226Y651D02*
X2233Y651D01*
X1227Y650D02*
X1234Y650D01*
X2226Y650D02*
X2233Y650D01*
X1227Y649D02*
X1234Y649D01*
X2226Y649D02*
X2233Y649D01*
X1227Y648D02*
X1234Y648D01*
X2226Y648D02*
X2233Y648D01*
X1227Y647D02*
X1234Y647D01*
X2226Y647D02*
X2233Y647D01*
X1227Y646D02*
X1234Y646D01*
X2226Y646D02*
X2233Y646D01*
X1227Y645D02*
X1234Y645D01*
X2226Y645D02*
X2233Y645D01*
X1227Y644D02*
X1234Y644D01*
X2226Y644D02*
X2233Y644D01*
X1227Y643D02*
X1234Y643D01*
X2226Y643D02*
X2233Y643D01*
X1227Y642D02*
X1234Y642D01*
X2226Y642D02*
X2233Y642D01*
X1227Y641D02*
X1234Y641D01*
X2226Y641D02*
X2233Y641D01*
X1227Y640D02*
X1234Y640D01*
X2226Y640D02*
X2233Y640D01*
X1227Y639D02*
X1234Y639D01*
X2226Y639D02*
X2233Y639D01*
X1227Y638D02*
X1234Y638D01*
X2226Y638D02*
X2233Y638D01*
X1227Y637D02*
X1234Y637D01*
X2226Y637D02*
X2233Y637D01*
X1227Y636D02*
X1234Y636D01*
X2226Y636D02*
X2233Y636D01*
X1227Y635D02*
X1234Y635D01*
X2226Y635D02*
X2233Y635D01*
X1227Y634D02*
X1234Y634D01*
X2226Y634D02*
X2233Y634D01*
X1227Y633D02*
X1234Y633D01*
X2226Y633D02*
X2233Y633D01*
X1227Y632D02*
X1234Y632D01*
X2226Y632D02*
X2233Y632D01*
X1227Y631D02*
X1234Y631D01*
X2226Y631D02*
X2233Y631D01*
X1227Y630D02*
X1234Y630D01*
X2226Y630D02*
X2233Y630D01*
X1227Y629D02*
X1234Y629D01*
X2226Y629D02*
X2233Y629D01*
X1227Y628D02*
X1234Y628D01*
X2226Y628D02*
X2233Y628D01*
X1227Y627D02*
X1234Y627D01*
X2226Y627D02*
X2233Y627D01*
X1227Y626D02*
X1234Y626D01*
X2226Y626D02*
X2233Y626D01*
X1227Y625D02*
X1234Y625D01*
X2226Y625D02*
X2233Y625D01*
X1227Y624D02*
X1234Y624D01*
X2226Y624D02*
X2233Y624D01*
X1227Y623D02*
X1234Y623D01*
X2226Y623D02*
X2233Y623D01*
X1227Y622D02*
X1234Y622D01*
X2226Y622D02*
X2233Y622D01*
X1227Y621D02*
X1234Y621D01*
X2226Y621D02*
X2233Y621D01*
X1227Y620D02*
X1234Y620D01*
X2226Y620D02*
X2233Y620D01*
X1227Y619D02*
X1234Y619D01*
X2226Y619D02*
X2233Y619D01*
X1227Y618D02*
X1234Y618D01*
X2226Y618D02*
X2233Y618D01*
X1227Y617D02*
X1234Y617D01*
X2226Y617D02*
X2233Y617D01*
X1227Y616D02*
X1234Y616D01*
X2226Y616D02*
X2233Y616D01*
X1227Y615D02*
X1234Y615D01*
X2226Y615D02*
X2233Y615D01*
X1227Y614D02*
X1234Y614D01*
X2226Y614D02*
X2233Y614D01*
X1227Y613D02*
X1234Y613D01*
X1372Y613D02*
X1373Y613D01*
X2096Y613D02*
X2104Y613D01*
X2226Y613D02*
X2233Y613D01*
X1227Y612D02*
X1234Y612D01*
X1371Y612D02*
X1374Y612D01*
X2095Y612D02*
X2105Y612D01*
X2226Y612D02*
X2233Y612D01*
X1227Y611D02*
X1234Y611D01*
X1370Y611D02*
X1375Y611D01*
X2094Y611D02*
X2105Y611D01*
X2226Y611D02*
X2233Y611D01*
X1227Y610D02*
X1234Y610D01*
X1370Y610D02*
X1375Y610D01*
X2093Y610D02*
X2105Y610D01*
X2226Y610D02*
X2233Y610D01*
X1227Y609D02*
X1234Y609D01*
X1370Y609D02*
X1375Y609D01*
X2092Y609D02*
X2105Y609D01*
X2226Y609D02*
X2233Y609D01*
X1227Y608D02*
X1234Y608D01*
X1370Y608D02*
X1375Y608D01*
X1388Y608D02*
X1389Y608D01*
X2091Y608D02*
X2105Y608D01*
X2226Y608D02*
X2233Y608D01*
X1227Y607D02*
X1234Y607D01*
X1356Y607D02*
X1391Y607D01*
X2090Y607D02*
X2097Y607D01*
X2100Y607D02*
X2105Y607D01*
X2226Y607D02*
X2233Y607D01*
X1227Y606D02*
X1234Y606D01*
X1355Y606D02*
X1391Y606D01*
X2089Y606D02*
X2096Y606D01*
X2100Y606D02*
X2105Y606D01*
X2226Y606D02*
X2233Y606D01*
X1227Y605D02*
X1234Y605D01*
X1355Y605D02*
X1391Y605D01*
X2088Y605D02*
X2095Y605D01*
X2100Y605D02*
X2105Y605D01*
X2226Y605D02*
X2233Y605D01*
X1227Y604D02*
X1234Y604D01*
X1355Y604D02*
X1391Y604D01*
X2087Y604D02*
X2094Y604D01*
X2100Y604D02*
X2105Y604D01*
X2226Y604D02*
X2233Y604D01*
X1227Y603D02*
X1234Y603D01*
X1356Y603D02*
X1390Y603D01*
X2086Y603D02*
X2093Y603D01*
X2100Y603D02*
X2105Y603D01*
X2226Y603D02*
X2233Y603D01*
X1227Y602D02*
X1234Y602D01*
X1370Y602D02*
X1375Y602D01*
X1382Y602D02*
X1389Y602D01*
X2085Y602D02*
X2092Y602D01*
X2100Y602D02*
X2105Y602D01*
X2226Y602D02*
X2233Y602D01*
X1227Y601D02*
X1234Y601D01*
X1370Y601D02*
X1375Y601D01*
X1381Y601D02*
X1388Y601D01*
X2084Y601D02*
X2091Y601D01*
X2100Y601D02*
X2105Y601D01*
X2226Y601D02*
X2233Y601D01*
X1227Y600D02*
X1234Y600D01*
X1370Y600D02*
X1375Y600D01*
X1380Y600D02*
X1387Y600D01*
X2083Y600D02*
X2090Y600D01*
X2100Y600D02*
X2105Y600D01*
X2226Y600D02*
X2233Y600D01*
X1227Y599D02*
X1234Y599D01*
X1370Y599D02*
X1375Y599D01*
X1379Y599D02*
X1386Y599D01*
X2082Y599D02*
X2089Y599D01*
X2100Y599D02*
X2105Y599D01*
X2226Y599D02*
X2233Y599D01*
X1227Y598D02*
X1234Y598D01*
X1370Y598D02*
X1375Y598D01*
X1378Y598D02*
X1385Y598D01*
X2081Y598D02*
X2088Y598D01*
X2100Y598D02*
X2105Y598D01*
X2226Y598D02*
X2233Y598D01*
X1227Y597D02*
X1234Y597D01*
X1370Y597D02*
X1375Y597D01*
X1377Y597D02*
X1384Y597D01*
X2080Y597D02*
X2087Y597D01*
X2100Y597D02*
X2105Y597D01*
X2226Y597D02*
X2233Y597D01*
X1227Y596D02*
X1234Y596D01*
X1370Y596D02*
X1383Y596D01*
X2079Y596D02*
X2086Y596D01*
X2100Y596D02*
X2105Y596D01*
X2226Y596D02*
X2233Y596D01*
X1227Y595D02*
X1234Y595D01*
X1370Y595D02*
X1382Y595D01*
X2078Y595D02*
X2085Y595D01*
X2100Y595D02*
X2105Y595D01*
X2226Y595D02*
X2233Y595D01*
X1227Y594D02*
X1234Y594D01*
X1370Y594D02*
X1381Y594D01*
X2077Y594D02*
X2084Y594D01*
X2100Y594D02*
X2105Y594D01*
X2226Y594D02*
X2233Y594D01*
X1227Y593D02*
X1234Y593D01*
X1370Y593D02*
X1380Y593D01*
X2076Y593D02*
X2083Y593D01*
X2100Y593D02*
X2105Y593D01*
X2226Y593D02*
X2233Y593D01*
X1227Y592D02*
X1234Y592D01*
X1370Y592D02*
X1378Y592D01*
X2070Y592D02*
X2082Y592D01*
X2100Y592D02*
X2105Y592D01*
X2226Y592D02*
X2233Y592D01*
X1227Y591D02*
X1234Y591D01*
X1370Y591D02*
X1377Y591D01*
X2069Y591D02*
X2081Y591D01*
X2100Y591D02*
X2105Y591D01*
X2226Y591D02*
X2233Y591D01*
X1227Y590D02*
X1234Y590D01*
X1370Y590D02*
X1376Y590D01*
X2069Y590D02*
X2080Y590D01*
X2100Y590D02*
X2105Y590D01*
X2226Y590D02*
X2233Y590D01*
X1227Y589D02*
X1234Y589D01*
X1370Y589D02*
X1375Y589D01*
X2069Y589D02*
X2079Y589D01*
X2101Y589D02*
X2105Y589D01*
X2226Y589D02*
X2233Y589D01*
X1227Y588D02*
X1234Y588D01*
X1371Y588D02*
X1374Y588D01*
X2070Y588D02*
X2078Y588D01*
X2101Y588D02*
X2104Y588D01*
X2226Y588D02*
X2233Y588D01*
X1227Y587D02*
X1234Y587D01*
X1372Y587D02*
X1373Y587D01*
X2076Y587D02*
X2077Y587D01*
X2226Y587D02*
X2233Y587D01*
X1227Y586D02*
X1234Y586D01*
X2226Y586D02*
X2233Y586D01*
X1227Y585D02*
X1234Y585D01*
X2226Y585D02*
X2233Y585D01*
X1227Y584D02*
X1234Y584D01*
X2226Y584D02*
X2233Y584D01*
X1227Y583D02*
X1234Y583D01*
X2226Y583D02*
X2233Y583D01*
X1227Y582D02*
X1234Y582D01*
X1363Y582D02*
X1363Y582D01*
X1383Y582D02*
X1383Y582D01*
X2077Y582D02*
X2077Y582D01*
X2097Y582D02*
X2097Y582D01*
X2226Y582D02*
X2233Y582D01*
X1227Y581D02*
X1234Y581D01*
X1361Y581D02*
X1385Y581D01*
X2075Y581D02*
X2099Y581D01*
X2226Y581D02*
X2233Y581D01*
X1227Y580D02*
X1234Y580D01*
X1360Y580D02*
X1386Y580D01*
X2074Y580D02*
X2100Y580D01*
X2226Y580D02*
X2233Y580D01*
X1227Y579D02*
X1234Y579D01*
X1359Y579D02*
X1387Y579D01*
X2073Y579D02*
X2101Y579D01*
X2226Y579D02*
X2233Y579D01*
X1227Y578D02*
X1234Y578D01*
X1358Y578D02*
X1388Y578D01*
X2072Y578D02*
X2102Y578D01*
X2226Y578D02*
X2233Y578D01*
X1227Y577D02*
X1234Y577D01*
X1357Y577D02*
X1389Y577D01*
X2071Y577D02*
X2103Y577D01*
X2226Y577D02*
X2233Y577D01*
X1227Y576D02*
X1234Y576D01*
X1356Y576D02*
X1363Y576D01*
X1383Y576D02*
X1390Y576D01*
X2070Y576D02*
X2077Y576D01*
X2097Y576D02*
X2104Y576D01*
X2226Y576D02*
X2233Y576D01*
X1227Y575D02*
X1234Y575D01*
X1355Y575D02*
X1362Y575D01*
X1384Y575D02*
X1391Y575D01*
X2069Y575D02*
X2076Y575D01*
X2098Y575D02*
X2105Y575D01*
X2226Y575D02*
X2233Y575D01*
X1227Y574D02*
X1234Y574D01*
X1355Y574D02*
X1361Y574D01*
X1385Y574D02*
X1391Y574D01*
X2069Y574D02*
X2075Y574D01*
X2099Y574D02*
X2105Y574D01*
X2226Y574D02*
X2233Y574D01*
X1227Y573D02*
X1234Y573D01*
X1355Y573D02*
X1360Y573D01*
X1386Y573D02*
X1391Y573D01*
X2069Y573D02*
X2074Y573D01*
X2100Y573D02*
X2105Y573D01*
X2226Y573D02*
X2233Y573D01*
X1227Y572D02*
X1234Y572D01*
X1355Y572D02*
X1360Y572D01*
X1386Y572D02*
X1391Y572D01*
X2069Y572D02*
X2074Y572D01*
X2100Y572D02*
X2105Y572D01*
X2226Y572D02*
X2233Y572D01*
X1227Y571D02*
X1234Y571D01*
X1355Y571D02*
X1360Y571D01*
X1387Y571D02*
X1391Y571D01*
X2069Y571D02*
X2074Y571D01*
X2100Y571D02*
X2105Y571D01*
X2226Y571D02*
X2233Y571D01*
X1227Y570D02*
X1234Y570D01*
X1355Y570D02*
X1360Y570D01*
X1387Y570D02*
X1391Y570D01*
X2069Y570D02*
X2074Y570D01*
X2100Y570D02*
X2105Y570D01*
X2226Y570D02*
X2233Y570D01*
X1227Y569D02*
X1234Y569D01*
X1355Y569D02*
X1360Y569D01*
X1387Y569D02*
X1391Y569D01*
X2069Y569D02*
X2074Y569D01*
X2100Y569D02*
X2105Y569D01*
X2226Y569D02*
X2233Y569D01*
X1227Y568D02*
X1234Y568D01*
X1355Y568D02*
X1360Y568D01*
X1387Y568D02*
X1391Y568D01*
X2069Y568D02*
X2074Y568D01*
X2100Y568D02*
X2105Y568D01*
X2226Y568D02*
X2233Y568D01*
X1227Y567D02*
X1234Y567D01*
X1355Y567D02*
X1360Y567D01*
X1387Y567D02*
X1391Y567D01*
X2069Y567D02*
X2074Y567D01*
X2100Y567D02*
X2105Y567D01*
X2226Y567D02*
X2233Y567D01*
X1227Y566D02*
X1234Y566D01*
X1355Y566D02*
X1360Y566D01*
X1387Y566D02*
X1391Y566D01*
X2069Y566D02*
X2074Y566D01*
X2100Y566D02*
X2105Y566D01*
X2226Y566D02*
X2233Y566D01*
X1227Y565D02*
X1234Y565D01*
X1355Y565D02*
X1360Y565D01*
X1387Y565D02*
X1391Y565D01*
X2069Y565D02*
X2074Y565D01*
X2100Y565D02*
X2105Y565D01*
X2226Y565D02*
X2233Y565D01*
X1227Y564D02*
X1234Y564D01*
X1355Y564D02*
X1360Y564D01*
X1387Y564D02*
X1391Y564D01*
X2069Y564D02*
X2074Y564D01*
X2100Y564D02*
X2105Y564D01*
X2226Y564D02*
X2233Y564D01*
X1227Y563D02*
X1234Y563D01*
X1355Y563D02*
X1360Y563D01*
X1387Y563D02*
X1391Y563D01*
X2069Y563D02*
X2074Y563D01*
X2100Y563D02*
X2105Y563D01*
X2226Y563D02*
X2233Y563D01*
X1227Y562D02*
X1234Y562D01*
X1355Y562D02*
X1360Y562D01*
X1387Y562D02*
X1391Y562D01*
X2069Y562D02*
X2074Y562D01*
X2100Y562D02*
X2105Y562D01*
X2226Y562D02*
X2233Y562D01*
X1227Y561D02*
X1234Y561D01*
X1355Y561D02*
X1391Y561D01*
X2069Y561D02*
X2105Y561D01*
X2226Y561D02*
X2233Y561D01*
X1227Y560D02*
X1234Y560D01*
X1355Y560D02*
X1391Y560D01*
X2069Y560D02*
X2105Y560D01*
X2226Y560D02*
X2233Y560D01*
X1227Y559D02*
X1234Y559D01*
X1355Y559D02*
X1391Y559D01*
X2069Y559D02*
X2105Y559D01*
X2226Y559D02*
X2233Y559D01*
X1227Y558D02*
X1234Y558D01*
X1355Y558D02*
X1391Y558D01*
X2069Y558D02*
X2105Y558D01*
X2226Y558D02*
X2233Y558D01*
X1227Y557D02*
X1234Y557D01*
X1355Y557D02*
X1391Y557D01*
X2069Y557D02*
X2105Y557D01*
X2226Y557D02*
X2233Y557D01*
X1227Y556D02*
X1234Y556D01*
X1356Y556D02*
X1390Y556D01*
X2070Y556D02*
X2104Y556D01*
X2226Y556D02*
X2233Y556D01*
X1227Y555D02*
X1234Y555D01*
X2226Y555D02*
X2233Y555D01*
X1227Y554D02*
X1234Y554D01*
X2226Y554D02*
X2233Y554D01*
X1227Y553D02*
X1234Y553D01*
X2226Y553D02*
X2233Y553D01*
X1227Y552D02*
X1234Y552D01*
X2226Y552D02*
X2233Y552D01*
X1227Y551D02*
X1234Y551D01*
X2226Y551D02*
X2233Y551D01*
X1227Y550D02*
X1234Y550D01*
X2226Y550D02*
X2233Y550D01*
X1227Y549D02*
X1234Y549D01*
X2226Y549D02*
X2233Y549D01*
X1227Y548D02*
X1234Y548D01*
X2226Y548D02*
X2233Y548D01*
X1227Y547D02*
X1234Y547D01*
X2226Y547D02*
X2233Y547D01*
X1227Y546D02*
X1234Y546D01*
X2226Y546D02*
X2233Y546D01*
X1227Y545D02*
X1234Y545D01*
X2226Y545D02*
X2233Y545D01*
X1227Y544D02*
X1234Y544D01*
X2226Y544D02*
X2233Y544D01*
X1227Y543D02*
X1234Y543D01*
X2226Y543D02*
X2233Y543D01*
X1227Y542D02*
X1234Y542D01*
X2226Y542D02*
X2233Y542D01*
X1227Y541D02*
X1234Y541D01*
X2226Y541D02*
X2233Y541D01*
X1227Y540D02*
X1234Y540D01*
X2226Y540D02*
X2233Y540D01*
X1227Y539D02*
X1234Y539D01*
X2226Y539D02*
X2233Y539D01*
X1227Y538D02*
X1234Y538D01*
X2226Y538D02*
X2233Y538D01*
X1227Y537D02*
X1234Y537D01*
X2226Y537D02*
X2233Y537D01*
X1227Y536D02*
X1234Y536D01*
X2226Y536D02*
X2233Y536D01*
X1227Y535D02*
X1234Y535D01*
X2226Y535D02*
X2233Y535D01*
X1227Y534D02*
X1234Y534D01*
X2226Y534D02*
X2233Y534D01*
X1227Y533D02*
X1234Y533D01*
X2226Y533D02*
X2233Y533D01*
X1227Y532D02*
X1234Y532D01*
X2226Y532D02*
X2233Y532D01*
X1227Y531D02*
X1234Y531D01*
X2226Y531D02*
X2233Y531D01*
X1227Y530D02*
X1234Y530D01*
X2226Y530D02*
X2233Y530D01*
X1227Y529D02*
X1234Y529D01*
X2226Y529D02*
X2233Y529D01*
X1227Y528D02*
X1234Y528D01*
X2226Y528D02*
X2233Y528D01*
X1227Y527D02*
X1234Y527D01*
X2226Y527D02*
X2233Y527D01*
X1227Y526D02*
X1234Y526D01*
X2226Y526D02*
X2233Y526D01*
X1227Y525D02*
X1234Y525D01*
X2226Y525D02*
X2233Y525D01*
X1227Y524D02*
X1234Y524D01*
X2226Y524D02*
X2233Y524D01*
X1227Y523D02*
X1234Y523D01*
X2226Y523D02*
X2233Y523D01*
X1227Y522D02*
X1234Y522D01*
X2226Y522D02*
X2233Y522D01*
X1227Y521D02*
X1234Y521D01*
X2226Y521D02*
X2233Y521D01*
X1227Y520D02*
X1234Y520D01*
X2226Y520D02*
X2233Y520D01*
X1227Y519D02*
X1234Y519D01*
X2226Y519D02*
X2233Y519D01*
X1227Y518D02*
X1234Y518D01*
X2226Y518D02*
X2233Y518D01*
X1227Y517D02*
X1234Y517D01*
X2226Y517D02*
X2233Y517D01*
X1227Y516D02*
X1234Y516D01*
X2226Y516D02*
X2233Y516D01*
X1227Y515D02*
X1234Y515D01*
X2226Y515D02*
X2233Y515D01*
X1227Y514D02*
X1234Y514D01*
X2226Y514D02*
X2233Y514D01*
X1227Y513D02*
X1234Y513D01*
X2076Y513D02*
X2082Y513D01*
X2091Y513D02*
X2098Y513D01*
X2226Y513D02*
X2233Y513D01*
X1227Y512D02*
X1234Y512D01*
X2074Y512D02*
X2083Y512D01*
X2090Y512D02*
X2099Y512D01*
X2226Y512D02*
X2233Y512D01*
X1227Y511D02*
X1234Y511D01*
X2074Y511D02*
X2084Y511D01*
X2089Y511D02*
X2100Y511D01*
X2226Y511D02*
X2233Y511D01*
X1227Y510D02*
X1234Y510D01*
X2073Y510D02*
X2085Y510D01*
X2088Y510D02*
X2101Y510D01*
X2226Y510D02*
X2233Y510D01*
X1227Y509D02*
X1234Y509D01*
X2072Y509D02*
X2102Y509D01*
X2226Y509D02*
X2233Y509D01*
X1227Y508D02*
X1234Y508D01*
X2071Y508D02*
X2103Y508D01*
X2226Y508D02*
X2233Y508D01*
X1227Y507D02*
X1234Y507D01*
X2069Y507D02*
X2077Y507D01*
X2081Y507D02*
X2092Y507D01*
X2097Y507D02*
X2104Y507D01*
X2226Y507D02*
X2233Y507D01*
X1227Y506D02*
X1234Y506D01*
X2069Y506D02*
X2076Y506D01*
X2082Y506D02*
X2091Y506D01*
X2098Y506D02*
X2105Y506D01*
X2226Y506D02*
X2233Y506D01*
X1227Y505D02*
X1234Y505D01*
X2069Y505D02*
X2075Y505D01*
X2083Y505D02*
X2090Y505D01*
X2099Y505D02*
X2105Y505D01*
X2226Y505D02*
X2233Y505D01*
X1227Y504D02*
X1234Y504D01*
X2069Y504D02*
X2074Y504D01*
X2084Y504D02*
X2089Y504D01*
X2100Y504D02*
X2105Y504D01*
X2226Y504D02*
X2233Y504D01*
X1227Y503D02*
X1234Y503D01*
X2069Y503D02*
X2074Y503D01*
X2084Y503D02*
X2089Y503D01*
X2100Y503D02*
X2105Y503D01*
X2226Y503D02*
X2233Y503D01*
X1227Y502D02*
X1234Y502D01*
X2069Y502D02*
X2074Y502D01*
X2084Y502D02*
X2089Y502D01*
X2100Y502D02*
X2105Y502D01*
X2226Y502D02*
X2233Y502D01*
X1227Y501D02*
X1234Y501D01*
X2069Y501D02*
X2074Y501D01*
X2084Y501D02*
X2089Y501D01*
X2100Y501D02*
X2105Y501D01*
X2226Y501D02*
X2233Y501D01*
X1227Y500D02*
X1234Y500D01*
X2069Y500D02*
X2074Y500D01*
X2084Y500D02*
X2089Y500D01*
X2100Y500D02*
X2105Y500D01*
X2226Y500D02*
X2233Y500D01*
X1227Y499D02*
X1234Y499D01*
X2069Y499D02*
X2074Y499D01*
X2084Y499D02*
X2089Y499D01*
X2100Y499D02*
X2105Y499D01*
X2226Y499D02*
X2233Y499D01*
X1227Y498D02*
X1234Y498D01*
X2069Y498D02*
X2074Y498D01*
X2084Y498D02*
X2089Y498D01*
X2100Y498D02*
X2105Y498D01*
X2226Y498D02*
X2233Y498D01*
X1227Y497D02*
X1234Y497D01*
X1361Y497D02*
X1375Y497D01*
X1382Y497D02*
X1385Y497D01*
X2069Y497D02*
X2074Y497D01*
X2084Y497D02*
X2089Y497D01*
X2100Y497D02*
X2105Y497D01*
X2226Y497D02*
X2233Y497D01*
X1227Y496D02*
X1234Y496D01*
X1360Y496D02*
X1376Y496D01*
X1381Y496D02*
X1386Y496D01*
X2069Y496D02*
X2074Y496D01*
X2084Y496D02*
X2089Y496D01*
X2100Y496D02*
X2105Y496D01*
X2226Y496D02*
X2233Y496D01*
X1227Y495D02*
X1234Y495D01*
X1360Y495D02*
X1376Y495D01*
X1381Y495D02*
X1387Y495D01*
X2069Y495D02*
X2075Y495D01*
X2083Y495D02*
X2090Y495D01*
X2099Y495D02*
X2105Y495D01*
X2226Y495D02*
X2233Y495D01*
X1227Y494D02*
X1234Y494D01*
X1359Y494D02*
X1376Y494D01*
X1381Y494D02*
X1388Y494D01*
X2069Y494D02*
X2076Y494D01*
X2082Y494D02*
X2091Y494D01*
X2098Y494D02*
X2105Y494D01*
X2226Y494D02*
X2233Y494D01*
X1227Y493D02*
X1234Y493D01*
X1358Y493D02*
X1376Y493D01*
X1382Y493D02*
X1389Y493D01*
X2070Y493D02*
X2077Y493D01*
X2081Y493D02*
X2092Y493D01*
X2097Y493D02*
X2104Y493D01*
X2226Y493D02*
X2233Y493D01*
X1227Y492D02*
X1234Y492D01*
X1356Y492D02*
X1364Y492D01*
X1371Y492D02*
X1376Y492D01*
X1383Y492D02*
X1390Y492D01*
X2071Y492D02*
X2103Y492D01*
X2226Y492D02*
X2233Y492D01*
X1227Y491D02*
X1234Y491D01*
X1355Y491D02*
X1362Y491D01*
X1371Y491D02*
X1376Y491D01*
X1384Y491D02*
X1391Y491D01*
X2072Y491D02*
X2102Y491D01*
X2226Y491D02*
X2233Y491D01*
X1227Y490D02*
X1234Y490D01*
X1355Y490D02*
X1361Y490D01*
X1371Y490D02*
X1376Y490D01*
X1385Y490D02*
X1391Y490D01*
X2073Y490D02*
X2085Y490D01*
X2088Y490D02*
X2101Y490D01*
X2226Y490D02*
X2233Y490D01*
X1227Y489D02*
X1234Y489D01*
X1355Y489D02*
X1360Y489D01*
X1371Y489D02*
X1376Y489D01*
X1386Y489D02*
X1391Y489D01*
X2074Y489D02*
X2084Y489D01*
X2089Y489D02*
X2100Y489D01*
X2226Y489D02*
X2233Y489D01*
X1227Y488D02*
X1234Y488D01*
X1355Y488D02*
X1360Y488D01*
X1371Y488D02*
X1376Y488D01*
X1386Y488D02*
X1391Y488D01*
X2075Y488D02*
X2083Y488D01*
X2090Y488D02*
X2099Y488D01*
X2226Y488D02*
X2233Y488D01*
X1227Y487D02*
X1234Y487D01*
X1355Y487D02*
X1360Y487D01*
X1371Y487D02*
X1376Y487D01*
X1387Y487D02*
X1391Y487D01*
X2077Y487D02*
X2077Y487D01*
X2081Y487D02*
X2081Y487D01*
X2092Y487D02*
X2092Y487D01*
X2097Y487D02*
X2097Y487D01*
X2226Y487D02*
X2233Y487D01*
X1227Y486D02*
X1234Y486D01*
X1355Y486D02*
X1360Y486D01*
X1371Y486D02*
X1376Y486D01*
X1387Y486D02*
X1391Y486D01*
X2226Y486D02*
X2233Y486D01*
X1227Y485D02*
X1234Y485D01*
X1355Y485D02*
X1360Y485D01*
X1371Y485D02*
X1376Y485D01*
X1387Y485D02*
X1391Y485D01*
X2226Y485D02*
X2233Y485D01*
X1227Y484D02*
X1234Y484D01*
X1355Y484D02*
X1360Y484D01*
X1371Y484D02*
X1376Y484D01*
X1387Y484D02*
X1391Y484D01*
X2226Y484D02*
X2233Y484D01*
X1227Y483D02*
X1234Y483D01*
X1355Y483D02*
X1360Y483D01*
X1372Y483D02*
X1376Y483D01*
X1387Y483D02*
X1391Y483D01*
X2226Y483D02*
X2233Y483D01*
X1227Y482D02*
X1234Y482D01*
X1355Y482D02*
X1360Y482D01*
X1372Y482D02*
X1375Y482D01*
X1387Y482D02*
X1391Y482D01*
X2076Y482D02*
X2077Y482D01*
X2096Y482D02*
X2098Y482D01*
X2226Y482D02*
X2233Y482D01*
X1227Y481D02*
X1234Y481D01*
X1355Y481D02*
X1360Y481D01*
X1386Y481D02*
X1391Y481D01*
X2075Y481D02*
X2099Y481D01*
X2226Y481D02*
X2233Y481D01*
X1227Y480D02*
X1234Y480D01*
X1355Y480D02*
X1360Y480D01*
X1386Y480D02*
X1391Y480D01*
X2074Y480D02*
X2100Y480D01*
X2226Y480D02*
X2233Y480D01*
X1227Y479D02*
X1234Y479D01*
X1355Y479D02*
X1361Y479D01*
X1385Y479D02*
X1391Y479D01*
X2073Y479D02*
X2101Y479D01*
X2226Y479D02*
X2233Y479D01*
X1227Y478D02*
X1234Y478D01*
X1355Y478D02*
X1362Y478D01*
X1384Y478D02*
X1391Y478D01*
X2072Y478D02*
X2102Y478D01*
X2226Y478D02*
X2233Y478D01*
X1227Y477D02*
X1234Y477D01*
X1356Y477D02*
X1364Y477D01*
X1382Y477D02*
X1390Y477D01*
X2071Y477D02*
X2103Y477D01*
X2226Y477D02*
X2233Y477D01*
X1227Y476D02*
X1234Y476D01*
X1358Y476D02*
X1389Y476D01*
X2070Y476D02*
X2077Y476D01*
X2097Y476D02*
X2104Y476D01*
X2226Y476D02*
X2233Y476D01*
X1227Y475D02*
X1234Y475D01*
X1359Y475D02*
X1388Y475D01*
X2069Y475D02*
X2076Y475D01*
X2098Y475D02*
X2105Y475D01*
X2226Y475D02*
X2233Y475D01*
X1227Y474D02*
X1234Y474D01*
X1360Y474D02*
X1387Y474D01*
X2069Y474D02*
X2075Y474D01*
X2099Y474D02*
X2105Y474D01*
X2226Y474D02*
X2233Y474D01*
X1227Y473D02*
X1234Y473D01*
X1360Y473D02*
X1386Y473D01*
X2069Y473D02*
X2074Y473D01*
X2100Y473D02*
X2105Y473D01*
X2226Y473D02*
X2233Y473D01*
X1227Y472D02*
X1234Y472D01*
X1361Y472D02*
X1385Y472D01*
X2069Y472D02*
X2074Y472D01*
X2100Y472D02*
X2105Y472D01*
X2226Y472D02*
X2233Y472D01*
X1227Y471D02*
X1234Y471D01*
X2069Y471D02*
X2074Y471D01*
X2100Y471D02*
X2105Y471D01*
X2226Y471D02*
X2233Y471D01*
X1227Y470D02*
X1234Y470D01*
X2069Y470D02*
X2074Y470D01*
X2100Y470D02*
X2105Y470D01*
X2226Y470D02*
X2233Y470D01*
X1227Y469D02*
X1234Y469D01*
X2069Y469D02*
X2074Y469D01*
X2100Y469D02*
X2105Y469D01*
X2226Y469D02*
X2233Y469D01*
X1227Y468D02*
X1234Y468D01*
X2069Y468D02*
X2074Y468D01*
X2100Y468D02*
X2105Y468D01*
X2226Y468D02*
X2233Y468D01*
X1227Y467D02*
X1234Y467D01*
X2069Y467D02*
X2074Y467D01*
X2100Y467D02*
X2105Y467D01*
X2226Y467D02*
X2233Y467D01*
X1227Y466D02*
X1234Y466D01*
X2069Y466D02*
X2074Y466D01*
X2100Y466D02*
X2105Y466D01*
X2226Y466D02*
X2233Y466D01*
X1227Y465D02*
X1234Y465D01*
X2069Y465D02*
X2074Y465D01*
X2100Y465D02*
X2105Y465D01*
X2226Y465D02*
X2233Y465D01*
X1227Y464D02*
X1234Y464D01*
X2069Y464D02*
X2074Y464D01*
X2100Y464D02*
X2105Y464D01*
X2226Y464D02*
X2233Y464D01*
X1227Y463D02*
X1234Y463D01*
X2069Y463D02*
X2074Y463D01*
X2100Y463D02*
X2105Y463D01*
X2226Y463D02*
X2233Y463D01*
X1227Y462D02*
X1234Y462D01*
X2069Y462D02*
X2074Y462D01*
X2100Y462D02*
X2105Y462D01*
X2226Y462D02*
X2233Y462D01*
X1227Y461D02*
X1234Y461D01*
X2069Y461D02*
X2105Y461D01*
X2226Y461D02*
X2233Y461D01*
X1227Y460D02*
X1234Y460D01*
X2069Y460D02*
X2105Y460D01*
X2226Y460D02*
X2233Y460D01*
X1227Y459D02*
X1234Y459D01*
X2069Y459D02*
X2105Y459D01*
X2226Y459D02*
X2233Y459D01*
X1227Y458D02*
X1234Y458D01*
X2069Y458D02*
X2105Y458D01*
X2226Y458D02*
X2233Y458D01*
X1227Y457D02*
X1234Y457D01*
X2069Y457D02*
X2105Y457D01*
X2226Y457D02*
X2233Y457D01*
X1227Y456D02*
X1234Y456D01*
X2070Y456D02*
X2104Y456D01*
X2226Y456D02*
X2233Y456D01*
X1227Y455D02*
X1234Y455D01*
X2226Y455D02*
X2233Y455D01*
X1227Y454D02*
X1234Y454D01*
X2226Y454D02*
X2233Y454D01*
X1227Y453D02*
X1234Y453D01*
X2226Y453D02*
X2233Y453D01*
X1227Y452D02*
X1234Y452D01*
X2226Y452D02*
X2233Y452D01*
X1227Y451D02*
X1234Y451D01*
X2226Y451D02*
X2233Y451D01*
X1227Y450D02*
X1234Y450D01*
X2226Y450D02*
X2233Y450D01*
X1227Y449D02*
X1234Y449D01*
X2226Y449D02*
X2233Y449D01*
X1227Y448D02*
X1234Y448D01*
X2226Y448D02*
X2233Y448D01*
X1227Y447D02*
X1234Y447D01*
X2226Y447D02*
X2233Y447D01*
X1227Y446D02*
X1234Y446D01*
X2226Y446D02*
X2233Y446D01*
X1227Y445D02*
X1234Y445D01*
X2226Y445D02*
X2233Y445D01*
X1227Y444D02*
X1234Y444D01*
X2226Y444D02*
X2233Y444D01*
X1227Y443D02*
X1234Y443D01*
X2226Y443D02*
X2233Y443D01*
X1227Y442D02*
X1234Y442D01*
X2226Y442D02*
X2233Y442D01*
X1227Y441D02*
X1234Y441D01*
X2226Y441D02*
X2233Y441D01*
X1227Y440D02*
X1234Y440D01*
X2226Y440D02*
X2233Y440D01*
X1227Y439D02*
X1234Y439D01*
X2226Y439D02*
X2233Y439D01*
X1227Y438D02*
X1234Y438D01*
X2226Y438D02*
X2233Y438D01*
X1227Y437D02*
X1234Y437D01*
X2226Y437D02*
X2233Y437D01*
X1227Y436D02*
X1234Y436D01*
X2226Y436D02*
X2233Y436D01*
X1227Y435D02*
X1234Y435D01*
X2226Y435D02*
X2233Y435D01*
X1227Y434D02*
X1234Y434D01*
X2226Y434D02*
X2233Y434D01*
X1227Y433D02*
X1234Y433D01*
X2226Y433D02*
X2233Y433D01*
X1227Y432D02*
X1234Y432D01*
X2226Y432D02*
X2233Y432D01*
X1227Y431D02*
X1234Y431D01*
X2226Y431D02*
X2233Y431D01*
X1227Y430D02*
X1234Y430D01*
X2226Y430D02*
X2233Y430D01*
X1227Y429D02*
X1234Y429D01*
X2076Y429D02*
X2083Y429D01*
X2092Y429D02*
X2098Y429D01*
X2226Y429D02*
X2233Y429D01*
X1227Y428D02*
X1234Y428D01*
X2075Y428D02*
X2084Y428D01*
X2091Y428D02*
X2099Y428D01*
X2226Y428D02*
X2233Y428D01*
X1227Y427D02*
X1234Y427D01*
X2074Y427D02*
X2085Y427D01*
X2090Y427D02*
X2100Y427D01*
X2226Y427D02*
X2233Y427D01*
X1227Y426D02*
X1234Y426D01*
X2072Y426D02*
X2086Y426D01*
X2089Y426D02*
X2101Y426D01*
X2226Y426D02*
X2233Y426D01*
X1227Y425D02*
X1234Y425D01*
X2071Y425D02*
X2103Y425D01*
X2226Y425D02*
X2233Y425D01*
X1227Y424D02*
X1234Y424D01*
X2070Y424D02*
X2104Y424D01*
X2226Y424D02*
X2233Y424D01*
X1227Y423D02*
X1234Y423D01*
X2069Y423D02*
X2077Y423D01*
X2082Y423D02*
X2093Y423D01*
X2097Y423D02*
X2105Y423D01*
X2226Y423D02*
X2233Y423D01*
X1227Y422D02*
X1234Y422D01*
X2069Y422D02*
X2075Y422D01*
X2083Y422D02*
X2091Y422D01*
X2099Y422D02*
X2105Y422D01*
X2226Y422D02*
X2233Y422D01*
X1227Y421D02*
X1234Y421D01*
X2069Y421D02*
X2074Y421D01*
X2084Y421D02*
X2090Y421D01*
X2100Y421D02*
X2105Y421D01*
X2226Y421D02*
X2233Y421D01*
X1227Y420D02*
X1234Y420D01*
X2069Y420D02*
X2074Y420D01*
X2085Y420D02*
X2090Y420D01*
X2100Y420D02*
X2105Y420D01*
X2226Y420D02*
X2233Y420D01*
X1227Y419D02*
X1234Y419D01*
X2069Y419D02*
X2074Y419D01*
X2085Y419D02*
X2090Y419D01*
X2100Y419D02*
X2105Y419D01*
X2226Y419D02*
X2233Y419D01*
X1227Y418D02*
X1234Y418D01*
X2069Y418D02*
X2074Y418D01*
X2085Y418D02*
X2090Y418D01*
X2100Y418D02*
X2105Y418D01*
X2226Y418D02*
X2233Y418D01*
X1227Y417D02*
X1234Y417D01*
X2069Y417D02*
X2074Y417D01*
X2085Y417D02*
X2090Y417D01*
X2100Y417D02*
X2105Y417D01*
X2226Y417D02*
X2233Y417D01*
X1227Y416D02*
X1234Y416D01*
X2069Y416D02*
X2074Y416D01*
X2085Y416D02*
X2090Y416D01*
X2100Y416D02*
X2105Y416D01*
X2226Y416D02*
X2233Y416D01*
X1227Y415D02*
X1234Y415D01*
X2069Y415D02*
X2074Y415D01*
X2086Y415D02*
X2089Y415D01*
X2100Y415D02*
X2105Y415D01*
X2226Y415D02*
X2233Y415D01*
X1227Y414D02*
X1234Y414D01*
X2069Y414D02*
X2074Y414D01*
X2087Y414D02*
X2088Y414D01*
X2100Y414D02*
X2105Y414D01*
X2226Y414D02*
X2233Y414D01*
X1227Y413D02*
X1234Y413D01*
X1367Y413D02*
X1390Y413D01*
X2069Y413D02*
X2074Y413D01*
X2100Y413D02*
X2105Y413D01*
X2226Y413D02*
X2233Y413D01*
X1227Y412D02*
X1234Y412D01*
X1366Y412D02*
X1391Y412D01*
X2069Y412D02*
X2074Y412D01*
X2100Y412D02*
X2105Y412D01*
X2226Y412D02*
X2233Y412D01*
X1227Y411D02*
X1234Y411D01*
X1365Y411D02*
X1391Y411D01*
X2069Y411D02*
X2075Y411D01*
X2099Y411D02*
X2105Y411D01*
X2226Y411D02*
X2233Y411D01*
X1227Y410D02*
X1234Y410D01*
X1364Y410D02*
X1391Y410D01*
X2069Y410D02*
X2076Y410D01*
X2098Y410D02*
X2105Y410D01*
X2226Y410D02*
X2233Y410D01*
X1227Y409D02*
X1234Y409D01*
X1363Y409D02*
X1391Y409D01*
X2070Y409D02*
X2077Y409D01*
X2097Y409D02*
X2104Y409D01*
X2226Y409D02*
X2233Y409D01*
X1227Y408D02*
X1234Y408D01*
X1362Y408D02*
X1389Y408D01*
X2071Y408D02*
X2078Y408D01*
X2096Y408D02*
X2103Y408D01*
X2226Y408D02*
X2233Y408D01*
X1227Y407D02*
X1234Y407D01*
X1361Y407D02*
X1368Y407D01*
X2072Y407D02*
X2078Y407D01*
X2095Y407D02*
X2102Y407D01*
X2226Y407D02*
X2233Y407D01*
X1227Y406D02*
X1234Y406D01*
X1360Y406D02*
X1367Y406D01*
X2073Y406D02*
X2079Y406D01*
X2095Y406D02*
X2101Y406D01*
X2226Y406D02*
X2233Y406D01*
X1227Y405D02*
X1234Y405D01*
X1358Y405D02*
X1366Y405D01*
X2074Y405D02*
X2079Y405D01*
X2095Y405D02*
X2100Y405D01*
X2226Y405D02*
X2233Y405D01*
X1227Y404D02*
X1234Y404D01*
X1357Y404D02*
X1365Y404D01*
X2075Y404D02*
X2078Y404D01*
X2096Y404D02*
X2099Y404D01*
X2226Y404D02*
X2233Y404D01*
X1227Y403D02*
X1234Y403D01*
X1356Y403D02*
X1364Y403D01*
X2076Y403D02*
X2077Y403D01*
X2097Y403D02*
X2097Y403D01*
X2226Y403D02*
X2233Y403D01*
X1227Y402D02*
X1234Y402D01*
X1355Y402D02*
X1362Y402D01*
X2226Y402D02*
X2233Y402D01*
X1227Y401D02*
X1234Y401D01*
X1355Y401D02*
X1361Y401D01*
X2226Y401D02*
X2233Y401D01*
X1227Y400D02*
X1234Y400D01*
X1355Y400D02*
X1362Y400D01*
X2226Y400D02*
X2233Y400D01*
X1227Y399D02*
X1234Y399D01*
X1356Y399D02*
X1363Y399D01*
X2226Y399D02*
X2233Y399D01*
X1227Y398D02*
X1234Y398D01*
X1357Y398D02*
X1364Y398D01*
X2226Y398D02*
X2233Y398D01*
X1227Y397D02*
X1234Y397D01*
X1358Y397D02*
X1365Y397D01*
X2080Y397D02*
X2104Y397D01*
X2226Y397D02*
X2233Y397D01*
X1227Y396D02*
X1234Y396D01*
X1359Y396D02*
X1366Y396D01*
X2080Y396D02*
X2105Y396D01*
X2226Y396D02*
X2233Y396D01*
X1227Y395D02*
X1234Y395D01*
X1360Y395D02*
X1367Y395D01*
X2078Y395D02*
X2105Y395D01*
X2226Y395D02*
X2233Y395D01*
X1227Y394D02*
X1234Y394D01*
X1361Y394D02*
X1368Y394D01*
X2077Y394D02*
X2105Y394D01*
X2226Y394D02*
X2233Y394D01*
X1227Y393D02*
X1234Y393D01*
X1362Y393D02*
X1369Y393D01*
X2076Y393D02*
X2104Y393D01*
X2226Y393D02*
X2233Y393D01*
X1227Y392D02*
X1234Y392D01*
X1363Y392D02*
X1390Y392D01*
X2075Y392D02*
X2083Y392D01*
X2226Y392D02*
X2233Y392D01*
X1227Y391D02*
X1234Y391D01*
X1364Y391D02*
X1391Y391D01*
X2074Y391D02*
X2081Y391D01*
X2226Y391D02*
X2233Y391D01*
X1227Y390D02*
X1234Y390D01*
X1365Y390D02*
X1391Y390D01*
X2073Y390D02*
X2080Y390D01*
X2226Y390D02*
X2233Y390D01*
X1227Y389D02*
X1234Y389D01*
X1366Y389D02*
X1391Y389D01*
X2072Y389D02*
X2079Y389D01*
X2226Y389D02*
X2233Y389D01*
X1227Y388D02*
X1234Y388D01*
X1366Y388D02*
X1390Y388D01*
X2071Y388D02*
X2078Y388D01*
X2226Y388D02*
X2233Y388D01*
X1227Y387D02*
X1234Y387D01*
X1368Y387D02*
X1368Y387D01*
X2070Y387D02*
X2077Y387D01*
X2226Y387D02*
X2233Y387D01*
X1227Y386D02*
X1234Y386D01*
X2069Y386D02*
X2076Y386D01*
X2226Y386D02*
X2233Y386D01*
X1227Y385D02*
X1234Y385D01*
X2069Y385D02*
X2075Y385D01*
X2226Y385D02*
X2233Y385D01*
X1227Y384D02*
X1234Y384D01*
X2069Y384D02*
X2076Y384D01*
X2226Y384D02*
X2233Y384D01*
X1227Y383D02*
X1234Y383D01*
X2070Y383D02*
X2077Y383D01*
X2226Y383D02*
X2233Y383D01*
X1227Y382D02*
X1234Y382D01*
X1362Y382D02*
X1364Y382D01*
X1372Y382D02*
X1374Y382D01*
X2071Y382D02*
X2078Y382D01*
X2226Y382D02*
X2233Y382D01*
X1227Y381D02*
X1234Y381D01*
X1361Y381D02*
X1375Y381D01*
X1387Y381D02*
X1390Y381D01*
X2072Y381D02*
X2079Y381D01*
X2226Y381D02*
X2233Y381D01*
X1227Y380D02*
X1234Y380D01*
X1360Y380D02*
X1376Y380D01*
X1387Y380D02*
X1391Y380D01*
X2073Y380D02*
X2080Y380D01*
X2226Y380D02*
X2233Y380D01*
X1227Y379D02*
X1234Y379D01*
X1359Y379D02*
X1377Y379D01*
X1387Y379D02*
X1391Y379D01*
X2074Y379D02*
X2081Y379D01*
X2226Y379D02*
X2233Y379D01*
X1227Y378D02*
X1234Y378D01*
X1358Y378D02*
X1378Y378D01*
X1387Y378D02*
X1391Y378D01*
X2075Y378D02*
X2082Y378D01*
X2226Y378D02*
X2233Y378D01*
X1227Y377D02*
X1234Y377D01*
X1357Y377D02*
X1379Y377D01*
X1387Y377D02*
X1391Y377D01*
X2076Y377D02*
X2102Y377D01*
X2226Y377D02*
X2233Y377D01*
X1227Y376D02*
X1234Y376D01*
X1356Y376D02*
X1363Y376D01*
X1373Y376D02*
X1380Y376D01*
X1387Y376D02*
X1391Y376D01*
X2077Y376D02*
X2104Y376D01*
X2226Y376D02*
X2233Y376D01*
X1227Y375D02*
X1234Y375D01*
X1355Y375D02*
X1362Y375D01*
X1374Y375D02*
X1381Y375D01*
X1387Y375D02*
X1391Y375D01*
X2078Y375D02*
X2105Y375D01*
X2226Y375D02*
X2233Y375D01*
X1227Y374D02*
X1234Y374D01*
X1355Y374D02*
X1361Y374D01*
X1375Y374D02*
X1381Y374D01*
X1387Y374D02*
X1391Y374D01*
X2079Y374D02*
X2105Y374D01*
X2226Y374D02*
X2233Y374D01*
X1227Y373D02*
X1234Y373D01*
X1355Y373D02*
X1360Y373D01*
X1376Y373D02*
X1381Y373D01*
X1387Y373D02*
X1391Y373D01*
X2080Y373D02*
X2105Y373D01*
X2226Y373D02*
X2233Y373D01*
X1227Y372D02*
X1234Y372D01*
X1355Y372D02*
X1360Y372D01*
X1377Y372D02*
X1381Y372D01*
X1387Y372D02*
X1391Y372D01*
X2081Y372D02*
X2104Y372D01*
X2226Y372D02*
X2233Y372D01*
X1227Y371D02*
X1234Y371D01*
X1355Y371D02*
X1360Y371D01*
X1377Y371D02*
X1381Y371D01*
X1387Y371D02*
X1391Y371D01*
X2226Y371D02*
X2233Y371D01*
X1227Y370D02*
X1234Y370D01*
X1355Y370D02*
X1360Y370D01*
X1377Y370D02*
X1381Y370D01*
X1387Y370D02*
X1391Y370D01*
X2226Y370D02*
X2233Y370D01*
X1227Y369D02*
X1234Y369D01*
X1355Y369D02*
X1360Y369D01*
X1376Y369D02*
X1381Y369D01*
X1387Y369D02*
X1391Y369D01*
X2226Y369D02*
X2233Y369D01*
X1227Y368D02*
X1234Y368D01*
X1355Y368D02*
X1360Y368D01*
X1376Y368D02*
X1381Y368D01*
X1387Y368D02*
X1391Y368D01*
X2226Y368D02*
X2233Y368D01*
X1227Y367D02*
X1234Y367D01*
X1355Y367D02*
X1360Y367D01*
X1376Y367D02*
X1381Y367D01*
X1387Y367D02*
X1391Y367D01*
X2226Y367D02*
X2233Y367D01*
X1227Y366D02*
X1234Y366D01*
X1355Y366D02*
X1360Y366D01*
X1375Y366D02*
X1380Y366D01*
X1387Y366D02*
X1391Y366D01*
X2076Y366D02*
X2083Y366D01*
X2092Y366D02*
X2098Y366D01*
X2226Y366D02*
X2233Y366D01*
X1227Y365D02*
X1234Y365D01*
X1355Y365D02*
X1360Y365D01*
X1374Y365D02*
X1380Y365D01*
X1387Y365D02*
X1391Y365D01*
X2074Y365D02*
X2084Y365D01*
X2091Y365D02*
X2099Y365D01*
X2226Y365D02*
X2233Y365D01*
X1227Y364D02*
X1234Y364D01*
X1355Y364D02*
X1361Y364D01*
X1374Y364D02*
X1379Y364D01*
X1387Y364D02*
X1391Y364D01*
X2074Y364D02*
X2085Y364D01*
X2090Y364D02*
X2100Y364D01*
X2226Y364D02*
X2233Y364D01*
X1227Y363D02*
X1234Y363D01*
X1355Y363D02*
X1362Y363D01*
X1373Y363D02*
X1379Y363D01*
X1387Y363D02*
X1391Y363D01*
X2073Y363D02*
X2086Y363D01*
X2089Y363D02*
X2101Y363D01*
X2226Y363D02*
X2233Y363D01*
X1227Y362D02*
X1234Y362D01*
X1356Y362D02*
X1363Y362D01*
X1373Y362D02*
X1378Y362D01*
X1387Y362D02*
X1391Y362D01*
X2072Y362D02*
X2102Y362D01*
X2226Y362D02*
X2233Y362D01*
X1227Y361D02*
X1234Y361D01*
X1357Y361D02*
X1364Y361D01*
X1372Y361D02*
X1391Y361D01*
X2071Y361D02*
X2103Y361D01*
X2226Y361D02*
X2233Y361D01*
X1227Y360D02*
X1234Y360D01*
X1358Y360D02*
X1365Y360D01*
X1371Y360D02*
X1391Y360D01*
X2069Y360D02*
X2077Y360D01*
X2082Y360D02*
X2093Y360D01*
X2097Y360D02*
X2104Y360D01*
X2226Y360D02*
X2233Y360D01*
X1227Y359D02*
X1234Y359D01*
X1359Y359D02*
X1365Y359D01*
X1371Y359D02*
X1391Y359D01*
X2069Y359D02*
X2076Y359D01*
X2083Y359D02*
X2092Y359D01*
X2098Y359D02*
X2105Y359D01*
X2226Y359D02*
X2233Y359D01*
X1227Y358D02*
X1234Y358D01*
X1360Y358D02*
X1365Y358D01*
X1371Y358D02*
X1391Y358D01*
X2069Y358D02*
X2075Y358D01*
X2084Y358D02*
X2091Y358D01*
X2099Y358D02*
X2105Y358D01*
X2226Y358D02*
X2233Y358D01*
X1227Y357D02*
X1234Y357D01*
X1361Y357D02*
X1365Y357D01*
X1372Y357D02*
X1391Y357D01*
X2069Y357D02*
X2074Y357D01*
X2085Y357D02*
X2090Y357D01*
X2100Y357D02*
X2105Y357D01*
X2226Y357D02*
X2233Y357D01*
X1227Y356D02*
X1234Y356D01*
X1362Y356D02*
X1363Y356D01*
X1373Y356D02*
X1390Y356D01*
X2069Y356D02*
X2074Y356D01*
X2085Y356D02*
X2090Y356D01*
X2100Y356D02*
X2105Y356D01*
X2226Y356D02*
X2233Y356D01*
X1227Y355D02*
X1234Y355D01*
X2069Y355D02*
X2074Y355D01*
X2085Y355D02*
X2090Y355D01*
X2100Y355D02*
X2105Y355D01*
X2226Y355D02*
X2233Y355D01*
X1227Y354D02*
X1234Y354D01*
X2069Y354D02*
X2074Y354D01*
X2085Y354D02*
X2090Y354D01*
X2100Y354D02*
X2105Y354D01*
X2226Y354D02*
X2233Y354D01*
X1227Y353D02*
X1234Y353D01*
X2069Y353D02*
X2074Y353D01*
X2085Y353D02*
X2090Y353D01*
X2100Y353D02*
X2105Y353D01*
X2226Y353D02*
X2233Y353D01*
X1227Y352D02*
X1234Y352D01*
X2069Y352D02*
X2074Y352D01*
X2085Y352D02*
X2089Y352D01*
X2100Y352D02*
X2105Y352D01*
X2226Y352D02*
X2233Y352D01*
X1227Y351D02*
X1234Y351D01*
X2069Y351D02*
X2074Y351D01*
X2086Y351D02*
X2089Y351D01*
X2100Y351D02*
X2105Y351D01*
X2226Y351D02*
X2233Y351D01*
X1227Y350D02*
X1234Y350D01*
X2069Y350D02*
X2074Y350D01*
X2100Y350D02*
X2105Y350D01*
X2226Y350D02*
X2233Y350D01*
X1227Y349D02*
X1234Y349D01*
X2069Y349D02*
X2074Y349D01*
X2100Y349D02*
X2105Y349D01*
X2226Y349D02*
X2233Y349D01*
X1227Y348D02*
X1234Y348D01*
X2069Y348D02*
X2075Y348D01*
X2099Y348D02*
X2105Y348D01*
X2226Y348D02*
X2233Y348D01*
X1227Y347D02*
X1234Y347D01*
X2069Y347D02*
X2076Y347D01*
X2098Y347D02*
X2105Y347D01*
X2226Y347D02*
X2233Y347D01*
X1227Y346D02*
X1234Y346D01*
X2070Y346D02*
X2077Y346D01*
X2097Y346D02*
X2104Y346D01*
X2226Y346D02*
X2233Y346D01*
X1227Y345D02*
X1234Y345D01*
X2071Y345D02*
X2078Y345D01*
X2096Y345D02*
X2103Y345D01*
X2226Y345D02*
X2233Y345D01*
X1227Y344D02*
X1234Y344D01*
X2072Y344D02*
X2079Y344D01*
X2095Y344D02*
X2102Y344D01*
X2226Y344D02*
X2233Y344D01*
X1227Y343D02*
X1234Y343D01*
X2073Y343D02*
X2079Y343D01*
X2095Y343D02*
X2101Y343D01*
X2226Y343D02*
X2233Y343D01*
X1227Y342D02*
X1234Y342D01*
X2074Y342D02*
X2079Y342D01*
X2095Y342D02*
X2100Y342D01*
X2226Y342D02*
X2233Y342D01*
X1227Y341D02*
X1234Y341D01*
X2075Y341D02*
X2078Y341D01*
X2096Y341D02*
X2099Y341D01*
X2226Y341D02*
X2233Y341D01*
X1227Y340D02*
X1234Y340D01*
X2226Y340D02*
X2233Y340D01*
X1227Y339D02*
X1234Y339D01*
X2226Y339D02*
X2233Y339D01*
X1227Y338D02*
X1234Y338D01*
X2226Y338D02*
X2233Y338D01*
X1227Y337D02*
X1234Y337D01*
X2226Y337D02*
X2233Y337D01*
X1227Y336D02*
X1234Y336D01*
X2225Y336D02*
X2233Y336D01*
X1227Y335D02*
X1234Y335D01*
X2223Y335D02*
X2233Y335D01*
X1227Y334D02*
X1234Y334D01*
X2221Y334D02*
X2233Y334D01*
X1227Y333D02*
X1234Y333D01*
X2219Y333D02*
X2233Y333D01*
X1227Y332D02*
X1234Y332D01*
X2216Y332D02*
X2232Y332D01*
X1227Y331D02*
X1234Y331D01*
X2214Y331D02*
X2231Y331D01*
X1227Y330D02*
X1234Y330D01*
X2212Y330D02*
X2230Y330D01*
X1227Y329D02*
X1234Y329D01*
X2210Y329D02*
X2228Y329D01*
X1227Y328D02*
X1234Y328D01*
X2208Y328D02*
X2226Y328D01*
X1227Y327D02*
X1234Y327D01*
X2206Y327D02*
X2224Y327D01*
X1227Y326D02*
X1234Y326D01*
X2203Y326D02*
X2221Y326D01*
X1227Y325D02*
X1234Y325D01*
X2201Y325D02*
X2219Y325D01*
X1227Y324D02*
X1234Y324D01*
X2199Y324D02*
X2217Y324D01*
X1227Y323D02*
X1234Y323D01*
X2197Y323D02*
X2215Y323D01*
X1227Y322D02*
X1234Y322D01*
X2195Y322D02*
X2213Y322D01*
X1227Y321D02*
X1234Y321D01*
X2192Y321D02*
X2211Y321D01*
X1227Y320D02*
X1234Y320D01*
X2190Y320D02*
X2208Y320D01*
X1227Y319D02*
X1234Y319D01*
X2188Y319D02*
X2206Y319D01*
X1227Y318D02*
X1234Y318D01*
X2186Y318D02*
X2204Y318D01*
X1227Y317D02*
X1234Y317D01*
X2184Y317D02*
X2202Y317D01*
X1227Y316D02*
X1234Y316D01*
X2182Y316D02*
X2200Y316D01*
X1227Y315D02*
X1234Y315D01*
X2179Y315D02*
X2197Y315D01*
X1227Y314D02*
X1234Y314D01*
X2177Y314D02*
X2195Y314D01*
X1227Y313D02*
X1234Y313D01*
X2175Y313D02*
X2193Y313D01*
X1227Y312D02*
X1234Y312D01*
X2173Y312D02*
X2191Y312D01*
X1227Y311D02*
X1234Y311D01*
X2171Y311D02*
X2189Y311D01*
X1227Y310D02*
X1234Y310D01*
X2169Y310D02*
X2187Y310D01*
X1227Y309D02*
X1234Y309D01*
X2166Y309D02*
X2184Y309D01*
X1227Y308D02*
X1234Y308D01*
X2164Y308D02*
X2182Y308D01*
X1227Y307D02*
X1234Y307D01*
X2162Y307D02*
X2180Y307D01*
X1227Y306D02*
X1234Y306D01*
X2160Y306D02*
X2178Y306D01*
X1227Y305D02*
X1234Y305D01*
X2158Y305D02*
X2176Y305D01*
X1227Y304D02*
X1234Y304D01*
X2156Y304D02*
X2174Y304D01*
X1227Y303D02*
X1234Y303D01*
X2155Y303D02*
X2171Y303D01*
X1227Y302D02*
X1234Y302D01*
X2153Y302D02*
X2169Y302D01*
X1227Y301D02*
X1234Y301D01*
X2153Y301D02*
X2167Y301D01*
X1227Y300D02*
X1234Y300D01*
X2152Y300D02*
X2165Y300D01*
X1227Y299D02*
X1234Y299D01*
X2151Y299D02*
X2163Y299D01*
X1227Y298D02*
X1234Y298D01*
X2151Y298D02*
X2161Y298D01*
X1227Y297D02*
X1234Y297D01*
X2150Y297D02*
X2159Y297D01*
X1227Y296D02*
X1234Y296D01*
X2150Y296D02*
X2158Y296D01*
X1227Y295D02*
X1234Y295D01*
X2149Y295D02*
X2157Y295D01*
X1227Y294D02*
X1234Y294D01*
X2149Y294D02*
X2157Y294D01*
X1227Y293D02*
X1234Y293D01*
X2149Y293D02*
X2156Y293D01*
X1227Y292D02*
X1234Y292D01*
X2149Y292D02*
X2156Y292D01*
X1227Y291D02*
X1234Y291D01*
X2149Y291D02*
X2156Y291D01*
X1227Y290D02*
X1234Y290D01*
X2149Y290D02*
X2156Y290D01*
X1227Y289D02*
X1234Y289D01*
X2149Y289D02*
X2156Y289D01*
X1227Y288D02*
X1234Y288D01*
X2149Y288D02*
X2156Y288D01*
X1227Y287D02*
X1234Y287D01*
X2149Y287D02*
X2156Y287D01*
X1227Y286D02*
X1234Y286D01*
X2149Y286D02*
X2156Y286D01*
X1227Y285D02*
X1234Y285D01*
X2149Y285D02*
X2156Y285D01*
X1227Y284D02*
X1234Y284D01*
X2149Y284D02*
X2156Y284D01*
X1227Y283D02*
X1234Y283D01*
X2149Y283D02*
X2156Y283D01*
X1227Y282D02*
X1234Y282D01*
X2149Y282D02*
X2156Y282D01*
X1227Y281D02*
X1234Y281D01*
X2149Y281D02*
X2156Y281D01*
X1227Y280D02*
X1234Y280D01*
X2149Y280D02*
X2156Y280D01*
X1227Y279D02*
X1234Y279D01*
X2149Y279D02*
X2156Y279D01*
X1227Y278D02*
X1234Y278D01*
X2149Y278D02*
X2156Y278D01*
X1227Y277D02*
X1234Y277D01*
X2149Y277D02*
X2156Y277D01*
X1227Y276D02*
X1234Y276D01*
X2149Y276D02*
X2156Y276D01*
X1227Y275D02*
X1234Y275D01*
X2149Y275D02*
X2156Y275D01*
X1227Y274D02*
X1234Y274D01*
X2149Y274D02*
X2156Y274D01*
X1227Y273D02*
X1234Y273D01*
X2149Y273D02*
X2156Y273D01*
X1227Y272D02*
X1234Y272D01*
X2149Y272D02*
X2156Y272D01*
X1227Y271D02*
X1234Y271D01*
X2149Y271D02*
X2156Y271D01*
X1227Y270D02*
X1234Y270D01*
X2149Y270D02*
X2156Y270D01*
X1227Y269D02*
X1234Y269D01*
X2149Y269D02*
X2156Y269D01*
X1227Y268D02*
X1234Y268D01*
X2149Y268D02*
X2156Y268D01*
X1227Y267D02*
X1234Y267D01*
X2149Y267D02*
X2156Y267D01*
X1227Y266D02*
X1234Y266D01*
X2149Y266D02*
X2156Y266D01*
X1227Y265D02*
X1234Y265D01*
X2149Y265D02*
X2156Y265D01*
X1227Y264D02*
X1234Y264D01*
X2149Y264D02*
X2156Y264D01*
X1227Y263D02*
X1234Y263D01*
X2149Y263D02*
X2156Y263D01*
X1227Y262D02*
X1234Y262D01*
X2149Y262D02*
X2156Y262D01*
X1227Y261D02*
X1234Y261D01*
X2149Y261D02*
X2156Y261D01*
X1227Y260D02*
X1234Y260D01*
X2149Y260D02*
X2156Y260D01*
X1227Y259D02*
X1234Y259D01*
X2149Y259D02*
X2156Y259D01*
X1227Y258D02*
X1234Y258D01*
X2149Y258D02*
X2156Y258D01*
X1227Y257D02*
X1234Y257D01*
X2149Y257D02*
X2156Y257D01*
X1227Y256D02*
X1234Y256D01*
X2149Y256D02*
X2156Y256D01*
X1227Y255D02*
X1234Y255D01*
X2149Y255D02*
X2156Y255D01*
X1227Y254D02*
X1234Y254D01*
X2149Y254D02*
X2156Y254D01*
X1227Y253D02*
X1234Y253D01*
X2149Y253D02*
X2156Y253D01*
X1227Y252D02*
X1234Y252D01*
X2149Y252D02*
X2156Y252D01*
X1227Y251D02*
X1234Y251D01*
X2149Y251D02*
X2156Y251D01*
X1227Y250D02*
X1234Y250D01*
X2149Y250D02*
X2156Y250D01*
X1227Y249D02*
X1234Y249D01*
X1278Y249D02*
X1279Y249D01*
X1352Y249D02*
X1353Y249D01*
X1439Y249D02*
X1441Y249D01*
X1489Y249D02*
X1520Y249D01*
X2149Y249D02*
X2156Y249D01*
X1227Y248D02*
X1234Y248D01*
X1276Y248D02*
X1281Y248D01*
X1350Y248D02*
X1354Y248D01*
X1438Y248D02*
X1442Y248D01*
X1488Y248D02*
X1521Y248D01*
X2149Y248D02*
X2156Y248D01*
X1227Y247D02*
X1234Y247D01*
X1276Y247D02*
X1281Y247D01*
X1350Y247D02*
X1355Y247D01*
X1437Y247D02*
X1443Y247D01*
X1487Y247D02*
X1522Y247D01*
X2149Y247D02*
X2156Y247D01*
X1227Y246D02*
X1234Y246D01*
X1276Y246D02*
X1281Y246D01*
X1349Y246D02*
X1355Y246D01*
X1437Y246D02*
X1444Y246D01*
X1486Y246D02*
X1522Y246D01*
X2149Y246D02*
X2156Y246D01*
X1227Y245D02*
X1234Y245D01*
X1275Y245D02*
X1281Y245D01*
X1349Y245D02*
X1355Y245D01*
X1437Y245D02*
X1445Y245D01*
X1485Y245D02*
X1522Y245D01*
X2149Y245D02*
X2156Y245D01*
X1227Y244D02*
X1234Y244D01*
X1275Y244D02*
X1281Y244D01*
X1349Y244D02*
X1355Y244D01*
X1437Y244D02*
X1446Y244D01*
X1484Y244D02*
X1522Y244D01*
X2149Y244D02*
X2156Y244D01*
X1227Y243D02*
X1234Y243D01*
X1275Y243D02*
X1281Y243D01*
X1349Y243D02*
X1355Y243D01*
X1437Y243D02*
X1447Y243D01*
X1483Y243D02*
X1522Y243D01*
X2149Y243D02*
X2156Y243D01*
X1227Y242D02*
X1234Y242D01*
X1275Y242D02*
X1281Y242D01*
X1349Y242D02*
X1355Y242D01*
X1437Y242D02*
X1448Y242D01*
X1482Y242D02*
X1491Y242D01*
X1516Y242D02*
X1522Y242D01*
X2149Y242D02*
X2156Y242D01*
X1227Y241D02*
X1234Y241D01*
X1275Y241D02*
X1281Y241D01*
X1349Y241D02*
X1355Y241D01*
X1437Y241D02*
X1449Y241D01*
X1481Y241D02*
X1490Y241D01*
X1516Y241D02*
X1522Y241D01*
X2149Y241D02*
X2156Y241D01*
X1227Y240D02*
X1234Y240D01*
X1275Y240D02*
X1281Y240D01*
X1349Y240D02*
X1355Y240D01*
X1437Y240D02*
X1450Y240D01*
X1480Y240D02*
X1489Y240D01*
X1516Y240D02*
X1522Y240D01*
X2149Y240D02*
X2156Y240D01*
X1227Y239D02*
X1234Y239D01*
X1275Y239D02*
X1281Y239D01*
X1349Y239D02*
X1355Y239D01*
X1437Y239D02*
X1451Y239D01*
X1479Y239D02*
X1488Y239D01*
X1516Y239D02*
X1522Y239D01*
X2149Y239D02*
X2156Y239D01*
X1227Y238D02*
X1234Y238D01*
X1276Y238D02*
X1281Y238D01*
X1349Y238D02*
X1355Y238D01*
X1437Y238D02*
X1452Y238D01*
X1478Y238D02*
X1487Y238D01*
X1516Y238D02*
X1522Y238D01*
X2149Y238D02*
X2156Y238D01*
X1227Y237D02*
X1234Y237D01*
X1276Y237D02*
X1281Y237D01*
X1350Y237D02*
X1355Y237D01*
X1437Y237D02*
X1453Y237D01*
X1477Y237D02*
X1486Y237D01*
X1516Y237D02*
X1522Y237D01*
X2149Y237D02*
X2156Y237D01*
X1227Y236D02*
X1234Y236D01*
X1276Y236D02*
X1280Y236D01*
X1350Y236D02*
X1354Y236D01*
X1437Y236D02*
X1443Y236D01*
X1445Y236D02*
X1454Y236D01*
X1477Y236D02*
X1485Y236D01*
X1516Y236D02*
X1522Y236D01*
X2149Y236D02*
X2156Y236D01*
X1227Y235D02*
X1234Y235D01*
X1278Y235D02*
X1279Y235D01*
X1352Y235D02*
X1353Y235D01*
X1437Y235D02*
X1443Y235D01*
X1446Y235D02*
X1455Y235D01*
X1477Y235D02*
X1484Y235D01*
X1516Y235D02*
X1522Y235D01*
X2149Y235D02*
X2156Y235D01*
X1227Y234D02*
X1234Y234D01*
X1437Y234D02*
X1443Y234D01*
X1447Y234D02*
X1456Y234D01*
X1477Y234D02*
X1483Y234D01*
X1516Y234D02*
X1522Y234D01*
X2149Y234D02*
X2156Y234D01*
X1227Y233D02*
X1234Y233D01*
X1437Y233D02*
X1443Y233D01*
X1448Y233D02*
X1457Y233D01*
X1477Y233D02*
X1483Y233D01*
X1516Y233D02*
X1522Y233D01*
X2149Y233D02*
X2156Y233D01*
X1227Y232D02*
X1234Y232D01*
X1437Y232D02*
X1443Y232D01*
X1449Y232D02*
X1458Y232D01*
X1477Y232D02*
X1483Y232D01*
X1516Y232D02*
X1522Y232D01*
X2149Y232D02*
X2156Y232D01*
X1227Y231D02*
X1234Y231D01*
X1437Y231D02*
X1443Y231D01*
X1450Y231D02*
X1459Y231D01*
X1477Y231D02*
X1483Y231D01*
X1516Y231D02*
X1522Y231D01*
X2149Y231D02*
X2156Y231D01*
X1227Y230D02*
X1234Y230D01*
X1437Y230D02*
X1443Y230D01*
X1451Y230D02*
X1460Y230D01*
X1477Y230D02*
X1483Y230D01*
X1516Y230D02*
X1522Y230D01*
X2149Y230D02*
X2156Y230D01*
X1227Y229D02*
X1234Y229D01*
X1437Y229D02*
X1443Y229D01*
X1452Y229D02*
X1461Y229D01*
X1477Y229D02*
X1483Y229D01*
X1516Y229D02*
X1522Y229D01*
X2149Y229D02*
X2156Y229D01*
X1227Y228D02*
X1234Y228D01*
X1278Y228D02*
X1280Y228D01*
X1308Y228D02*
X1310Y228D01*
X1328Y228D02*
X1330Y228D01*
X1352Y228D02*
X1354Y228D01*
X1382Y228D02*
X1383Y228D01*
X1395Y228D02*
X1397Y228D01*
X1402Y228D02*
X1404Y228D01*
X1437Y228D02*
X1443Y228D01*
X1453Y228D02*
X1462Y228D01*
X1477Y228D02*
X1483Y228D01*
X1516Y228D02*
X1522Y228D01*
X2149Y228D02*
X2156Y228D01*
X1227Y227D02*
X1234Y227D01*
X1276Y227D02*
X1288Y227D01*
X1306Y227D02*
X1332Y227D01*
X1350Y227D02*
X1362Y227D01*
X1380Y227D02*
X1384Y227D01*
X1394Y227D02*
X1406Y227D01*
X1437Y227D02*
X1443Y227D01*
X1454Y227D02*
X1463Y227D01*
X1477Y227D02*
X1483Y227D01*
X1516Y227D02*
X1522Y227D01*
X2149Y227D02*
X2156Y227D01*
X1227Y226D02*
X1234Y226D01*
X1276Y226D02*
X1289Y226D01*
X1305Y226D02*
X1333Y226D01*
X1349Y226D02*
X1362Y226D01*
X1379Y226D02*
X1385Y226D01*
X1393Y226D02*
X1406Y226D01*
X1437Y226D02*
X1443Y226D01*
X1455Y226D02*
X1463Y226D01*
X1477Y226D02*
X1483Y226D01*
X1516Y226D02*
X1522Y226D01*
X2149Y226D02*
X2156Y226D01*
X1227Y225D02*
X1234Y225D01*
X1275Y225D02*
X1289Y225D01*
X1305Y225D02*
X1333Y225D01*
X1349Y225D02*
X1363Y225D01*
X1378Y225D02*
X1386Y225D01*
X1392Y225D02*
X1407Y225D01*
X1437Y225D02*
X1443Y225D01*
X1456Y225D02*
X1463Y225D01*
X1477Y225D02*
X1483Y225D01*
X1516Y225D02*
X1522Y225D01*
X2149Y225D02*
X2156Y225D01*
X1227Y224D02*
X1234Y224D01*
X1275Y224D02*
X1289Y224D01*
X1304Y224D02*
X1333Y224D01*
X1349Y224D02*
X1363Y224D01*
X1377Y224D02*
X1387Y224D01*
X1391Y224D02*
X1407Y224D01*
X1437Y224D02*
X1443Y224D01*
X1457Y224D02*
X1463Y224D01*
X1477Y224D02*
X1483Y224D01*
X1516Y224D02*
X1522Y224D01*
X2149Y224D02*
X2156Y224D01*
X1227Y223D02*
X1234Y223D01*
X1275Y223D02*
X1289Y223D01*
X1303Y223D02*
X1333Y223D01*
X1349Y223D02*
X1362Y223D01*
X1376Y223D02*
X1388Y223D01*
X1391Y223D02*
X1406Y223D01*
X1437Y223D02*
X1443Y223D01*
X1458Y223D02*
X1462Y223D01*
X1477Y223D02*
X1483Y223D01*
X1516Y223D02*
X1522Y223D01*
X2149Y223D02*
X2156Y223D01*
X1227Y222D02*
X1234Y222D01*
X1275Y222D02*
X1288Y222D01*
X1302Y222D02*
X1333Y222D01*
X1349Y222D02*
X1361Y222D01*
X1375Y222D02*
X1406Y222D01*
X1437Y222D02*
X1443Y222D01*
X1477Y222D02*
X1483Y222D01*
X1516Y222D02*
X1522Y222D01*
X2149Y222D02*
X2156Y222D01*
X1227Y221D02*
X1234Y221D01*
X1275Y221D02*
X1282Y221D01*
X1301Y221D02*
X1310Y221D01*
X1326Y221D02*
X1333Y221D01*
X1349Y221D02*
X1356Y221D01*
X1374Y221D02*
X1398Y221D01*
X1400Y221D02*
X1406Y221D01*
X1437Y221D02*
X1443Y221D01*
X1477Y221D02*
X1483Y221D01*
X1516Y221D02*
X1522Y221D01*
X2149Y221D02*
X2156Y221D01*
X1227Y220D02*
X1234Y220D01*
X1275Y220D02*
X1281Y220D01*
X1299Y220D02*
X1308Y220D01*
X1327Y220D02*
X1333Y220D01*
X1349Y220D02*
X1355Y220D01*
X1373Y220D02*
X1396Y220D01*
X1400Y220D02*
X1406Y220D01*
X1437Y220D02*
X1443Y220D01*
X1477Y220D02*
X1483Y220D01*
X1516Y220D02*
X1522Y220D01*
X1933Y220D02*
X1956Y220D01*
X1964Y220D02*
X1988Y220D01*
X2001Y220D02*
X2015Y220D01*
X2028Y220D02*
X2051Y220D01*
X2064Y220D02*
X2083Y220D01*
X2149Y220D02*
X2156Y220D01*
X1227Y219D02*
X1234Y219D01*
X1275Y219D02*
X1281Y219D01*
X1298Y219D02*
X1307Y219D01*
X1327Y219D02*
X1333Y219D01*
X1349Y219D02*
X1355Y219D01*
X1372Y219D02*
X1381Y219D01*
X1383Y219D02*
X1395Y219D01*
X1400Y219D02*
X1406Y219D01*
X1437Y219D02*
X1443Y219D01*
X1477Y219D02*
X1483Y219D01*
X1516Y219D02*
X1522Y219D01*
X1932Y219D02*
X1957Y219D01*
X1963Y219D02*
X1988Y219D01*
X2000Y219D02*
X2015Y219D01*
X2027Y219D02*
X2052Y219D01*
X2063Y219D02*
X2083Y219D01*
X2149Y219D02*
X2156Y219D01*
X1227Y218D02*
X1234Y218D01*
X1275Y218D02*
X1281Y218D01*
X1298Y218D02*
X1306Y218D01*
X1327Y218D02*
X1333Y218D01*
X1349Y218D02*
X1355Y218D01*
X1372Y218D02*
X1380Y218D01*
X1384Y218D02*
X1395Y218D01*
X1400Y218D02*
X1406Y218D01*
X1437Y218D02*
X1443Y218D01*
X1477Y218D02*
X1483Y218D01*
X1516Y218D02*
X1522Y218D01*
X1932Y218D02*
X1957Y218D01*
X1963Y218D02*
X1989Y218D01*
X1999Y218D02*
X2016Y218D01*
X2027Y218D02*
X2052Y218D01*
X2062Y218D02*
X2084Y218D01*
X2149Y218D02*
X2156Y218D01*
X1227Y217D02*
X1234Y217D01*
X1275Y217D02*
X1281Y217D01*
X1298Y217D02*
X1305Y217D01*
X1327Y217D02*
X1333Y217D01*
X1349Y217D02*
X1355Y217D01*
X1372Y217D02*
X1379Y217D01*
X1385Y217D02*
X1394Y217D01*
X1400Y217D02*
X1406Y217D01*
X1437Y217D02*
X1443Y217D01*
X1477Y217D02*
X1483Y217D01*
X1516Y217D02*
X1522Y217D01*
X1932Y217D02*
X1957Y217D01*
X1963Y217D02*
X1988Y217D01*
X1998Y217D02*
X2017Y217D01*
X2027Y217D02*
X2052Y217D01*
X2061Y217D02*
X2084Y217D01*
X2149Y217D02*
X2156Y217D01*
X1227Y216D02*
X1234Y216D01*
X1275Y216D02*
X1281Y216D01*
X1298Y216D02*
X1304Y216D01*
X1327Y216D02*
X1333Y216D01*
X1349Y216D02*
X1355Y216D01*
X1372Y216D02*
X1378Y216D01*
X1386Y216D02*
X1393Y216D01*
X1400Y216D02*
X1406Y216D01*
X1437Y216D02*
X1443Y216D01*
X1477Y216D02*
X1483Y216D01*
X1516Y216D02*
X1522Y216D01*
X1933Y216D02*
X1956Y216D01*
X1964Y216D02*
X1988Y216D01*
X1997Y216D02*
X2018Y216D01*
X2028Y216D02*
X2052Y216D01*
X2060Y216D02*
X2083Y216D01*
X2149Y216D02*
X2156Y216D01*
X1227Y215D02*
X1234Y215D01*
X1275Y215D02*
X1281Y215D01*
X1298Y215D02*
X1304Y215D01*
X1327Y215D02*
X1333Y215D01*
X1349Y215D02*
X1355Y215D01*
X1372Y215D02*
X1378Y215D01*
X1387Y215D02*
X1393Y215D01*
X1400Y215D02*
X1406Y215D01*
X1437Y215D02*
X1443Y215D01*
X1477Y215D02*
X1483Y215D01*
X1516Y215D02*
X1522Y215D01*
X1941Y215D02*
X1946Y215D01*
X1983Y215D02*
X1988Y215D01*
X1996Y215D02*
X2003Y215D01*
X2012Y215D02*
X2020Y215D01*
X2047Y215D02*
X2052Y215D01*
X2059Y215D02*
X2067Y215D01*
X2079Y215D02*
X2083Y215D01*
X2149Y215D02*
X2156Y215D01*
X1227Y214D02*
X1234Y214D01*
X1275Y214D02*
X1281Y214D01*
X1298Y214D02*
X1304Y214D01*
X1327Y214D02*
X1333Y214D01*
X1349Y214D02*
X1355Y214D01*
X1372Y214D02*
X1378Y214D01*
X1387Y214D02*
X1393Y214D01*
X1400Y214D02*
X1406Y214D01*
X1437Y214D02*
X1443Y214D01*
X1477Y214D02*
X1483Y214D01*
X1516Y214D02*
X1522Y214D01*
X1942Y214D02*
X1946Y214D01*
X1984Y214D02*
X1988Y214D01*
X1995Y214D02*
X2002Y214D01*
X2014Y214D02*
X2020Y214D01*
X2047Y214D02*
X2052Y214D01*
X2058Y214D02*
X2065Y214D01*
X2079Y214D02*
X2083Y214D01*
X2149Y214D02*
X2156Y214D01*
X1227Y213D02*
X1234Y213D01*
X1275Y213D02*
X1281Y213D01*
X1298Y213D02*
X1304Y213D01*
X1327Y213D02*
X1333Y213D01*
X1349Y213D02*
X1355Y213D01*
X1372Y213D02*
X1378Y213D01*
X1387Y213D02*
X1393Y213D01*
X1400Y213D02*
X1406Y213D01*
X1437Y213D02*
X1443Y213D01*
X1477Y213D02*
X1483Y213D01*
X1516Y213D02*
X1522Y213D01*
X1942Y213D02*
X1946Y213D01*
X1984Y213D02*
X1988Y213D01*
X1995Y213D02*
X2001Y213D01*
X2015Y213D02*
X2021Y213D01*
X2047Y213D02*
X2052Y213D01*
X2058Y213D02*
X2064Y213D01*
X2079Y213D02*
X2083Y213D01*
X2149Y213D02*
X2156Y213D01*
X1227Y212D02*
X1234Y212D01*
X1275Y212D02*
X1281Y212D01*
X1298Y212D02*
X1304Y212D01*
X1327Y212D02*
X1333Y212D01*
X1349Y212D02*
X1355Y212D01*
X1372Y212D02*
X1378Y212D01*
X1387Y212D02*
X1393Y212D01*
X1400Y212D02*
X1406Y212D01*
X1437Y212D02*
X1443Y212D01*
X1477Y212D02*
X1483Y212D01*
X1516Y212D02*
X1522Y212D01*
X1942Y212D02*
X1946Y212D01*
X1984Y212D02*
X1988Y212D01*
X1995Y212D02*
X2000Y212D01*
X2016Y212D02*
X2021Y212D01*
X2047Y212D02*
X2052Y212D01*
X2058Y212D02*
X2063Y212D01*
X2079Y212D02*
X2083Y212D01*
X2149Y212D02*
X2156Y212D01*
X1227Y211D02*
X1234Y211D01*
X1275Y211D02*
X1281Y211D01*
X1298Y211D02*
X1304Y211D01*
X1327Y211D02*
X1333Y211D01*
X1349Y211D02*
X1355Y211D01*
X1372Y211D02*
X1378Y211D01*
X1387Y211D02*
X1393Y211D01*
X1400Y211D02*
X1406Y211D01*
X1437Y211D02*
X1443Y211D01*
X1477Y211D02*
X1483Y211D01*
X1516Y211D02*
X1522Y211D01*
X1942Y211D02*
X1946Y211D01*
X1984Y211D02*
X1988Y211D01*
X1995Y211D02*
X1999Y211D01*
X2016Y211D02*
X2021Y211D01*
X2047Y211D02*
X2052Y211D01*
X2058Y211D02*
X2063Y211D01*
X2079Y211D02*
X2083Y211D01*
X2149Y211D02*
X2156Y211D01*
X1227Y210D02*
X1234Y210D01*
X1275Y210D02*
X1281Y210D01*
X1298Y210D02*
X1304Y210D01*
X1327Y210D02*
X1333Y210D01*
X1349Y210D02*
X1355Y210D01*
X1372Y210D02*
X1378Y210D01*
X1387Y210D02*
X1393Y210D01*
X1400Y210D02*
X1406Y210D01*
X1437Y210D02*
X1443Y210D01*
X1477Y210D02*
X1483Y210D01*
X1516Y210D02*
X1522Y210D01*
X1942Y210D02*
X1946Y210D01*
X1984Y210D02*
X1988Y210D01*
X1997Y210D02*
X1997Y210D01*
X2016Y210D02*
X2021Y210D01*
X2047Y210D02*
X2052Y210D01*
X2058Y210D02*
X2063Y210D01*
X2079Y210D02*
X2083Y210D01*
X2149Y210D02*
X2156Y210D01*
X1227Y209D02*
X1234Y209D01*
X1275Y209D02*
X1281Y209D01*
X1298Y209D02*
X1304Y209D01*
X1327Y209D02*
X1333Y209D01*
X1349Y209D02*
X1355Y209D01*
X1372Y209D02*
X1378Y209D01*
X1387Y209D02*
X1393Y209D01*
X1400Y209D02*
X1406Y209D01*
X1437Y209D02*
X1443Y209D01*
X1477Y209D02*
X1483Y209D01*
X1516Y209D02*
X1522Y209D01*
X1942Y209D02*
X1946Y209D01*
X1984Y209D02*
X1988Y209D01*
X2016Y209D02*
X2021Y209D01*
X2047Y209D02*
X2052Y209D01*
X2058Y209D02*
X2063Y209D01*
X2079Y209D02*
X2083Y209D01*
X2149Y209D02*
X2156Y209D01*
X1227Y208D02*
X1234Y208D01*
X1275Y208D02*
X1281Y208D01*
X1298Y208D02*
X1304Y208D01*
X1327Y208D02*
X1333Y208D01*
X1349Y208D02*
X1355Y208D01*
X1372Y208D02*
X1378Y208D01*
X1387Y208D02*
X1393Y208D01*
X1400Y208D02*
X1406Y208D01*
X1437Y208D02*
X1443Y208D01*
X1477Y208D02*
X1483Y208D01*
X1516Y208D02*
X1522Y208D01*
X1942Y208D02*
X1946Y208D01*
X1984Y208D02*
X1988Y208D01*
X2016Y208D02*
X2021Y208D01*
X2047Y208D02*
X2052Y208D01*
X2058Y208D02*
X2063Y208D01*
X2079Y208D02*
X2083Y208D01*
X2149Y208D02*
X2156Y208D01*
X1227Y207D02*
X1234Y207D01*
X1275Y207D02*
X1281Y207D01*
X1298Y207D02*
X1304Y207D01*
X1327Y207D02*
X1333Y207D01*
X1349Y207D02*
X1355Y207D01*
X1372Y207D02*
X1378Y207D01*
X1387Y207D02*
X1393Y207D01*
X1400Y207D02*
X1406Y207D01*
X1437Y207D02*
X1443Y207D01*
X1477Y207D02*
X1483Y207D01*
X1516Y207D02*
X1522Y207D01*
X1942Y207D02*
X1946Y207D01*
X1984Y207D02*
X1988Y207D01*
X2015Y207D02*
X2021Y207D01*
X2047Y207D02*
X2052Y207D01*
X2058Y207D02*
X2063Y207D01*
X2079Y207D02*
X2083Y207D01*
X2149Y207D02*
X2156Y207D01*
X1227Y206D02*
X1234Y206D01*
X1275Y206D02*
X1281Y206D01*
X1298Y206D02*
X1304Y206D01*
X1327Y206D02*
X1333Y206D01*
X1349Y206D02*
X1355Y206D01*
X1372Y206D02*
X1378Y206D01*
X1387Y206D02*
X1393Y206D01*
X1400Y206D02*
X1406Y206D01*
X1437Y206D02*
X1443Y206D01*
X1477Y206D02*
X1483Y206D01*
X1516Y206D02*
X1522Y206D01*
X1942Y206D02*
X1946Y206D01*
X1984Y206D02*
X1988Y206D01*
X2014Y206D02*
X2021Y206D01*
X2047Y206D02*
X2052Y206D01*
X2058Y206D02*
X2063Y206D01*
X2079Y206D02*
X2083Y206D01*
X2149Y206D02*
X2156Y206D01*
X1227Y205D02*
X1234Y205D01*
X1275Y205D02*
X1281Y205D01*
X1298Y205D02*
X1304Y205D01*
X1327Y205D02*
X1333Y205D01*
X1349Y205D02*
X1355Y205D01*
X1372Y205D02*
X1378Y205D01*
X1387Y205D02*
X1393Y205D01*
X1400Y205D02*
X1406Y205D01*
X1437Y205D02*
X1443Y205D01*
X1477Y205D02*
X1483Y205D01*
X1516Y205D02*
X1522Y205D01*
X1942Y205D02*
X1946Y205D01*
X1984Y205D02*
X1988Y205D01*
X2013Y205D02*
X2020Y205D01*
X2047Y205D02*
X2052Y205D01*
X2058Y205D02*
X2063Y205D01*
X2079Y205D02*
X2083Y205D01*
X2149Y205D02*
X2156Y205D01*
X1227Y204D02*
X1234Y204D01*
X1275Y204D02*
X1281Y204D01*
X1298Y204D02*
X1304Y204D01*
X1327Y204D02*
X1333Y204D01*
X1349Y204D02*
X1355Y204D01*
X1372Y204D02*
X1378Y204D01*
X1387Y204D02*
X1393Y204D01*
X1400Y204D02*
X1406Y204D01*
X1437Y204D02*
X1443Y204D01*
X1477Y204D02*
X1483Y204D01*
X1516Y204D02*
X1522Y204D01*
X1942Y204D02*
X1946Y204D01*
X1975Y204D02*
X1988Y204D01*
X2001Y204D02*
X2019Y204D01*
X2038Y204D02*
X2052Y204D01*
X2058Y204D02*
X2063Y204D01*
X2079Y204D02*
X2083Y204D01*
X2149Y204D02*
X2156Y204D01*
X1227Y203D02*
X1234Y203D01*
X1275Y203D02*
X1281Y203D01*
X1298Y203D02*
X1304Y203D01*
X1327Y203D02*
X1333Y203D01*
X1349Y203D02*
X1355Y203D01*
X1372Y203D02*
X1378Y203D01*
X1387Y203D02*
X1393Y203D01*
X1400Y203D02*
X1406Y203D01*
X1437Y203D02*
X1443Y203D01*
X1477Y203D02*
X1483Y203D01*
X1516Y203D02*
X1522Y203D01*
X1942Y203D02*
X1946Y203D01*
X1974Y203D02*
X1988Y203D01*
X2000Y203D02*
X2018Y203D01*
X2037Y203D02*
X2052Y203D01*
X2058Y203D02*
X2063Y203D01*
X2079Y203D02*
X2083Y203D01*
X2149Y203D02*
X2156Y203D01*
X1227Y202D02*
X1234Y202D01*
X1275Y202D02*
X1281Y202D01*
X1298Y202D02*
X1304Y202D01*
X1327Y202D02*
X1333Y202D01*
X1349Y202D02*
X1355Y202D01*
X1372Y202D02*
X1378Y202D01*
X1387Y202D02*
X1393Y202D01*
X1400Y202D02*
X1406Y202D01*
X1437Y202D02*
X1443Y202D01*
X1477Y202D02*
X1483Y202D01*
X1516Y202D02*
X1522Y202D01*
X1942Y202D02*
X1946Y202D01*
X1974Y202D02*
X1989Y202D01*
X1999Y202D02*
X2017Y202D01*
X2037Y202D02*
X2052Y202D01*
X2058Y202D02*
X2064Y202D01*
X2079Y202D02*
X2083Y202D01*
X2149Y202D02*
X2156Y202D01*
X1227Y201D02*
X1234Y201D01*
X1275Y201D02*
X1281Y201D01*
X1298Y201D02*
X1304Y201D01*
X1327Y201D02*
X1333Y201D01*
X1349Y201D02*
X1355Y201D01*
X1372Y201D02*
X1378Y201D01*
X1387Y201D02*
X1393Y201D01*
X1400Y201D02*
X1406Y201D01*
X1437Y201D02*
X1443Y201D01*
X1477Y201D02*
X1483Y201D01*
X1516Y201D02*
X1522Y201D01*
X1942Y201D02*
X1946Y201D01*
X1974Y201D02*
X1989Y201D01*
X1998Y201D02*
X2016Y201D01*
X2037Y201D02*
X2052Y201D01*
X2058Y201D02*
X2065Y201D01*
X2079Y201D02*
X2083Y201D01*
X2149Y201D02*
X2156Y201D01*
X1227Y200D02*
X1234Y200D01*
X1275Y200D02*
X1281Y200D01*
X1298Y200D02*
X1304Y200D01*
X1327Y200D02*
X1333Y200D01*
X1349Y200D02*
X1355Y200D01*
X1372Y200D02*
X1378Y200D01*
X1387Y200D02*
X1393Y200D01*
X1400Y200D02*
X1406Y200D01*
X1437Y200D02*
X1443Y200D01*
X1477Y200D02*
X1483Y200D01*
X1516Y200D02*
X1522Y200D01*
X1942Y200D02*
X1946Y200D01*
X1975Y200D02*
X1988Y200D01*
X1997Y200D02*
X2015Y200D01*
X2038Y200D02*
X2052Y200D01*
X2059Y200D02*
X2066Y200D01*
X2079Y200D02*
X2083Y200D01*
X2149Y200D02*
X2156Y200D01*
X1227Y199D02*
X1234Y199D01*
X1272Y199D02*
X1287Y199D01*
X1298Y199D02*
X1304Y199D01*
X1327Y199D02*
X1333Y199D01*
X1344Y199D02*
X1360Y199D01*
X1372Y199D02*
X1378Y199D01*
X1387Y199D02*
X1393Y199D01*
X1400Y199D02*
X1406Y199D01*
X1437Y199D02*
X1443Y199D01*
X1477Y199D02*
X1483Y199D01*
X1516Y199D02*
X1522Y199D01*
X1942Y199D02*
X1946Y199D01*
X1983Y199D02*
X1988Y199D01*
X1996Y199D02*
X2003Y199D01*
X2012Y199D02*
X2013Y199D01*
X2047Y199D02*
X2052Y199D01*
X2060Y199D02*
X2083Y199D01*
X2149Y199D02*
X2156Y199D01*
X1227Y198D02*
X1234Y198D01*
X1270Y198D02*
X1288Y198D01*
X1298Y198D02*
X1304Y198D01*
X1327Y198D02*
X1333Y198D01*
X1343Y198D02*
X1362Y198D01*
X1372Y198D02*
X1378Y198D01*
X1387Y198D02*
X1393Y198D01*
X1400Y198D02*
X1406Y198D01*
X1437Y198D02*
X1443Y198D01*
X1477Y198D02*
X1484Y198D01*
X1516Y198D02*
X1522Y198D01*
X1942Y198D02*
X1946Y198D01*
X1984Y198D02*
X1988Y198D01*
X1995Y198D02*
X2002Y198D01*
X2047Y198D02*
X2052Y198D01*
X2061Y198D02*
X2083Y198D01*
X2149Y198D02*
X2156Y198D01*
X1227Y197D02*
X1234Y197D01*
X1270Y197D02*
X1289Y197D01*
X1298Y197D02*
X1304Y197D01*
X1327Y197D02*
X1333Y197D01*
X1342Y197D02*
X1362Y197D01*
X1372Y197D02*
X1378Y197D01*
X1387Y197D02*
X1393Y197D01*
X1400Y197D02*
X1406Y197D01*
X1437Y197D02*
X1443Y197D01*
X1477Y197D02*
X1485Y197D01*
X1516Y197D02*
X1522Y197D01*
X1942Y197D02*
X1946Y197D01*
X1984Y197D02*
X1988Y197D01*
X1994Y197D02*
X2001Y197D01*
X2047Y197D02*
X2052Y197D01*
X2062Y197D02*
X2084Y197D01*
X2149Y197D02*
X2156Y197D01*
X1227Y196D02*
X1234Y196D01*
X1269Y196D02*
X1289Y196D01*
X1298Y196D02*
X1304Y196D01*
X1327Y196D02*
X1333Y196D01*
X1342Y196D02*
X1363Y196D01*
X1372Y196D02*
X1378Y196D01*
X1387Y196D02*
X1393Y196D01*
X1400Y196D02*
X1406Y196D01*
X1437Y196D02*
X1443Y196D01*
X1477Y196D02*
X1486Y196D01*
X1516Y196D02*
X1522Y196D01*
X1942Y196D02*
X1946Y196D01*
X1984Y196D02*
X1988Y196D01*
X1994Y196D02*
X2000Y196D01*
X2047Y196D02*
X2052Y196D01*
X2063Y196D02*
X2084Y196D01*
X2149Y196D02*
X2156Y196D01*
X1227Y195D02*
X1234Y195D01*
X1269Y195D02*
X1289Y195D01*
X1298Y195D02*
X1304Y195D01*
X1327Y195D02*
X1333Y195D01*
X1342Y195D02*
X1363Y195D01*
X1372Y195D02*
X1378Y195D01*
X1387Y195D02*
X1393Y195D01*
X1401Y195D02*
X1406Y195D01*
X1437Y195D02*
X1443Y195D01*
X1478Y195D02*
X1487Y195D01*
X1516Y195D02*
X1522Y195D01*
X1942Y195D02*
X1946Y195D01*
X1984Y195D02*
X1988Y195D01*
X1994Y195D02*
X1999Y195D01*
X2047Y195D02*
X2052Y195D01*
X2064Y195D02*
X2083Y195D01*
X2149Y195D02*
X2156Y195D01*
X1227Y194D02*
X1234Y194D01*
X1270Y194D02*
X1288Y194D01*
X1299Y194D02*
X1303Y194D01*
X1327Y194D02*
X1332Y194D01*
X1342Y194D02*
X1362Y194D01*
X1372Y194D02*
X1377Y194D01*
X1387Y194D02*
X1392Y194D01*
X1401Y194D02*
X1406Y194D01*
X1437Y194D02*
X1443Y194D01*
X1479Y194D02*
X1488Y194D01*
X1516Y194D02*
X1522Y194D01*
X1942Y194D02*
X1946Y194D01*
X1984Y194D02*
X1988Y194D01*
X1995Y194D02*
X1999Y194D01*
X2017Y194D02*
X2020Y194D01*
X2047Y194D02*
X2052Y194D01*
X2065Y194D02*
X2083Y194D01*
X2149Y194D02*
X2156Y194D01*
X1227Y193D02*
X1234Y193D01*
X1271Y193D02*
X1287Y193D01*
X1299Y193D02*
X1302Y193D01*
X1328Y193D02*
X1331Y193D01*
X1343Y193D02*
X1361Y193D01*
X1373Y193D02*
X1376Y193D01*
X1388Y193D02*
X1391Y193D01*
X1402Y193D02*
X1405Y193D01*
X1437Y193D02*
X1443Y193D01*
X1480Y193D02*
X1489Y193D01*
X1516Y193D02*
X1522Y193D01*
X1942Y193D02*
X1946Y193D01*
X1984Y193D02*
X1988Y193D01*
X1994Y193D02*
X1999Y193D01*
X2016Y193D02*
X2020Y193D01*
X2047Y193D02*
X2052Y193D01*
X2064Y193D02*
X2071Y193D01*
X2079Y193D02*
X2083Y193D01*
X2149Y193D02*
X2156Y193D01*
X1227Y192D02*
X1234Y192D01*
X1437Y192D02*
X1443Y192D01*
X1481Y192D02*
X1490Y192D01*
X1516Y192D02*
X1522Y192D01*
X1942Y192D02*
X1946Y192D01*
X1984Y192D02*
X1988Y192D01*
X1994Y192D02*
X2000Y192D01*
X2015Y192D02*
X2021Y192D01*
X2047Y192D02*
X2052Y192D01*
X2063Y192D02*
X2070Y192D01*
X2079Y192D02*
X2083Y192D01*
X2149Y192D02*
X2156Y192D01*
X1227Y191D02*
X1234Y191D01*
X1437Y191D02*
X1443Y191D01*
X1482Y191D02*
X1491Y191D01*
X1516Y191D02*
X1522Y191D01*
X1942Y191D02*
X1946Y191D01*
X1984Y191D02*
X1988Y191D01*
X1995Y191D02*
X2001Y191D01*
X2014Y191D02*
X2020Y191D01*
X2047Y191D02*
X2052Y191D01*
X2062Y191D02*
X2069Y191D01*
X2079Y191D02*
X2083Y191D01*
X2149Y191D02*
X2156Y191D01*
X1227Y190D02*
X1234Y190D01*
X1420Y190D02*
X1461Y190D01*
X1483Y190D02*
X1522Y190D01*
X1942Y190D02*
X1946Y190D01*
X1984Y190D02*
X1988Y190D01*
X1995Y190D02*
X2002Y190D01*
X2013Y190D02*
X2020Y190D01*
X2047Y190D02*
X2052Y190D01*
X2061Y190D02*
X2068Y190D01*
X2079Y190D02*
X2083Y190D01*
X2149Y190D02*
X2156Y190D01*
X1227Y189D02*
X1234Y189D01*
X1419Y189D02*
X1462Y189D01*
X1484Y189D02*
X1522Y189D01*
X1942Y189D02*
X1946Y189D01*
X1965Y189D02*
X1988Y189D01*
X1996Y189D02*
X2019Y189D01*
X2028Y189D02*
X2052Y189D01*
X2060Y189D02*
X2067Y189D01*
X2079Y189D02*
X2083Y189D01*
X2149Y189D02*
X2156Y189D01*
X1227Y188D02*
X1234Y188D01*
X1419Y188D02*
X1463Y188D01*
X1485Y188D02*
X1522Y188D01*
X1942Y188D02*
X1946Y188D01*
X1964Y188D02*
X1988Y188D01*
X1997Y188D02*
X2018Y188D01*
X2027Y188D02*
X2052Y188D01*
X2059Y188D02*
X2066Y188D01*
X2079Y188D02*
X2083Y188D01*
X2149Y188D02*
X2156Y188D01*
X1227Y187D02*
X1234Y187D01*
X1419Y187D02*
X1463Y187D01*
X1486Y187D02*
X1522Y187D01*
X1942Y187D02*
X1946Y187D01*
X1963Y187D02*
X1989Y187D01*
X1998Y187D02*
X2017Y187D01*
X2027Y187D02*
X2052Y187D01*
X2058Y187D02*
X2065Y187D01*
X2079Y187D02*
X2083Y187D01*
X2149Y187D02*
X2156Y187D01*
X1227Y186D02*
X1234Y186D01*
X1419Y186D02*
X1463Y186D01*
X1487Y186D02*
X1522Y186D01*
X1942Y186D02*
X1946Y186D01*
X1963Y186D02*
X1988Y186D01*
X1999Y186D02*
X2016Y186D01*
X2027Y186D02*
X2052Y186D01*
X2058Y186D02*
X2063Y186D01*
X2079Y186D02*
X2083Y186D01*
X2149Y186D02*
X2156Y186D01*
X1227Y185D02*
X1234Y185D01*
X1419Y185D02*
X1462Y185D01*
X1488Y185D02*
X1521Y185D01*
X1942Y185D02*
X1946Y185D01*
X1964Y185D02*
X1988Y185D01*
X2000Y185D02*
X2015Y185D01*
X2027Y185D02*
X2052Y185D01*
X2059Y185D02*
X2062Y185D01*
X2079Y185D02*
X2083Y185D01*
X2149Y185D02*
X2156Y185D01*
X1227Y184D02*
X1234Y184D01*
X1421Y184D02*
X1461Y184D01*
X1489Y184D02*
X1520Y184D01*
X1944Y184D02*
X1944Y184D01*
X1965Y184D02*
X1987Y184D01*
X2001Y184D02*
X2014Y184D01*
X2029Y184D02*
X2051Y184D01*
X2060Y184D02*
X2061Y184D01*
X2081Y184D02*
X2081Y184D01*
X2149Y184D02*
X2156Y184D01*
X1227Y183D02*
X1234Y183D01*
X2149Y183D02*
X2156Y183D01*
X1227Y182D02*
X1234Y182D01*
X2149Y182D02*
X2156Y182D01*
X1227Y181D02*
X1234Y181D01*
X2149Y181D02*
X2156Y181D01*
X1227Y180D02*
X1234Y180D01*
X2149Y180D02*
X2156Y180D01*
X1227Y179D02*
X1234Y179D01*
X2149Y179D02*
X2156Y179D01*
X1227Y178D02*
X1234Y178D01*
X2149Y178D02*
X2156Y178D01*
X1227Y177D02*
X1234Y177D01*
X2149Y177D02*
X2156Y177D01*
X1227Y176D02*
X1234Y176D01*
X2149Y176D02*
X2156Y176D01*
X1227Y175D02*
X1234Y175D01*
X2149Y175D02*
X2156Y175D01*
X1227Y174D02*
X1234Y174D01*
X2149Y174D02*
X2156Y174D01*
X1227Y173D02*
X1234Y173D01*
X2149Y173D02*
X2156Y173D01*
X1227Y172D02*
X1234Y172D01*
X2149Y172D02*
X2156Y172D01*
X1227Y171D02*
X1234Y171D01*
X2149Y171D02*
X2156Y171D01*
X1227Y170D02*
X1234Y170D01*
X2149Y170D02*
X2156Y170D01*
X1227Y169D02*
X1234Y169D01*
X2149Y169D02*
X2156Y169D01*
X1227Y168D02*
X1234Y168D01*
X2149Y168D02*
X2156Y168D01*
X1227Y167D02*
X1234Y167D01*
X2149Y167D02*
X2156Y167D01*
X1227Y166D02*
X1234Y166D01*
X2149Y166D02*
X2156Y166D01*
X1227Y165D02*
X1234Y165D01*
X1522Y165D02*
X1525Y165D01*
X1563Y165D02*
X1567Y165D01*
X2149Y165D02*
X2156Y165D01*
X1227Y164D02*
X1234Y164D01*
X1521Y164D02*
X1526Y164D01*
X1563Y164D02*
X1568Y164D01*
X2149Y164D02*
X2156Y164D01*
X1227Y163D02*
X1234Y163D01*
X1520Y163D02*
X1526Y163D01*
X1562Y163D02*
X1568Y163D01*
X2149Y163D02*
X2156Y163D01*
X1227Y162D02*
X1234Y162D01*
X1520Y162D02*
X1526Y162D01*
X1562Y162D02*
X1569Y162D01*
X2149Y162D02*
X2156Y162D01*
X1227Y161D02*
X1234Y161D01*
X1519Y161D02*
X1526Y161D01*
X1563Y161D02*
X1569Y161D01*
X2149Y161D02*
X2156Y161D01*
X1227Y160D02*
X1234Y160D01*
X1518Y160D02*
X1526Y160D01*
X1563Y160D02*
X1570Y160D01*
X2149Y160D02*
X2156Y160D01*
X1227Y159D02*
X1234Y159D01*
X1518Y159D02*
X1525Y159D01*
X1564Y159D02*
X1570Y159D01*
X2149Y159D02*
X2156Y159D01*
X1227Y158D02*
X1234Y158D01*
X1517Y158D02*
X1524Y158D01*
X1564Y158D02*
X1571Y158D01*
X2149Y158D02*
X2156Y158D01*
X1227Y157D02*
X1234Y157D01*
X1516Y157D02*
X1524Y157D01*
X1565Y157D02*
X1571Y157D01*
X2149Y157D02*
X2156Y157D01*
X1227Y156D02*
X1234Y156D01*
X1516Y156D02*
X1523Y156D01*
X1565Y156D02*
X1572Y156D01*
X2149Y156D02*
X2156Y156D01*
X1227Y155D02*
X1234Y155D01*
X1515Y155D02*
X1522Y155D01*
X1565Y155D02*
X1572Y155D01*
X2149Y155D02*
X2156Y155D01*
X1227Y154D02*
X1234Y154D01*
X1515Y154D02*
X1522Y154D01*
X1566Y154D02*
X1572Y154D01*
X2149Y154D02*
X2156Y154D01*
X1227Y153D02*
X1234Y153D01*
X1514Y153D02*
X1521Y153D01*
X1566Y153D02*
X1573Y153D01*
X2149Y153D02*
X2156Y153D01*
X1227Y152D02*
X1234Y152D01*
X1514Y152D02*
X1520Y152D01*
X1567Y152D02*
X1573Y152D01*
X2149Y152D02*
X2156Y152D01*
X1227Y151D02*
X1234Y151D01*
X1513Y151D02*
X1520Y151D01*
X1567Y151D02*
X1573Y151D01*
X2149Y151D02*
X2156Y151D01*
X1227Y150D02*
X1234Y150D01*
X1513Y150D02*
X1519Y150D01*
X1568Y150D02*
X1574Y150D01*
X2149Y150D02*
X2156Y150D01*
X1227Y149D02*
X1234Y149D01*
X1440Y149D02*
X1442Y149D01*
X1462Y149D02*
X1464Y149D01*
X1512Y149D02*
X1519Y149D01*
X1568Y149D02*
X1574Y149D01*
X2149Y149D02*
X2156Y149D01*
X1227Y148D02*
X1234Y148D01*
X1438Y148D02*
X1443Y148D01*
X1460Y148D02*
X1465Y148D01*
X1512Y148D02*
X1518Y148D01*
X1568Y148D02*
X1574Y148D01*
X2149Y148D02*
X2156Y148D01*
X1227Y147D02*
X1234Y147D01*
X1438Y147D02*
X1444Y147D01*
X1460Y147D02*
X1466Y147D01*
X1511Y147D02*
X1518Y147D01*
X1569Y147D02*
X1575Y147D01*
X2149Y147D02*
X2156Y147D01*
X1227Y146D02*
X1234Y146D01*
X1438Y146D02*
X1445Y146D01*
X1459Y146D02*
X1466Y146D01*
X1511Y146D02*
X1517Y146D01*
X1569Y146D02*
X1575Y146D01*
X2149Y146D02*
X2156Y146D01*
X1227Y145D02*
X1234Y145D01*
X1438Y145D02*
X1446Y145D01*
X1458Y145D02*
X1466Y145D01*
X1511Y145D02*
X1517Y145D01*
X1569Y145D02*
X1575Y145D01*
X2149Y145D02*
X2156Y145D01*
X1227Y144D02*
X1234Y144D01*
X1438Y144D02*
X1447Y144D01*
X1457Y144D02*
X1466Y144D01*
X1510Y144D02*
X1517Y144D01*
X1569Y144D02*
X1576Y144D01*
X2149Y144D02*
X2156Y144D01*
X1227Y143D02*
X1234Y143D01*
X1438Y143D02*
X1448Y143D01*
X1456Y143D02*
X1466Y143D01*
X1510Y143D02*
X1516Y143D01*
X1570Y143D02*
X1576Y143D01*
X2149Y143D02*
X2156Y143D01*
X1227Y142D02*
X1234Y142D01*
X1438Y142D02*
X1449Y142D01*
X1455Y142D02*
X1466Y142D01*
X1509Y142D02*
X1516Y142D01*
X1570Y142D02*
X1576Y142D01*
X2149Y142D02*
X2156Y142D01*
X1227Y141D02*
X1234Y141D01*
X1438Y141D02*
X1449Y141D01*
X1454Y141D02*
X1466Y141D01*
X1509Y141D02*
X1515Y141D01*
X1570Y141D02*
X1576Y141D01*
X2149Y141D02*
X2156Y141D01*
X1227Y140D02*
X1234Y140D01*
X1438Y140D02*
X1450Y140D01*
X1453Y140D02*
X1466Y140D01*
X1509Y140D02*
X1515Y140D01*
X1570Y140D02*
X1576Y140D01*
X2149Y140D02*
X2156Y140D01*
X1227Y139D02*
X1234Y139D01*
X1438Y139D02*
X1466Y139D01*
X1509Y139D02*
X1515Y139D01*
X1571Y139D02*
X1577Y139D01*
X2149Y139D02*
X2156Y139D01*
X1227Y138D02*
X1234Y138D01*
X1438Y138D02*
X1466Y138D01*
X1508Y138D02*
X1514Y138D01*
X1571Y138D02*
X1577Y138D01*
X2149Y138D02*
X2156Y138D01*
X1227Y137D02*
X1234Y137D01*
X1280Y137D02*
X1300Y137D01*
X1315Y137D02*
X1335Y137D01*
X1368Y137D02*
X1389Y137D01*
X1409Y137D02*
X1424Y137D01*
X1438Y137D02*
X1466Y137D01*
X1480Y137D02*
X1494Y137D01*
X1508Y137D02*
X1514Y137D01*
X1571Y137D02*
X1577Y137D01*
X2149Y137D02*
X2156Y137D01*
X1227Y136D02*
X1234Y136D01*
X1279Y136D02*
X1301Y136D01*
X1314Y136D02*
X1336Y136D01*
X1367Y136D02*
X1390Y136D01*
X1408Y136D02*
X1425Y136D01*
X1438Y136D02*
X1444Y136D01*
X1446Y136D02*
X1457Y136D01*
X1460Y136D02*
X1466Y136D01*
X1479Y136D02*
X1495Y136D01*
X1508Y136D02*
X1514Y136D01*
X1571Y136D02*
X1577Y136D01*
X2149Y136D02*
X2156Y136D01*
X1227Y135D02*
X1234Y135D01*
X1278Y135D02*
X1302Y135D01*
X1313Y135D02*
X1338Y135D01*
X1367Y135D02*
X1391Y135D01*
X1407Y135D02*
X1426Y135D01*
X1438Y135D02*
X1444Y135D01*
X1447Y135D02*
X1456Y135D01*
X1460Y135D02*
X1466Y135D01*
X1477Y135D02*
X1496Y135D01*
X1508Y135D02*
X1514Y135D01*
X1571Y135D02*
X1577Y135D01*
X2149Y135D02*
X2156Y135D01*
X1227Y134D02*
X1234Y134D01*
X1278Y134D02*
X1303Y134D01*
X1313Y134D02*
X1339Y134D01*
X1367Y134D02*
X1392Y134D01*
X1406Y134D02*
X1427Y134D01*
X1438Y134D02*
X1444Y134D01*
X1447Y134D02*
X1455Y134D01*
X1460Y134D02*
X1466Y134D01*
X1476Y134D02*
X1497Y134D01*
X1508Y134D02*
X1514Y134D01*
X1571Y134D02*
X1577Y134D01*
X2149Y134D02*
X2156Y134D01*
X1227Y133D02*
X1234Y133D01*
X1279Y133D02*
X1304Y133D01*
X1314Y133D02*
X1340Y133D01*
X1367Y133D02*
X1393Y133D01*
X1405Y133D02*
X1429Y133D01*
X1438Y133D02*
X1444Y133D01*
X1448Y133D02*
X1455Y133D01*
X1460Y133D02*
X1466Y133D01*
X1475Y133D02*
X1499Y133D01*
X1507Y133D02*
X1513Y133D01*
X1571Y133D02*
X1577Y133D01*
X2149Y133D02*
X2156Y133D01*
X1227Y132D02*
X1234Y132D01*
X1279Y132D02*
X1305Y132D01*
X1314Y132D02*
X1341Y132D01*
X1368Y132D02*
X1394Y132D01*
X1404Y132D02*
X1430Y132D01*
X1438Y132D02*
X1444Y132D01*
X1449Y132D02*
X1454Y132D01*
X1460Y132D02*
X1466Y132D01*
X1474Y132D02*
X1500Y132D01*
X1507Y132D02*
X1513Y132D01*
X1571Y132D02*
X1577Y132D01*
X2149Y132D02*
X2156Y132D01*
X1227Y131D02*
X1234Y131D01*
X1281Y131D02*
X1306Y131D01*
X1316Y131D02*
X1342Y131D01*
X1370Y131D02*
X1395Y131D01*
X1403Y131D02*
X1431Y131D01*
X1438Y131D02*
X1444Y131D01*
X1450Y131D02*
X1452Y131D01*
X1460Y131D02*
X1466Y131D01*
X1473Y131D02*
X1501Y131D01*
X1507Y131D02*
X1513Y131D01*
X1571Y131D02*
X1577Y131D01*
X2149Y131D02*
X2156Y131D01*
X1227Y130D02*
X1234Y130D01*
X1298Y130D02*
X1306Y130D01*
X1334Y130D02*
X1342Y130D01*
X1387Y130D02*
X1395Y130D01*
X1403Y130D02*
X1411Y130D01*
X1422Y130D02*
X1431Y130D01*
X1438Y130D02*
X1444Y130D01*
X1460Y130D02*
X1466Y130D01*
X1473Y130D02*
X1481Y130D01*
X1492Y130D02*
X1501Y130D01*
X1507Y130D02*
X1513Y130D01*
X1571Y130D02*
X1577Y130D01*
X2149Y130D02*
X2156Y130D01*
X1227Y129D02*
X1234Y129D01*
X1299Y129D02*
X1307Y129D01*
X1335Y129D02*
X1342Y129D01*
X1387Y129D02*
X1395Y129D01*
X1403Y129D02*
X1410Y129D01*
X1424Y129D02*
X1431Y129D01*
X1438Y129D02*
X1444Y129D01*
X1460Y129D02*
X1466Y129D01*
X1473Y129D02*
X1480Y129D01*
X1494Y129D02*
X1501Y129D01*
X1507Y129D02*
X1513Y129D01*
X1571Y129D02*
X1577Y129D01*
X2149Y129D02*
X2156Y129D01*
X1227Y128D02*
X1234Y128D01*
X1300Y128D02*
X1306Y128D01*
X1336Y128D02*
X1342Y128D01*
X1387Y128D02*
X1395Y128D01*
X1403Y128D02*
X1409Y128D01*
X1425Y128D02*
X1431Y128D01*
X1438Y128D02*
X1444Y128D01*
X1460Y128D02*
X1466Y128D01*
X1473Y128D02*
X1479Y128D01*
X1495Y128D02*
X1501Y128D01*
X1507Y128D02*
X1513Y128D01*
X1571Y128D02*
X1577Y128D01*
X2149Y128D02*
X2156Y128D01*
X1227Y127D02*
X1234Y127D01*
X1300Y127D02*
X1306Y127D01*
X1336Y127D02*
X1342Y127D01*
X1375Y127D02*
X1394Y127D01*
X1403Y127D02*
X1409Y127D01*
X1425Y127D02*
X1431Y127D01*
X1438Y127D02*
X1444Y127D01*
X1460Y127D02*
X1466Y127D01*
X1473Y127D02*
X1501Y127D01*
X1507Y127D02*
X1513Y127D01*
X1540Y127D02*
X1541Y127D01*
X1571Y127D02*
X1577Y127D01*
X2149Y127D02*
X2156Y127D01*
X1227Y126D02*
X1234Y126D01*
X1300Y126D02*
X1306Y126D01*
X1336Y126D02*
X1342Y126D01*
X1373Y126D02*
X1393Y126D01*
X1403Y126D02*
X1409Y126D01*
X1425Y126D02*
X1431Y126D01*
X1438Y126D02*
X1444Y126D01*
X1460Y126D02*
X1466Y126D01*
X1473Y126D02*
X1501Y126D01*
X1507Y126D02*
X1513Y126D01*
X1540Y126D02*
X1541Y126D01*
X1571Y126D02*
X1577Y126D01*
X2149Y126D02*
X2156Y126D01*
X1227Y125D02*
X1234Y125D01*
X1300Y125D02*
X1306Y125D01*
X1336Y125D02*
X1342Y125D01*
X1372Y125D02*
X1392Y125D01*
X1403Y125D02*
X1409Y125D01*
X1425Y125D02*
X1431Y125D01*
X1438Y125D02*
X1444Y125D01*
X1460Y125D02*
X1466Y125D01*
X1473Y125D02*
X1501Y125D01*
X1507Y125D02*
X1513Y125D01*
X1539Y125D02*
X1541Y125D01*
X1571Y125D02*
X1577Y125D01*
X2149Y125D02*
X2156Y125D01*
X1227Y124D02*
X1234Y124D01*
X1300Y124D02*
X1306Y124D01*
X1336Y124D02*
X1342Y124D01*
X1372Y124D02*
X1391Y124D01*
X1403Y124D02*
X1409Y124D01*
X1425Y124D02*
X1431Y124D01*
X1438Y124D02*
X1444Y124D01*
X1460Y124D02*
X1466Y124D01*
X1473Y124D02*
X1501Y124D01*
X1507Y124D02*
X1513Y124D01*
X1539Y124D02*
X1542Y124D01*
X1571Y124D02*
X1577Y124D01*
X2149Y124D02*
X2156Y124D01*
X1227Y123D02*
X1234Y123D01*
X1300Y123D02*
X1306Y123D01*
X1336Y123D02*
X1342Y123D01*
X1371Y123D02*
X1391Y123D01*
X1403Y123D02*
X1409Y123D01*
X1425Y123D02*
X1431Y123D01*
X1438Y123D02*
X1444Y123D01*
X1460Y123D02*
X1466Y123D01*
X1473Y123D02*
X1501Y123D01*
X1507Y123D02*
X1513Y123D01*
X1539Y123D02*
X1542Y123D01*
X1570Y123D02*
X1576Y123D01*
X2149Y123D02*
X2156Y123D01*
X1227Y122D02*
X1234Y122D01*
X1300Y122D02*
X1306Y122D01*
X1336Y122D02*
X1342Y122D01*
X1370Y122D02*
X1390Y122D01*
X1403Y122D02*
X1409Y122D01*
X1425Y122D02*
X1431Y122D01*
X1438Y122D02*
X1444Y122D01*
X1460Y122D02*
X1466Y122D01*
X1473Y122D02*
X1501Y122D01*
X1508Y122D02*
X1513Y122D01*
X1538Y122D02*
X1542Y122D01*
X1570Y122D02*
X1576Y122D01*
X2149Y122D02*
X2156Y122D01*
X1227Y121D02*
X1234Y121D01*
X1300Y121D02*
X1306Y121D01*
X1336Y121D02*
X1342Y121D01*
X1350Y121D02*
X1358Y121D01*
X1368Y121D02*
X1389Y121D01*
X1403Y121D02*
X1409Y121D01*
X1425Y121D02*
X1431Y121D01*
X1438Y121D02*
X1444Y121D01*
X1460Y121D02*
X1466Y121D01*
X1474Y121D02*
X1501Y121D01*
X1508Y121D02*
X1514Y121D01*
X1538Y121D02*
X1542Y121D01*
X1570Y121D02*
X1576Y121D01*
X2149Y121D02*
X2156Y121D01*
X1227Y120D02*
X1234Y120D01*
X1300Y120D02*
X1306Y120D01*
X1336Y120D02*
X1342Y120D01*
X1349Y120D02*
X1359Y120D01*
X1367Y120D02*
X1377Y120D01*
X1403Y120D02*
X1409Y120D01*
X1425Y120D02*
X1431Y120D01*
X1438Y120D02*
X1444Y120D01*
X1460Y120D02*
X1466Y120D01*
X1495Y120D02*
X1501Y120D01*
X1508Y120D02*
X1514Y120D01*
X1538Y120D02*
X1543Y120D01*
X1569Y120D02*
X1576Y120D01*
X2149Y120D02*
X2156Y120D01*
X1227Y119D02*
X1234Y119D01*
X1300Y119D02*
X1306Y119D01*
X1336Y119D02*
X1342Y119D01*
X1348Y119D02*
X1360Y119D01*
X1367Y119D02*
X1375Y119D01*
X1403Y119D02*
X1409Y119D01*
X1424Y119D02*
X1431Y119D01*
X1438Y119D02*
X1444Y119D01*
X1460Y119D02*
X1466Y119D01*
X1494Y119D02*
X1501Y119D01*
X1508Y119D02*
X1514Y119D01*
X1537Y119D02*
X1543Y119D01*
X1569Y119D02*
X1575Y119D01*
X2149Y119D02*
X2156Y119D01*
X1227Y118D02*
X1234Y118D01*
X1299Y118D02*
X1307Y118D01*
X1335Y118D02*
X1342Y118D01*
X1348Y118D02*
X1360Y118D01*
X1367Y118D02*
X1375Y118D01*
X1403Y118D02*
X1410Y118D01*
X1424Y118D02*
X1431Y118D01*
X1438Y118D02*
X1444Y118D01*
X1460Y118D02*
X1466Y118D01*
X1493Y118D02*
X1501Y118D01*
X1509Y118D02*
X1515Y118D01*
X1537Y118D02*
X1543Y118D01*
X1568Y118D02*
X1575Y118D01*
X2149Y118D02*
X2156Y118D01*
X1227Y117D02*
X1234Y117D01*
X1298Y117D02*
X1306Y117D01*
X1334Y117D02*
X1342Y117D01*
X1348Y117D02*
X1360Y117D01*
X1367Y117D02*
X1375Y117D01*
X1403Y117D02*
X1411Y117D01*
X1423Y117D02*
X1431Y117D01*
X1438Y117D02*
X1444Y117D01*
X1460Y117D02*
X1466Y117D01*
X1492Y117D02*
X1501Y117D01*
X1509Y117D02*
X1515Y117D01*
X1536Y117D02*
X1544Y117D01*
X1568Y117D02*
X1575Y117D01*
X2149Y117D02*
X2156Y117D01*
X1227Y116D02*
X1234Y116D01*
X1297Y116D02*
X1306Y116D01*
X1333Y116D02*
X1342Y116D01*
X1348Y116D02*
X1360Y116D01*
X1367Y116D02*
X1376Y116D01*
X1403Y116D02*
X1412Y116D01*
X1421Y116D02*
X1430Y116D01*
X1438Y116D02*
X1444Y116D01*
X1460Y116D02*
X1466Y116D01*
X1491Y116D02*
X1500Y116D01*
X1509Y116D02*
X1516Y116D01*
X1536Y116D02*
X1544Y116D01*
X1567Y116D02*
X1574Y116D01*
X2149Y116D02*
X2156Y116D01*
X1227Y115D02*
X1234Y115D01*
X1280Y115D02*
X1305Y115D01*
X1315Y115D02*
X1341Y115D01*
X1348Y115D02*
X1360Y115D01*
X1368Y115D02*
X1393Y115D01*
X1404Y115D02*
X1430Y115D01*
X1438Y115D02*
X1444Y115D01*
X1460Y115D02*
X1466Y115D01*
X1480Y115D02*
X1500Y115D01*
X1510Y115D02*
X1517Y115D01*
X1535Y115D02*
X1545Y115D01*
X1567Y115D02*
X1574Y115D01*
X2149Y115D02*
X2156Y115D01*
X1227Y114D02*
X1234Y114D01*
X1279Y114D02*
X1304Y114D01*
X1314Y114D02*
X1340Y114D01*
X1348Y114D02*
X1360Y114D01*
X1369Y114D02*
X1394Y114D01*
X1405Y114D02*
X1428Y114D01*
X1438Y114D02*
X1444Y114D01*
X1460Y114D02*
X1466Y114D01*
X1479Y114D02*
X1498Y114D01*
X1510Y114D02*
X1517Y114D01*
X1535Y114D02*
X1545Y114D01*
X1566Y114D02*
X1573Y114D01*
X2149Y114D02*
X2156Y114D01*
X1227Y113D02*
X1234Y113D01*
X1278Y113D02*
X1303Y113D01*
X1313Y113D02*
X1339Y113D01*
X1348Y113D02*
X1360Y113D01*
X1370Y113D02*
X1395Y113D01*
X1406Y113D02*
X1427Y113D01*
X1438Y113D02*
X1444Y113D01*
X1460Y113D02*
X1466Y113D01*
X1479Y113D02*
X1497Y113D01*
X1511Y113D02*
X1518Y113D01*
X1534Y113D02*
X1546Y113D01*
X1565Y113D02*
X1572Y113D01*
X2149Y113D02*
X2156Y113D01*
X1227Y112D02*
X1234Y112D01*
X1278Y112D02*
X1302Y112D01*
X1313Y112D02*
X1338Y112D01*
X1348Y112D02*
X1360Y112D01*
X1371Y112D02*
X1395Y112D01*
X1407Y112D02*
X1426Y112D01*
X1438Y112D02*
X1444Y112D01*
X1460Y112D02*
X1466Y112D01*
X1479Y112D02*
X1496Y112D01*
X1511Y112D02*
X1519Y112D01*
X1533Y112D02*
X1547Y112D01*
X1564Y112D02*
X1572Y112D01*
X2149Y112D02*
X2156Y112D01*
X1227Y111D02*
X1234Y111D01*
X1279Y111D02*
X1302Y111D01*
X1314Y111D02*
X1337Y111D01*
X1348Y111D02*
X1360Y111D01*
X1372Y111D02*
X1395Y111D01*
X1408Y111D02*
X1425Y111D01*
X1438Y111D02*
X1443Y111D01*
X1460Y111D02*
X1466Y111D01*
X1479Y111D02*
X1495Y111D01*
X1512Y111D02*
X1521Y111D01*
X1531Y111D02*
X1548Y111D01*
X1562Y111D02*
X1571Y111D01*
X2149Y111D02*
X2156Y111D01*
X1227Y110D02*
X1234Y110D01*
X1279Y110D02*
X1301Y110D01*
X1314Y110D02*
X1336Y110D01*
X1349Y110D02*
X1359Y110D01*
X1373Y110D02*
X1394Y110D01*
X1408Y110D02*
X1425Y110D01*
X1439Y110D02*
X1443Y110D01*
X1461Y110D02*
X1465Y110D01*
X1479Y110D02*
X1495Y110D01*
X1513Y110D02*
X1523Y110D01*
X1529Y110D02*
X1539Y110D01*
X1541Y110D02*
X1550Y110D01*
X1560Y110D02*
X1570Y110D01*
X2149Y110D02*
X2156Y110D01*
X1227Y109D02*
X1234Y109D01*
X1281Y109D02*
X1300Y109D01*
X1316Y109D02*
X1335Y109D01*
X1350Y109D02*
X1358Y109D01*
X1374Y109D02*
X1393Y109D01*
X1409Y109D02*
X1423Y109D01*
X1440Y109D02*
X1441Y109D01*
X1462Y109D02*
X1464Y109D01*
X1481Y109D02*
X1493Y109D01*
X1513Y109D02*
X1538Y109D01*
X1542Y109D02*
X1554Y109D01*
X1557Y109D02*
X1570Y109D01*
X2149Y109D02*
X2156Y109D01*
X1227Y108D02*
X1234Y108D01*
X1514Y108D02*
X1537Y108D01*
X1542Y108D02*
X1569Y108D01*
X2149Y108D02*
X2156Y108D01*
X1227Y107D02*
X1234Y107D01*
X1516Y107D02*
X1536Y107D01*
X1543Y107D02*
X1567Y107D01*
X2149Y107D02*
X2156Y107D01*
X1227Y106D02*
X1234Y106D01*
X1517Y106D02*
X1535Y106D01*
X1545Y106D02*
X1566Y106D01*
X2149Y106D02*
X2156Y106D01*
X1227Y105D02*
X1234Y105D01*
X1519Y105D02*
X1534Y105D01*
X1546Y105D02*
X1565Y105D01*
X2149Y105D02*
X2156Y105D01*
X1227Y104D02*
X1234Y104D01*
X1521Y104D02*
X1532Y104D01*
X1547Y104D02*
X1563Y104D01*
X2149Y104D02*
X2156Y104D01*
X1227Y103D02*
X1234Y103D01*
X1525Y103D02*
X1529Y103D01*
X1550Y103D02*
X1560Y103D01*
X2149Y103D02*
X2156Y103D01*
X1227Y102D02*
X1234Y102D01*
X2149Y102D02*
X2156Y102D01*
X1227Y101D02*
X1234Y101D01*
X2149Y101D02*
X2156Y101D01*
X1227Y100D02*
X1234Y100D01*
X2149Y100D02*
X2156Y100D01*
X1227Y99D02*
X1234Y99D01*
X2149Y99D02*
X2156Y99D01*
X1227Y98D02*
X1234Y98D01*
X2149Y98D02*
X2156Y98D01*
X1227Y97D02*
X1234Y97D01*
X2149Y97D02*
X2156Y97D01*
X1227Y96D02*
X1234Y96D01*
X2149Y96D02*
X2156Y96D01*
X1227Y95D02*
X1234Y95D01*
X2149Y95D02*
X2156Y95D01*
X1227Y94D02*
X1234Y94D01*
X2149Y94D02*
X2156Y94D01*
X1227Y93D02*
X1234Y93D01*
X2149Y93D02*
X2156Y93D01*
X1227Y92D02*
X1234Y92D01*
X2149Y92D02*
X2156Y92D01*
X1227Y91D02*
X1234Y91D01*
X2149Y91D02*
X2156Y91D01*
X1227Y90D02*
X1234Y90D01*
X2149Y90D02*
X2156Y90D01*
X1227Y89D02*
X1234Y89D01*
X2149Y89D02*
X2156Y89D01*
X1227Y88D02*
X1234Y88D01*
X2149Y88D02*
X2156Y88D01*
X1227Y87D02*
X1234Y87D01*
X2149Y87D02*
X2156Y87D01*
X1227Y86D02*
X1234Y86D01*
X2149Y86D02*
X2156Y86D01*
X1227Y85D02*
X1234Y85D01*
X2149Y85D02*
X2156Y85D01*
X1227Y84D02*
X1234Y84D01*
X2149Y84D02*
X2156Y84D01*
X1227Y83D02*
X1234Y83D01*
X1590Y83D02*
X1922Y83D01*
X2149Y83D02*
X2156Y83D01*
X1227Y82D02*
X1234Y82D01*
X1587Y82D02*
X1925Y82D01*
X2149Y82D02*
X2156Y82D01*
X1227Y81D02*
X1234Y81D01*
X1585Y81D02*
X1927Y81D01*
X2149Y81D02*
X2156Y81D01*
X1227Y80D02*
X1234Y80D01*
X1583Y80D02*
X1929Y80D01*
X2149Y80D02*
X2156Y80D01*
X1227Y79D02*
X1234Y79D01*
X1582Y79D02*
X1930Y79D01*
X2149Y79D02*
X2156Y79D01*
X1227Y78D02*
X1234Y78D01*
X1581Y78D02*
X1931Y78D01*
X2149Y78D02*
X2156Y78D01*
X1227Y77D02*
X1234Y77D01*
X1580Y77D02*
X1932Y77D01*
X2149Y77D02*
X2156Y77D01*
X1227Y76D02*
X1234Y76D01*
X1579Y76D02*
X1933Y76D01*
X2149Y76D02*
X2156Y76D01*
X1227Y75D02*
X1234Y75D01*
X1578Y75D02*
X1590Y75D01*
X1922Y75D02*
X1933Y75D01*
X2149Y75D02*
X2156Y75D01*
X1227Y74D02*
X1234Y74D01*
X1578Y74D02*
X1588Y74D01*
X1924Y74D02*
X1934Y74D01*
X2149Y74D02*
X2156Y74D01*
X1227Y73D02*
X1234Y73D01*
X1577Y73D02*
X1586Y73D01*
X1926Y73D02*
X1935Y73D01*
X2149Y73D02*
X2156Y73D01*
X1227Y72D02*
X1234Y72D01*
X1577Y72D02*
X1585Y72D01*
X1927Y72D02*
X1935Y72D01*
X2149Y72D02*
X2156Y72D01*
X1227Y71D02*
X1234Y71D01*
X1576Y71D02*
X1584Y71D01*
X1928Y71D02*
X1935Y71D01*
X2149Y71D02*
X2156Y71D01*
X1227Y70D02*
X1234Y70D01*
X1576Y70D02*
X1584Y70D01*
X1928Y70D02*
X1936Y70D01*
X2149Y70D02*
X2156Y70D01*
X1227Y69D02*
X1234Y69D01*
X1575Y69D02*
X1583Y69D01*
X1929Y69D02*
X1936Y69D01*
X2149Y69D02*
X2156Y69D01*
X1227Y68D02*
X1234Y68D01*
X1575Y68D02*
X1583Y68D01*
X1929Y68D02*
X1936Y68D01*
X2149Y68D02*
X2156Y68D01*
X1227Y67D02*
X1234Y67D01*
X1575Y67D02*
X1582Y67D01*
X1929Y67D02*
X1936Y67D01*
X2149Y67D02*
X2156Y67D01*
X1227Y66D02*
X1234Y66D01*
X1575Y66D02*
X1582Y66D01*
X1929Y66D02*
X1936Y66D01*
X2149Y66D02*
X2156Y66D01*
X1227Y65D02*
X1234Y65D01*
X1575Y65D02*
X1582Y65D01*
X1929Y65D02*
X1936Y65D01*
X2149Y65D02*
X2156Y65D01*
X1227Y64D02*
X1234Y64D01*
X1575Y64D02*
X1582Y64D01*
X1929Y64D02*
X1936Y64D01*
X2149Y64D02*
X2156Y64D01*
X1227Y63D02*
X1234Y63D01*
X1575Y63D02*
X1582Y63D01*
X1929Y63D02*
X1936Y63D01*
X2149Y63D02*
X2156Y63D01*
X1227Y62D02*
X1234Y62D01*
X1575Y62D02*
X1582Y62D01*
X1929Y62D02*
X1936Y62D01*
X2149Y62D02*
X2156Y62D01*
X1227Y61D02*
X1234Y61D01*
X1575Y61D02*
X1582Y61D01*
X1929Y61D02*
X1936Y61D01*
X2149Y61D02*
X2156Y61D01*
X1227Y60D02*
X1234Y60D01*
X1575Y60D02*
X1582Y60D01*
X1929Y60D02*
X1936Y60D01*
X2149Y60D02*
X2156Y60D01*
X1227Y59D02*
X1234Y59D01*
X1575Y59D02*
X1582Y59D01*
X1929Y59D02*
X1936Y59D01*
X2149Y59D02*
X2156Y59D01*
X1227Y58D02*
X1234Y58D01*
X1575Y58D02*
X1582Y58D01*
X1929Y58D02*
X1936Y58D01*
X2149Y58D02*
X2156Y58D01*
X1227Y57D02*
X1234Y57D01*
X1575Y57D02*
X1582Y57D01*
X1929Y57D02*
X1936Y57D01*
X2149Y57D02*
X2156Y57D01*
X1227Y56D02*
X1234Y56D01*
X1575Y56D02*
X1582Y56D01*
X1929Y56D02*
X1936Y56D01*
X2149Y56D02*
X2156Y56D01*
X1227Y55D02*
X1234Y55D01*
X1575Y55D02*
X1582Y55D01*
X1929Y55D02*
X1936Y55D01*
X2149Y55D02*
X2156Y55D01*
X1227Y54D02*
X1234Y54D01*
X1575Y54D02*
X1582Y54D01*
X1929Y54D02*
X1936Y54D01*
X2149Y54D02*
X2156Y54D01*
X1227Y53D02*
X1234Y53D01*
X1575Y53D02*
X1582Y53D01*
X1929Y53D02*
X1936Y53D01*
X2149Y53D02*
X2156Y53D01*
X1227Y52D02*
X1234Y52D01*
X1575Y52D02*
X1582Y52D01*
X1929Y52D02*
X1936Y52D01*
X2149Y52D02*
X2156Y52D01*
X1227Y51D02*
X1234Y51D01*
X1575Y51D02*
X1582Y51D01*
X1929Y51D02*
X1936Y51D01*
X2148Y51D02*
X2156Y51D01*
X1227Y50D02*
X1234Y50D01*
X1575Y50D02*
X1582Y50D01*
X1929Y50D02*
X1936Y50D01*
X2148Y50D02*
X2155Y50D01*
X1227Y49D02*
X1234Y49D01*
X1575Y49D02*
X1582Y49D01*
X1929Y49D02*
X1936Y49D01*
X2148Y49D02*
X2155Y49D01*
X1227Y48D02*
X1234Y48D01*
X1575Y48D02*
X1582Y48D01*
X1929Y48D02*
X1936Y48D01*
X2147Y48D02*
X2155Y48D01*
X1227Y47D02*
X1234Y47D01*
X1575Y47D02*
X1582Y47D01*
X1929Y47D02*
X1936Y47D01*
X2147Y47D02*
X2154Y47D01*
X1227Y46D02*
X1235Y46D01*
X1575Y46D02*
X1582Y46D01*
X1929Y46D02*
X1936Y46D01*
X2146Y46D02*
X2154Y46D01*
X1228Y45D02*
X1235Y45D01*
X1575Y45D02*
X1582Y45D01*
X1929Y45D02*
X1936Y45D01*
X2146Y45D02*
X2154Y45D01*
X1228Y44D02*
X1235Y44D01*
X1575Y44D02*
X1582Y44D01*
X1929Y44D02*
X1936Y44D01*
X2145Y44D02*
X2153Y44D01*
X1228Y43D02*
X1236Y43D01*
X1575Y43D02*
X1582Y43D01*
X1929Y43D02*
X1936Y43D01*
X2145Y43D02*
X2153Y43D01*
X1229Y42D02*
X1237Y42D01*
X1575Y42D02*
X1582Y42D01*
X1929Y42D02*
X1936Y42D01*
X2144Y42D02*
X2152Y42D01*
X1229Y41D02*
X1237Y41D01*
X1575Y41D02*
X1582Y41D01*
X1929Y41D02*
X1936Y41D01*
X2143Y41D02*
X2152Y41D01*
X1229Y40D02*
X1238Y40D01*
X1575Y40D02*
X1582Y40D01*
X1929Y40D02*
X1936Y40D01*
X2142Y40D02*
X2151Y40D01*
X1230Y39D02*
X1239Y39D01*
X1575Y39D02*
X1582Y39D01*
X1929Y39D02*
X1936Y39D01*
X2141Y39D02*
X2150Y39D01*
X1231Y38D02*
X1240Y38D01*
X1575Y38D02*
X1582Y38D01*
X1929Y38D02*
X1936Y38D01*
X2140Y38D02*
X2150Y38D01*
X1231Y37D02*
X1241Y37D01*
X1575Y37D02*
X1582Y37D01*
X1929Y37D02*
X1936Y37D01*
X2139Y37D02*
X2149Y37D01*
X1232Y36D02*
X1242Y36D01*
X1575Y36D02*
X1582Y36D01*
X1929Y36D02*
X1936Y36D01*
X2138Y36D02*
X2148Y36D01*
X1233Y35D02*
X1244Y35D01*
X1575Y35D02*
X1582Y35D01*
X1929Y35D02*
X1936Y35D01*
X2136Y35D02*
X2147Y35D01*
X1234Y34D02*
X1246Y34D01*
X1575Y34D02*
X1582Y34D01*
X1929Y34D02*
X1936Y34D01*
X2134Y34D02*
X2147Y34D01*
X1234Y33D02*
X1249Y33D01*
X1575Y33D02*
X1582Y33D01*
X1929Y33D02*
X1936Y33D01*
X2131Y33D02*
X2146Y33D01*
X1235Y32D02*
X1582Y32D01*
X1930Y32D02*
X2144Y32D01*
X1237Y31D02*
X1582Y31D01*
X1930Y31D02*
X2143Y31D01*
X1238Y30D02*
X1581Y30D01*
X1930Y30D02*
X2142Y30D01*
X1239Y29D02*
X1581Y29D01*
X1931Y29D02*
X2141Y29D01*
X1241Y28D02*
X1580Y28D01*
X1931Y28D02*
X2139Y28D01*
X1243Y27D02*
X1579Y27D01*
X1932Y27D02*
X2137Y27D01*
X1245Y26D02*
X1578Y26D01*
X1933Y26D02*
X2134Y26D01*
X1249Y25D02*
X1576Y25D01*
X1935Y25D02*
X2131Y25D01*
D02*
G04 End of Silk0*
M02*