; NON-PLATED HOLES START AT T1
; THROUGH (PLATED) HOLES START AT T100
M48
INCH
T1C0.086614
T100C0.031497
T101C0.036111
T102C0.035000
T103C0.032000
%
T1
X000807Y014832
X000807Y000832
X023807Y014832
X023807Y000832
T100
X003807Y007832
X004791Y007832
X004791Y005832
X003807Y005832
T101
X021807Y006832
X012807Y009832
X012807Y008832
X012807Y006832
X021807Y010832
X012807Y007832
X021807Y007832
X021807Y003832
X012807Y003832
X012807Y010832
X021807Y008832
X021807Y004832
X012807Y004832
X012807Y005832
X021807Y005832
X021807Y009832
T102
X007807Y003604
X005807Y005832
X005807Y007832
X007807Y001832
X009807Y005832
X005248Y003604
X009807Y007832
X005248Y001832
T103
X007807Y011257
X007807Y010470
X007807Y012045
X007807Y012832
T00
M30
