G04 MADE WITH FRITZING*
G04 WWW.FRITZING.ORG*
G04 DOUBLE SIDED*
G04 HOLES PLATED*
G04 CONTOUR ON CENTER OF CONTOUR VECTOR*
%ASAXBY*%
%FSLAX23Y23*%
%MOIN*%
%OFA0B0*%
%SFA1.0B1.0*%
%ADD10C,0.010000*%
%ADD11R,0.001000X0.001000*%
%LNSILK1*%
G90*
G70*
G54D10*
X690Y816D02*
X890Y816D01*
D02*
X890Y816D02*
X890Y750D01*
D02*
X890Y750D02*
X690Y750D01*
D02*
X690Y750D02*
X690Y816D01*
D02*
X690Y616D02*
X890Y616D01*
D02*
X890Y616D02*
X890Y550D01*
D02*
X890Y550D02*
X690Y550D01*
D02*
X690Y550D02*
X690Y616D01*
D02*
X771Y311D02*
X771Y232D01*
D02*
X574Y390D02*
X741Y390D01*
D02*
X574Y154D02*
X741Y154D01*
D02*
X535Y311D02*
X535Y232D01*
D02*
X653Y292D02*
X653Y252D01*
D02*
X672Y272D02*
X633Y272D01*
G54D11*
X0Y1575D02*
X2479Y1575D01*
X0Y1574D02*
X2479Y1574D01*
X0Y1573D02*
X2479Y1573D01*
X0Y1572D02*
X2479Y1572D01*
X0Y1571D02*
X2479Y1571D01*
X0Y1570D02*
X2479Y1570D01*
X0Y1569D02*
X2479Y1569D01*
X0Y1568D02*
X2479Y1568D01*
X0Y1567D02*
X7Y1567D01*
X2472Y1567D02*
X2479Y1567D01*
X0Y1566D02*
X7Y1566D01*
X2472Y1566D02*
X2479Y1566D01*
X0Y1565D02*
X7Y1565D01*
X2472Y1565D02*
X2479Y1565D01*
X0Y1564D02*
X7Y1564D01*
X2472Y1564D02*
X2479Y1564D01*
X0Y1563D02*
X7Y1563D01*
X2472Y1563D02*
X2479Y1563D01*
X0Y1562D02*
X7Y1562D01*
X2472Y1562D02*
X2479Y1562D01*
X0Y1561D02*
X7Y1561D01*
X2472Y1561D02*
X2479Y1561D01*
X0Y1560D02*
X7Y1560D01*
X2472Y1560D02*
X2479Y1560D01*
X0Y1559D02*
X7Y1559D01*
X2472Y1559D02*
X2479Y1559D01*
X0Y1558D02*
X7Y1558D01*
X2472Y1558D02*
X2479Y1558D01*
X0Y1557D02*
X7Y1557D01*
X2472Y1557D02*
X2479Y1557D01*
X0Y1556D02*
X7Y1556D01*
X2472Y1556D02*
X2479Y1556D01*
X0Y1555D02*
X7Y1555D01*
X2472Y1555D02*
X2479Y1555D01*
X0Y1554D02*
X7Y1554D01*
X2472Y1554D02*
X2479Y1554D01*
X0Y1553D02*
X7Y1553D01*
X2472Y1553D02*
X2479Y1553D01*
X0Y1552D02*
X7Y1552D01*
X2472Y1552D02*
X2479Y1552D01*
X0Y1551D02*
X7Y1551D01*
X2472Y1551D02*
X2479Y1551D01*
X0Y1550D02*
X7Y1550D01*
X2472Y1550D02*
X2479Y1550D01*
X0Y1549D02*
X7Y1549D01*
X2472Y1549D02*
X2479Y1549D01*
X0Y1548D02*
X7Y1548D01*
X2472Y1548D02*
X2479Y1548D01*
X0Y1547D02*
X7Y1547D01*
X2472Y1547D02*
X2479Y1547D01*
X0Y1546D02*
X7Y1546D01*
X2472Y1546D02*
X2479Y1546D01*
X0Y1545D02*
X7Y1545D01*
X2472Y1545D02*
X2479Y1545D01*
X0Y1544D02*
X7Y1544D01*
X2472Y1544D02*
X2479Y1544D01*
X0Y1543D02*
X7Y1543D01*
X2472Y1543D02*
X2479Y1543D01*
X0Y1542D02*
X7Y1542D01*
X2472Y1542D02*
X2479Y1542D01*
X0Y1541D02*
X7Y1541D01*
X2472Y1541D02*
X2479Y1541D01*
X0Y1540D02*
X7Y1540D01*
X2472Y1540D02*
X2479Y1540D01*
X0Y1539D02*
X7Y1539D01*
X2472Y1539D02*
X2479Y1539D01*
X0Y1538D02*
X7Y1538D01*
X2472Y1538D02*
X2479Y1538D01*
X0Y1537D02*
X7Y1537D01*
X2472Y1537D02*
X2479Y1537D01*
X0Y1536D02*
X7Y1536D01*
X2472Y1536D02*
X2479Y1536D01*
X0Y1535D02*
X7Y1535D01*
X2472Y1535D02*
X2479Y1535D01*
X0Y1534D02*
X7Y1534D01*
X2472Y1534D02*
X2479Y1534D01*
X0Y1533D02*
X7Y1533D01*
X2472Y1533D02*
X2479Y1533D01*
X0Y1532D02*
X7Y1532D01*
X2472Y1532D02*
X2479Y1532D01*
X0Y1531D02*
X7Y1531D01*
X2472Y1531D02*
X2479Y1531D01*
X0Y1530D02*
X7Y1530D01*
X2472Y1530D02*
X2479Y1530D01*
X0Y1529D02*
X7Y1529D01*
X2472Y1529D02*
X2479Y1529D01*
X0Y1528D02*
X7Y1528D01*
X2472Y1528D02*
X2479Y1528D01*
X0Y1527D02*
X7Y1527D01*
X2472Y1527D02*
X2479Y1527D01*
X0Y1526D02*
X7Y1526D01*
X2472Y1526D02*
X2479Y1526D01*
X0Y1525D02*
X7Y1525D01*
X2472Y1525D02*
X2479Y1525D01*
X0Y1524D02*
X7Y1524D01*
X2472Y1524D02*
X2479Y1524D01*
X0Y1523D02*
X7Y1523D01*
X2472Y1523D02*
X2479Y1523D01*
X0Y1522D02*
X7Y1522D01*
X2472Y1522D02*
X2479Y1522D01*
X0Y1521D02*
X7Y1521D01*
X2472Y1521D02*
X2479Y1521D01*
X0Y1520D02*
X7Y1520D01*
X2472Y1520D02*
X2479Y1520D01*
X0Y1519D02*
X7Y1519D01*
X2472Y1519D02*
X2479Y1519D01*
X0Y1518D02*
X7Y1518D01*
X2472Y1518D02*
X2479Y1518D01*
X0Y1517D02*
X7Y1517D01*
X2472Y1517D02*
X2479Y1517D01*
X0Y1516D02*
X7Y1516D01*
X2472Y1516D02*
X2479Y1516D01*
X0Y1515D02*
X7Y1515D01*
X2472Y1515D02*
X2479Y1515D01*
X0Y1514D02*
X7Y1514D01*
X2472Y1514D02*
X2479Y1514D01*
X0Y1513D02*
X7Y1513D01*
X2472Y1513D02*
X2479Y1513D01*
X0Y1512D02*
X7Y1512D01*
X2472Y1512D02*
X2479Y1512D01*
X0Y1511D02*
X7Y1511D01*
X2472Y1511D02*
X2479Y1511D01*
X0Y1510D02*
X7Y1510D01*
X2472Y1510D02*
X2479Y1510D01*
X0Y1509D02*
X7Y1509D01*
X2472Y1509D02*
X2479Y1509D01*
X0Y1508D02*
X7Y1508D01*
X2472Y1508D02*
X2479Y1508D01*
X0Y1507D02*
X7Y1507D01*
X2472Y1507D02*
X2479Y1507D01*
X0Y1506D02*
X7Y1506D01*
X2472Y1506D02*
X2479Y1506D01*
X0Y1505D02*
X7Y1505D01*
X2472Y1505D02*
X2479Y1505D01*
X0Y1504D02*
X7Y1504D01*
X2472Y1504D02*
X2479Y1504D01*
X0Y1503D02*
X7Y1503D01*
X2472Y1503D02*
X2479Y1503D01*
X0Y1502D02*
X7Y1502D01*
X2472Y1502D02*
X2479Y1502D01*
X0Y1501D02*
X7Y1501D01*
X2472Y1501D02*
X2479Y1501D01*
X0Y1500D02*
X7Y1500D01*
X2472Y1500D02*
X2479Y1500D01*
X0Y1499D02*
X7Y1499D01*
X2472Y1499D02*
X2479Y1499D01*
X0Y1498D02*
X7Y1498D01*
X2472Y1498D02*
X2479Y1498D01*
X0Y1497D02*
X7Y1497D01*
X2472Y1497D02*
X2479Y1497D01*
X0Y1496D02*
X7Y1496D01*
X2472Y1496D02*
X2479Y1496D01*
X0Y1495D02*
X7Y1495D01*
X2472Y1495D02*
X2479Y1495D01*
X0Y1494D02*
X7Y1494D01*
X2472Y1494D02*
X2479Y1494D01*
X0Y1493D02*
X7Y1493D01*
X2472Y1493D02*
X2479Y1493D01*
X0Y1492D02*
X7Y1492D01*
X2472Y1492D02*
X2479Y1492D01*
X0Y1491D02*
X7Y1491D01*
X2472Y1491D02*
X2479Y1491D01*
X0Y1490D02*
X7Y1490D01*
X2472Y1490D02*
X2479Y1490D01*
X0Y1489D02*
X7Y1489D01*
X2472Y1489D02*
X2479Y1489D01*
X0Y1488D02*
X7Y1488D01*
X2472Y1488D02*
X2479Y1488D01*
X0Y1487D02*
X7Y1487D01*
X2472Y1487D02*
X2479Y1487D01*
X0Y1486D02*
X7Y1486D01*
X2472Y1486D02*
X2479Y1486D01*
X0Y1485D02*
X7Y1485D01*
X2472Y1485D02*
X2479Y1485D01*
X0Y1484D02*
X7Y1484D01*
X2472Y1484D02*
X2479Y1484D01*
X0Y1483D02*
X7Y1483D01*
X2472Y1483D02*
X2479Y1483D01*
X0Y1482D02*
X7Y1482D01*
X2472Y1482D02*
X2479Y1482D01*
X0Y1481D02*
X7Y1481D01*
X2472Y1481D02*
X2479Y1481D01*
X0Y1480D02*
X7Y1480D01*
X2472Y1480D02*
X2479Y1480D01*
X0Y1479D02*
X7Y1479D01*
X2472Y1479D02*
X2479Y1479D01*
X0Y1478D02*
X7Y1478D01*
X2472Y1478D02*
X2479Y1478D01*
X0Y1477D02*
X7Y1477D01*
X2472Y1477D02*
X2479Y1477D01*
X0Y1476D02*
X7Y1476D01*
X2472Y1476D02*
X2479Y1476D01*
X0Y1475D02*
X7Y1475D01*
X2472Y1475D02*
X2479Y1475D01*
X0Y1474D02*
X7Y1474D01*
X2472Y1474D02*
X2479Y1474D01*
X0Y1473D02*
X7Y1473D01*
X2472Y1473D02*
X2479Y1473D01*
X0Y1472D02*
X7Y1472D01*
X2472Y1472D02*
X2479Y1472D01*
X0Y1471D02*
X7Y1471D01*
X2472Y1471D02*
X2479Y1471D01*
X0Y1470D02*
X7Y1470D01*
X2472Y1470D02*
X2479Y1470D01*
X0Y1469D02*
X7Y1469D01*
X2472Y1469D02*
X2479Y1469D01*
X0Y1468D02*
X7Y1468D01*
X2472Y1468D02*
X2479Y1468D01*
X0Y1467D02*
X7Y1467D01*
X2472Y1467D02*
X2479Y1467D01*
X0Y1466D02*
X7Y1466D01*
X2472Y1466D02*
X2479Y1466D01*
X0Y1465D02*
X7Y1465D01*
X2472Y1465D02*
X2479Y1465D01*
X0Y1464D02*
X7Y1464D01*
X2472Y1464D02*
X2479Y1464D01*
X0Y1463D02*
X7Y1463D01*
X2472Y1463D02*
X2479Y1463D01*
X0Y1462D02*
X7Y1462D01*
X2472Y1462D02*
X2479Y1462D01*
X0Y1461D02*
X7Y1461D01*
X2472Y1461D02*
X2479Y1461D01*
X0Y1460D02*
X7Y1460D01*
X2472Y1460D02*
X2479Y1460D01*
X0Y1459D02*
X7Y1459D01*
X2472Y1459D02*
X2479Y1459D01*
X0Y1458D02*
X7Y1458D01*
X2472Y1458D02*
X2479Y1458D01*
X0Y1457D02*
X7Y1457D01*
X2472Y1457D02*
X2479Y1457D01*
X0Y1456D02*
X7Y1456D01*
X2472Y1456D02*
X2479Y1456D01*
X0Y1455D02*
X7Y1455D01*
X2472Y1455D02*
X2479Y1455D01*
X0Y1454D02*
X7Y1454D01*
X2472Y1454D02*
X2479Y1454D01*
X0Y1453D02*
X7Y1453D01*
X2472Y1453D02*
X2479Y1453D01*
X0Y1452D02*
X7Y1452D01*
X2472Y1452D02*
X2479Y1452D01*
X0Y1451D02*
X7Y1451D01*
X2472Y1451D02*
X2479Y1451D01*
X0Y1450D02*
X7Y1450D01*
X2472Y1450D02*
X2479Y1450D01*
X0Y1449D02*
X7Y1449D01*
X2472Y1449D02*
X2479Y1449D01*
X0Y1448D02*
X7Y1448D01*
X2472Y1448D02*
X2479Y1448D01*
X0Y1447D02*
X7Y1447D01*
X2472Y1447D02*
X2479Y1447D01*
X0Y1446D02*
X7Y1446D01*
X2472Y1446D02*
X2479Y1446D01*
X0Y1445D02*
X7Y1445D01*
X2472Y1445D02*
X2479Y1445D01*
X0Y1444D02*
X7Y1444D01*
X726Y1444D02*
X731Y1444D01*
X763Y1444D02*
X766Y1444D01*
X812Y1444D02*
X844Y1444D01*
X864Y1444D02*
X881Y1444D01*
X2472Y1444D02*
X2479Y1444D01*
X0Y1443D02*
X7Y1443D01*
X724Y1443D02*
X733Y1443D01*
X762Y1443D02*
X767Y1443D01*
X812Y1443D02*
X845Y1443D01*
X863Y1443D02*
X883Y1443D01*
X2472Y1443D02*
X2479Y1443D01*
X0Y1442D02*
X7Y1442D01*
X723Y1442D02*
X734Y1442D01*
X762Y1442D02*
X768Y1442D01*
X812Y1442D02*
X845Y1442D01*
X862Y1442D02*
X884Y1442D01*
X2472Y1442D02*
X2479Y1442D01*
X0Y1441D02*
X7Y1441D01*
X722Y1441D02*
X735Y1441D01*
X762Y1441D02*
X768Y1441D01*
X812Y1441D02*
X845Y1441D01*
X862Y1441D02*
X885Y1441D01*
X2472Y1441D02*
X2479Y1441D01*
X0Y1440D02*
X7Y1440D01*
X721Y1440D02*
X736Y1440D01*
X762Y1440D02*
X768Y1440D01*
X812Y1440D02*
X845Y1440D01*
X862Y1440D02*
X886Y1440D01*
X2472Y1440D02*
X2479Y1440D01*
X0Y1439D02*
X7Y1439D01*
X720Y1439D02*
X736Y1439D01*
X762Y1439D02*
X768Y1439D01*
X812Y1439D02*
X845Y1439D01*
X863Y1439D02*
X887Y1439D01*
X2472Y1439D02*
X2479Y1439D01*
X0Y1438D02*
X7Y1438D01*
X720Y1438D02*
X737Y1438D01*
X762Y1438D02*
X768Y1438D01*
X812Y1438D02*
X844Y1438D01*
X864Y1438D02*
X887Y1438D01*
X2472Y1438D02*
X2479Y1438D01*
X0Y1437D02*
X7Y1437D01*
X719Y1437D02*
X727Y1437D01*
X730Y1437D02*
X737Y1437D01*
X762Y1437D02*
X768Y1437D01*
X812Y1437D02*
X818Y1437D01*
X869Y1437D02*
X875Y1437D01*
X880Y1437D02*
X888Y1437D01*
X2472Y1437D02*
X2479Y1437D01*
X0Y1436D02*
X7Y1436D01*
X719Y1436D02*
X726Y1436D01*
X731Y1436D02*
X738Y1436D01*
X762Y1436D02*
X768Y1436D01*
X812Y1436D02*
X818Y1436D01*
X869Y1436D02*
X875Y1436D01*
X881Y1436D02*
X888Y1436D01*
X2472Y1436D02*
X2479Y1436D01*
X0Y1435D02*
X7Y1435D01*
X718Y1435D02*
X725Y1435D01*
X731Y1435D02*
X738Y1435D01*
X762Y1435D02*
X768Y1435D01*
X812Y1435D02*
X818Y1435D01*
X869Y1435D02*
X875Y1435D01*
X882Y1435D02*
X889Y1435D01*
X2472Y1435D02*
X2479Y1435D01*
X0Y1434D02*
X7Y1434D01*
X718Y1434D02*
X725Y1434D01*
X732Y1434D02*
X739Y1434D01*
X762Y1434D02*
X768Y1434D01*
X812Y1434D02*
X818Y1434D01*
X869Y1434D02*
X875Y1434D01*
X882Y1434D02*
X889Y1434D01*
X2472Y1434D02*
X2479Y1434D01*
X0Y1433D02*
X7Y1433D01*
X717Y1433D02*
X724Y1433D01*
X732Y1433D02*
X739Y1433D01*
X762Y1433D02*
X768Y1433D01*
X812Y1433D02*
X818Y1433D01*
X869Y1433D02*
X875Y1433D01*
X883Y1433D02*
X890Y1433D01*
X2472Y1433D02*
X2479Y1433D01*
X0Y1432D02*
X7Y1432D01*
X717Y1432D02*
X724Y1432D01*
X733Y1432D02*
X740Y1432D01*
X762Y1432D02*
X768Y1432D01*
X812Y1432D02*
X818Y1432D01*
X869Y1432D02*
X875Y1432D01*
X883Y1432D02*
X890Y1432D01*
X2472Y1432D02*
X2479Y1432D01*
X0Y1431D02*
X7Y1431D01*
X716Y1431D02*
X723Y1431D01*
X733Y1431D02*
X740Y1431D01*
X762Y1431D02*
X768Y1431D01*
X812Y1431D02*
X818Y1431D01*
X869Y1431D02*
X875Y1431D01*
X884Y1431D02*
X891Y1431D01*
X2472Y1431D02*
X2479Y1431D01*
X0Y1430D02*
X7Y1430D01*
X716Y1430D02*
X723Y1430D01*
X734Y1430D02*
X741Y1430D01*
X762Y1430D02*
X768Y1430D01*
X812Y1430D02*
X818Y1430D01*
X869Y1430D02*
X875Y1430D01*
X884Y1430D02*
X891Y1430D01*
X2472Y1430D02*
X2479Y1430D01*
X0Y1429D02*
X7Y1429D01*
X715Y1429D02*
X722Y1429D01*
X734Y1429D02*
X741Y1429D01*
X762Y1429D02*
X768Y1429D01*
X812Y1429D02*
X818Y1429D01*
X869Y1429D02*
X875Y1429D01*
X885Y1429D02*
X892Y1429D01*
X2472Y1429D02*
X2479Y1429D01*
X0Y1428D02*
X7Y1428D01*
X715Y1428D02*
X722Y1428D01*
X735Y1428D02*
X742Y1428D01*
X762Y1428D02*
X768Y1428D01*
X812Y1428D02*
X818Y1428D01*
X869Y1428D02*
X875Y1428D01*
X885Y1428D02*
X892Y1428D01*
X2472Y1428D02*
X2479Y1428D01*
X0Y1427D02*
X7Y1427D01*
X714Y1427D02*
X721Y1427D01*
X735Y1427D02*
X742Y1427D01*
X762Y1427D02*
X768Y1427D01*
X812Y1427D02*
X818Y1427D01*
X869Y1427D02*
X875Y1427D01*
X886Y1427D02*
X893Y1427D01*
X2472Y1427D02*
X2479Y1427D01*
X0Y1426D02*
X7Y1426D01*
X714Y1426D02*
X721Y1426D01*
X736Y1426D02*
X743Y1426D01*
X762Y1426D02*
X768Y1426D01*
X812Y1426D02*
X818Y1426D01*
X869Y1426D02*
X875Y1426D01*
X886Y1426D02*
X893Y1426D01*
X2472Y1426D02*
X2479Y1426D01*
X0Y1425D02*
X7Y1425D01*
X713Y1425D02*
X720Y1425D01*
X736Y1425D02*
X743Y1425D01*
X762Y1425D02*
X768Y1425D01*
X812Y1425D02*
X818Y1425D01*
X869Y1425D02*
X875Y1425D01*
X887Y1425D02*
X894Y1425D01*
X2472Y1425D02*
X2479Y1425D01*
X0Y1424D02*
X7Y1424D01*
X713Y1424D02*
X720Y1424D01*
X737Y1424D02*
X744Y1424D01*
X762Y1424D02*
X768Y1424D01*
X812Y1424D02*
X818Y1424D01*
X869Y1424D02*
X875Y1424D01*
X887Y1424D02*
X894Y1424D01*
X2472Y1424D02*
X2479Y1424D01*
X0Y1423D02*
X7Y1423D01*
X713Y1423D02*
X719Y1423D01*
X737Y1423D02*
X744Y1423D01*
X762Y1423D02*
X768Y1423D01*
X812Y1423D02*
X818Y1423D01*
X869Y1423D02*
X875Y1423D01*
X888Y1423D02*
X895Y1423D01*
X2472Y1423D02*
X2479Y1423D01*
X0Y1422D02*
X7Y1422D01*
X712Y1422D02*
X719Y1422D01*
X738Y1422D02*
X744Y1422D01*
X762Y1422D02*
X768Y1422D01*
X812Y1422D02*
X818Y1422D01*
X869Y1422D02*
X875Y1422D01*
X888Y1422D02*
X895Y1422D01*
X2472Y1422D02*
X2479Y1422D01*
X0Y1421D02*
X7Y1421D01*
X712Y1421D02*
X718Y1421D01*
X738Y1421D02*
X745Y1421D01*
X762Y1421D02*
X768Y1421D01*
X812Y1421D02*
X828Y1421D01*
X869Y1421D02*
X875Y1421D01*
X889Y1421D02*
X895Y1421D01*
X2472Y1421D02*
X2479Y1421D01*
X0Y1420D02*
X7Y1420D01*
X712Y1420D02*
X718Y1420D01*
X739Y1420D02*
X745Y1420D01*
X762Y1420D02*
X768Y1420D01*
X812Y1420D02*
X831Y1420D01*
X869Y1420D02*
X875Y1420D01*
X889Y1420D02*
X895Y1420D01*
X2472Y1420D02*
X2479Y1420D01*
X0Y1419D02*
X7Y1419D01*
X712Y1419D02*
X718Y1419D01*
X739Y1419D02*
X745Y1419D01*
X762Y1419D02*
X768Y1419D01*
X812Y1419D02*
X831Y1419D01*
X869Y1419D02*
X875Y1419D01*
X890Y1419D02*
X896Y1419D01*
X2472Y1419D02*
X2479Y1419D01*
X0Y1418D02*
X7Y1418D01*
X712Y1418D02*
X718Y1418D01*
X739Y1418D02*
X745Y1418D01*
X762Y1418D02*
X768Y1418D01*
X812Y1418D02*
X832Y1418D01*
X869Y1418D02*
X875Y1418D01*
X890Y1418D02*
X896Y1418D01*
X2472Y1418D02*
X2479Y1418D01*
X0Y1417D02*
X7Y1417D01*
X712Y1417D02*
X718Y1417D01*
X739Y1417D02*
X745Y1417D01*
X762Y1417D02*
X768Y1417D01*
X812Y1417D02*
X832Y1417D01*
X869Y1417D02*
X875Y1417D01*
X890Y1417D02*
X896Y1417D01*
X2472Y1417D02*
X2479Y1417D01*
X0Y1416D02*
X7Y1416D01*
X712Y1416D02*
X718Y1416D01*
X739Y1416D02*
X745Y1416D01*
X762Y1416D02*
X768Y1416D01*
X812Y1416D02*
X831Y1416D01*
X869Y1416D02*
X875Y1416D01*
X889Y1416D02*
X896Y1416D01*
X2472Y1416D02*
X2479Y1416D01*
X0Y1415D02*
X7Y1415D01*
X712Y1415D02*
X718Y1415D01*
X739Y1415D02*
X745Y1415D01*
X762Y1415D02*
X768Y1415D01*
X812Y1415D02*
X831Y1415D01*
X869Y1415D02*
X875Y1415D01*
X889Y1415D02*
X895Y1415D01*
X2472Y1415D02*
X2479Y1415D01*
X0Y1414D02*
X7Y1414D01*
X712Y1414D02*
X718Y1414D01*
X738Y1414D02*
X745Y1414D01*
X762Y1414D02*
X768Y1414D01*
X812Y1414D02*
X828Y1414D01*
X869Y1414D02*
X875Y1414D01*
X889Y1414D02*
X895Y1414D01*
X2472Y1414D02*
X2479Y1414D01*
X0Y1413D02*
X7Y1413D01*
X712Y1413D02*
X719Y1413D01*
X738Y1413D02*
X744Y1413D01*
X762Y1413D02*
X768Y1413D01*
X812Y1413D02*
X818Y1413D01*
X869Y1413D02*
X875Y1413D01*
X889Y1413D02*
X895Y1413D01*
X2472Y1413D02*
X2479Y1413D01*
X0Y1412D02*
X7Y1412D01*
X713Y1412D02*
X719Y1412D01*
X737Y1412D02*
X744Y1412D01*
X762Y1412D02*
X768Y1412D01*
X812Y1412D02*
X818Y1412D01*
X869Y1412D02*
X875Y1412D01*
X888Y1412D02*
X895Y1412D01*
X2472Y1412D02*
X2479Y1412D01*
X0Y1411D02*
X7Y1411D01*
X713Y1411D02*
X720Y1411D01*
X737Y1411D02*
X744Y1411D01*
X762Y1411D02*
X768Y1411D01*
X812Y1411D02*
X818Y1411D01*
X869Y1411D02*
X875Y1411D01*
X887Y1411D02*
X894Y1411D01*
X2472Y1411D02*
X2479Y1411D01*
X0Y1410D02*
X7Y1410D01*
X713Y1410D02*
X720Y1410D01*
X736Y1410D02*
X743Y1410D01*
X762Y1410D02*
X768Y1410D01*
X812Y1410D02*
X818Y1410D01*
X869Y1410D02*
X875Y1410D01*
X887Y1410D02*
X894Y1410D01*
X2472Y1410D02*
X2479Y1410D01*
X0Y1409D02*
X7Y1409D01*
X714Y1409D02*
X721Y1409D01*
X736Y1409D02*
X743Y1409D01*
X762Y1409D02*
X768Y1409D01*
X812Y1409D02*
X818Y1409D01*
X869Y1409D02*
X875Y1409D01*
X886Y1409D02*
X893Y1409D01*
X2472Y1409D02*
X2479Y1409D01*
X0Y1408D02*
X7Y1408D01*
X714Y1408D02*
X721Y1408D01*
X735Y1408D02*
X742Y1408D01*
X762Y1408D02*
X768Y1408D01*
X812Y1408D02*
X818Y1408D01*
X869Y1408D02*
X875Y1408D01*
X886Y1408D02*
X893Y1408D01*
X2472Y1408D02*
X2479Y1408D01*
X0Y1407D02*
X7Y1407D01*
X715Y1407D02*
X722Y1407D01*
X735Y1407D02*
X742Y1407D01*
X762Y1407D02*
X768Y1407D01*
X812Y1407D02*
X818Y1407D01*
X869Y1407D02*
X875Y1407D01*
X885Y1407D02*
X892Y1407D01*
X2472Y1407D02*
X2479Y1407D01*
X0Y1406D02*
X7Y1406D01*
X715Y1406D02*
X722Y1406D01*
X734Y1406D02*
X741Y1406D01*
X762Y1406D02*
X768Y1406D01*
X812Y1406D02*
X818Y1406D01*
X869Y1406D02*
X875Y1406D01*
X885Y1406D02*
X892Y1406D01*
X2472Y1406D02*
X2479Y1406D01*
X0Y1405D02*
X7Y1405D01*
X716Y1405D02*
X723Y1405D01*
X734Y1405D02*
X741Y1405D01*
X762Y1405D02*
X768Y1405D01*
X812Y1405D02*
X818Y1405D01*
X869Y1405D02*
X875Y1405D01*
X884Y1405D02*
X891Y1405D01*
X2472Y1405D02*
X2479Y1405D01*
X0Y1404D02*
X7Y1404D01*
X716Y1404D02*
X723Y1404D01*
X733Y1404D02*
X740Y1404D01*
X762Y1404D02*
X768Y1404D01*
X812Y1404D02*
X818Y1404D01*
X869Y1404D02*
X875Y1404D01*
X884Y1404D02*
X891Y1404D01*
X2472Y1404D02*
X2479Y1404D01*
X0Y1403D02*
X7Y1403D01*
X717Y1403D02*
X724Y1403D01*
X733Y1403D02*
X740Y1403D01*
X762Y1403D02*
X768Y1403D01*
X812Y1403D02*
X818Y1403D01*
X869Y1403D02*
X875Y1403D01*
X883Y1403D02*
X890Y1403D01*
X2472Y1403D02*
X2479Y1403D01*
X0Y1402D02*
X7Y1402D01*
X717Y1402D02*
X724Y1402D01*
X732Y1402D02*
X739Y1402D01*
X762Y1402D02*
X768Y1402D01*
X812Y1402D02*
X818Y1402D01*
X869Y1402D02*
X875Y1402D01*
X883Y1402D02*
X890Y1402D01*
X2472Y1402D02*
X2479Y1402D01*
X0Y1401D02*
X7Y1401D01*
X718Y1401D02*
X725Y1401D01*
X732Y1401D02*
X739Y1401D01*
X762Y1401D02*
X768Y1401D01*
X812Y1401D02*
X818Y1401D01*
X869Y1401D02*
X875Y1401D01*
X882Y1401D02*
X889Y1401D01*
X2472Y1401D02*
X2479Y1401D01*
X0Y1400D02*
X7Y1400D01*
X718Y1400D02*
X725Y1400D01*
X731Y1400D02*
X738Y1400D01*
X762Y1400D02*
X768Y1400D01*
X812Y1400D02*
X818Y1400D01*
X869Y1400D02*
X875Y1400D01*
X882Y1400D02*
X889Y1400D01*
X2472Y1400D02*
X2479Y1400D01*
X0Y1399D02*
X7Y1399D01*
X719Y1399D02*
X726Y1399D01*
X731Y1399D02*
X738Y1399D01*
X762Y1399D02*
X768Y1399D01*
X812Y1399D02*
X818Y1399D01*
X869Y1399D02*
X875Y1399D01*
X881Y1399D02*
X888Y1399D01*
X2472Y1399D02*
X2479Y1399D01*
X0Y1398D02*
X7Y1398D01*
X719Y1398D02*
X726Y1398D01*
X730Y1398D02*
X737Y1398D01*
X762Y1398D02*
X768Y1398D01*
X812Y1398D02*
X818Y1398D01*
X869Y1398D02*
X875Y1398D01*
X880Y1398D02*
X888Y1398D01*
X2472Y1398D02*
X2479Y1398D01*
X0Y1397D02*
X7Y1397D01*
X720Y1397D02*
X737Y1397D01*
X762Y1397D02*
X793Y1397D01*
X812Y1397D02*
X843Y1397D01*
X864Y1397D02*
X887Y1397D01*
X2472Y1397D02*
X2479Y1397D01*
X0Y1396D02*
X7Y1396D01*
X720Y1396D02*
X736Y1396D01*
X762Y1396D02*
X795Y1396D01*
X812Y1396D02*
X845Y1396D01*
X863Y1396D02*
X887Y1396D01*
X2472Y1396D02*
X2479Y1396D01*
X0Y1395D02*
X7Y1395D01*
X721Y1395D02*
X736Y1395D01*
X762Y1395D02*
X795Y1395D01*
X812Y1395D02*
X845Y1395D01*
X862Y1395D02*
X886Y1395D01*
X2472Y1395D02*
X2479Y1395D01*
X0Y1394D02*
X7Y1394D01*
X722Y1394D02*
X735Y1394D01*
X762Y1394D02*
X795Y1394D01*
X812Y1394D02*
X845Y1394D01*
X862Y1394D02*
X886Y1394D01*
X2472Y1394D02*
X2479Y1394D01*
X0Y1393D02*
X7Y1393D01*
X722Y1393D02*
X734Y1393D01*
X762Y1393D02*
X795Y1393D01*
X812Y1393D02*
X845Y1393D01*
X862Y1393D02*
X884Y1393D01*
X2472Y1393D02*
X2479Y1393D01*
X0Y1392D02*
X7Y1392D01*
X724Y1392D02*
X733Y1392D01*
X762Y1392D02*
X795Y1392D01*
X812Y1392D02*
X845Y1392D01*
X863Y1392D02*
X883Y1392D01*
X2472Y1392D02*
X2479Y1392D01*
X0Y1391D02*
X7Y1391D01*
X726Y1391D02*
X731Y1391D01*
X762Y1391D02*
X794Y1391D01*
X812Y1391D02*
X844Y1391D01*
X864Y1391D02*
X881Y1391D01*
X2472Y1391D02*
X2479Y1391D01*
X0Y1390D02*
X7Y1390D01*
X2472Y1390D02*
X2479Y1390D01*
X0Y1389D02*
X7Y1389D01*
X2472Y1389D02*
X2479Y1389D01*
X0Y1388D02*
X7Y1388D01*
X2472Y1388D02*
X2479Y1388D01*
X0Y1387D02*
X7Y1387D01*
X2472Y1387D02*
X2479Y1387D01*
X0Y1386D02*
X7Y1386D01*
X2472Y1386D02*
X2479Y1386D01*
X0Y1385D02*
X7Y1385D01*
X2472Y1385D02*
X2479Y1385D01*
X0Y1384D02*
X7Y1384D01*
X2472Y1384D02*
X2479Y1384D01*
X0Y1383D02*
X7Y1383D01*
X2472Y1383D02*
X2479Y1383D01*
X0Y1382D02*
X7Y1382D01*
X2472Y1382D02*
X2479Y1382D01*
X0Y1381D02*
X7Y1381D01*
X2472Y1381D02*
X2479Y1381D01*
X0Y1380D02*
X7Y1380D01*
X2472Y1380D02*
X2479Y1380D01*
X0Y1379D02*
X7Y1379D01*
X2472Y1379D02*
X2479Y1379D01*
X0Y1378D02*
X7Y1378D01*
X2472Y1378D02*
X2479Y1378D01*
X0Y1377D02*
X7Y1377D01*
X2472Y1377D02*
X2479Y1377D01*
X0Y1376D02*
X7Y1376D01*
X2472Y1376D02*
X2479Y1376D01*
X0Y1375D02*
X7Y1375D01*
X2472Y1375D02*
X2479Y1375D01*
X0Y1374D02*
X7Y1374D01*
X2472Y1374D02*
X2479Y1374D01*
X0Y1373D02*
X7Y1373D01*
X2472Y1373D02*
X2479Y1373D01*
X0Y1372D02*
X7Y1372D01*
X2472Y1372D02*
X2479Y1372D01*
X0Y1371D02*
X7Y1371D01*
X2472Y1371D02*
X2479Y1371D01*
X0Y1370D02*
X7Y1370D01*
X2472Y1370D02*
X2479Y1370D01*
X0Y1369D02*
X7Y1369D01*
X2472Y1369D02*
X2479Y1369D01*
X0Y1368D02*
X7Y1368D01*
X2472Y1368D02*
X2479Y1368D01*
X0Y1367D02*
X7Y1367D01*
X2472Y1367D02*
X2479Y1367D01*
X0Y1366D02*
X7Y1366D01*
X700Y1366D02*
X902Y1366D01*
X2472Y1366D02*
X2479Y1366D01*
X0Y1365D02*
X7Y1365D01*
X700Y1365D02*
X902Y1365D01*
X2472Y1365D02*
X2479Y1365D01*
X0Y1364D02*
X7Y1364D01*
X700Y1364D02*
X905Y1364D01*
X2472Y1364D02*
X2479Y1364D01*
X0Y1363D02*
X7Y1363D01*
X700Y1363D02*
X905Y1363D01*
X2472Y1363D02*
X2479Y1363D01*
X0Y1362D02*
X7Y1362D01*
X700Y1362D02*
X905Y1362D01*
X2472Y1362D02*
X2479Y1362D01*
X0Y1361D02*
X7Y1361D01*
X700Y1361D02*
X704Y1361D01*
X901Y1361D02*
X905Y1361D01*
X2472Y1361D02*
X2479Y1361D01*
X0Y1360D02*
X7Y1360D01*
X700Y1360D02*
X704Y1360D01*
X901Y1360D02*
X905Y1360D01*
X2472Y1360D02*
X2479Y1360D01*
X0Y1359D02*
X7Y1359D01*
X700Y1359D02*
X704Y1359D01*
X901Y1359D02*
X905Y1359D01*
X2472Y1359D02*
X2479Y1359D01*
X0Y1358D02*
X7Y1358D01*
X700Y1358D02*
X704Y1358D01*
X901Y1358D02*
X905Y1358D01*
X2472Y1358D02*
X2479Y1358D01*
X0Y1357D02*
X7Y1357D01*
X700Y1357D02*
X704Y1357D01*
X901Y1357D02*
X905Y1357D01*
X2472Y1357D02*
X2479Y1357D01*
X0Y1356D02*
X7Y1356D01*
X700Y1356D02*
X704Y1356D01*
X901Y1356D02*
X905Y1356D01*
X2472Y1356D02*
X2479Y1356D01*
X0Y1355D02*
X7Y1355D01*
X700Y1355D02*
X704Y1355D01*
X901Y1355D02*
X905Y1355D01*
X2472Y1355D02*
X2479Y1355D01*
X0Y1354D02*
X7Y1354D01*
X700Y1354D02*
X704Y1354D01*
X901Y1354D02*
X905Y1354D01*
X2472Y1354D02*
X2479Y1354D01*
X0Y1353D02*
X7Y1353D01*
X700Y1353D02*
X704Y1353D01*
X901Y1353D02*
X905Y1353D01*
X2472Y1353D02*
X2479Y1353D01*
X0Y1352D02*
X7Y1352D01*
X700Y1352D02*
X704Y1352D01*
X901Y1352D02*
X905Y1352D01*
X2472Y1352D02*
X2479Y1352D01*
X0Y1351D02*
X7Y1351D01*
X700Y1351D02*
X704Y1351D01*
X901Y1351D02*
X905Y1351D01*
X2472Y1351D02*
X2479Y1351D01*
X0Y1350D02*
X7Y1350D01*
X700Y1350D02*
X704Y1350D01*
X901Y1350D02*
X905Y1350D01*
X2472Y1350D02*
X2479Y1350D01*
X0Y1349D02*
X7Y1349D01*
X700Y1349D02*
X704Y1349D01*
X901Y1349D02*
X905Y1349D01*
X2472Y1349D02*
X2479Y1349D01*
X0Y1348D02*
X7Y1348D01*
X700Y1348D02*
X704Y1348D01*
X901Y1348D02*
X905Y1348D01*
X2472Y1348D02*
X2479Y1348D01*
X0Y1347D02*
X7Y1347D01*
X700Y1347D02*
X704Y1347D01*
X901Y1347D02*
X905Y1347D01*
X2472Y1347D02*
X2479Y1347D01*
X0Y1346D02*
X7Y1346D01*
X700Y1346D02*
X704Y1346D01*
X901Y1346D02*
X905Y1346D01*
X2472Y1346D02*
X2479Y1346D01*
X0Y1345D02*
X7Y1345D01*
X700Y1345D02*
X704Y1345D01*
X901Y1345D02*
X905Y1345D01*
X2472Y1345D02*
X2479Y1345D01*
X0Y1344D02*
X7Y1344D01*
X700Y1344D02*
X704Y1344D01*
X901Y1344D02*
X905Y1344D01*
X2472Y1344D02*
X2479Y1344D01*
X0Y1343D02*
X7Y1343D01*
X700Y1343D02*
X704Y1343D01*
X901Y1343D02*
X905Y1343D01*
X2472Y1343D02*
X2479Y1343D01*
X0Y1342D02*
X7Y1342D01*
X700Y1342D02*
X704Y1342D01*
X901Y1342D02*
X905Y1342D01*
X2472Y1342D02*
X2479Y1342D01*
X0Y1341D02*
X7Y1341D01*
X700Y1341D02*
X704Y1341D01*
X901Y1341D02*
X905Y1341D01*
X2472Y1341D02*
X2479Y1341D01*
X0Y1340D02*
X7Y1340D01*
X700Y1340D02*
X704Y1340D01*
X901Y1340D02*
X905Y1340D01*
X2472Y1340D02*
X2479Y1340D01*
X0Y1339D02*
X7Y1339D01*
X700Y1339D02*
X704Y1339D01*
X901Y1339D02*
X905Y1339D01*
X2472Y1339D02*
X2479Y1339D01*
X0Y1338D02*
X7Y1338D01*
X700Y1338D02*
X704Y1338D01*
X901Y1338D02*
X905Y1338D01*
X2472Y1338D02*
X2479Y1338D01*
X0Y1337D02*
X7Y1337D01*
X700Y1337D02*
X704Y1337D01*
X901Y1337D02*
X905Y1337D01*
X2472Y1337D02*
X2479Y1337D01*
X0Y1336D02*
X7Y1336D01*
X700Y1336D02*
X704Y1336D01*
X901Y1336D02*
X905Y1336D01*
X2472Y1336D02*
X2479Y1336D01*
X0Y1335D02*
X7Y1335D01*
X700Y1335D02*
X704Y1335D01*
X901Y1335D02*
X905Y1335D01*
X2472Y1335D02*
X2479Y1335D01*
X0Y1334D02*
X7Y1334D01*
X700Y1334D02*
X704Y1334D01*
X901Y1334D02*
X905Y1334D01*
X2472Y1334D02*
X2479Y1334D01*
X0Y1333D02*
X7Y1333D01*
X700Y1333D02*
X704Y1333D01*
X901Y1333D02*
X905Y1333D01*
X2472Y1333D02*
X2479Y1333D01*
X0Y1332D02*
X7Y1332D01*
X700Y1332D02*
X704Y1332D01*
X901Y1332D02*
X905Y1332D01*
X2472Y1332D02*
X2479Y1332D01*
X0Y1331D02*
X7Y1331D01*
X700Y1331D02*
X704Y1331D01*
X901Y1331D02*
X905Y1331D01*
X2472Y1331D02*
X2479Y1331D01*
X0Y1330D02*
X7Y1330D01*
X700Y1330D02*
X704Y1330D01*
X901Y1330D02*
X905Y1330D01*
X2472Y1330D02*
X2479Y1330D01*
X0Y1329D02*
X7Y1329D01*
X700Y1329D02*
X704Y1329D01*
X901Y1329D02*
X905Y1329D01*
X2472Y1329D02*
X2479Y1329D01*
X0Y1328D02*
X7Y1328D01*
X700Y1328D02*
X704Y1328D01*
X901Y1328D02*
X905Y1328D01*
X2472Y1328D02*
X2479Y1328D01*
X0Y1327D02*
X7Y1327D01*
X700Y1327D02*
X704Y1327D01*
X901Y1327D02*
X905Y1327D01*
X2472Y1327D02*
X2479Y1327D01*
X0Y1326D02*
X7Y1326D01*
X700Y1326D02*
X704Y1326D01*
X901Y1326D02*
X905Y1326D01*
X2472Y1326D02*
X2479Y1326D01*
X0Y1325D02*
X7Y1325D01*
X700Y1325D02*
X704Y1325D01*
X901Y1325D02*
X905Y1325D01*
X2472Y1325D02*
X2479Y1325D01*
X0Y1324D02*
X7Y1324D01*
X700Y1324D02*
X704Y1324D01*
X901Y1324D02*
X905Y1324D01*
X2472Y1324D02*
X2479Y1324D01*
X0Y1323D02*
X7Y1323D01*
X700Y1323D02*
X704Y1323D01*
X901Y1323D02*
X905Y1323D01*
X2472Y1323D02*
X2479Y1323D01*
X0Y1322D02*
X7Y1322D01*
X700Y1322D02*
X704Y1322D01*
X901Y1322D02*
X905Y1322D01*
X2472Y1322D02*
X2479Y1322D01*
X0Y1321D02*
X7Y1321D01*
X700Y1321D02*
X704Y1321D01*
X901Y1321D02*
X905Y1321D01*
X2472Y1321D02*
X2479Y1321D01*
X0Y1320D02*
X7Y1320D01*
X700Y1320D02*
X704Y1320D01*
X901Y1320D02*
X905Y1320D01*
X2472Y1320D02*
X2479Y1320D01*
X0Y1319D02*
X7Y1319D01*
X700Y1319D02*
X704Y1319D01*
X901Y1319D02*
X905Y1319D01*
X2472Y1319D02*
X2479Y1319D01*
X0Y1318D02*
X7Y1318D01*
X700Y1318D02*
X704Y1318D01*
X901Y1318D02*
X905Y1318D01*
X2472Y1318D02*
X2479Y1318D01*
X0Y1317D02*
X7Y1317D01*
X700Y1317D02*
X704Y1317D01*
X901Y1317D02*
X905Y1317D01*
X2472Y1317D02*
X2479Y1317D01*
X0Y1316D02*
X7Y1316D01*
X700Y1316D02*
X704Y1316D01*
X901Y1316D02*
X905Y1316D01*
X2472Y1316D02*
X2479Y1316D01*
X0Y1315D02*
X7Y1315D01*
X700Y1315D02*
X704Y1315D01*
X901Y1315D02*
X905Y1315D01*
X2472Y1315D02*
X2479Y1315D01*
X0Y1314D02*
X7Y1314D01*
X700Y1314D02*
X704Y1314D01*
X901Y1314D02*
X905Y1314D01*
X2472Y1314D02*
X2479Y1314D01*
X0Y1313D02*
X7Y1313D01*
X700Y1313D02*
X704Y1313D01*
X901Y1313D02*
X905Y1313D01*
X2472Y1313D02*
X2479Y1313D01*
X0Y1312D02*
X7Y1312D01*
X700Y1312D02*
X704Y1312D01*
X901Y1312D02*
X905Y1312D01*
X2472Y1312D02*
X2479Y1312D01*
X0Y1311D02*
X7Y1311D01*
X700Y1311D02*
X704Y1311D01*
X901Y1311D02*
X905Y1311D01*
X2472Y1311D02*
X2479Y1311D01*
X0Y1310D02*
X7Y1310D01*
X700Y1310D02*
X704Y1310D01*
X901Y1310D02*
X905Y1310D01*
X2472Y1310D02*
X2479Y1310D01*
X0Y1309D02*
X7Y1309D01*
X700Y1309D02*
X704Y1309D01*
X901Y1309D02*
X905Y1309D01*
X2472Y1309D02*
X2479Y1309D01*
X0Y1308D02*
X7Y1308D01*
X700Y1308D02*
X704Y1308D01*
X901Y1308D02*
X905Y1308D01*
X2472Y1308D02*
X2479Y1308D01*
X0Y1307D02*
X7Y1307D01*
X700Y1307D02*
X704Y1307D01*
X901Y1307D02*
X905Y1307D01*
X2472Y1307D02*
X2479Y1307D01*
X0Y1306D02*
X7Y1306D01*
X700Y1306D02*
X704Y1306D01*
X901Y1306D02*
X905Y1306D01*
X2472Y1306D02*
X2479Y1306D01*
X0Y1305D02*
X7Y1305D01*
X700Y1305D02*
X704Y1305D01*
X901Y1305D02*
X905Y1305D01*
X2472Y1305D02*
X2479Y1305D01*
X0Y1304D02*
X7Y1304D01*
X700Y1304D02*
X704Y1304D01*
X901Y1304D02*
X905Y1304D01*
X2472Y1304D02*
X2479Y1304D01*
X0Y1303D02*
X7Y1303D01*
X700Y1303D02*
X704Y1303D01*
X901Y1303D02*
X905Y1303D01*
X2472Y1303D02*
X2479Y1303D01*
X0Y1302D02*
X7Y1302D01*
X700Y1302D02*
X704Y1302D01*
X901Y1302D02*
X905Y1302D01*
X2472Y1302D02*
X2479Y1302D01*
X0Y1301D02*
X7Y1301D01*
X700Y1301D02*
X704Y1301D01*
X901Y1301D02*
X905Y1301D01*
X2472Y1301D02*
X2479Y1301D01*
X0Y1300D02*
X7Y1300D01*
X700Y1300D02*
X704Y1300D01*
X869Y1300D02*
X905Y1300D01*
X2472Y1300D02*
X2479Y1300D01*
X0Y1299D02*
X7Y1299D01*
X700Y1299D02*
X704Y1299D01*
X869Y1299D02*
X905Y1299D01*
X2472Y1299D02*
X2479Y1299D01*
X0Y1298D02*
X7Y1298D01*
X700Y1298D02*
X704Y1298D01*
X869Y1298D02*
X905Y1298D01*
X2472Y1298D02*
X2479Y1298D01*
X0Y1297D02*
X7Y1297D01*
X700Y1297D02*
X704Y1297D01*
X869Y1297D02*
X905Y1297D01*
X2472Y1297D02*
X2479Y1297D01*
X0Y1296D02*
X7Y1296D01*
X700Y1296D02*
X704Y1296D01*
X869Y1296D02*
X905Y1296D01*
X2472Y1296D02*
X2479Y1296D01*
X0Y1295D02*
X7Y1295D01*
X700Y1295D02*
X704Y1295D01*
X869Y1295D02*
X874Y1295D01*
X2472Y1295D02*
X2479Y1295D01*
X0Y1294D02*
X7Y1294D01*
X700Y1294D02*
X704Y1294D01*
X869Y1294D02*
X873Y1294D01*
X2472Y1294D02*
X2479Y1294D01*
X0Y1293D02*
X7Y1293D01*
X700Y1293D02*
X704Y1293D01*
X869Y1293D02*
X873Y1293D01*
X2472Y1293D02*
X2479Y1293D01*
X0Y1292D02*
X7Y1292D01*
X700Y1292D02*
X704Y1292D01*
X869Y1292D02*
X873Y1292D01*
X2472Y1292D02*
X2479Y1292D01*
X0Y1291D02*
X7Y1291D01*
X700Y1291D02*
X704Y1291D01*
X869Y1291D02*
X873Y1291D01*
X2472Y1291D02*
X2479Y1291D01*
X0Y1290D02*
X7Y1290D01*
X700Y1290D02*
X704Y1290D01*
X869Y1290D02*
X873Y1290D01*
X2472Y1290D02*
X2479Y1290D01*
X0Y1289D02*
X7Y1289D01*
X700Y1289D02*
X704Y1289D01*
X869Y1289D02*
X873Y1289D01*
X2472Y1289D02*
X2479Y1289D01*
X0Y1288D02*
X7Y1288D01*
X700Y1288D02*
X704Y1288D01*
X869Y1288D02*
X873Y1288D01*
X2472Y1288D02*
X2479Y1288D01*
X0Y1287D02*
X7Y1287D01*
X700Y1287D02*
X704Y1287D01*
X869Y1287D02*
X873Y1287D01*
X2472Y1287D02*
X2479Y1287D01*
X0Y1286D02*
X7Y1286D01*
X700Y1286D02*
X704Y1286D01*
X869Y1286D02*
X873Y1286D01*
X2472Y1286D02*
X2479Y1286D01*
X0Y1285D02*
X7Y1285D01*
X700Y1285D02*
X704Y1285D01*
X869Y1285D02*
X873Y1285D01*
X2472Y1285D02*
X2479Y1285D01*
X0Y1284D02*
X7Y1284D01*
X700Y1284D02*
X704Y1284D01*
X869Y1284D02*
X873Y1284D01*
X2472Y1284D02*
X2479Y1284D01*
X0Y1283D02*
X7Y1283D01*
X700Y1283D02*
X704Y1283D01*
X869Y1283D02*
X873Y1283D01*
X2472Y1283D02*
X2479Y1283D01*
X0Y1282D02*
X7Y1282D01*
X700Y1282D02*
X704Y1282D01*
X869Y1282D02*
X873Y1282D01*
X2472Y1282D02*
X2479Y1282D01*
X0Y1281D02*
X7Y1281D01*
X700Y1281D02*
X704Y1281D01*
X869Y1281D02*
X873Y1281D01*
X2472Y1281D02*
X2479Y1281D01*
X0Y1280D02*
X7Y1280D01*
X700Y1280D02*
X704Y1280D01*
X869Y1280D02*
X873Y1280D01*
X2472Y1280D02*
X2479Y1280D01*
X0Y1279D02*
X7Y1279D01*
X700Y1279D02*
X704Y1279D01*
X869Y1279D02*
X873Y1279D01*
X2472Y1279D02*
X2479Y1279D01*
X0Y1278D02*
X7Y1278D01*
X700Y1278D02*
X704Y1278D01*
X869Y1278D02*
X873Y1278D01*
X2472Y1278D02*
X2479Y1278D01*
X0Y1277D02*
X7Y1277D01*
X700Y1277D02*
X704Y1277D01*
X869Y1277D02*
X873Y1277D01*
X2472Y1277D02*
X2479Y1277D01*
X0Y1276D02*
X7Y1276D01*
X700Y1276D02*
X704Y1276D01*
X869Y1276D02*
X873Y1276D01*
X2472Y1276D02*
X2479Y1276D01*
X0Y1275D02*
X7Y1275D01*
X700Y1275D02*
X704Y1275D01*
X869Y1275D02*
X873Y1275D01*
X2472Y1275D02*
X2479Y1275D01*
X0Y1274D02*
X7Y1274D01*
X700Y1274D02*
X704Y1274D01*
X869Y1274D02*
X873Y1274D01*
X2472Y1274D02*
X2479Y1274D01*
X0Y1273D02*
X7Y1273D01*
X700Y1273D02*
X704Y1273D01*
X869Y1273D02*
X873Y1273D01*
X2472Y1273D02*
X2479Y1273D01*
X0Y1272D02*
X7Y1272D01*
X700Y1272D02*
X704Y1272D01*
X869Y1272D02*
X873Y1272D01*
X2472Y1272D02*
X2479Y1272D01*
X0Y1271D02*
X7Y1271D01*
X700Y1271D02*
X704Y1271D01*
X869Y1271D02*
X873Y1271D01*
X2472Y1271D02*
X2479Y1271D01*
X0Y1270D02*
X7Y1270D01*
X700Y1270D02*
X704Y1270D01*
X869Y1270D02*
X873Y1270D01*
X2472Y1270D02*
X2479Y1270D01*
X0Y1269D02*
X7Y1269D01*
X700Y1269D02*
X704Y1269D01*
X869Y1269D02*
X873Y1269D01*
X2472Y1269D02*
X2479Y1269D01*
X0Y1268D02*
X7Y1268D01*
X700Y1268D02*
X704Y1268D01*
X869Y1268D02*
X873Y1268D01*
X2472Y1268D02*
X2479Y1268D01*
X0Y1267D02*
X7Y1267D01*
X700Y1267D02*
X704Y1267D01*
X869Y1267D02*
X873Y1267D01*
X2472Y1267D02*
X2479Y1267D01*
X0Y1266D02*
X7Y1266D01*
X700Y1266D02*
X704Y1266D01*
X869Y1266D02*
X873Y1266D01*
X2472Y1266D02*
X2479Y1266D01*
X0Y1265D02*
X7Y1265D01*
X700Y1265D02*
X704Y1265D01*
X869Y1265D02*
X873Y1265D01*
X2472Y1265D02*
X2479Y1265D01*
X0Y1264D02*
X7Y1264D01*
X700Y1264D02*
X704Y1264D01*
X869Y1264D02*
X873Y1264D01*
X2472Y1264D02*
X2479Y1264D01*
X0Y1263D02*
X7Y1263D01*
X700Y1263D02*
X704Y1263D01*
X869Y1263D02*
X873Y1263D01*
X2472Y1263D02*
X2479Y1263D01*
X0Y1262D02*
X7Y1262D01*
X700Y1262D02*
X704Y1262D01*
X869Y1262D02*
X873Y1262D01*
X2472Y1262D02*
X2479Y1262D01*
X0Y1261D02*
X7Y1261D01*
X700Y1261D02*
X704Y1261D01*
X869Y1261D02*
X873Y1261D01*
X2472Y1261D02*
X2479Y1261D01*
X0Y1260D02*
X7Y1260D01*
X700Y1260D02*
X704Y1260D01*
X869Y1260D02*
X873Y1260D01*
X2472Y1260D02*
X2479Y1260D01*
X0Y1259D02*
X7Y1259D01*
X700Y1259D02*
X704Y1259D01*
X869Y1259D02*
X873Y1259D01*
X2472Y1259D02*
X2479Y1259D01*
X0Y1258D02*
X7Y1258D01*
X700Y1258D02*
X704Y1258D01*
X869Y1258D02*
X873Y1258D01*
X2472Y1258D02*
X2479Y1258D01*
X0Y1257D02*
X7Y1257D01*
X700Y1257D02*
X704Y1257D01*
X869Y1257D02*
X873Y1257D01*
X2472Y1257D02*
X2479Y1257D01*
X0Y1256D02*
X7Y1256D01*
X700Y1256D02*
X704Y1256D01*
X869Y1256D02*
X873Y1256D01*
X2472Y1256D02*
X2479Y1256D01*
X0Y1255D02*
X7Y1255D01*
X700Y1255D02*
X704Y1255D01*
X869Y1255D02*
X873Y1255D01*
X2472Y1255D02*
X2479Y1255D01*
X0Y1254D02*
X7Y1254D01*
X700Y1254D02*
X704Y1254D01*
X869Y1254D02*
X873Y1254D01*
X2472Y1254D02*
X2479Y1254D01*
X0Y1253D02*
X7Y1253D01*
X700Y1253D02*
X704Y1253D01*
X869Y1253D02*
X873Y1253D01*
X2472Y1253D02*
X2479Y1253D01*
X0Y1252D02*
X7Y1252D01*
X700Y1252D02*
X704Y1252D01*
X869Y1252D02*
X873Y1252D01*
X2472Y1252D02*
X2479Y1252D01*
X0Y1251D02*
X7Y1251D01*
X700Y1251D02*
X704Y1251D01*
X869Y1251D02*
X873Y1251D01*
X2472Y1251D02*
X2479Y1251D01*
X0Y1250D02*
X7Y1250D01*
X700Y1250D02*
X704Y1250D01*
X869Y1250D02*
X873Y1250D01*
X2472Y1250D02*
X2479Y1250D01*
X0Y1249D02*
X7Y1249D01*
X700Y1249D02*
X704Y1249D01*
X869Y1249D02*
X873Y1249D01*
X2472Y1249D02*
X2479Y1249D01*
X0Y1248D02*
X7Y1248D01*
X700Y1248D02*
X704Y1248D01*
X869Y1248D02*
X873Y1248D01*
X2472Y1248D02*
X2479Y1248D01*
X0Y1247D02*
X7Y1247D01*
X700Y1247D02*
X704Y1247D01*
X869Y1247D02*
X873Y1247D01*
X2472Y1247D02*
X2479Y1247D01*
X0Y1246D02*
X7Y1246D01*
X700Y1246D02*
X704Y1246D01*
X869Y1246D02*
X873Y1246D01*
X2472Y1246D02*
X2479Y1246D01*
X0Y1245D02*
X7Y1245D01*
X700Y1245D02*
X704Y1245D01*
X869Y1245D02*
X873Y1245D01*
X2472Y1245D02*
X2479Y1245D01*
X0Y1244D02*
X7Y1244D01*
X700Y1244D02*
X704Y1244D01*
X869Y1244D02*
X873Y1244D01*
X2472Y1244D02*
X2479Y1244D01*
X0Y1243D02*
X7Y1243D01*
X700Y1243D02*
X704Y1243D01*
X869Y1243D02*
X873Y1243D01*
X2472Y1243D02*
X2479Y1243D01*
X0Y1242D02*
X7Y1242D01*
X700Y1242D02*
X704Y1242D01*
X869Y1242D02*
X873Y1242D01*
X2472Y1242D02*
X2479Y1242D01*
X0Y1241D02*
X7Y1241D01*
X700Y1241D02*
X704Y1241D01*
X869Y1241D02*
X873Y1241D01*
X2472Y1241D02*
X2479Y1241D01*
X0Y1240D02*
X7Y1240D01*
X700Y1240D02*
X704Y1240D01*
X869Y1240D02*
X873Y1240D01*
X2472Y1240D02*
X2479Y1240D01*
X0Y1239D02*
X7Y1239D01*
X700Y1239D02*
X704Y1239D01*
X869Y1239D02*
X873Y1239D01*
X2472Y1239D02*
X2479Y1239D01*
X0Y1238D02*
X7Y1238D01*
X700Y1238D02*
X704Y1238D01*
X869Y1238D02*
X873Y1238D01*
X2472Y1238D02*
X2479Y1238D01*
X0Y1237D02*
X7Y1237D01*
X700Y1237D02*
X704Y1237D01*
X869Y1237D02*
X873Y1237D01*
X2472Y1237D02*
X2479Y1237D01*
X0Y1236D02*
X7Y1236D01*
X700Y1236D02*
X704Y1236D01*
X869Y1236D02*
X873Y1236D01*
X2472Y1236D02*
X2479Y1236D01*
X0Y1235D02*
X7Y1235D01*
X700Y1235D02*
X704Y1235D01*
X869Y1235D02*
X873Y1235D01*
X2472Y1235D02*
X2479Y1235D01*
X0Y1234D02*
X7Y1234D01*
X700Y1234D02*
X704Y1234D01*
X869Y1234D02*
X873Y1234D01*
X2472Y1234D02*
X2479Y1234D01*
X0Y1233D02*
X7Y1233D01*
X700Y1233D02*
X704Y1233D01*
X869Y1233D02*
X873Y1233D01*
X2472Y1233D02*
X2479Y1233D01*
X0Y1232D02*
X7Y1232D01*
X700Y1232D02*
X704Y1232D01*
X869Y1232D02*
X873Y1232D01*
X2472Y1232D02*
X2479Y1232D01*
X0Y1231D02*
X7Y1231D01*
X700Y1231D02*
X704Y1231D01*
X869Y1231D02*
X873Y1231D01*
X2472Y1231D02*
X2479Y1231D01*
X0Y1230D02*
X7Y1230D01*
X700Y1230D02*
X704Y1230D01*
X869Y1230D02*
X873Y1230D01*
X2472Y1230D02*
X2479Y1230D01*
X0Y1229D02*
X7Y1229D01*
X700Y1229D02*
X704Y1229D01*
X869Y1229D02*
X873Y1229D01*
X2472Y1229D02*
X2479Y1229D01*
X0Y1228D02*
X7Y1228D01*
X700Y1228D02*
X704Y1228D01*
X869Y1228D02*
X873Y1228D01*
X2472Y1228D02*
X2479Y1228D01*
X0Y1227D02*
X7Y1227D01*
X700Y1227D02*
X704Y1227D01*
X869Y1227D02*
X873Y1227D01*
X2472Y1227D02*
X2479Y1227D01*
X0Y1226D02*
X7Y1226D01*
X700Y1226D02*
X704Y1226D01*
X869Y1226D02*
X873Y1226D01*
X2472Y1226D02*
X2479Y1226D01*
X0Y1225D02*
X7Y1225D01*
X700Y1225D02*
X704Y1225D01*
X869Y1225D02*
X873Y1225D01*
X2472Y1225D02*
X2479Y1225D01*
X0Y1224D02*
X7Y1224D01*
X700Y1224D02*
X704Y1224D01*
X869Y1224D02*
X873Y1224D01*
X2472Y1224D02*
X2479Y1224D01*
X0Y1223D02*
X7Y1223D01*
X700Y1223D02*
X704Y1223D01*
X869Y1223D02*
X873Y1223D01*
X2472Y1223D02*
X2479Y1223D01*
X0Y1222D02*
X7Y1222D01*
X700Y1222D02*
X704Y1222D01*
X869Y1222D02*
X873Y1222D01*
X2472Y1222D02*
X2479Y1222D01*
X0Y1221D02*
X7Y1221D01*
X700Y1221D02*
X704Y1221D01*
X869Y1221D02*
X873Y1221D01*
X2472Y1221D02*
X2479Y1221D01*
X0Y1220D02*
X7Y1220D01*
X700Y1220D02*
X704Y1220D01*
X869Y1220D02*
X873Y1220D01*
X2472Y1220D02*
X2479Y1220D01*
X0Y1219D02*
X7Y1219D01*
X700Y1219D02*
X704Y1219D01*
X869Y1219D02*
X873Y1219D01*
X2472Y1219D02*
X2479Y1219D01*
X0Y1218D02*
X7Y1218D01*
X700Y1218D02*
X704Y1218D01*
X869Y1218D02*
X873Y1218D01*
X2472Y1218D02*
X2479Y1218D01*
X0Y1217D02*
X7Y1217D01*
X700Y1217D02*
X704Y1217D01*
X869Y1217D02*
X873Y1217D01*
X2472Y1217D02*
X2479Y1217D01*
X0Y1216D02*
X7Y1216D01*
X700Y1216D02*
X704Y1216D01*
X869Y1216D02*
X873Y1216D01*
X2472Y1216D02*
X2479Y1216D01*
X0Y1215D02*
X7Y1215D01*
X700Y1215D02*
X704Y1215D01*
X869Y1215D02*
X873Y1215D01*
X2472Y1215D02*
X2479Y1215D01*
X0Y1214D02*
X7Y1214D01*
X700Y1214D02*
X704Y1214D01*
X869Y1214D02*
X873Y1214D01*
X2472Y1214D02*
X2479Y1214D01*
X0Y1213D02*
X7Y1213D01*
X700Y1213D02*
X704Y1213D01*
X869Y1213D02*
X873Y1213D01*
X2472Y1213D02*
X2479Y1213D01*
X0Y1212D02*
X7Y1212D01*
X700Y1212D02*
X704Y1212D01*
X869Y1212D02*
X873Y1212D01*
X2472Y1212D02*
X2479Y1212D01*
X0Y1211D02*
X7Y1211D01*
X700Y1211D02*
X704Y1211D01*
X869Y1211D02*
X873Y1211D01*
X2472Y1211D02*
X2479Y1211D01*
X0Y1210D02*
X7Y1210D01*
X700Y1210D02*
X704Y1210D01*
X869Y1210D02*
X873Y1210D01*
X2472Y1210D02*
X2479Y1210D01*
X0Y1209D02*
X7Y1209D01*
X700Y1209D02*
X704Y1209D01*
X869Y1209D02*
X873Y1209D01*
X2472Y1209D02*
X2479Y1209D01*
X0Y1208D02*
X7Y1208D01*
X700Y1208D02*
X704Y1208D01*
X869Y1208D02*
X873Y1208D01*
X2472Y1208D02*
X2479Y1208D01*
X0Y1207D02*
X7Y1207D01*
X700Y1207D02*
X704Y1207D01*
X869Y1207D02*
X873Y1207D01*
X2472Y1207D02*
X2479Y1207D01*
X0Y1206D02*
X7Y1206D01*
X700Y1206D02*
X704Y1206D01*
X869Y1206D02*
X873Y1206D01*
X2472Y1206D02*
X2479Y1206D01*
X0Y1205D02*
X7Y1205D01*
X700Y1205D02*
X704Y1205D01*
X869Y1205D02*
X873Y1205D01*
X2472Y1205D02*
X2479Y1205D01*
X0Y1204D02*
X7Y1204D01*
X700Y1204D02*
X704Y1204D01*
X869Y1204D02*
X873Y1204D01*
X2472Y1204D02*
X2479Y1204D01*
X0Y1203D02*
X7Y1203D01*
X700Y1203D02*
X704Y1203D01*
X869Y1203D02*
X873Y1203D01*
X2472Y1203D02*
X2479Y1203D01*
X0Y1202D02*
X7Y1202D01*
X700Y1202D02*
X704Y1202D01*
X869Y1202D02*
X873Y1202D01*
X2472Y1202D02*
X2479Y1202D01*
X0Y1201D02*
X7Y1201D01*
X700Y1201D02*
X704Y1201D01*
X869Y1201D02*
X873Y1201D01*
X2472Y1201D02*
X2479Y1201D01*
X0Y1200D02*
X7Y1200D01*
X700Y1200D02*
X704Y1200D01*
X869Y1200D02*
X873Y1200D01*
X2472Y1200D02*
X2479Y1200D01*
X0Y1199D02*
X7Y1199D01*
X700Y1199D02*
X704Y1199D01*
X869Y1199D02*
X873Y1199D01*
X2472Y1199D02*
X2479Y1199D01*
X0Y1198D02*
X7Y1198D01*
X700Y1198D02*
X704Y1198D01*
X869Y1198D02*
X873Y1198D01*
X2472Y1198D02*
X2479Y1198D01*
X0Y1197D02*
X7Y1197D01*
X700Y1197D02*
X704Y1197D01*
X869Y1197D02*
X873Y1197D01*
X2472Y1197D02*
X2479Y1197D01*
X0Y1196D02*
X7Y1196D01*
X700Y1196D02*
X704Y1196D01*
X869Y1196D02*
X873Y1196D01*
X2472Y1196D02*
X2479Y1196D01*
X0Y1195D02*
X7Y1195D01*
X700Y1195D02*
X704Y1195D01*
X869Y1195D02*
X873Y1195D01*
X2472Y1195D02*
X2479Y1195D01*
X0Y1194D02*
X7Y1194D01*
X700Y1194D02*
X704Y1194D01*
X869Y1194D02*
X873Y1194D01*
X2472Y1194D02*
X2479Y1194D01*
X0Y1193D02*
X7Y1193D01*
X700Y1193D02*
X704Y1193D01*
X869Y1193D02*
X873Y1193D01*
X2472Y1193D02*
X2479Y1193D01*
X0Y1192D02*
X7Y1192D01*
X700Y1192D02*
X704Y1192D01*
X869Y1192D02*
X873Y1192D01*
X2472Y1192D02*
X2479Y1192D01*
X0Y1191D02*
X7Y1191D01*
X700Y1191D02*
X704Y1191D01*
X869Y1191D02*
X873Y1191D01*
X2472Y1191D02*
X2479Y1191D01*
X0Y1190D02*
X7Y1190D01*
X700Y1190D02*
X704Y1190D01*
X869Y1190D02*
X873Y1190D01*
X2472Y1190D02*
X2479Y1190D01*
X0Y1189D02*
X7Y1189D01*
X700Y1189D02*
X704Y1189D01*
X869Y1189D02*
X873Y1189D01*
X2472Y1189D02*
X2479Y1189D01*
X0Y1188D02*
X7Y1188D01*
X700Y1188D02*
X704Y1188D01*
X869Y1188D02*
X873Y1188D01*
X2472Y1188D02*
X2479Y1188D01*
X0Y1187D02*
X7Y1187D01*
X700Y1187D02*
X704Y1187D01*
X869Y1187D02*
X873Y1187D01*
X2472Y1187D02*
X2479Y1187D01*
X0Y1186D02*
X7Y1186D01*
X700Y1186D02*
X704Y1186D01*
X869Y1186D02*
X873Y1186D01*
X2472Y1186D02*
X2479Y1186D01*
X0Y1185D02*
X7Y1185D01*
X700Y1185D02*
X704Y1185D01*
X869Y1185D02*
X873Y1185D01*
X2472Y1185D02*
X2479Y1185D01*
X0Y1184D02*
X7Y1184D01*
X700Y1184D02*
X704Y1184D01*
X869Y1184D02*
X873Y1184D01*
X2472Y1184D02*
X2479Y1184D01*
X0Y1183D02*
X7Y1183D01*
X700Y1183D02*
X704Y1183D01*
X869Y1183D02*
X873Y1183D01*
X2472Y1183D02*
X2479Y1183D01*
X0Y1182D02*
X7Y1182D01*
X700Y1182D02*
X704Y1182D01*
X869Y1182D02*
X873Y1182D01*
X2472Y1182D02*
X2479Y1182D01*
X0Y1181D02*
X7Y1181D01*
X700Y1181D02*
X704Y1181D01*
X869Y1181D02*
X873Y1181D01*
X2472Y1181D02*
X2479Y1181D01*
X0Y1180D02*
X7Y1180D01*
X700Y1180D02*
X704Y1180D01*
X869Y1180D02*
X873Y1180D01*
X2472Y1180D02*
X2479Y1180D01*
X0Y1179D02*
X7Y1179D01*
X700Y1179D02*
X704Y1179D01*
X869Y1179D02*
X873Y1179D01*
X2472Y1179D02*
X2479Y1179D01*
X0Y1178D02*
X7Y1178D01*
X700Y1178D02*
X704Y1178D01*
X869Y1178D02*
X873Y1178D01*
X2472Y1178D02*
X2479Y1178D01*
X0Y1177D02*
X7Y1177D01*
X700Y1177D02*
X704Y1177D01*
X869Y1177D02*
X873Y1177D01*
X2472Y1177D02*
X2479Y1177D01*
X0Y1176D02*
X7Y1176D01*
X700Y1176D02*
X704Y1176D01*
X869Y1176D02*
X873Y1176D01*
X2472Y1176D02*
X2479Y1176D01*
X0Y1175D02*
X7Y1175D01*
X700Y1175D02*
X704Y1175D01*
X869Y1175D02*
X873Y1175D01*
X2472Y1175D02*
X2479Y1175D01*
X0Y1174D02*
X7Y1174D01*
X700Y1174D02*
X704Y1174D01*
X869Y1174D02*
X873Y1174D01*
X2472Y1174D02*
X2479Y1174D01*
X0Y1173D02*
X7Y1173D01*
X700Y1173D02*
X704Y1173D01*
X869Y1173D02*
X873Y1173D01*
X2472Y1173D02*
X2479Y1173D01*
X0Y1172D02*
X7Y1172D01*
X700Y1172D02*
X704Y1172D01*
X869Y1172D02*
X873Y1172D01*
X2472Y1172D02*
X2479Y1172D01*
X0Y1171D02*
X7Y1171D01*
X700Y1171D02*
X704Y1171D01*
X869Y1171D02*
X873Y1171D01*
X2472Y1171D02*
X2479Y1171D01*
X0Y1170D02*
X7Y1170D01*
X700Y1170D02*
X704Y1170D01*
X869Y1170D02*
X873Y1170D01*
X2472Y1170D02*
X2479Y1170D01*
X0Y1169D02*
X7Y1169D01*
X700Y1169D02*
X704Y1169D01*
X869Y1169D02*
X873Y1169D01*
X2472Y1169D02*
X2479Y1169D01*
X0Y1168D02*
X7Y1168D01*
X700Y1168D02*
X704Y1168D01*
X869Y1168D02*
X873Y1168D01*
X2472Y1168D02*
X2479Y1168D01*
X0Y1167D02*
X7Y1167D01*
X700Y1167D02*
X704Y1167D01*
X869Y1167D02*
X873Y1167D01*
X2472Y1167D02*
X2479Y1167D01*
X0Y1166D02*
X7Y1166D01*
X700Y1166D02*
X704Y1166D01*
X869Y1166D02*
X873Y1166D01*
X2472Y1166D02*
X2479Y1166D01*
X0Y1165D02*
X7Y1165D01*
X700Y1165D02*
X704Y1165D01*
X869Y1165D02*
X873Y1165D01*
X2472Y1165D02*
X2479Y1165D01*
X0Y1164D02*
X7Y1164D01*
X700Y1164D02*
X704Y1164D01*
X869Y1164D02*
X873Y1164D01*
X2472Y1164D02*
X2479Y1164D01*
X0Y1163D02*
X7Y1163D01*
X700Y1163D02*
X704Y1163D01*
X869Y1163D02*
X873Y1163D01*
X2472Y1163D02*
X2479Y1163D01*
X0Y1162D02*
X7Y1162D01*
X700Y1162D02*
X704Y1162D01*
X869Y1162D02*
X873Y1162D01*
X2472Y1162D02*
X2479Y1162D01*
X0Y1161D02*
X7Y1161D01*
X700Y1161D02*
X704Y1161D01*
X869Y1161D02*
X873Y1161D01*
X2472Y1161D02*
X2479Y1161D01*
X0Y1160D02*
X7Y1160D01*
X700Y1160D02*
X704Y1160D01*
X869Y1160D02*
X873Y1160D01*
X2472Y1160D02*
X2479Y1160D01*
X0Y1159D02*
X7Y1159D01*
X700Y1159D02*
X704Y1159D01*
X869Y1159D02*
X873Y1159D01*
X2472Y1159D02*
X2479Y1159D01*
X0Y1158D02*
X7Y1158D01*
X700Y1158D02*
X704Y1158D01*
X869Y1158D02*
X873Y1158D01*
X2472Y1158D02*
X2479Y1158D01*
X0Y1157D02*
X7Y1157D01*
X700Y1157D02*
X704Y1157D01*
X869Y1157D02*
X873Y1157D01*
X2472Y1157D02*
X2479Y1157D01*
X0Y1156D02*
X7Y1156D01*
X700Y1156D02*
X704Y1156D01*
X869Y1156D02*
X873Y1156D01*
X2472Y1156D02*
X2479Y1156D01*
X0Y1155D02*
X7Y1155D01*
X700Y1155D02*
X704Y1155D01*
X869Y1155D02*
X873Y1155D01*
X2472Y1155D02*
X2479Y1155D01*
X0Y1154D02*
X7Y1154D01*
X700Y1154D02*
X704Y1154D01*
X869Y1154D02*
X873Y1154D01*
X2472Y1154D02*
X2479Y1154D01*
X0Y1153D02*
X7Y1153D01*
X700Y1153D02*
X704Y1153D01*
X869Y1153D02*
X873Y1153D01*
X2472Y1153D02*
X2479Y1153D01*
X0Y1152D02*
X7Y1152D01*
X700Y1152D02*
X704Y1152D01*
X869Y1152D02*
X873Y1152D01*
X2472Y1152D02*
X2479Y1152D01*
X0Y1151D02*
X7Y1151D01*
X700Y1151D02*
X704Y1151D01*
X869Y1151D02*
X873Y1151D01*
X2472Y1151D02*
X2479Y1151D01*
X0Y1150D02*
X7Y1150D01*
X700Y1150D02*
X704Y1150D01*
X869Y1150D02*
X873Y1150D01*
X2472Y1150D02*
X2479Y1150D01*
X0Y1149D02*
X7Y1149D01*
X700Y1149D02*
X704Y1149D01*
X869Y1149D02*
X873Y1149D01*
X2472Y1149D02*
X2479Y1149D01*
X0Y1148D02*
X7Y1148D01*
X700Y1148D02*
X704Y1148D01*
X869Y1148D02*
X873Y1148D01*
X2472Y1148D02*
X2479Y1148D01*
X0Y1147D02*
X7Y1147D01*
X700Y1147D02*
X704Y1147D01*
X869Y1147D02*
X873Y1147D01*
X2472Y1147D02*
X2479Y1147D01*
X0Y1146D02*
X7Y1146D01*
X700Y1146D02*
X704Y1146D01*
X869Y1146D02*
X873Y1146D01*
X2472Y1146D02*
X2479Y1146D01*
X0Y1145D02*
X7Y1145D01*
X700Y1145D02*
X704Y1145D01*
X869Y1145D02*
X873Y1145D01*
X2472Y1145D02*
X2479Y1145D01*
X0Y1144D02*
X7Y1144D01*
X700Y1144D02*
X704Y1144D01*
X869Y1144D02*
X873Y1144D01*
X2472Y1144D02*
X2479Y1144D01*
X0Y1143D02*
X7Y1143D01*
X700Y1143D02*
X704Y1143D01*
X869Y1143D02*
X873Y1143D01*
X2472Y1143D02*
X2479Y1143D01*
X0Y1142D02*
X7Y1142D01*
X700Y1142D02*
X704Y1142D01*
X869Y1142D02*
X873Y1142D01*
X2472Y1142D02*
X2479Y1142D01*
X0Y1141D02*
X7Y1141D01*
X700Y1141D02*
X704Y1141D01*
X869Y1141D02*
X873Y1141D01*
X2472Y1141D02*
X2479Y1141D01*
X0Y1140D02*
X7Y1140D01*
X700Y1140D02*
X704Y1140D01*
X869Y1140D02*
X873Y1140D01*
X2472Y1140D02*
X2479Y1140D01*
X0Y1139D02*
X7Y1139D01*
X700Y1139D02*
X704Y1139D01*
X869Y1139D02*
X873Y1139D01*
X2472Y1139D02*
X2479Y1139D01*
X0Y1138D02*
X7Y1138D01*
X700Y1138D02*
X704Y1138D01*
X869Y1138D02*
X873Y1138D01*
X2472Y1138D02*
X2479Y1138D01*
X0Y1137D02*
X7Y1137D01*
X700Y1137D02*
X704Y1137D01*
X869Y1137D02*
X873Y1137D01*
X2472Y1137D02*
X2479Y1137D01*
X0Y1136D02*
X7Y1136D01*
X700Y1136D02*
X704Y1136D01*
X869Y1136D02*
X873Y1136D01*
X2472Y1136D02*
X2479Y1136D01*
X0Y1135D02*
X7Y1135D01*
X700Y1135D02*
X704Y1135D01*
X869Y1135D02*
X873Y1135D01*
X2472Y1135D02*
X2479Y1135D01*
X0Y1134D02*
X7Y1134D01*
X700Y1134D02*
X704Y1134D01*
X869Y1134D02*
X873Y1134D01*
X2472Y1134D02*
X2479Y1134D01*
X0Y1133D02*
X7Y1133D01*
X700Y1133D02*
X704Y1133D01*
X869Y1133D02*
X873Y1133D01*
X2472Y1133D02*
X2479Y1133D01*
X0Y1132D02*
X7Y1132D01*
X700Y1132D02*
X704Y1132D01*
X869Y1132D02*
X873Y1132D01*
X2472Y1132D02*
X2479Y1132D01*
X0Y1131D02*
X7Y1131D01*
X700Y1131D02*
X704Y1131D01*
X869Y1131D02*
X873Y1131D01*
X2472Y1131D02*
X2479Y1131D01*
X0Y1130D02*
X7Y1130D01*
X700Y1130D02*
X704Y1130D01*
X869Y1130D02*
X873Y1130D01*
X2472Y1130D02*
X2479Y1130D01*
X0Y1129D02*
X7Y1129D01*
X700Y1129D02*
X704Y1129D01*
X869Y1129D02*
X873Y1129D01*
X2472Y1129D02*
X2479Y1129D01*
X0Y1128D02*
X7Y1128D01*
X700Y1128D02*
X704Y1128D01*
X869Y1128D02*
X873Y1128D01*
X2472Y1128D02*
X2479Y1128D01*
X0Y1127D02*
X7Y1127D01*
X700Y1127D02*
X704Y1127D01*
X869Y1127D02*
X873Y1127D01*
X2472Y1127D02*
X2479Y1127D01*
X0Y1126D02*
X7Y1126D01*
X700Y1126D02*
X704Y1126D01*
X869Y1126D02*
X873Y1126D01*
X2472Y1126D02*
X2479Y1126D01*
X0Y1125D02*
X7Y1125D01*
X700Y1125D02*
X704Y1125D01*
X869Y1125D02*
X873Y1125D01*
X2472Y1125D02*
X2479Y1125D01*
X0Y1124D02*
X7Y1124D01*
X700Y1124D02*
X704Y1124D01*
X869Y1124D02*
X873Y1124D01*
X2472Y1124D02*
X2479Y1124D01*
X0Y1123D02*
X7Y1123D01*
X700Y1123D02*
X704Y1123D01*
X869Y1123D02*
X873Y1123D01*
X2472Y1123D02*
X2479Y1123D01*
X0Y1122D02*
X7Y1122D01*
X700Y1122D02*
X704Y1122D01*
X869Y1122D02*
X873Y1122D01*
X2472Y1122D02*
X2479Y1122D01*
X0Y1121D02*
X7Y1121D01*
X700Y1121D02*
X704Y1121D01*
X869Y1121D02*
X873Y1121D01*
X2472Y1121D02*
X2479Y1121D01*
X0Y1120D02*
X7Y1120D01*
X700Y1120D02*
X704Y1120D01*
X869Y1120D02*
X873Y1120D01*
X2472Y1120D02*
X2479Y1120D01*
X0Y1119D02*
X7Y1119D01*
X700Y1119D02*
X704Y1119D01*
X869Y1119D02*
X873Y1119D01*
X2472Y1119D02*
X2479Y1119D01*
X0Y1118D02*
X7Y1118D01*
X700Y1118D02*
X704Y1118D01*
X869Y1118D02*
X873Y1118D01*
X2472Y1118D02*
X2479Y1118D01*
X0Y1117D02*
X7Y1117D01*
X700Y1117D02*
X704Y1117D01*
X869Y1117D02*
X873Y1117D01*
X2472Y1117D02*
X2479Y1117D01*
X0Y1116D02*
X7Y1116D01*
X700Y1116D02*
X704Y1116D01*
X869Y1116D02*
X873Y1116D01*
X2472Y1116D02*
X2479Y1116D01*
X0Y1115D02*
X7Y1115D01*
X700Y1115D02*
X704Y1115D01*
X869Y1115D02*
X873Y1115D01*
X2472Y1115D02*
X2479Y1115D01*
X0Y1114D02*
X7Y1114D01*
X700Y1114D02*
X704Y1114D01*
X869Y1114D02*
X873Y1114D01*
X2472Y1114D02*
X2479Y1114D01*
X0Y1113D02*
X7Y1113D01*
X700Y1113D02*
X704Y1113D01*
X869Y1113D02*
X873Y1113D01*
X2472Y1113D02*
X2479Y1113D01*
X0Y1112D02*
X7Y1112D01*
X700Y1112D02*
X704Y1112D01*
X869Y1112D02*
X873Y1112D01*
X2472Y1112D02*
X2479Y1112D01*
X0Y1111D02*
X7Y1111D01*
X700Y1111D02*
X704Y1111D01*
X869Y1111D02*
X873Y1111D01*
X2472Y1111D02*
X2479Y1111D01*
X0Y1110D02*
X7Y1110D01*
X700Y1110D02*
X704Y1110D01*
X869Y1110D02*
X873Y1110D01*
X2472Y1110D02*
X2479Y1110D01*
X0Y1109D02*
X7Y1109D01*
X700Y1109D02*
X704Y1109D01*
X869Y1109D02*
X873Y1109D01*
X2472Y1109D02*
X2479Y1109D01*
X0Y1108D02*
X7Y1108D01*
X700Y1108D02*
X704Y1108D01*
X869Y1108D02*
X873Y1108D01*
X2472Y1108D02*
X2479Y1108D01*
X0Y1107D02*
X7Y1107D01*
X700Y1107D02*
X704Y1107D01*
X869Y1107D02*
X873Y1107D01*
X2472Y1107D02*
X2479Y1107D01*
X0Y1106D02*
X7Y1106D01*
X700Y1106D02*
X704Y1106D01*
X869Y1106D02*
X873Y1106D01*
X2472Y1106D02*
X2479Y1106D01*
X0Y1105D02*
X7Y1105D01*
X700Y1105D02*
X704Y1105D01*
X869Y1105D02*
X873Y1105D01*
X2472Y1105D02*
X2479Y1105D01*
X0Y1104D02*
X7Y1104D01*
X700Y1104D02*
X704Y1104D01*
X869Y1104D02*
X873Y1104D01*
X2472Y1104D02*
X2479Y1104D01*
X0Y1103D02*
X7Y1103D01*
X700Y1103D02*
X704Y1103D01*
X869Y1103D02*
X873Y1103D01*
X2472Y1103D02*
X2479Y1103D01*
X0Y1102D02*
X7Y1102D01*
X700Y1102D02*
X704Y1102D01*
X869Y1102D02*
X873Y1102D01*
X2472Y1102D02*
X2479Y1102D01*
X0Y1101D02*
X7Y1101D01*
X700Y1101D02*
X704Y1101D01*
X869Y1101D02*
X873Y1101D01*
X2472Y1101D02*
X2479Y1101D01*
X0Y1100D02*
X7Y1100D01*
X700Y1100D02*
X704Y1100D01*
X869Y1100D02*
X873Y1100D01*
X2472Y1100D02*
X2479Y1100D01*
X0Y1099D02*
X7Y1099D01*
X700Y1099D02*
X704Y1099D01*
X869Y1099D02*
X873Y1099D01*
X2472Y1099D02*
X2479Y1099D01*
X0Y1098D02*
X7Y1098D01*
X700Y1098D02*
X704Y1098D01*
X869Y1098D02*
X873Y1098D01*
X2472Y1098D02*
X2479Y1098D01*
X0Y1097D02*
X7Y1097D01*
X700Y1097D02*
X704Y1097D01*
X869Y1097D02*
X873Y1097D01*
X2472Y1097D02*
X2479Y1097D01*
X0Y1096D02*
X7Y1096D01*
X700Y1096D02*
X704Y1096D01*
X869Y1096D02*
X873Y1096D01*
X2472Y1096D02*
X2479Y1096D01*
X0Y1095D02*
X7Y1095D01*
X700Y1095D02*
X704Y1095D01*
X869Y1095D02*
X873Y1095D01*
X2472Y1095D02*
X2479Y1095D01*
X0Y1094D02*
X7Y1094D01*
X700Y1094D02*
X704Y1094D01*
X869Y1094D02*
X873Y1094D01*
X2472Y1094D02*
X2479Y1094D01*
X0Y1093D02*
X7Y1093D01*
X700Y1093D02*
X704Y1093D01*
X869Y1093D02*
X873Y1093D01*
X2472Y1093D02*
X2479Y1093D01*
X0Y1092D02*
X7Y1092D01*
X700Y1092D02*
X704Y1092D01*
X869Y1092D02*
X873Y1092D01*
X2472Y1092D02*
X2479Y1092D01*
X0Y1091D02*
X7Y1091D01*
X700Y1091D02*
X704Y1091D01*
X869Y1091D02*
X873Y1091D01*
X2472Y1091D02*
X2479Y1091D01*
X0Y1090D02*
X7Y1090D01*
X700Y1090D02*
X704Y1090D01*
X869Y1090D02*
X873Y1090D01*
X2472Y1090D02*
X2479Y1090D01*
X0Y1089D02*
X7Y1089D01*
X700Y1089D02*
X704Y1089D01*
X869Y1089D02*
X873Y1089D01*
X2472Y1089D02*
X2479Y1089D01*
X0Y1088D02*
X7Y1088D01*
X700Y1088D02*
X704Y1088D01*
X869Y1088D02*
X873Y1088D01*
X2472Y1088D02*
X2479Y1088D01*
X0Y1087D02*
X7Y1087D01*
X700Y1087D02*
X704Y1087D01*
X869Y1087D02*
X873Y1087D01*
X2472Y1087D02*
X2479Y1087D01*
X0Y1086D02*
X7Y1086D01*
X700Y1086D02*
X704Y1086D01*
X869Y1086D02*
X873Y1086D01*
X2472Y1086D02*
X2479Y1086D01*
X0Y1085D02*
X7Y1085D01*
X700Y1085D02*
X704Y1085D01*
X869Y1085D02*
X873Y1085D01*
X2472Y1085D02*
X2479Y1085D01*
X0Y1084D02*
X7Y1084D01*
X700Y1084D02*
X704Y1084D01*
X869Y1084D02*
X873Y1084D01*
X2472Y1084D02*
X2479Y1084D01*
X0Y1083D02*
X7Y1083D01*
X700Y1083D02*
X704Y1083D01*
X869Y1083D02*
X873Y1083D01*
X2472Y1083D02*
X2479Y1083D01*
X0Y1082D02*
X7Y1082D01*
X700Y1082D02*
X704Y1082D01*
X869Y1082D02*
X873Y1082D01*
X2472Y1082D02*
X2479Y1082D01*
X0Y1081D02*
X7Y1081D01*
X700Y1081D02*
X704Y1081D01*
X869Y1081D02*
X873Y1081D01*
X2472Y1081D02*
X2479Y1081D01*
X0Y1080D02*
X7Y1080D01*
X700Y1080D02*
X704Y1080D01*
X869Y1080D02*
X873Y1080D01*
X2472Y1080D02*
X2479Y1080D01*
X0Y1079D02*
X7Y1079D01*
X700Y1079D02*
X704Y1079D01*
X869Y1079D02*
X873Y1079D01*
X2472Y1079D02*
X2479Y1079D01*
X0Y1078D02*
X7Y1078D01*
X700Y1078D02*
X704Y1078D01*
X869Y1078D02*
X873Y1078D01*
X2472Y1078D02*
X2479Y1078D01*
X0Y1077D02*
X7Y1077D01*
X700Y1077D02*
X704Y1077D01*
X869Y1077D02*
X873Y1077D01*
X2472Y1077D02*
X2479Y1077D01*
X0Y1076D02*
X7Y1076D01*
X700Y1076D02*
X704Y1076D01*
X869Y1076D02*
X873Y1076D01*
X2472Y1076D02*
X2479Y1076D01*
X0Y1075D02*
X7Y1075D01*
X700Y1075D02*
X704Y1075D01*
X869Y1075D02*
X873Y1075D01*
X2472Y1075D02*
X2479Y1075D01*
X0Y1074D02*
X7Y1074D01*
X700Y1074D02*
X704Y1074D01*
X869Y1074D02*
X873Y1074D01*
X2472Y1074D02*
X2479Y1074D01*
X0Y1073D02*
X7Y1073D01*
X700Y1073D02*
X704Y1073D01*
X869Y1073D02*
X873Y1073D01*
X2472Y1073D02*
X2479Y1073D01*
X0Y1072D02*
X7Y1072D01*
X700Y1072D02*
X704Y1072D01*
X869Y1072D02*
X873Y1072D01*
X2472Y1072D02*
X2479Y1072D01*
X0Y1071D02*
X7Y1071D01*
X700Y1071D02*
X704Y1071D01*
X869Y1071D02*
X873Y1071D01*
X2472Y1071D02*
X2479Y1071D01*
X0Y1070D02*
X7Y1070D01*
X700Y1070D02*
X704Y1070D01*
X869Y1070D02*
X873Y1070D01*
X2472Y1070D02*
X2479Y1070D01*
X0Y1069D02*
X7Y1069D01*
X700Y1069D02*
X704Y1069D01*
X869Y1069D02*
X873Y1069D01*
X2472Y1069D02*
X2479Y1069D01*
X0Y1068D02*
X7Y1068D01*
X700Y1068D02*
X704Y1068D01*
X869Y1068D02*
X873Y1068D01*
X2472Y1068D02*
X2479Y1068D01*
X0Y1067D02*
X7Y1067D01*
X700Y1067D02*
X704Y1067D01*
X869Y1067D02*
X873Y1067D01*
X2472Y1067D02*
X2479Y1067D01*
X0Y1066D02*
X7Y1066D01*
X700Y1066D02*
X704Y1066D01*
X869Y1066D02*
X873Y1066D01*
X2472Y1066D02*
X2479Y1066D01*
X0Y1065D02*
X7Y1065D01*
X700Y1065D02*
X704Y1065D01*
X869Y1065D02*
X873Y1065D01*
X2472Y1065D02*
X2479Y1065D01*
X0Y1064D02*
X7Y1064D01*
X700Y1064D02*
X704Y1064D01*
X869Y1064D02*
X873Y1064D01*
X2472Y1064D02*
X2479Y1064D01*
X0Y1063D02*
X7Y1063D01*
X700Y1063D02*
X704Y1063D01*
X869Y1063D02*
X873Y1063D01*
X2472Y1063D02*
X2479Y1063D01*
X0Y1062D02*
X7Y1062D01*
X700Y1062D02*
X704Y1062D01*
X869Y1062D02*
X873Y1062D01*
X2472Y1062D02*
X2479Y1062D01*
X0Y1061D02*
X7Y1061D01*
X700Y1061D02*
X704Y1061D01*
X869Y1061D02*
X873Y1061D01*
X2472Y1061D02*
X2479Y1061D01*
X0Y1060D02*
X7Y1060D01*
X700Y1060D02*
X704Y1060D01*
X869Y1060D02*
X873Y1060D01*
X2472Y1060D02*
X2479Y1060D01*
X0Y1059D02*
X7Y1059D01*
X700Y1059D02*
X704Y1059D01*
X869Y1059D02*
X873Y1059D01*
X2472Y1059D02*
X2479Y1059D01*
X0Y1058D02*
X7Y1058D01*
X700Y1058D02*
X704Y1058D01*
X869Y1058D02*
X873Y1058D01*
X2472Y1058D02*
X2479Y1058D01*
X0Y1057D02*
X7Y1057D01*
X700Y1057D02*
X704Y1057D01*
X869Y1057D02*
X873Y1057D01*
X2472Y1057D02*
X2479Y1057D01*
X0Y1056D02*
X7Y1056D01*
X700Y1056D02*
X704Y1056D01*
X869Y1056D02*
X873Y1056D01*
X2472Y1056D02*
X2479Y1056D01*
X0Y1055D02*
X7Y1055D01*
X700Y1055D02*
X704Y1055D01*
X869Y1055D02*
X873Y1055D01*
X2472Y1055D02*
X2479Y1055D01*
X0Y1054D02*
X7Y1054D01*
X700Y1054D02*
X704Y1054D01*
X869Y1054D02*
X873Y1054D01*
X2472Y1054D02*
X2479Y1054D01*
X0Y1053D02*
X7Y1053D01*
X700Y1053D02*
X704Y1053D01*
X869Y1053D02*
X873Y1053D01*
X2472Y1053D02*
X2479Y1053D01*
X0Y1052D02*
X7Y1052D01*
X700Y1052D02*
X704Y1052D01*
X869Y1052D02*
X873Y1052D01*
X2472Y1052D02*
X2479Y1052D01*
X0Y1051D02*
X7Y1051D01*
X700Y1051D02*
X704Y1051D01*
X869Y1051D02*
X873Y1051D01*
X2472Y1051D02*
X2479Y1051D01*
X0Y1050D02*
X7Y1050D01*
X700Y1050D02*
X704Y1050D01*
X869Y1050D02*
X873Y1050D01*
X2472Y1050D02*
X2479Y1050D01*
X0Y1049D02*
X7Y1049D01*
X700Y1049D02*
X704Y1049D01*
X869Y1049D02*
X873Y1049D01*
X2472Y1049D02*
X2479Y1049D01*
X0Y1048D02*
X7Y1048D01*
X700Y1048D02*
X704Y1048D01*
X869Y1048D02*
X873Y1048D01*
X2472Y1048D02*
X2479Y1048D01*
X0Y1047D02*
X7Y1047D01*
X700Y1047D02*
X704Y1047D01*
X869Y1047D02*
X873Y1047D01*
X2472Y1047D02*
X2479Y1047D01*
X0Y1046D02*
X7Y1046D01*
X700Y1046D02*
X704Y1046D01*
X869Y1046D02*
X873Y1046D01*
X2472Y1046D02*
X2479Y1046D01*
X0Y1045D02*
X7Y1045D01*
X700Y1045D02*
X704Y1045D01*
X869Y1045D02*
X873Y1045D01*
X2472Y1045D02*
X2479Y1045D01*
X0Y1044D02*
X7Y1044D01*
X700Y1044D02*
X704Y1044D01*
X869Y1044D02*
X873Y1044D01*
X2472Y1044D02*
X2479Y1044D01*
X0Y1043D02*
X7Y1043D01*
X700Y1043D02*
X704Y1043D01*
X869Y1043D02*
X873Y1043D01*
X2472Y1043D02*
X2479Y1043D01*
X0Y1042D02*
X7Y1042D01*
X700Y1042D02*
X704Y1042D01*
X869Y1042D02*
X873Y1042D01*
X2472Y1042D02*
X2479Y1042D01*
X0Y1041D02*
X7Y1041D01*
X700Y1041D02*
X704Y1041D01*
X869Y1041D02*
X873Y1041D01*
X2472Y1041D02*
X2479Y1041D01*
X0Y1040D02*
X7Y1040D01*
X700Y1040D02*
X704Y1040D01*
X869Y1040D02*
X873Y1040D01*
X2472Y1040D02*
X2479Y1040D01*
X0Y1039D02*
X7Y1039D01*
X700Y1039D02*
X704Y1039D01*
X869Y1039D02*
X873Y1039D01*
X2472Y1039D02*
X2479Y1039D01*
X0Y1038D02*
X7Y1038D01*
X700Y1038D02*
X704Y1038D01*
X869Y1038D02*
X873Y1038D01*
X2472Y1038D02*
X2479Y1038D01*
X0Y1037D02*
X7Y1037D01*
X700Y1037D02*
X704Y1037D01*
X869Y1037D02*
X905Y1037D01*
X2472Y1037D02*
X2479Y1037D01*
X0Y1036D02*
X7Y1036D01*
X700Y1036D02*
X704Y1036D01*
X869Y1036D02*
X905Y1036D01*
X2472Y1036D02*
X2479Y1036D01*
X0Y1035D02*
X7Y1035D01*
X700Y1035D02*
X704Y1035D01*
X869Y1035D02*
X905Y1035D01*
X2472Y1035D02*
X2479Y1035D01*
X0Y1034D02*
X7Y1034D01*
X700Y1034D02*
X704Y1034D01*
X869Y1034D02*
X905Y1034D01*
X2472Y1034D02*
X2479Y1034D01*
X0Y1033D02*
X7Y1033D01*
X700Y1033D02*
X704Y1033D01*
X869Y1033D02*
X905Y1033D01*
X2472Y1033D02*
X2479Y1033D01*
X0Y1032D02*
X7Y1032D01*
X700Y1032D02*
X704Y1032D01*
X900Y1032D02*
X905Y1032D01*
X2472Y1032D02*
X2479Y1032D01*
X0Y1031D02*
X7Y1031D01*
X700Y1031D02*
X704Y1031D01*
X901Y1031D02*
X905Y1031D01*
X2472Y1031D02*
X2479Y1031D01*
X0Y1030D02*
X7Y1030D01*
X700Y1030D02*
X704Y1030D01*
X901Y1030D02*
X905Y1030D01*
X2472Y1030D02*
X2479Y1030D01*
X0Y1029D02*
X7Y1029D01*
X700Y1029D02*
X704Y1029D01*
X901Y1029D02*
X905Y1029D01*
X2472Y1029D02*
X2479Y1029D01*
X0Y1028D02*
X7Y1028D01*
X700Y1028D02*
X704Y1028D01*
X901Y1028D02*
X905Y1028D01*
X2472Y1028D02*
X2479Y1028D01*
X0Y1027D02*
X7Y1027D01*
X700Y1027D02*
X704Y1027D01*
X901Y1027D02*
X905Y1027D01*
X2472Y1027D02*
X2479Y1027D01*
X0Y1026D02*
X7Y1026D01*
X700Y1026D02*
X704Y1026D01*
X901Y1026D02*
X905Y1026D01*
X2472Y1026D02*
X2479Y1026D01*
X0Y1025D02*
X7Y1025D01*
X700Y1025D02*
X704Y1025D01*
X901Y1025D02*
X905Y1025D01*
X2472Y1025D02*
X2479Y1025D01*
X0Y1024D02*
X7Y1024D01*
X700Y1024D02*
X704Y1024D01*
X901Y1024D02*
X905Y1024D01*
X2472Y1024D02*
X2479Y1024D01*
X0Y1023D02*
X7Y1023D01*
X700Y1023D02*
X704Y1023D01*
X901Y1023D02*
X905Y1023D01*
X2472Y1023D02*
X2479Y1023D01*
X0Y1022D02*
X7Y1022D01*
X700Y1022D02*
X704Y1022D01*
X901Y1022D02*
X905Y1022D01*
X2472Y1022D02*
X2479Y1022D01*
X0Y1021D02*
X7Y1021D01*
X700Y1021D02*
X704Y1021D01*
X901Y1021D02*
X905Y1021D01*
X2472Y1021D02*
X2479Y1021D01*
X0Y1020D02*
X7Y1020D01*
X700Y1020D02*
X704Y1020D01*
X901Y1020D02*
X905Y1020D01*
X2472Y1020D02*
X2479Y1020D01*
X0Y1019D02*
X7Y1019D01*
X700Y1019D02*
X704Y1019D01*
X901Y1019D02*
X905Y1019D01*
X2472Y1019D02*
X2479Y1019D01*
X0Y1018D02*
X7Y1018D01*
X700Y1018D02*
X704Y1018D01*
X901Y1018D02*
X905Y1018D01*
X2472Y1018D02*
X2479Y1018D01*
X0Y1017D02*
X7Y1017D01*
X700Y1017D02*
X704Y1017D01*
X901Y1017D02*
X905Y1017D01*
X2472Y1017D02*
X2479Y1017D01*
X0Y1016D02*
X7Y1016D01*
X700Y1016D02*
X704Y1016D01*
X901Y1016D02*
X905Y1016D01*
X2472Y1016D02*
X2479Y1016D01*
X0Y1015D02*
X7Y1015D01*
X700Y1015D02*
X704Y1015D01*
X901Y1015D02*
X905Y1015D01*
X2472Y1015D02*
X2479Y1015D01*
X0Y1014D02*
X7Y1014D01*
X700Y1014D02*
X704Y1014D01*
X901Y1014D02*
X905Y1014D01*
X2472Y1014D02*
X2479Y1014D01*
X0Y1013D02*
X7Y1013D01*
X700Y1013D02*
X704Y1013D01*
X901Y1013D02*
X905Y1013D01*
X2472Y1013D02*
X2479Y1013D01*
X0Y1012D02*
X7Y1012D01*
X700Y1012D02*
X704Y1012D01*
X901Y1012D02*
X905Y1012D01*
X2472Y1012D02*
X2479Y1012D01*
X0Y1011D02*
X7Y1011D01*
X700Y1011D02*
X704Y1011D01*
X901Y1011D02*
X905Y1011D01*
X2472Y1011D02*
X2479Y1011D01*
X0Y1010D02*
X7Y1010D01*
X700Y1010D02*
X704Y1010D01*
X901Y1010D02*
X905Y1010D01*
X2472Y1010D02*
X2479Y1010D01*
X0Y1009D02*
X7Y1009D01*
X700Y1009D02*
X704Y1009D01*
X901Y1009D02*
X905Y1009D01*
X2472Y1009D02*
X2479Y1009D01*
X0Y1008D02*
X7Y1008D01*
X700Y1008D02*
X704Y1008D01*
X901Y1008D02*
X905Y1008D01*
X2472Y1008D02*
X2479Y1008D01*
X0Y1007D02*
X7Y1007D01*
X700Y1007D02*
X704Y1007D01*
X901Y1007D02*
X905Y1007D01*
X2472Y1007D02*
X2479Y1007D01*
X0Y1006D02*
X7Y1006D01*
X700Y1006D02*
X704Y1006D01*
X901Y1006D02*
X905Y1006D01*
X2472Y1006D02*
X2479Y1006D01*
X0Y1005D02*
X7Y1005D01*
X700Y1005D02*
X704Y1005D01*
X901Y1005D02*
X905Y1005D01*
X2472Y1005D02*
X2479Y1005D01*
X0Y1004D02*
X7Y1004D01*
X700Y1004D02*
X704Y1004D01*
X901Y1004D02*
X905Y1004D01*
X2472Y1004D02*
X2479Y1004D01*
X0Y1003D02*
X7Y1003D01*
X700Y1003D02*
X704Y1003D01*
X901Y1003D02*
X905Y1003D01*
X2472Y1003D02*
X2479Y1003D01*
X0Y1002D02*
X7Y1002D01*
X700Y1002D02*
X704Y1002D01*
X901Y1002D02*
X905Y1002D01*
X2472Y1002D02*
X2479Y1002D01*
X0Y1001D02*
X7Y1001D01*
X700Y1001D02*
X704Y1001D01*
X901Y1001D02*
X905Y1001D01*
X2472Y1001D02*
X2479Y1001D01*
X0Y1000D02*
X7Y1000D01*
X700Y1000D02*
X704Y1000D01*
X901Y1000D02*
X905Y1000D01*
X2472Y1000D02*
X2479Y1000D01*
X0Y999D02*
X7Y999D01*
X700Y999D02*
X704Y999D01*
X901Y999D02*
X905Y999D01*
X2472Y999D02*
X2479Y999D01*
X0Y998D02*
X7Y998D01*
X700Y998D02*
X704Y998D01*
X901Y998D02*
X905Y998D01*
X2472Y998D02*
X2479Y998D01*
X0Y997D02*
X7Y997D01*
X700Y997D02*
X704Y997D01*
X901Y997D02*
X905Y997D01*
X2472Y997D02*
X2479Y997D01*
X0Y996D02*
X7Y996D01*
X700Y996D02*
X704Y996D01*
X901Y996D02*
X905Y996D01*
X2472Y996D02*
X2479Y996D01*
X0Y995D02*
X7Y995D01*
X700Y995D02*
X704Y995D01*
X901Y995D02*
X905Y995D01*
X2472Y995D02*
X2479Y995D01*
X0Y994D02*
X7Y994D01*
X700Y994D02*
X704Y994D01*
X901Y994D02*
X905Y994D01*
X2472Y994D02*
X2479Y994D01*
X0Y993D02*
X7Y993D01*
X700Y993D02*
X704Y993D01*
X901Y993D02*
X905Y993D01*
X2472Y993D02*
X2479Y993D01*
X0Y992D02*
X7Y992D01*
X700Y992D02*
X704Y992D01*
X901Y992D02*
X905Y992D01*
X2472Y992D02*
X2479Y992D01*
X0Y991D02*
X7Y991D01*
X700Y991D02*
X704Y991D01*
X901Y991D02*
X905Y991D01*
X2472Y991D02*
X2479Y991D01*
X0Y990D02*
X7Y990D01*
X700Y990D02*
X704Y990D01*
X901Y990D02*
X905Y990D01*
X2472Y990D02*
X2479Y990D01*
X0Y989D02*
X7Y989D01*
X700Y989D02*
X704Y989D01*
X901Y989D02*
X905Y989D01*
X2472Y989D02*
X2479Y989D01*
X0Y988D02*
X7Y988D01*
X700Y988D02*
X704Y988D01*
X901Y988D02*
X905Y988D01*
X2472Y988D02*
X2479Y988D01*
X0Y987D02*
X7Y987D01*
X700Y987D02*
X704Y987D01*
X901Y987D02*
X905Y987D01*
X2472Y987D02*
X2479Y987D01*
X0Y986D02*
X7Y986D01*
X700Y986D02*
X704Y986D01*
X901Y986D02*
X905Y986D01*
X2472Y986D02*
X2479Y986D01*
X0Y985D02*
X7Y985D01*
X700Y985D02*
X704Y985D01*
X901Y985D02*
X905Y985D01*
X2472Y985D02*
X2479Y985D01*
X0Y984D02*
X7Y984D01*
X700Y984D02*
X704Y984D01*
X901Y984D02*
X905Y984D01*
X2472Y984D02*
X2479Y984D01*
X0Y983D02*
X7Y983D01*
X700Y983D02*
X704Y983D01*
X901Y983D02*
X905Y983D01*
X2472Y983D02*
X2479Y983D01*
X0Y982D02*
X7Y982D01*
X700Y982D02*
X704Y982D01*
X901Y982D02*
X905Y982D01*
X2472Y982D02*
X2479Y982D01*
X0Y981D02*
X7Y981D01*
X700Y981D02*
X704Y981D01*
X901Y981D02*
X905Y981D01*
X2472Y981D02*
X2479Y981D01*
X0Y980D02*
X7Y980D01*
X700Y980D02*
X704Y980D01*
X901Y980D02*
X905Y980D01*
X2472Y980D02*
X2479Y980D01*
X0Y979D02*
X7Y979D01*
X700Y979D02*
X704Y979D01*
X901Y979D02*
X905Y979D01*
X2472Y979D02*
X2479Y979D01*
X0Y978D02*
X7Y978D01*
X700Y978D02*
X704Y978D01*
X901Y978D02*
X905Y978D01*
X2472Y978D02*
X2479Y978D01*
X0Y977D02*
X7Y977D01*
X700Y977D02*
X704Y977D01*
X901Y977D02*
X905Y977D01*
X2472Y977D02*
X2479Y977D01*
X0Y976D02*
X7Y976D01*
X700Y976D02*
X704Y976D01*
X901Y976D02*
X905Y976D01*
X2472Y976D02*
X2479Y976D01*
X0Y975D02*
X7Y975D01*
X700Y975D02*
X704Y975D01*
X901Y975D02*
X905Y975D01*
X2472Y975D02*
X2479Y975D01*
X0Y974D02*
X7Y974D01*
X700Y974D02*
X704Y974D01*
X901Y974D02*
X905Y974D01*
X2472Y974D02*
X2479Y974D01*
X0Y973D02*
X7Y973D01*
X700Y973D02*
X704Y973D01*
X901Y973D02*
X905Y973D01*
X2472Y973D02*
X2479Y973D01*
X0Y972D02*
X7Y972D01*
X700Y972D02*
X704Y972D01*
X901Y972D02*
X905Y972D01*
X2472Y972D02*
X2479Y972D01*
X0Y971D02*
X7Y971D01*
X700Y971D02*
X704Y971D01*
X901Y971D02*
X905Y971D01*
X2472Y971D02*
X2479Y971D01*
X0Y970D02*
X7Y970D01*
X700Y970D02*
X905Y970D01*
X2472Y970D02*
X2479Y970D01*
X0Y969D02*
X7Y969D01*
X700Y969D02*
X905Y969D01*
X2472Y969D02*
X2479Y969D01*
X0Y968D02*
X7Y968D01*
X700Y968D02*
X905Y968D01*
X2472Y968D02*
X2479Y968D01*
X0Y967D02*
X7Y967D01*
X700Y967D02*
X905Y967D01*
X2472Y967D02*
X2479Y967D01*
X0Y966D02*
X7Y966D01*
X700Y966D02*
X905Y966D01*
X2472Y966D02*
X2479Y966D01*
X0Y965D02*
X7Y965D01*
X2472Y965D02*
X2479Y965D01*
X0Y964D02*
X7Y964D01*
X2472Y964D02*
X2479Y964D01*
X0Y963D02*
X7Y963D01*
X2472Y963D02*
X2479Y963D01*
X0Y962D02*
X7Y962D01*
X2472Y962D02*
X2479Y962D01*
X0Y961D02*
X7Y961D01*
X2472Y961D02*
X2479Y961D01*
X0Y960D02*
X7Y960D01*
X2472Y960D02*
X2479Y960D01*
X0Y959D02*
X7Y959D01*
X2472Y959D02*
X2479Y959D01*
X0Y958D02*
X7Y958D01*
X2472Y958D02*
X2479Y958D01*
X0Y957D02*
X7Y957D01*
X2472Y957D02*
X2479Y957D01*
X0Y956D02*
X7Y956D01*
X2472Y956D02*
X2479Y956D01*
X0Y955D02*
X7Y955D01*
X2472Y955D02*
X2479Y955D01*
X0Y954D02*
X7Y954D01*
X2472Y954D02*
X2479Y954D01*
X0Y953D02*
X7Y953D01*
X2472Y953D02*
X2479Y953D01*
X0Y952D02*
X7Y952D01*
X2472Y952D02*
X2479Y952D01*
X0Y951D02*
X7Y951D01*
X2472Y951D02*
X2479Y951D01*
X0Y950D02*
X7Y950D01*
X2472Y950D02*
X2479Y950D01*
X0Y949D02*
X7Y949D01*
X2472Y949D02*
X2479Y949D01*
X0Y948D02*
X7Y948D01*
X2472Y948D02*
X2479Y948D01*
X0Y947D02*
X7Y947D01*
X2472Y947D02*
X2479Y947D01*
X0Y946D02*
X7Y946D01*
X2472Y946D02*
X2479Y946D01*
X0Y945D02*
X7Y945D01*
X2472Y945D02*
X2479Y945D01*
X0Y944D02*
X7Y944D01*
X2472Y944D02*
X2479Y944D01*
X0Y943D02*
X7Y943D01*
X2472Y943D02*
X2479Y943D01*
X0Y942D02*
X7Y942D01*
X2472Y942D02*
X2479Y942D01*
X0Y941D02*
X7Y941D01*
X2472Y941D02*
X2479Y941D01*
X0Y940D02*
X7Y940D01*
X2472Y940D02*
X2479Y940D01*
X0Y939D02*
X7Y939D01*
X2472Y939D02*
X2479Y939D01*
X0Y938D02*
X7Y938D01*
X2472Y938D02*
X2479Y938D01*
X0Y937D02*
X7Y937D01*
X2472Y937D02*
X2479Y937D01*
X0Y936D02*
X7Y936D01*
X2472Y936D02*
X2479Y936D01*
X0Y935D02*
X7Y935D01*
X2472Y935D02*
X2479Y935D01*
X0Y934D02*
X7Y934D01*
X2472Y934D02*
X2479Y934D01*
X0Y933D02*
X7Y933D01*
X2472Y933D02*
X2479Y933D01*
X0Y932D02*
X7Y932D01*
X2472Y932D02*
X2479Y932D01*
X0Y931D02*
X7Y931D01*
X2472Y931D02*
X2479Y931D01*
X0Y930D02*
X7Y930D01*
X2472Y930D02*
X2479Y930D01*
X0Y929D02*
X7Y929D01*
X2472Y929D02*
X2479Y929D01*
X0Y928D02*
X7Y928D01*
X2472Y928D02*
X2479Y928D01*
X0Y927D02*
X7Y927D01*
X2472Y927D02*
X2479Y927D01*
X0Y926D02*
X7Y926D01*
X2472Y926D02*
X2479Y926D01*
X0Y925D02*
X7Y925D01*
X2472Y925D02*
X2479Y925D01*
X0Y924D02*
X7Y924D01*
X2472Y924D02*
X2479Y924D01*
X0Y923D02*
X7Y923D01*
X2472Y923D02*
X2479Y923D01*
X0Y922D02*
X7Y922D01*
X2472Y922D02*
X2479Y922D01*
X0Y921D02*
X7Y921D01*
X2472Y921D02*
X2479Y921D01*
X0Y920D02*
X7Y920D01*
X2472Y920D02*
X2479Y920D01*
X0Y919D02*
X7Y919D01*
X2472Y919D02*
X2479Y919D01*
X0Y918D02*
X7Y918D01*
X2472Y918D02*
X2479Y918D01*
X0Y917D02*
X7Y917D01*
X2472Y917D02*
X2479Y917D01*
X0Y916D02*
X7Y916D01*
X2472Y916D02*
X2479Y916D01*
X0Y915D02*
X7Y915D01*
X2472Y915D02*
X2479Y915D01*
X0Y914D02*
X7Y914D01*
X2472Y914D02*
X2479Y914D01*
X0Y913D02*
X7Y913D01*
X2472Y913D02*
X2479Y913D01*
X0Y912D02*
X7Y912D01*
X2472Y912D02*
X2479Y912D01*
X0Y911D02*
X7Y911D01*
X2472Y911D02*
X2479Y911D01*
X0Y910D02*
X7Y910D01*
X2472Y910D02*
X2479Y910D01*
X0Y909D02*
X7Y909D01*
X2472Y909D02*
X2479Y909D01*
X0Y908D02*
X7Y908D01*
X2472Y908D02*
X2479Y908D01*
X0Y907D02*
X7Y907D01*
X2472Y907D02*
X2479Y907D01*
X0Y906D02*
X7Y906D01*
X2472Y906D02*
X2479Y906D01*
X0Y905D02*
X7Y905D01*
X2472Y905D02*
X2479Y905D01*
X0Y904D02*
X7Y904D01*
X2472Y904D02*
X2479Y904D01*
X0Y903D02*
X7Y903D01*
X2472Y903D02*
X2479Y903D01*
X0Y902D02*
X7Y902D01*
X2472Y902D02*
X2479Y902D01*
X0Y901D02*
X7Y901D01*
X2472Y901D02*
X2479Y901D01*
X0Y900D02*
X7Y900D01*
X2472Y900D02*
X2479Y900D01*
X0Y899D02*
X7Y899D01*
X2472Y899D02*
X2479Y899D01*
X0Y898D02*
X7Y898D01*
X673Y898D02*
X698Y898D01*
X790Y898D02*
X804Y898D01*
X826Y898D02*
X827Y898D01*
X874Y898D02*
X899Y898D01*
X2472Y898D02*
X2479Y898D01*
X0Y897D02*
X7Y897D01*
X673Y897D02*
X701Y897D01*
X787Y897D02*
X806Y897D01*
X824Y897D02*
X829Y897D01*
X874Y897D02*
X902Y897D01*
X2472Y897D02*
X2479Y897D01*
X0Y896D02*
X7Y896D01*
X673Y896D02*
X702Y896D01*
X785Y896D02*
X807Y896D01*
X824Y896D02*
X829Y896D01*
X874Y896D02*
X903Y896D01*
X2472Y896D02*
X2479Y896D01*
X0Y895D02*
X7Y895D01*
X673Y895D02*
X703Y895D01*
X784Y895D02*
X807Y895D01*
X824Y895D02*
X830Y895D01*
X874Y895D02*
X904Y895D01*
X2472Y895D02*
X2479Y895D01*
X0Y894D02*
X7Y894D01*
X673Y894D02*
X704Y894D01*
X783Y894D02*
X807Y894D01*
X824Y894D02*
X830Y894D01*
X874Y894D02*
X905Y894D01*
X2472Y894D02*
X2479Y894D01*
X0Y893D02*
X7Y893D01*
X673Y893D02*
X705Y893D01*
X782Y893D02*
X806Y893D01*
X824Y893D02*
X830Y893D01*
X874Y893D02*
X906Y893D01*
X2472Y893D02*
X2479Y893D01*
X0Y892D02*
X7Y892D01*
X673Y892D02*
X706Y892D01*
X782Y892D02*
X806Y892D01*
X824Y892D02*
X830Y892D01*
X874Y892D02*
X906Y892D01*
X2472Y892D02*
X2479Y892D01*
X0Y891D02*
X7Y891D01*
X673Y891D02*
X679Y891D01*
X698Y891D02*
X706Y891D01*
X781Y891D02*
X789Y891D01*
X824Y891D02*
X830Y891D01*
X874Y891D02*
X880Y891D01*
X899Y891D02*
X907Y891D01*
X2472Y891D02*
X2479Y891D01*
X0Y890D02*
X7Y890D01*
X673Y890D02*
X679Y890D01*
X700Y890D02*
X706Y890D01*
X781Y890D02*
X788Y890D01*
X824Y890D02*
X830Y890D01*
X874Y890D02*
X880Y890D01*
X900Y890D02*
X907Y890D01*
X2472Y890D02*
X2479Y890D01*
X0Y889D02*
X7Y889D01*
X673Y889D02*
X679Y889D01*
X700Y889D02*
X706Y889D01*
X780Y889D02*
X787Y889D01*
X824Y889D02*
X830Y889D01*
X874Y889D02*
X880Y889D01*
X901Y889D02*
X907Y889D01*
X2472Y889D02*
X2479Y889D01*
X0Y888D02*
X7Y888D01*
X673Y888D02*
X679Y888D01*
X700Y888D02*
X707Y888D01*
X780Y888D02*
X787Y888D01*
X824Y888D02*
X830Y888D01*
X874Y888D02*
X880Y888D01*
X901Y888D02*
X907Y888D01*
X2472Y888D02*
X2479Y888D01*
X0Y887D02*
X7Y887D01*
X673Y887D02*
X679Y887D01*
X701Y887D02*
X707Y887D01*
X779Y887D02*
X786Y887D01*
X824Y887D02*
X830Y887D01*
X874Y887D02*
X880Y887D01*
X901Y887D02*
X907Y887D01*
X2472Y887D02*
X2479Y887D01*
X0Y886D02*
X7Y886D01*
X673Y886D02*
X679Y886D01*
X701Y886D02*
X707Y886D01*
X779Y886D02*
X786Y886D01*
X824Y886D02*
X830Y886D01*
X874Y886D02*
X880Y886D01*
X901Y886D02*
X907Y886D01*
X2472Y886D02*
X2479Y886D01*
X0Y885D02*
X7Y885D01*
X673Y885D02*
X679Y885D01*
X701Y885D02*
X707Y885D01*
X778Y885D02*
X785Y885D01*
X824Y885D02*
X830Y885D01*
X874Y885D02*
X880Y885D01*
X901Y885D02*
X907Y885D01*
X2472Y885D02*
X2479Y885D01*
X0Y884D02*
X7Y884D01*
X673Y884D02*
X679Y884D01*
X700Y884D02*
X707Y884D01*
X778Y884D02*
X785Y884D01*
X824Y884D02*
X830Y884D01*
X874Y884D02*
X880Y884D01*
X901Y884D02*
X907Y884D01*
X2472Y884D02*
X2479Y884D01*
X0Y883D02*
X7Y883D01*
X673Y883D02*
X679Y883D01*
X700Y883D02*
X706Y883D01*
X777Y883D02*
X784Y883D01*
X824Y883D02*
X830Y883D01*
X874Y883D02*
X880Y883D01*
X901Y883D02*
X907Y883D01*
X2472Y883D02*
X2479Y883D01*
X0Y882D02*
X7Y882D01*
X673Y882D02*
X679Y882D01*
X700Y882D02*
X706Y882D01*
X777Y882D02*
X784Y882D01*
X824Y882D02*
X830Y882D01*
X874Y882D02*
X880Y882D01*
X901Y882D02*
X907Y882D01*
X2472Y882D02*
X2479Y882D01*
X0Y881D02*
X7Y881D01*
X673Y881D02*
X679Y881D01*
X699Y881D02*
X706Y881D01*
X776Y881D02*
X783Y881D01*
X824Y881D02*
X830Y881D01*
X874Y881D02*
X880Y881D01*
X899Y881D02*
X907Y881D01*
X2472Y881D02*
X2479Y881D01*
X0Y880D02*
X7Y880D01*
X673Y880D02*
X706Y880D01*
X776Y880D02*
X783Y880D01*
X824Y880D02*
X830Y880D01*
X874Y880D02*
X907Y880D01*
X2472Y880D02*
X2479Y880D01*
X0Y879D02*
X7Y879D01*
X673Y879D02*
X705Y879D01*
X775Y879D02*
X782Y879D01*
X824Y879D02*
X830Y879D01*
X874Y879D02*
X906Y879D01*
X2472Y879D02*
X2479Y879D01*
X0Y878D02*
X7Y878D01*
X673Y878D02*
X705Y878D01*
X775Y878D02*
X782Y878D01*
X824Y878D02*
X830Y878D01*
X874Y878D02*
X905Y878D01*
X2472Y878D02*
X2479Y878D01*
X0Y877D02*
X7Y877D01*
X673Y877D02*
X704Y877D01*
X775Y877D02*
X781Y877D01*
X824Y877D02*
X830Y877D01*
X874Y877D02*
X905Y877D01*
X2472Y877D02*
X2479Y877D01*
X0Y876D02*
X7Y876D01*
X673Y876D02*
X703Y876D01*
X774Y876D02*
X781Y876D01*
X824Y876D02*
X830Y876D01*
X874Y876D02*
X903Y876D01*
X2472Y876D02*
X2479Y876D01*
X0Y875D02*
X7Y875D01*
X673Y875D02*
X701Y875D01*
X774Y875D02*
X780Y875D01*
X824Y875D02*
X830Y875D01*
X874Y875D02*
X902Y875D01*
X2472Y875D02*
X2479Y875D01*
X0Y874D02*
X7Y874D01*
X673Y874D02*
X699Y874D01*
X774Y874D02*
X780Y874D01*
X824Y874D02*
X830Y874D01*
X874Y874D02*
X900Y874D01*
X2472Y874D02*
X2479Y874D01*
X0Y873D02*
X7Y873D01*
X673Y873D02*
X679Y873D01*
X685Y873D02*
X692Y873D01*
X773Y873D02*
X780Y873D01*
X824Y873D02*
X830Y873D01*
X874Y873D02*
X880Y873D01*
X886Y873D02*
X893Y873D01*
X2472Y873D02*
X2479Y873D01*
X0Y872D02*
X7Y872D01*
X673Y872D02*
X679Y872D01*
X686Y872D02*
X693Y872D01*
X773Y872D02*
X779Y872D01*
X824Y872D02*
X830Y872D01*
X874Y872D02*
X880Y872D01*
X886Y872D02*
X894Y872D01*
X2472Y872D02*
X2479Y872D01*
X0Y871D02*
X7Y871D01*
X673Y871D02*
X679Y871D01*
X686Y871D02*
X693Y871D01*
X773Y871D02*
X779Y871D01*
X824Y871D02*
X830Y871D01*
X874Y871D02*
X880Y871D01*
X887Y871D02*
X894Y871D01*
X2472Y871D02*
X2479Y871D01*
X0Y870D02*
X7Y870D01*
X673Y870D02*
X679Y870D01*
X687Y870D02*
X694Y870D01*
X773Y870D02*
X780Y870D01*
X824Y870D02*
X830Y870D01*
X874Y870D02*
X880Y870D01*
X888Y870D02*
X895Y870D01*
X2472Y870D02*
X2479Y870D01*
X0Y869D02*
X7Y869D01*
X673Y869D02*
X679Y869D01*
X687Y869D02*
X695Y869D01*
X774Y869D02*
X780Y869D01*
X824Y869D02*
X830Y869D01*
X874Y869D02*
X880Y869D01*
X888Y869D02*
X895Y869D01*
X2472Y869D02*
X2479Y869D01*
X0Y868D02*
X7Y868D01*
X673Y868D02*
X679Y868D01*
X688Y868D02*
X695Y868D01*
X774Y868D02*
X780Y868D01*
X824Y868D02*
X830Y868D01*
X874Y868D02*
X880Y868D01*
X889Y868D02*
X896Y868D01*
X2472Y868D02*
X2479Y868D01*
X0Y867D02*
X7Y867D01*
X673Y867D02*
X679Y867D01*
X689Y867D02*
X696Y867D01*
X774Y867D02*
X780Y867D01*
X824Y867D02*
X830Y867D01*
X874Y867D02*
X880Y867D01*
X889Y867D02*
X897Y867D01*
X2472Y867D02*
X2479Y867D01*
X0Y866D02*
X7Y866D01*
X673Y866D02*
X679Y866D01*
X689Y866D02*
X696Y866D01*
X774Y866D02*
X781Y866D01*
X824Y866D02*
X830Y866D01*
X874Y866D02*
X880Y866D01*
X890Y866D02*
X897Y866D01*
X2472Y866D02*
X2479Y866D01*
X0Y865D02*
X7Y865D01*
X673Y865D02*
X679Y865D01*
X690Y865D02*
X697Y865D01*
X775Y865D02*
X781Y865D01*
X824Y865D02*
X830Y865D01*
X874Y865D02*
X880Y865D01*
X891Y865D02*
X898Y865D01*
X2472Y865D02*
X2479Y865D01*
X0Y864D02*
X7Y864D01*
X274Y864D02*
X285Y864D01*
X316Y864D02*
X320Y864D01*
X673Y864D02*
X679Y864D01*
X690Y864D02*
X698Y864D01*
X775Y864D02*
X782Y864D01*
X824Y864D02*
X830Y864D01*
X874Y864D02*
X880Y864D01*
X891Y864D02*
X898Y864D01*
X2472Y864D02*
X2479Y864D01*
X0Y863D02*
X7Y863D01*
X273Y863D02*
X287Y863D01*
X315Y863D02*
X321Y863D01*
X418Y863D02*
X434Y863D01*
X673Y863D02*
X679Y863D01*
X691Y863D02*
X698Y863D01*
X776Y863D02*
X782Y863D01*
X824Y863D02*
X830Y863D01*
X874Y863D02*
X880Y863D01*
X892Y863D02*
X899Y863D01*
X2472Y863D02*
X2479Y863D01*
X0Y862D02*
X7Y862D01*
X271Y862D02*
X288Y862D01*
X313Y862D02*
X321Y862D01*
X411Y862D02*
X440Y862D01*
X673Y862D02*
X679Y862D01*
X691Y862D02*
X699Y862D01*
X776Y862D02*
X783Y862D01*
X824Y862D02*
X830Y862D01*
X874Y862D02*
X880Y862D01*
X892Y862D02*
X899Y862D01*
X2472Y862D02*
X2479Y862D01*
X0Y861D02*
X7Y861D01*
X271Y861D02*
X289Y861D01*
X311Y861D02*
X321Y861D01*
X406Y861D02*
X445Y861D01*
X673Y861D02*
X679Y861D01*
X692Y861D02*
X699Y861D01*
X777Y861D02*
X783Y861D01*
X824Y861D02*
X830Y861D01*
X874Y861D02*
X880Y861D01*
X893Y861D02*
X900Y861D01*
X2472Y861D02*
X2479Y861D01*
X0Y860D02*
X7Y860D01*
X270Y860D02*
X290Y860D01*
X309Y860D02*
X321Y860D01*
X403Y860D02*
X448Y860D01*
X673Y860D02*
X679Y860D01*
X693Y860D02*
X700Y860D01*
X777Y860D02*
X784Y860D01*
X824Y860D02*
X830Y860D01*
X874Y860D02*
X880Y860D01*
X893Y860D02*
X901Y860D01*
X2472Y860D02*
X2479Y860D01*
X0Y859D02*
X7Y859D01*
X269Y859D02*
X291Y859D01*
X308Y859D02*
X320Y859D01*
X400Y859D02*
X452Y859D01*
X673Y859D02*
X679Y859D01*
X693Y859D02*
X700Y859D01*
X778Y859D02*
X784Y859D01*
X824Y859D02*
X830Y859D01*
X874Y859D02*
X880Y859D01*
X894Y859D02*
X901Y859D01*
X2472Y859D02*
X2479Y859D01*
X0Y858D02*
X7Y858D01*
X269Y858D02*
X291Y858D01*
X306Y858D02*
X319Y858D01*
X397Y858D02*
X415Y858D01*
X436Y858D02*
X454Y858D01*
X673Y858D02*
X679Y858D01*
X694Y858D02*
X701Y858D01*
X778Y858D02*
X785Y858D01*
X824Y858D02*
X830Y858D01*
X874Y858D02*
X880Y858D01*
X895Y858D02*
X902Y858D01*
X2472Y858D02*
X2479Y858D01*
X0Y857D02*
X7Y857D01*
X268Y857D02*
X275Y857D01*
X284Y857D02*
X291Y857D01*
X304Y857D02*
X317Y857D01*
X395Y857D02*
X409Y857D01*
X441Y857D02*
X457Y857D01*
X673Y857D02*
X679Y857D01*
X694Y857D02*
X702Y857D01*
X779Y857D02*
X785Y857D01*
X824Y857D02*
X830Y857D01*
X874Y857D02*
X880Y857D01*
X895Y857D02*
X902Y857D01*
X2472Y857D02*
X2479Y857D01*
X0Y856D02*
X7Y856D01*
X268Y856D02*
X275Y856D01*
X285Y856D02*
X292Y856D01*
X303Y856D02*
X316Y856D01*
X392Y856D02*
X405Y856D01*
X446Y856D02*
X459Y856D01*
X673Y856D02*
X679Y856D01*
X695Y856D02*
X702Y856D01*
X779Y856D02*
X786Y856D01*
X824Y856D02*
X830Y856D01*
X874Y856D02*
X880Y856D01*
X896Y856D02*
X903Y856D01*
X2472Y856D02*
X2479Y856D01*
X0Y855D02*
X7Y855D01*
X268Y855D02*
X274Y855D01*
X286Y855D02*
X292Y855D01*
X301Y855D02*
X314Y855D01*
X390Y855D02*
X402Y855D01*
X449Y855D02*
X461Y855D01*
X673Y855D02*
X679Y855D01*
X696Y855D02*
X703Y855D01*
X780Y855D02*
X786Y855D01*
X824Y855D02*
X830Y855D01*
X874Y855D02*
X880Y855D01*
X896Y855D02*
X904Y855D01*
X2472Y855D02*
X2479Y855D01*
X0Y854D02*
X7Y854D01*
X268Y854D02*
X274Y854D01*
X286Y854D02*
X292Y854D01*
X299Y854D02*
X312Y854D01*
X388Y854D02*
X399Y854D01*
X452Y854D02*
X463Y854D01*
X673Y854D02*
X679Y854D01*
X696Y854D02*
X703Y854D01*
X780Y854D02*
X787Y854D01*
X824Y854D02*
X830Y854D01*
X874Y854D02*
X880Y854D01*
X897Y854D02*
X904Y854D01*
X2472Y854D02*
X2479Y854D01*
X0Y853D02*
X7Y853D01*
X268Y853D02*
X274Y853D01*
X286Y853D02*
X292Y853D01*
X297Y853D02*
X310Y853D01*
X386Y853D02*
X397Y853D01*
X454Y853D02*
X465Y853D01*
X673Y853D02*
X679Y853D01*
X697Y853D02*
X704Y853D01*
X781Y853D02*
X787Y853D01*
X824Y853D02*
X830Y853D01*
X874Y853D02*
X880Y853D01*
X898Y853D02*
X905Y853D01*
X2472Y853D02*
X2479Y853D01*
X0Y852D02*
X7Y852D01*
X268Y852D02*
X274Y852D01*
X286Y852D02*
X292Y852D01*
X296Y852D02*
X309Y852D01*
X385Y852D02*
X394Y852D01*
X457Y852D02*
X466Y852D01*
X673Y852D02*
X679Y852D01*
X697Y852D02*
X705Y852D01*
X781Y852D02*
X788Y852D01*
X824Y852D02*
X830Y852D01*
X874Y852D02*
X880Y852D01*
X898Y852D02*
X905Y852D01*
X2472Y852D02*
X2479Y852D01*
X0Y851D02*
X7Y851D01*
X268Y851D02*
X274Y851D01*
X286Y851D02*
X292Y851D01*
X294Y851D02*
X307Y851D01*
X383Y851D02*
X392Y851D01*
X459Y851D02*
X468Y851D01*
X673Y851D02*
X679Y851D01*
X698Y851D02*
X705Y851D01*
X782Y851D02*
X804Y851D01*
X824Y851D02*
X854Y851D01*
X874Y851D02*
X880Y851D01*
X899Y851D02*
X906Y851D01*
X2472Y851D02*
X2479Y851D01*
X0Y850D02*
X7Y850D01*
X268Y850D02*
X274Y850D01*
X286Y850D02*
X305Y850D01*
X382Y850D02*
X390Y850D01*
X461Y850D02*
X469Y850D01*
X673Y850D02*
X679Y850D01*
X698Y850D02*
X706Y850D01*
X782Y850D02*
X806Y850D01*
X824Y850D02*
X856Y850D01*
X874Y850D02*
X880Y850D01*
X899Y850D02*
X906Y850D01*
X2472Y850D02*
X2479Y850D01*
X0Y849D02*
X7Y849D01*
X268Y849D02*
X274Y849D01*
X286Y849D02*
X304Y849D01*
X380Y849D02*
X388Y849D01*
X462Y849D02*
X471Y849D01*
X673Y849D02*
X679Y849D01*
X699Y849D02*
X706Y849D01*
X783Y849D02*
X807Y849D01*
X824Y849D02*
X857Y849D01*
X874Y849D02*
X880Y849D01*
X900Y849D02*
X907Y849D01*
X2472Y849D02*
X2479Y849D01*
X0Y848D02*
X7Y848D01*
X268Y848D02*
X274Y848D01*
X286Y848D02*
X302Y848D01*
X379Y848D02*
X387Y848D01*
X464Y848D02*
X472Y848D01*
X673Y848D02*
X679Y848D01*
X700Y848D02*
X706Y848D01*
X783Y848D02*
X807Y848D01*
X824Y848D02*
X857Y848D01*
X874Y848D02*
X880Y848D01*
X900Y848D02*
X907Y848D01*
X2472Y848D02*
X2479Y848D01*
X0Y847D02*
X7Y847D01*
X268Y847D02*
X274Y847D01*
X286Y847D02*
X300Y847D01*
X378Y847D02*
X385Y847D01*
X466Y847D02*
X474Y847D01*
X673Y847D02*
X679Y847D01*
X700Y847D02*
X706Y847D01*
X784Y847D02*
X807Y847D01*
X824Y847D02*
X857Y847D01*
X874Y847D02*
X880Y847D01*
X901Y847D02*
X907Y847D01*
X2472Y847D02*
X2479Y847D01*
X0Y846D02*
X7Y846D01*
X268Y846D02*
X274Y846D01*
X286Y846D02*
X298Y846D01*
X376Y846D02*
X384Y846D01*
X467Y846D02*
X475Y846D01*
X673Y846D02*
X679Y846D01*
X701Y846D02*
X706Y846D01*
X786Y846D02*
X807Y846D01*
X824Y846D02*
X857Y846D01*
X874Y846D02*
X879Y846D01*
X902Y846D02*
X907Y846D01*
X2472Y846D02*
X2479Y846D01*
X0Y845D02*
X7Y845D01*
X268Y845D02*
X274Y845D01*
X286Y845D02*
X297Y845D01*
X375Y845D02*
X382Y845D01*
X469Y845D02*
X476Y845D01*
X674Y845D02*
X678Y845D01*
X702Y845D02*
X705Y845D01*
X787Y845D02*
X806Y845D01*
X824Y845D02*
X856Y845D01*
X875Y845D02*
X879Y845D01*
X903Y845D02*
X906Y845D01*
X2472Y845D02*
X2479Y845D01*
X0Y844D02*
X7Y844D01*
X268Y844D02*
X274Y844D01*
X286Y844D02*
X295Y844D01*
X374Y844D02*
X381Y844D01*
X470Y844D02*
X477Y844D01*
X726Y844D02*
X754Y844D01*
X2472Y844D02*
X2479Y844D01*
X0Y843D02*
X7Y843D01*
X268Y843D02*
X274Y843D01*
X286Y843D02*
X293Y843D01*
X373Y843D02*
X380Y843D01*
X471Y843D02*
X478Y843D01*
X724Y843D02*
X756Y843D01*
X2472Y843D02*
X2479Y843D01*
X0Y842D02*
X7Y842D01*
X268Y842D02*
X274Y842D01*
X286Y842D02*
X292Y842D01*
X372Y842D02*
X378Y842D01*
X473Y842D02*
X479Y842D01*
X724Y842D02*
X756Y842D01*
X2472Y842D02*
X2479Y842D01*
X0Y841D02*
X7Y841D01*
X268Y841D02*
X274Y841D01*
X286Y841D02*
X292Y841D01*
X371Y841D02*
X377Y841D01*
X474Y841D02*
X480Y841D01*
X723Y841D02*
X757Y841D01*
X2472Y841D02*
X2479Y841D01*
X0Y840D02*
X7Y840D01*
X268Y840D02*
X274Y840D01*
X286Y840D02*
X292Y840D01*
X370Y840D02*
X376Y840D01*
X475Y840D02*
X481Y840D01*
X723Y840D02*
X757Y840D01*
X2472Y840D02*
X2479Y840D01*
X0Y839D02*
X7Y839D01*
X268Y839D02*
X274Y839D01*
X286Y839D02*
X292Y839D01*
X369Y839D02*
X375Y839D01*
X476Y839D02*
X482Y839D01*
X724Y839D02*
X756Y839D01*
X2472Y839D02*
X2479Y839D01*
X0Y838D02*
X7Y838D01*
X268Y838D02*
X274Y838D01*
X286Y838D02*
X292Y838D01*
X368Y838D02*
X374Y838D01*
X477Y838D02*
X483Y838D01*
X724Y838D02*
X756Y838D01*
X2472Y838D02*
X2479Y838D01*
X0Y837D02*
X7Y837D01*
X268Y837D02*
X319Y837D01*
X367Y837D02*
X373Y837D01*
X478Y837D02*
X484Y837D01*
X2472Y837D02*
X2479Y837D01*
X0Y836D02*
X7Y836D01*
X268Y836D02*
X320Y836D01*
X366Y836D02*
X372Y836D01*
X479Y836D02*
X485Y836D01*
X2472Y836D02*
X2479Y836D01*
X0Y835D02*
X7Y835D01*
X268Y835D02*
X321Y835D01*
X365Y835D02*
X371Y835D01*
X480Y835D02*
X486Y835D01*
X2472Y835D02*
X2479Y835D01*
X0Y834D02*
X7Y834D01*
X268Y834D02*
X321Y834D01*
X364Y834D02*
X370Y834D01*
X481Y834D02*
X487Y834D01*
X2472Y834D02*
X2479Y834D01*
X0Y833D02*
X7Y833D01*
X268Y833D02*
X321Y833D01*
X363Y833D02*
X369Y833D01*
X482Y833D02*
X488Y833D01*
X2472Y833D02*
X2479Y833D01*
X0Y832D02*
X7Y832D01*
X268Y832D02*
X321Y832D01*
X363Y832D02*
X368Y832D01*
X483Y832D02*
X488Y832D01*
X2472Y832D02*
X2479Y832D01*
X0Y831D02*
X7Y831D01*
X268Y831D02*
X320Y831D01*
X362Y831D02*
X367Y831D01*
X484Y831D02*
X489Y831D01*
X2472Y831D02*
X2479Y831D01*
X0Y830D02*
X7Y830D01*
X362Y830D02*
X367Y830D01*
X485Y830D02*
X490Y830D01*
X2472Y830D02*
X2479Y830D01*
X0Y829D02*
X7Y829D01*
X362Y829D02*
X366Y829D01*
X485Y829D02*
X491Y829D01*
X2472Y829D02*
X2479Y829D01*
X0Y828D02*
X7Y828D01*
X362Y828D02*
X366Y828D01*
X486Y828D02*
X491Y828D01*
X2472Y828D02*
X2479Y828D01*
X0Y827D02*
X7Y827D01*
X362Y827D02*
X366Y827D01*
X487Y827D02*
X492Y827D01*
X2472Y827D02*
X2479Y827D01*
X0Y826D02*
X7Y826D01*
X362Y826D02*
X366Y826D01*
X487Y826D02*
X493Y826D01*
X2472Y826D02*
X2479Y826D01*
X0Y825D02*
X7Y825D01*
X362Y825D02*
X366Y825D01*
X488Y825D02*
X493Y825D01*
X2472Y825D02*
X2479Y825D01*
X0Y824D02*
X7Y824D01*
X362Y824D02*
X366Y824D01*
X489Y824D02*
X493Y824D01*
X2472Y824D02*
X2479Y824D01*
X0Y823D02*
X7Y823D01*
X362Y823D02*
X366Y823D01*
X489Y823D02*
X493Y823D01*
X2472Y823D02*
X2479Y823D01*
X0Y822D02*
X7Y822D01*
X362Y822D02*
X366Y822D01*
X490Y822D02*
X493Y822D01*
X2472Y822D02*
X2479Y822D01*
X0Y821D02*
X7Y821D01*
X362Y821D02*
X366Y821D01*
X2472Y821D02*
X2479Y821D01*
X0Y820D02*
X7Y820D01*
X362Y820D02*
X366Y820D01*
X2472Y820D02*
X2479Y820D01*
X0Y819D02*
X7Y819D01*
X362Y819D02*
X366Y819D01*
X2472Y819D02*
X2479Y819D01*
X0Y818D02*
X7Y818D01*
X362Y818D02*
X366Y818D01*
X2472Y818D02*
X2479Y818D01*
X0Y817D02*
X7Y817D01*
X362Y817D02*
X364Y817D01*
X2472Y817D02*
X2479Y817D01*
X0Y816D02*
X7Y816D01*
X2472Y816D02*
X2479Y816D01*
X0Y815D02*
X7Y815D01*
X2472Y815D02*
X2479Y815D01*
X0Y814D02*
X7Y814D01*
X317Y814D02*
X320Y814D01*
X2472Y814D02*
X2479Y814D01*
X0Y813D02*
X7Y813D01*
X316Y813D02*
X321Y813D01*
X2472Y813D02*
X2479Y813D01*
X0Y812D02*
X7Y812D01*
X315Y812D02*
X321Y812D01*
X2472Y812D02*
X2479Y812D01*
X0Y811D02*
X7Y811D01*
X315Y811D02*
X321Y811D01*
X2472Y811D02*
X2479Y811D01*
X0Y810D02*
X7Y810D01*
X315Y810D02*
X321Y810D01*
X2472Y810D02*
X2479Y810D01*
X0Y809D02*
X7Y809D01*
X315Y809D02*
X321Y809D01*
X2472Y809D02*
X2479Y809D01*
X0Y808D02*
X7Y808D01*
X315Y808D02*
X321Y808D01*
X2472Y808D02*
X2479Y808D01*
X0Y807D02*
X7Y807D01*
X315Y807D02*
X321Y807D01*
X2472Y807D02*
X2479Y807D01*
X0Y806D02*
X7Y806D01*
X315Y806D02*
X321Y806D01*
X2472Y806D02*
X2479Y806D01*
X0Y805D02*
X7Y805D01*
X315Y805D02*
X321Y805D01*
X2472Y805D02*
X2479Y805D01*
X0Y804D02*
X7Y804D01*
X315Y804D02*
X321Y804D01*
X2472Y804D02*
X2479Y804D01*
X0Y803D02*
X7Y803D01*
X315Y803D02*
X321Y803D01*
X2472Y803D02*
X2479Y803D01*
X0Y802D02*
X7Y802D01*
X315Y802D02*
X321Y802D01*
X2472Y802D02*
X2479Y802D01*
X0Y801D02*
X7Y801D01*
X315Y801D02*
X321Y801D01*
X2472Y801D02*
X2479Y801D01*
X0Y800D02*
X7Y800D01*
X315Y800D02*
X321Y800D01*
X2472Y800D02*
X2479Y800D01*
X0Y799D02*
X7Y799D01*
X315Y799D02*
X321Y799D01*
X2472Y799D02*
X2479Y799D01*
X0Y798D02*
X7Y798D01*
X315Y798D02*
X321Y798D01*
X2472Y798D02*
X2479Y798D01*
X0Y797D02*
X7Y797D01*
X315Y797D02*
X321Y797D01*
X2472Y797D02*
X2479Y797D01*
X0Y796D02*
X7Y796D01*
X315Y796D02*
X321Y796D01*
X2472Y796D02*
X2479Y796D01*
X0Y795D02*
X7Y795D01*
X315Y795D02*
X321Y795D01*
X2472Y795D02*
X2479Y795D01*
X0Y794D02*
X7Y794D01*
X315Y794D02*
X321Y794D01*
X2472Y794D02*
X2479Y794D01*
X0Y793D02*
X7Y793D01*
X315Y793D02*
X321Y793D01*
X2472Y793D02*
X2479Y793D01*
X0Y792D02*
X7Y792D01*
X315Y792D02*
X321Y792D01*
X2472Y792D02*
X2479Y792D01*
X0Y791D02*
X7Y791D01*
X315Y791D02*
X321Y791D01*
X2472Y791D02*
X2479Y791D01*
X0Y790D02*
X7Y790D01*
X315Y790D02*
X321Y790D01*
X2472Y790D02*
X2479Y790D01*
X0Y789D02*
X7Y789D01*
X315Y789D02*
X321Y789D01*
X623Y789D02*
X689Y789D01*
X890Y789D02*
X937Y789D01*
X2472Y789D02*
X2479Y789D01*
X0Y788D02*
X7Y788D01*
X315Y788D02*
X321Y788D01*
X623Y788D02*
X689Y788D01*
X890Y788D02*
X937Y788D01*
X2472Y788D02*
X2479Y788D01*
X0Y787D02*
X7Y787D01*
X271Y787D02*
X321Y787D01*
X623Y787D02*
X689Y787D01*
X890Y787D02*
X937Y787D01*
X2472Y787D02*
X2479Y787D01*
X0Y786D02*
X7Y786D01*
X269Y786D02*
X321Y786D01*
X623Y786D02*
X689Y786D01*
X890Y786D02*
X937Y786D01*
X2472Y786D02*
X2479Y786D01*
X0Y785D02*
X7Y785D01*
X268Y785D02*
X321Y785D01*
X623Y785D02*
X689Y785D01*
X890Y785D02*
X937Y785D01*
X2472Y785D02*
X2479Y785D01*
X0Y784D02*
X7Y784D01*
X268Y784D02*
X321Y784D01*
X623Y784D02*
X689Y784D01*
X890Y784D02*
X937Y784D01*
X2472Y784D02*
X2479Y784D01*
X0Y783D02*
X7Y783D01*
X268Y783D02*
X321Y783D01*
X623Y783D02*
X689Y783D01*
X890Y783D02*
X937Y783D01*
X2472Y783D02*
X2479Y783D01*
X0Y782D02*
X7Y782D01*
X268Y782D02*
X321Y782D01*
X623Y782D02*
X689Y782D01*
X890Y782D02*
X937Y782D01*
X2472Y782D02*
X2479Y782D01*
X0Y781D02*
X7Y781D01*
X269Y781D02*
X321Y781D01*
X623Y781D02*
X689Y781D01*
X890Y781D02*
X937Y781D01*
X2472Y781D02*
X2479Y781D01*
X0Y780D02*
X7Y780D01*
X623Y780D02*
X689Y780D01*
X890Y780D02*
X937Y780D01*
X2472Y780D02*
X2479Y780D01*
X0Y779D02*
X7Y779D01*
X2472Y779D02*
X2479Y779D01*
X0Y778D02*
X7Y778D01*
X2472Y778D02*
X2479Y778D01*
X0Y777D02*
X7Y777D01*
X2472Y777D02*
X2479Y777D01*
X0Y776D02*
X7Y776D01*
X2472Y776D02*
X2479Y776D01*
X0Y775D02*
X7Y775D01*
X2472Y775D02*
X2479Y775D01*
X0Y774D02*
X7Y774D01*
X2472Y774D02*
X2479Y774D01*
X0Y773D02*
X7Y773D01*
X2472Y773D02*
X2479Y773D01*
X0Y772D02*
X7Y772D01*
X2472Y772D02*
X2479Y772D01*
X0Y771D02*
X7Y771D01*
X2472Y771D02*
X2479Y771D01*
X0Y770D02*
X7Y770D01*
X2472Y770D02*
X2479Y770D01*
X0Y769D02*
X7Y769D01*
X2472Y769D02*
X2479Y769D01*
X0Y768D02*
X7Y768D01*
X2472Y768D02*
X2479Y768D01*
X0Y767D02*
X7Y767D01*
X2472Y767D02*
X2479Y767D01*
X0Y766D02*
X7Y766D01*
X2472Y766D02*
X2479Y766D01*
X0Y765D02*
X7Y765D01*
X2472Y765D02*
X2479Y765D01*
X0Y764D02*
X7Y764D01*
X270Y764D02*
X272Y764D01*
X317Y764D02*
X319Y764D01*
X2472Y764D02*
X2479Y764D01*
X0Y763D02*
X7Y763D01*
X269Y763D02*
X273Y763D01*
X316Y763D02*
X320Y763D01*
X2472Y763D02*
X2479Y763D01*
X0Y762D02*
X7Y762D01*
X268Y762D02*
X274Y762D01*
X315Y762D02*
X321Y762D01*
X2472Y762D02*
X2479Y762D01*
X0Y761D02*
X7Y761D01*
X268Y761D02*
X274Y761D01*
X315Y761D02*
X321Y761D01*
X2472Y761D02*
X2479Y761D01*
X0Y760D02*
X7Y760D01*
X268Y760D02*
X274Y760D01*
X315Y760D02*
X321Y760D01*
X2472Y760D02*
X2479Y760D01*
X0Y759D02*
X7Y759D01*
X268Y759D02*
X274Y759D01*
X315Y759D02*
X321Y759D01*
X2472Y759D02*
X2479Y759D01*
X0Y758D02*
X7Y758D01*
X268Y758D02*
X274Y758D01*
X315Y758D02*
X321Y758D01*
X2472Y758D02*
X2479Y758D01*
X0Y757D02*
X7Y757D01*
X268Y757D02*
X274Y757D01*
X315Y757D02*
X321Y757D01*
X2472Y757D02*
X2479Y757D01*
X0Y756D02*
X7Y756D01*
X268Y756D02*
X274Y756D01*
X315Y756D02*
X321Y756D01*
X2472Y756D02*
X2479Y756D01*
X0Y755D02*
X7Y755D01*
X268Y755D02*
X274Y755D01*
X315Y755D02*
X321Y755D01*
X2472Y755D02*
X2479Y755D01*
X0Y754D02*
X7Y754D01*
X268Y754D02*
X274Y754D01*
X315Y754D02*
X321Y754D01*
X2472Y754D02*
X2479Y754D01*
X0Y753D02*
X7Y753D01*
X268Y753D02*
X274Y753D01*
X315Y753D02*
X321Y753D01*
X2472Y753D02*
X2479Y753D01*
X0Y752D02*
X7Y752D01*
X268Y752D02*
X274Y752D01*
X315Y752D02*
X321Y752D01*
X362Y752D02*
X363Y752D01*
X2472Y752D02*
X2479Y752D01*
X0Y751D02*
X7Y751D01*
X268Y751D02*
X274Y751D01*
X315Y751D02*
X321Y751D01*
X362Y751D02*
X366Y751D01*
X2472Y751D02*
X2479Y751D01*
X0Y750D02*
X7Y750D01*
X268Y750D02*
X274Y750D01*
X315Y750D02*
X321Y750D01*
X362Y750D02*
X366Y750D01*
X2472Y750D02*
X2479Y750D01*
X0Y749D02*
X7Y749D01*
X268Y749D02*
X274Y749D01*
X315Y749D02*
X321Y749D01*
X362Y749D02*
X366Y749D01*
X2472Y749D02*
X2479Y749D01*
X0Y748D02*
X7Y748D01*
X268Y748D02*
X274Y748D01*
X315Y748D02*
X321Y748D01*
X362Y748D02*
X366Y748D01*
X2472Y748D02*
X2479Y748D01*
X0Y747D02*
X7Y747D01*
X268Y747D02*
X274Y747D01*
X315Y747D02*
X321Y747D01*
X362Y747D02*
X366Y747D01*
X490Y747D02*
X494Y747D01*
X2472Y747D02*
X2479Y747D01*
X0Y746D02*
X7Y746D01*
X268Y746D02*
X275Y746D01*
X314Y746D02*
X321Y746D01*
X362Y746D02*
X366Y746D01*
X490Y746D02*
X494Y746D01*
X2472Y746D02*
X2479Y746D01*
X0Y745D02*
X7Y745D01*
X269Y745D02*
X276Y745D01*
X313Y745D02*
X321Y745D01*
X362Y745D02*
X366Y745D01*
X489Y745D02*
X494Y745D01*
X2472Y745D02*
X2479Y745D01*
X0Y744D02*
X7Y744D01*
X269Y744D02*
X278Y744D01*
X311Y744D02*
X320Y744D01*
X362Y744D02*
X366Y744D01*
X488Y744D02*
X493Y744D01*
X2472Y744D02*
X2479Y744D01*
X0Y743D02*
X7Y743D01*
X269Y743D02*
X280Y743D01*
X309Y743D02*
X320Y743D01*
X362Y743D02*
X366Y743D01*
X488Y743D02*
X493Y743D01*
X2472Y743D02*
X2479Y743D01*
X0Y742D02*
X7Y742D01*
X270Y742D02*
X282Y742D01*
X307Y742D02*
X319Y742D01*
X362Y742D02*
X366Y742D01*
X487Y742D02*
X492Y742D01*
X2472Y742D02*
X2479Y742D01*
X0Y741D02*
X7Y741D01*
X271Y741D02*
X284Y741D01*
X305Y741D02*
X318Y741D01*
X362Y741D02*
X366Y741D01*
X486Y741D02*
X491Y741D01*
X2472Y741D02*
X2479Y741D01*
X0Y740D02*
X7Y740D01*
X272Y740D02*
X286Y740D01*
X303Y740D02*
X317Y740D01*
X362Y740D02*
X366Y740D01*
X486Y740D02*
X491Y740D01*
X2472Y740D02*
X2479Y740D01*
X0Y739D02*
X7Y739D01*
X273Y739D02*
X288Y739D01*
X301Y739D02*
X316Y739D01*
X362Y739D02*
X366Y739D01*
X485Y739D02*
X490Y739D01*
X2472Y739D02*
X2479Y739D01*
X0Y738D02*
X7Y738D01*
X275Y738D02*
X290Y738D01*
X299Y738D02*
X314Y738D01*
X362Y738D02*
X367Y738D01*
X484Y738D02*
X489Y738D01*
X2472Y738D02*
X2479Y738D01*
X0Y737D02*
X7Y737D01*
X277Y737D02*
X312Y737D01*
X362Y737D02*
X368Y737D01*
X483Y737D02*
X489Y737D01*
X2472Y737D02*
X2479Y737D01*
X0Y736D02*
X7Y736D01*
X279Y736D02*
X310Y736D01*
X363Y736D02*
X369Y736D01*
X482Y736D02*
X488Y736D01*
X2472Y736D02*
X2479Y736D01*
X0Y735D02*
X7Y735D01*
X281Y735D02*
X308Y735D01*
X364Y735D02*
X370Y735D01*
X481Y735D02*
X487Y735D01*
X2472Y735D02*
X2479Y735D01*
X0Y734D02*
X7Y734D01*
X283Y734D02*
X306Y734D01*
X365Y734D02*
X371Y734D01*
X481Y734D02*
X486Y734D01*
X2472Y734D02*
X2479Y734D01*
X0Y733D02*
X7Y733D01*
X285Y733D02*
X304Y733D01*
X366Y733D02*
X371Y733D01*
X480Y733D02*
X485Y733D01*
X2472Y733D02*
X2479Y733D01*
X0Y732D02*
X7Y732D01*
X287Y732D02*
X302Y732D01*
X366Y732D02*
X372Y732D01*
X479Y732D02*
X485Y732D01*
X2472Y732D02*
X2479Y732D01*
X0Y731D02*
X7Y731D01*
X290Y731D02*
X300Y731D01*
X367Y731D02*
X373Y731D01*
X478Y731D02*
X484Y731D01*
X2472Y731D02*
X2479Y731D01*
X0Y730D02*
X7Y730D01*
X294Y730D02*
X295Y730D01*
X368Y730D02*
X375Y730D01*
X476Y730D02*
X483Y730D01*
X2472Y730D02*
X2479Y730D01*
X0Y729D02*
X7Y729D01*
X369Y729D02*
X376Y729D01*
X475Y729D02*
X482Y729D01*
X2472Y729D02*
X2479Y729D01*
X0Y728D02*
X7Y728D01*
X370Y728D02*
X377Y728D01*
X474Y728D02*
X481Y728D01*
X2472Y728D02*
X2479Y728D01*
X0Y727D02*
X7Y727D01*
X371Y727D02*
X378Y727D01*
X473Y727D02*
X480Y727D01*
X2472Y727D02*
X2479Y727D01*
X0Y726D02*
X7Y726D01*
X372Y726D02*
X379Y726D01*
X472Y726D02*
X479Y726D01*
X2472Y726D02*
X2479Y726D01*
X0Y725D02*
X7Y725D01*
X373Y725D02*
X381Y725D01*
X471Y725D02*
X478Y725D01*
X2472Y725D02*
X2479Y725D01*
X0Y724D02*
X7Y724D01*
X375Y724D02*
X382Y724D01*
X469Y724D02*
X476Y724D01*
X2472Y724D02*
X2479Y724D01*
X0Y723D02*
X7Y723D01*
X376Y723D02*
X383Y723D01*
X468Y723D02*
X475Y723D01*
X2472Y723D02*
X2479Y723D01*
X0Y722D02*
X7Y722D01*
X377Y722D02*
X385Y722D01*
X466Y722D02*
X474Y722D01*
X2472Y722D02*
X2479Y722D01*
X0Y721D02*
X7Y721D01*
X378Y721D02*
X386Y721D01*
X465Y721D02*
X473Y721D01*
X2472Y721D02*
X2479Y721D01*
X0Y720D02*
X7Y720D01*
X380Y720D02*
X388Y720D01*
X463Y720D02*
X471Y720D01*
X2472Y720D02*
X2479Y720D01*
X0Y719D02*
X7Y719D01*
X381Y719D02*
X390Y719D01*
X461Y719D02*
X470Y719D01*
X2472Y719D02*
X2479Y719D01*
X0Y718D02*
X7Y718D01*
X383Y718D02*
X392Y718D01*
X459Y718D02*
X468Y718D01*
X2472Y718D02*
X2479Y718D01*
X0Y717D02*
X7Y717D01*
X384Y717D02*
X394Y717D01*
X457Y717D02*
X467Y717D01*
X2472Y717D02*
X2479Y717D01*
X0Y716D02*
X7Y716D01*
X386Y716D02*
X396Y716D01*
X455Y716D02*
X465Y716D01*
X2472Y716D02*
X2479Y716D01*
X0Y715D02*
X7Y715D01*
X388Y715D02*
X399Y715D01*
X453Y715D02*
X463Y715D01*
X2472Y715D02*
X2479Y715D01*
X0Y714D02*
X7Y714D01*
X390Y714D02*
X401Y714D01*
X450Y714D02*
X461Y714D01*
X2472Y714D02*
X2479Y714D01*
X0Y713D02*
X7Y713D01*
X391Y713D02*
X405Y713D01*
X447Y713D02*
X459Y713D01*
X2472Y713D02*
X2479Y713D01*
X0Y712D02*
X7Y712D01*
X394Y712D02*
X408Y712D01*
X443Y712D02*
X457Y712D01*
X2472Y712D02*
X2479Y712D01*
X0Y711D02*
X7Y711D01*
X396Y711D02*
X413Y711D01*
X438Y711D02*
X455Y711D01*
X2472Y711D02*
X2479Y711D01*
X0Y710D02*
X7Y710D01*
X399Y710D02*
X452Y710D01*
X2472Y710D02*
X2479Y710D01*
X0Y709D02*
X7Y709D01*
X402Y709D02*
X449Y709D01*
X2472Y709D02*
X2479Y709D01*
X0Y708D02*
X7Y708D01*
X405Y708D02*
X446Y708D01*
X2472Y708D02*
X2479Y708D01*
X0Y707D02*
X7Y707D01*
X409Y707D02*
X441Y707D01*
X2472Y707D02*
X2479Y707D01*
X0Y706D02*
X7Y706D01*
X415Y706D02*
X436Y706D01*
X2472Y706D02*
X2479Y706D01*
X0Y705D02*
X7Y705D01*
X2472Y705D02*
X2479Y705D01*
X0Y704D02*
X7Y704D01*
X2472Y704D02*
X2479Y704D01*
X0Y703D02*
X7Y703D01*
X2472Y703D02*
X2479Y703D01*
X0Y702D02*
X7Y702D01*
X2472Y702D02*
X2479Y702D01*
X0Y701D02*
X7Y701D01*
X2472Y701D02*
X2479Y701D01*
X0Y700D02*
X7Y700D01*
X2472Y700D02*
X2479Y700D01*
X0Y699D02*
X7Y699D01*
X2472Y699D02*
X2479Y699D01*
X0Y698D02*
X7Y698D01*
X2472Y698D02*
X2479Y698D01*
X0Y697D02*
X7Y697D01*
X2472Y697D02*
X2479Y697D01*
X0Y696D02*
X7Y696D01*
X2472Y696D02*
X2479Y696D01*
X0Y695D02*
X7Y695D01*
X2472Y695D02*
X2479Y695D01*
X0Y694D02*
X7Y694D01*
X2472Y694D02*
X2479Y694D01*
X0Y693D02*
X7Y693D01*
X2472Y693D02*
X2479Y693D01*
X0Y692D02*
X7Y692D01*
X2472Y692D02*
X2479Y692D01*
X0Y691D02*
X7Y691D01*
X2472Y691D02*
X2479Y691D01*
X0Y690D02*
X7Y690D01*
X2472Y690D02*
X2479Y690D01*
X0Y689D02*
X7Y689D01*
X2472Y689D02*
X2479Y689D01*
X0Y688D02*
X7Y688D01*
X2472Y688D02*
X2479Y688D01*
X0Y687D02*
X7Y687D01*
X2472Y687D02*
X2479Y687D01*
X0Y686D02*
X7Y686D01*
X2472Y686D02*
X2479Y686D01*
X0Y685D02*
X7Y685D01*
X2472Y685D02*
X2479Y685D01*
X0Y684D02*
X7Y684D01*
X2472Y684D02*
X2479Y684D01*
X0Y683D02*
X7Y683D01*
X2472Y683D02*
X2479Y683D01*
X0Y682D02*
X7Y682D01*
X2472Y682D02*
X2479Y682D01*
X0Y681D02*
X7Y681D01*
X2472Y681D02*
X2479Y681D01*
X0Y680D02*
X7Y680D01*
X2472Y680D02*
X2479Y680D01*
X0Y679D02*
X7Y679D01*
X2472Y679D02*
X2479Y679D01*
X0Y678D02*
X7Y678D01*
X269Y678D02*
X273Y678D01*
X316Y678D02*
X320Y678D01*
X2472Y678D02*
X2479Y678D01*
X0Y677D02*
X7Y677D01*
X268Y677D02*
X274Y677D01*
X316Y677D02*
X321Y677D01*
X2472Y677D02*
X2479Y677D01*
X0Y676D02*
X7Y676D01*
X268Y676D02*
X274Y676D01*
X315Y676D02*
X321Y676D01*
X2472Y676D02*
X2479Y676D01*
X0Y675D02*
X7Y675D01*
X268Y675D02*
X274Y675D01*
X315Y675D02*
X321Y675D01*
X2472Y675D02*
X2479Y675D01*
X0Y674D02*
X7Y674D01*
X268Y674D02*
X274Y674D01*
X315Y674D02*
X321Y674D01*
X2472Y674D02*
X2479Y674D01*
X0Y673D02*
X7Y673D01*
X268Y673D02*
X274Y673D01*
X315Y673D02*
X321Y673D01*
X2472Y673D02*
X2479Y673D01*
X0Y672D02*
X7Y672D01*
X268Y672D02*
X274Y672D01*
X315Y672D02*
X321Y672D01*
X2472Y672D02*
X2479Y672D01*
X0Y671D02*
X7Y671D01*
X268Y671D02*
X274Y671D01*
X315Y671D02*
X321Y671D01*
X2472Y671D02*
X2479Y671D01*
X0Y670D02*
X7Y670D01*
X268Y670D02*
X274Y670D01*
X315Y670D02*
X321Y670D01*
X2472Y670D02*
X2479Y670D01*
X0Y669D02*
X7Y669D01*
X268Y669D02*
X274Y669D01*
X315Y669D02*
X321Y669D01*
X2472Y669D02*
X2479Y669D01*
X0Y668D02*
X7Y668D01*
X268Y668D02*
X274Y668D01*
X315Y668D02*
X321Y668D01*
X2472Y668D02*
X2479Y668D01*
X0Y667D02*
X7Y667D01*
X268Y667D02*
X274Y667D01*
X315Y667D02*
X321Y667D01*
X2472Y667D02*
X2479Y667D01*
X0Y666D02*
X7Y666D01*
X268Y666D02*
X274Y666D01*
X315Y666D02*
X321Y666D01*
X2472Y666D02*
X2479Y666D01*
X0Y665D02*
X7Y665D01*
X268Y665D02*
X274Y665D01*
X315Y665D02*
X321Y665D01*
X2472Y665D02*
X2479Y665D01*
X0Y664D02*
X7Y664D01*
X268Y664D02*
X274Y664D01*
X315Y664D02*
X321Y664D01*
X2472Y664D02*
X2479Y664D01*
X0Y663D02*
X7Y663D01*
X268Y663D02*
X274Y663D01*
X315Y663D02*
X321Y663D01*
X417Y663D02*
X435Y663D01*
X2472Y663D02*
X2479Y663D01*
X0Y662D02*
X7Y662D01*
X268Y662D02*
X274Y662D01*
X315Y662D02*
X321Y662D01*
X411Y662D02*
X441Y662D01*
X2472Y662D02*
X2479Y662D01*
X0Y661D02*
X7Y661D01*
X268Y661D02*
X274Y661D01*
X315Y661D02*
X321Y661D01*
X406Y661D02*
X445Y661D01*
X2472Y661D02*
X2479Y661D01*
X0Y660D02*
X7Y660D01*
X268Y660D02*
X275Y660D01*
X314Y660D02*
X321Y660D01*
X403Y660D02*
X449Y660D01*
X2472Y660D02*
X2479Y660D01*
X0Y659D02*
X7Y659D01*
X269Y659D02*
X277Y659D01*
X312Y659D02*
X321Y659D01*
X399Y659D02*
X452Y659D01*
X2472Y659D02*
X2479Y659D01*
X0Y658D02*
X7Y658D01*
X269Y658D02*
X279Y658D01*
X310Y658D02*
X320Y658D01*
X397Y658D02*
X414Y658D01*
X437Y658D02*
X454Y658D01*
X2472Y658D02*
X2479Y658D01*
X0Y657D02*
X7Y657D01*
X270Y657D02*
X281Y657D01*
X308Y657D02*
X320Y657D01*
X394Y657D02*
X409Y657D01*
X442Y657D02*
X457Y657D01*
X2472Y657D02*
X2479Y657D01*
X0Y656D02*
X7Y656D01*
X270Y656D02*
X283Y656D01*
X306Y656D02*
X319Y656D01*
X392Y656D02*
X405Y656D01*
X446Y656D02*
X459Y656D01*
X2472Y656D02*
X2479Y656D01*
X0Y655D02*
X7Y655D01*
X271Y655D02*
X285Y655D01*
X304Y655D02*
X318Y655D01*
X390Y655D02*
X401Y655D01*
X449Y655D02*
X461Y655D01*
X2472Y655D02*
X2479Y655D01*
X0Y654D02*
X7Y654D01*
X272Y654D02*
X287Y654D01*
X302Y654D02*
X317Y654D01*
X388Y654D02*
X399Y654D01*
X452Y654D02*
X463Y654D01*
X2472Y654D02*
X2479Y654D01*
X0Y653D02*
X7Y653D01*
X274Y653D02*
X289Y653D01*
X301Y653D02*
X315Y653D01*
X386Y653D02*
X396Y653D01*
X454Y653D02*
X465Y653D01*
X2472Y653D02*
X2479Y653D01*
X0Y652D02*
X7Y652D01*
X276Y652D02*
X291Y652D01*
X298Y652D02*
X313Y652D01*
X385Y652D02*
X394Y652D01*
X457Y652D02*
X467Y652D01*
X2472Y652D02*
X2479Y652D01*
X0Y651D02*
X7Y651D01*
X278Y651D02*
X311Y651D01*
X383Y651D02*
X392Y651D01*
X459Y651D02*
X468Y651D01*
X2472Y651D02*
X2479Y651D01*
X0Y650D02*
X7Y650D01*
X280Y650D02*
X309Y650D01*
X382Y650D02*
X390Y650D01*
X461Y650D02*
X470Y650D01*
X2472Y650D02*
X2479Y650D01*
X0Y649D02*
X7Y649D01*
X282Y649D02*
X307Y649D01*
X380Y649D02*
X388Y649D01*
X463Y649D02*
X471Y649D01*
X2472Y649D02*
X2479Y649D01*
X0Y648D02*
X7Y648D01*
X284Y648D02*
X305Y648D01*
X379Y648D02*
X387Y648D01*
X464Y648D02*
X473Y648D01*
X2472Y648D02*
X2479Y648D01*
X0Y647D02*
X7Y647D01*
X286Y647D02*
X303Y647D01*
X377Y647D02*
X385Y647D01*
X466Y647D02*
X474Y647D01*
X2472Y647D02*
X2479Y647D01*
X0Y646D02*
X7Y646D01*
X288Y646D02*
X301Y646D01*
X376Y646D02*
X383Y646D01*
X467Y646D02*
X475Y646D01*
X2472Y646D02*
X2479Y646D01*
X0Y645D02*
X7Y645D01*
X291Y645D02*
X298Y645D01*
X375Y645D02*
X382Y645D01*
X469Y645D02*
X476Y645D01*
X2472Y645D02*
X2479Y645D01*
X0Y644D02*
X7Y644D01*
X374Y644D02*
X381Y644D01*
X470Y644D02*
X477Y644D01*
X2472Y644D02*
X2479Y644D01*
X0Y643D02*
X7Y643D01*
X373Y643D02*
X379Y643D01*
X472Y643D02*
X479Y643D01*
X2472Y643D02*
X2479Y643D01*
X0Y642D02*
X7Y642D01*
X372Y642D02*
X378Y642D01*
X473Y642D02*
X480Y642D01*
X2472Y642D02*
X2479Y642D01*
X0Y641D02*
X7Y641D01*
X371Y641D02*
X377Y641D01*
X474Y641D02*
X481Y641D01*
X2472Y641D02*
X2479Y641D01*
X0Y640D02*
X7Y640D01*
X369Y640D02*
X376Y640D01*
X475Y640D02*
X482Y640D01*
X2472Y640D02*
X2479Y640D01*
X0Y639D02*
X7Y639D01*
X368Y639D02*
X375Y639D01*
X476Y639D02*
X483Y639D01*
X2472Y639D02*
X2479Y639D01*
X0Y638D02*
X7Y638D01*
X368Y638D02*
X374Y638D01*
X477Y638D02*
X484Y638D01*
X2472Y638D02*
X2479Y638D01*
X0Y637D02*
X7Y637D01*
X367Y637D02*
X373Y637D01*
X478Y637D02*
X484Y637D01*
X2472Y637D02*
X2479Y637D01*
X0Y636D02*
X7Y636D01*
X366Y636D02*
X372Y636D01*
X479Y636D02*
X485Y636D01*
X2472Y636D02*
X2479Y636D01*
X0Y635D02*
X7Y635D01*
X365Y635D02*
X371Y635D01*
X480Y635D02*
X486Y635D01*
X2472Y635D02*
X2479Y635D01*
X0Y634D02*
X7Y634D01*
X364Y634D02*
X370Y634D01*
X481Y634D02*
X487Y634D01*
X2472Y634D02*
X2479Y634D01*
X0Y633D02*
X7Y633D01*
X363Y633D02*
X369Y633D01*
X482Y633D02*
X488Y633D01*
X2472Y633D02*
X2479Y633D01*
X0Y632D02*
X7Y632D01*
X363Y632D02*
X368Y632D01*
X483Y632D02*
X489Y632D01*
X2472Y632D02*
X2479Y632D01*
X0Y631D02*
X7Y631D01*
X362Y631D02*
X367Y631D01*
X484Y631D02*
X489Y631D01*
X2472Y631D02*
X2479Y631D01*
X0Y630D02*
X7Y630D01*
X362Y630D02*
X366Y630D01*
X485Y630D02*
X490Y630D01*
X2472Y630D02*
X2479Y630D01*
X0Y629D02*
X7Y629D01*
X362Y629D02*
X366Y629D01*
X485Y629D02*
X491Y629D01*
X2472Y629D02*
X2479Y629D01*
X0Y628D02*
X7Y628D01*
X269Y628D02*
X321Y628D01*
X362Y628D02*
X366Y628D01*
X486Y628D02*
X491Y628D01*
X2472Y628D02*
X2479Y628D01*
X0Y627D02*
X7Y627D01*
X269Y627D02*
X321Y627D01*
X362Y627D02*
X366Y627D01*
X487Y627D02*
X492Y627D01*
X2472Y627D02*
X2479Y627D01*
X0Y626D02*
X7Y626D01*
X268Y626D02*
X321Y626D01*
X362Y626D02*
X366Y626D01*
X487Y626D02*
X493Y626D01*
X2472Y626D02*
X2479Y626D01*
X0Y625D02*
X7Y625D01*
X268Y625D02*
X321Y625D01*
X362Y625D02*
X366Y625D01*
X488Y625D02*
X493Y625D01*
X2472Y625D02*
X2479Y625D01*
X0Y624D02*
X7Y624D01*
X268Y624D02*
X321Y624D01*
X362Y624D02*
X366Y624D01*
X489Y624D02*
X493Y624D01*
X2472Y624D02*
X2479Y624D01*
X0Y623D02*
X7Y623D01*
X269Y623D02*
X321Y623D01*
X362Y623D02*
X366Y623D01*
X489Y623D02*
X493Y623D01*
X2472Y623D02*
X2479Y623D01*
X0Y622D02*
X7Y622D01*
X270Y622D02*
X321Y622D01*
X362Y622D02*
X366Y622D01*
X490Y622D02*
X493Y622D01*
X2472Y622D02*
X2479Y622D01*
X0Y621D02*
X7Y621D01*
X308Y621D02*
X321Y621D01*
X362Y621D02*
X366Y621D01*
X2472Y621D02*
X2479Y621D01*
X0Y620D02*
X7Y620D01*
X306Y620D02*
X321Y620D01*
X362Y620D02*
X366Y620D01*
X2472Y620D02*
X2479Y620D01*
X0Y619D02*
X7Y619D01*
X304Y619D02*
X320Y619D01*
X362Y619D02*
X366Y619D01*
X2472Y619D02*
X2479Y619D01*
X0Y618D02*
X7Y618D01*
X301Y618D02*
X318Y618D01*
X362Y618D02*
X366Y618D01*
X2472Y618D02*
X2479Y618D01*
X0Y617D02*
X7Y617D01*
X299Y617D02*
X316Y617D01*
X362Y617D02*
X364Y617D01*
X2472Y617D02*
X2479Y617D01*
X0Y616D02*
X7Y616D01*
X297Y616D02*
X313Y616D01*
X2472Y616D02*
X2479Y616D01*
X0Y615D02*
X7Y615D01*
X294Y615D02*
X311Y615D01*
X2472Y615D02*
X2479Y615D01*
X0Y614D02*
X7Y614D01*
X292Y614D02*
X309Y614D01*
X2472Y614D02*
X2479Y614D01*
X0Y613D02*
X7Y613D01*
X290Y613D02*
X306Y613D01*
X2472Y613D02*
X2479Y613D01*
X0Y612D02*
X7Y612D01*
X288Y612D02*
X304Y612D01*
X2472Y612D02*
X2479Y612D01*
X0Y611D02*
X7Y611D01*
X285Y611D02*
X302Y611D01*
X2472Y611D02*
X2479Y611D01*
X0Y610D02*
X7Y610D01*
X283Y610D02*
X300Y610D01*
X2472Y610D02*
X2479Y610D01*
X0Y609D02*
X7Y609D01*
X281Y609D02*
X297Y609D01*
X2472Y609D02*
X2479Y609D01*
X0Y608D02*
X7Y608D01*
X278Y608D02*
X295Y608D01*
X2472Y608D02*
X2479Y608D01*
X0Y607D02*
X7Y607D01*
X276Y607D02*
X293Y607D01*
X2472Y607D02*
X2479Y607D01*
X0Y606D02*
X7Y606D01*
X274Y606D02*
X290Y606D01*
X2472Y606D02*
X2479Y606D01*
X0Y605D02*
X7Y605D01*
X272Y605D02*
X288Y605D01*
X2472Y605D02*
X2479Y605D01*
X0Y604D02*
X7Y604D01*
X269Y604D02*
X286Y604D01*
X2472Y604D02*
X2479Y604D01*
X0Y603D02*
X7Y603D01*
X268Y603D02*
X284Y603D01*
X2472Y603D02*
X2479Y603D01*
X0Y602D02*
X7Y602D01*
X268Y602D02*
X281Y602D01*
X2472Y602D02*
X2479Y602D01*
X0Y601D02*
X7Y601D01*
X268Y601D02*
X319Y601D01*
X2472Y601D02*
X2479Y601D01*
X0Y600D02*
X7Y600D01*
X268Y600D02*
X320Y600D01*
X2472Y600D02*
X2479Y600D01*
X0Y599D02*
X7Y599D01*
X268Y599D02*
X321Y599D01*
X2472Y599D02*
X2479Y599D01*
X0Y598D02*
X7Y598D01*
X268Y598D02*
X321Y598D01*
X2472Y598D02*
X2479Y598D01*
X0Y597D02*
X7Y597D01*
X268Y597D02*
X321Y597D01*
X2472Y597D02*
X2479Y597D01*
X0Y596D02*
X7Y596D01*
X268Y596D02*
X321Y596D01*
X2472Y596D02*
X2479Y596D01*
X0Y595D02*
X7Y595D01*
X268Y595D02*
X320Y595D01*
X2472Y595D02*
X2479Y595D01*
X0Y594D02*
X7Y594D01*
X2472Y594D02*
X2479Y594D01*
X0Y593D02*
X7Y593D01*
X2472Y593D02*
X2479Y593D01*
X0Y592D02*
X7Y592D01*
X2472Y592D02*
X2479Y592D01*
X0Y591D02*
X7Y591D01*
X2472Y591D02*
X2479Y591D01*
X0Y590D02*
X7Y590D01*
X2472Y590D02*
X2479Y590D01*
X0Y589D02*
X7Y589D01*
X623Y589D02*
X689Y589D01*
X890Y589D02*
X937Y589D01*
X2472Y589D02*
X2479Y589D01*
X0Y588D02*
X7Y588D01*
X623Y588D02*
X689Y588D01*
X890Y588D02*
X937Y588D01*
X2472Y588D02*
X2479Y588D01*
X0Y587D02*
X7Y587D01*
X623Y587D02*
X689Y587D01*
X890Y587D02*
X937Y587D01*
X2472Y587D02*
X2479Y587D01*
X0Y586D02*
X7Y586D01*
X623Y586D02*
X689Y586D01*
X890Y586D02*
X937Y586D01*
X2472Y586D02*
X2479Y586D01*
X0Y585D02*
X7Y585D01*
X623Y585D02*
X689Y585D01*
X890Y585D02*
X937Y585D01*
X2472Y585D02*
X2479Y585D01*
X0Y584D02*
X7Y584D01*
X623Y584D02*
X689Y584D01*
X890Y584D02*
X937Y584D01*
X2472Y584D02*
X2479Y584D01*
X0Y583D02*
X7Y583D01*
X623Y583D02*
X689Y583D01*
X890Y583D02*
X937Y583D01*
X2472Y583D02*
X2479Y583D01*
X0Y582D02*
X7Y582D01*
X623Y582D02*
X689Y582D01*
X890Y582D02*
X937Y582D01*
X2472Y582D02*
X2479Y582D01*
X0Y581D02*
X7Y581D01*
X623Y581D02*
X689Y581D01*
X890Y581D02*
X937Y581D01*
X2472Y581D02*
X2479Y581D01*
X0Y580D02*
X7Y580D01*
X623Y580D02*
X689Y580D01*
X890Y580D02*
X937Y580D01*
X2472Y580D02*
X2479Y580D01*
X0Y579D02*
X7Y579D01*
X2472Y579D02*
X2479Y579D01*
X0Y578D02*
X7Y578D01*
X270Y578D02*
X278Y578D01*
X2472Y578D02*
X2479Y578D01*
X0Y577D02*
X7Y577D01*
X269Y577D02*
X280Y577D01*
X2472Y577D02*
X2479Y577D01*
X0Y576D02*
X7Y576D01*
X268Y576D02*
X281Y576D01*
X2472Y576D02*
X2479Y576D01*
X0Y575D02*
X7Y575D01*
X268Y575D02*
X282Y575D01*
X2472Y575D02*
X2479Y575D01*
X0Y574D02*
X7Y574D01*
X268Y574D02*
X284Y574D01*
X2472Y574D02*
X2479Y574D01*
X0Y573D02*
X7Y573D01*
X269Y573D02*
X285Y573D01*
X2472Y573D02*
X2479Y573D01*
X0Y572D02*
X7Y572D01*
X270Y572D02*
X286Y572D01*
X2472Y572D02*
X2479Y572D01*
X0Y571D02*
X7Y571D01*
X277Y571D02*
X287Y571D01*
X2472Y571D02*
X2479Y571D01*
X0Y570D02*
X7Y570D01*
X278Y570D02*
X289Y570D01*
X2472Y570D02*
X2479Y570D01*
X0Y569D02*
X7Y569D01*
X279Y569D02*
X290Y569D01*
X2472Y569D02*
X2479Y569D01*
X0Y568D02*
X7Y568D01*
X281Y568D02*
X291Y568D01*
X2472Y568D02*
X2479Y568D01*
X0Y567D02*
X7Y567D01*
X282Y567D02*
X292Y567D01*
X2472Y567D02*
X2479Y567D01*
X0Y566D02*
X7Y566D01*
X283Y566D02*
X294Y566D01*
X2472Y566D02*
X2479Y566D01*
X0Y565D02*
X7Y565D01*
X285Y565D02*
X295Y565D01*
X2472Y565D02*
X2479Y565D01*
X0Y564D02*
X7Y564D01*
X286Y564D02*
X320Y564D01*
X2472Y564D02*
X2479Y564D01*
X0Y563D02*
X7Y563D01*
X287Y563D02*
X321Y563D01*
X2472Y563D02*
X2479Y563D01*
X0Y562D02*
X7Y562D01*
X289Y562D02*
X321Y562D01*
X2472Y562D02*
X2479Y562D01*
X0Y561D02*
X7Y561D01*
X289Y561D02*
X321Y561D01*
X2472Y561D02*
X2479Y561D01*
X0Y560D02*
X7Y560D01*
X288Y560D02*
X321Y560D01*
X2472Y560D02*
X2479Y560D01*
X0Y559D02*
X7Y559D01*
X286Y559D02*
X320Y559D01*
X2472Y559D02*
X2479Y559D01*
X0Y558D02*
X7Y558D01*
X285Y558D02*
X319Y558D01*
X2472Y558D02*
X2479Y558D01*
X0Y557D02*
X7Y557D01*
X284Y557D02*
X294Y557D01*
X2472Y557D02*
X2479Y557D01*
X0Y556D02*
X7Y556D01*
X283Y556D02*
X293Y556D01*
X2472Y556D02*
X2479Y556D01*
X0Y555D02*
X7Y555D01*
X281Y555D02*
X292Y555D01*
X2472Y555D02*
X2479Y555D01*
X0Y554D02*
X7Y554D01*
X280Y554D02*
X290Y554D01*
X2472Y554D02*
X2479Y554D01*
X0Y553D02*
X7Y553D01*
X279Y553D02*
X289Y553D01*
X2472Y553D02*
X2479Y553D01*
X0Y552D02*
X7Y552D01*
X277Y552D02*
X288Y552D01*
X362Y552D02*
X364Y552D01*
X2472Y552D02*
X2479Y552D01*
X0Y551D02*
X7Y551D01*
X271Y551D02*
X287Y551D01*
X362Y551D02*
X366Y551D01*
X2472Y551D02*
X2479Y551D01*
X0Y550D02*
X7Y550D01*
X269Y550D02*
X285Y550D01*
X362Y550D02*
X366Y550D01*
X2472Y550D02*
X2479Y550D01*
X0Y549D02*
X7Y549D01*
X268Y549D02*
X284Y549D01*
X362Y549D02*
X366Y549D01*
X2472Y549D02*
X2479Y549D01*
X0Y548D02*
X7Y548D01*
X268Y548D02*
X283Y548D01*
X362Y548D02*
X366Y548D01*
X2472Y548D02*
X2479Y548D01*
X0Y547D02*
X7Y547D01*
X268Y547D02*
X281Y547D01*
X362Y547D02*
X366Y547D01*
X490Y547D02*
X494Y547D01*
X2472Y547D02*
X2479Y547D01*
X0Y546D02*
X7Y546D01*
X268Y546D02*
X280Y546D01*
X362Y546D02*
X366Y546D01*
X489Y546D02*
X494Y546D01*
X2472Y546D02*
X2479Y546D01*
X0Y545D02*
X7Y545D01*
X269Y545D02*
X279Y545D01*
X362Y545D02*
X366Y545D01*
X489Y545D02*
X494Y545D01*
X2472Y545D02*
X2479Y545D01*
X0Y544D02*
X7Y544D01*
X362Y544D02*
X366Y544D01*
X488Y544D02*
X493Y544D01*
X2472Y544D02*
X2479Y544D01*
X0Y543D02*
X7Y543D01*
X362Y543D02*
X366Y543D01*
X488Y543D02*
X493Y543D01*
X2472Y543D02*
X2479Y543D01*
X0Y542D02*
X7Y542D01*
X362Y542D02*
X366Y542D01*
X487Y542D02*
X492Y542D01*
X2472Y542D02*
X2479Y542D01*
X0Y541D02*
X7Y541D01*
X362Y541D02*
X366Y541D01*
X486Y541D02*
X491Y541D01*
X2472Y541D02*
X2479Y541D01*
X0Y540D02*
X7Y540D01*
X362Y540D02*
X366Y540D01*
X485Y540D02*
X491Y540D01*
X2472Y540D02*
X2479Y540D01*
X0Y539D02*
X7Y539D01*
X362Y539D02*
X366Y539D01*
X485Y539D02*
X490Y539D01*
X2472Y539D02*
X2479Y539D01*
X0Y538D02*
X7Y538D01*
X362Y538D02*
X367Y538D01*
X484Y538D02*
X489Y538D01*
X2472Y538D02*
X2479Y538D01*
X0Y537D02*
X7Y537D01*
X362Y537D02*
X368Y537D01*
X483Y537D02*
X489Y537D01*
X2472Y537D02*
X2479Y537D01*
X0Y536D02*
X7Y536D01*
X363Y536D02*
X369Y536D01*
X482Y536D02*
X488Y536D01*
X2472Y536D02*
X2479Y536D01*
X0Y535D02*
X7Y535D01*
X364Y535D02*
X370Y535D01*
X481Y535D02*
X487Y535D01*
X2472Y535D02*
X2479Y535D01*
X0Y534D02*
X7Y534D01*
X365Y534D02*
X371Y534D01*
X480Y534D02*
X486Y534D01*
X2472Y534D02*
X2479Y534D01*
X0Y533D02*
X7Y533D01*
X366Y533D02*
X372Y533D01*
X479Y533D02*
X485Y533D01*
X2472Y533D02*
X2479Y533D01*
X0Y532D02*
X7Y532D01*
X367Y532D02*
X373Y532D01*
X478Y532D02*
X484Y532D01*
X2472Y532D02*
X2479Y532D01*
X0Y531D02*
X7Y531D01*
X367Y531D02*
X374Y531D01*
X477Y531D02*
X484Y531D01*
X2472Y531D02*
X2479Y531D01*
X0Y530D02*
X7Y530D01*
X368Y530D02*
X375Y530D01*
X476Y530D02*
X483Y530D01*
X2472Y530D02*
X2479Y530D01*
X0Y529D02*
X7Y529D01*
X369Y529D02*
X376Y529D01*
X475Y529D02*
X482Y529D01*
X2472Y529D02*
X2479Y529D01*
X0Y528D02*
X7Y528D01*
X275Y528D02*
X278Y528D01*
X312Y528D02*
X316Y528D01*
X370Y528D02*
X377Y528D01*
X474Y528D02*
X481Y528D01*
X2472Y528D02*
X2479Y528D01*
X0Y527D02*
X7Y527D01*
X273Y527D02*
X279Y527D01*
X310Y527D02*
X318Y527D01*
X371Y527D02*
X378Y527D01*
X473Y527D02*
X480Y527D01*
X2472Y527D02*
X2479Y527D01*
X0Y526D02*
X7Y526D01*
X271Y526D02*
X280Y526D01*
X309Y526D02*
X319Y526D01*
X372Y526D02*
X379Y526D01*
X472Y526D02*
X479Y526D01*
X2472Y526D02*
X2479Y526D01*
X0Y525D02*
X7Y525D01*
X270Y525D02*
X280Y525D01*
X307Y525D02*
X320Y525D01*
X374Y525D02*
X381Y525D01*
X470Y525D02*
X477Y525D01*
X2472Y525D02*
X2479Y525D01*
X0Y524D02*
X7Y524D01*
X270Y524D02*
X280Y524D01*
X306Y524D02*
X320Y524D01*
X375Y524D02*
X382Y524D01*
X469Y524D02*
X476Y524D01*
X2472Y524D02*
X2479Y524D01*
X0Y523D02*
X7Y523D01*
X269Y523D02*
X279Y523D01*
X305Y523D02*
X321Y523D01*
X376Y523D02*
X384Y523D01*
X468Y523D02*
X475Y523D01*
X2472Y523D02*
X2479Y523D01*
X0Y522D02*
X7Y522D01*
X269Y522D02*
X278Y522D01*
X303Y522D02*
X321Y522D01*
X377Y522D02*
X385Y522D01*
X466Y522D02*
X474Y522D01*
X2472Y522D02*
X2479Y522D01*
X0Y521D02*
X7Y521D01*
X268Y521D02*
X275Y521D01*
X302Y521D02*
X313Y521D01*
X315Y521D02*
X321Y521D01*
X378Y521D02*
X387Y521D01*
X465Y521D02*
X472Y521D01*
X2472Y521D02*
X2479Y521D01*
X0Y520D02*
X7Y520D01*
X268Y520D02*
X274Y520D01*
X301Y520D02*
X311Y520D01*
X315Y520D02*
X321Y520D01*
X380Y520D02*
X388Y520D01*
X463Y520D02*
X471Y520D01*
X2472Y520D02*
X2479Y520D01*
X0Y519D02*
X7Y519D01*
X268Y519D02*
X274Y519D01*
X300Y519D02*
X310Y519D01*
X315Y519D02*
X321Y519D01*
X381Y519D02*
X390Y519D01*
X461Y519D02*
X470Y519D01*
X2472Y519D02*
X2479Y519D01*
X0Y518D02*
X7Y518D01*
X268Y518D02*
X274Y518D01*
X298Y518D02*
X309Y518D01*
X315Y518D02*
X321Y518D01*
X383Y518D02*
X392Y518D01*
X459Y518D02*
X468Y518D01*
X2472Y518D02*
X2479Y518D01*
X0Y517D02*
X7Y517D01*
X268Y517D02*
X274Y517D01*
X297Y517D02*
X308Y517D01*
X315Y517D02*
X321Y517D01*
X384Y517D02*
X394Y517D01*
X457Y517D02*
X466Y517D01*
X2472Y517D02*
X2479Y517D01*
X0Y516D02*
X7Y516D01*
X268Y516D02*
X274Y516D01*
X296Y516D02*
X306Y516D01*
X315Y516D02*
X321Y516D01*
X386Y516D02*
X396Y516D01*
X455Y516D02*
X465Y516D01*
X2472Y516D02*
X2479Y516D01*
X0Y515D02*
X7Y515D01*
X268Y515D02*
X274Y515D01*
X294Y515D02*
X305Y515D01*
X315Y515D02*
X321Y515D01*
X388Y515D02*
X399Y515D01*
X452Y515D02*
X463Y515D01*
X2472Y515D02*
X2479Y515D01*
X0Y514D02*
X7Y514D01*
X268Y514D02*
X274Y514D01*
X293Y514D02*
X304Y514D01*
X315Y514D02*
X321Y514D01*
X390Y514D02*
X402Y514D01*
X450Y514D02*
X461Y514D01*
X2472Y514D02*
X2479Y514D01*
X0Y513D02*
X7Y513D01*
X268Y513D02*
X274Y513D01*
X292Y513D02*
X302Y513D01*
X315Y513D02*
X321Y513D01*
X392Y513D02*
X405Y513D01*
X446Y513D02*
X459Y513D01*
X2472Y513D02*
X2479Y513D01*
X0Y512D02*
X7Y512D01*
X268Y512D02*
X274Y512D01*
X291Y512D02*
X301Y512D01*
X315Y512D02*
X321Y512D01*
X394Y512D02*
X409Y512D01*
X443Y512D02*
X457Y512D01*
X658Y512D02*
X685Y512D01*
X763Y512D02*
X786Y512D01*
X810Y512D02*
X813Y512D01*
X837Y512D02*
X841Y512D01*
X859Y512D02*
X867Y512D01*
X888Y512D02*
X891Y512D01*
X923Y512D02*
X941Y512D01*
X2472Y512D02*
X2479Y512D01*
X0Y511D02*
X7Y511D01*
X268Y511D02*
X274Y511D01*
X289Y511D02*
X300Y511D01*
X315Y511D02*
X321Y511D01*
X396Y511D02*
X414Y511D01*
X437Y511D02*
X454Y511D01*
X658Y511D02*
X687Y511D01*
X761Y511D02*
X788Y511D01*
X809Y511D02*
X814Y511D01*
X837Y511D02*
X842Y511D01*
X859Y511D02*
X868Y511D01*
X887Y511D02*
X892Y511D01*
X921Y511D02*
X942Y511D01*
X2472Y511D02*
X2479Y511D01*
X0Y510D02*
X7Y510D01*
X268Y510D02*
X274Y510D01*
X288Y510D02*
X299Y510D01*
X315Y510D02*
X321Y510D01*
X399Y510D02*
X452Y510D01*
X658Y510D02*
X688Y510D01*
X760Y510D02*
X789Y510D01*
X809Y510D02*
X815Y510D01*
X836Y510D02*
X842Y510D01*
X859Y510D02*
X868Y510D01*
X886Y510D02*
X892Y510D01*
X920Y510D02*
X942Y510D01*
X2472Y510D02*
X2479Y510D01*
X0Y509D02*
X7Y509D01*
X268Y509D02*
X274Y509D01*
X287Y509D02*
X297Y509D01*
X315Y509D02*
X321Y509D01*
X402Y509D02*
X449Y509D01*
X658Y509D02*
X689Y509D01*
X759Y509D02*
X790Y509D01*
X809Y509D02*
X815Y509D01*
X836Y509D02*
X842Y509D01*
X859Y509D02*
X869Y509D01*
X886Y509D02*
X892Y509D01*
X919Y509D02*
X943Y509D01*
X2472Y509D02*
X2479Y509D01*
X0Y508D02*
X7Y508D01*
X268Y508D02*
X274Y508D01*
X285Y508D02*
X296Y508D01*
X315Y508D02*
X321Y508D01*
X405Y508D02*
X445Y508D01*
X658Y508D02*
X690Y508D01*
X759Y508D02*
X791Y508D01*
X809Y508D02*
X815Y508D01*
X836Y508D02*
X842Y508D01*
X859Y508D02*
X869Y508D01*
X886Y508D02*
X892Y508D01*
X918Y508D02*
X942Y508D01*
X2472Y508D02*
X2479Y508D01*
X0Y507D02*
X7Y507D01*
X268Y507D02*
X274Y507D01*
X284Y507D02*
X295Y507D01*
X315Y507D02*
X321Y507D01*
X410Y507D02*
X441Y507D01*
X658Y507D02*
X690Y507D01*
X759Y507D02*
X791Y507D01*
X809Y507D02*
X815Y507D01*
X836Y507D02*
X842Y507D01*
X859Y507D02*
X870Y507D01*
X886Y507D02*
X892Y507D01*
X918Y507D02*
X942Y507D01*
X2472Y507D02*
X2479Y507D01*
X0Y506D02*
X7Y506D01*
X268Y506D02*
X274Y506D01*
X283Y506D02*
X293Y506D01*
X315Y506D02*
X321Y506D01*
X416Y506D02*
X435Y506D01*
X658Y506D02*
X691Y506D01*
X758Y506D02*
X792Y506D01*
X809Y506D02*
X815Y506D01*
X836Y506D02*
X842Y506D01*
X859Y506D02*
X870Y506D01*
X886Y506D02*
X892Y506D01*
X917Y506D02*
X940Y506D01*
X2472Y506D02*
X2479Y506D01*
X0Y505D02*
X7Y505D01*
X268Y505D02*
X274Y505D01*
X282Y505D02*
X292Y505D01*
X315Y505D02*
X321Y505D01*
X658Y505D02*
X664Y505D01*
X684Y505D02*
X691Y505D01*
X758Y505D02*
X764Y505D01*
X785Y505D02*
X792Y505D01*
X809Y505D02*
X815Y505D01*
X836Y505D02*
X842Y505D01*
X859Y505D02*
X871Y505D01*
X886Y505D02*
X892Y505D01*
X917Y505D02*
X924Y505D01*
X2472Y505D02*
X2479Y505D01*
X0Y504D02*
X7Y504D01*
X268Y504D02*
X274Y504D01*
X280Y504D02*
X291Y504D01*
X315Y504D02*
X321Y504D01*
X658Y504D02*
X664Y504D01*
X685Y504D02*
X691Y504D01*
X759Y504D02*
X765Y504D01*
X786Y504D02*
X792Y504D01*
X809Y504D02*
X815Y504D01*
X836Y504D02*
X842Y504D01*
X859Y504D02*
X871Y504D01*
X886Y504D02*
X892Y504D01*
X916Y504D02*
X923Y504D01*
X2472Y504D02*
X2479Y504D01*
X0Y503D02*
X7Y503D01*
X268Y503D02*
X274Y503D01*
X279Y503D02*
X290Y503D01*
X315Y503D02*
X321Y503D01*
X658Y503D02*
X664Y503D01*
X685Y503D02*
X692Y503D01*
X759Y503D02*
X766Y503D01*
X786Y503D02*
X792Y503D01*
X809Y503D02*
X816Y503D01*
X835Y503D02*
X842Y503D01*
X859Y503D02*
X871Y503D01*
X886Y503D02*
X892Y503D01*
X916Y503D02*
X923Y503D01*
X2472Y503D02*
X2479Y503D01*
X0Y502D02*
X7Y502D01*
X268Y502D02*
X274Y502D01*
X278Y502D02*
X288Y502D01*
X315Y502D02*
X321Y502D01*
X658Y502D02*
X664Y502D01*
X686Y502D02*
X692Y502D01*
X759Y502D02*
X767Y502D01*
X786Y502D02*
X792Y502D01*
X809Y502D02*
X817Y502D01*
X834Y502D02*
X842Y502D01*
X859Y502D02*
X872Y502D01*
X886Y502D02*
X892Y502D01*
X915Y502D02*
X922Y502D01*
X2472Y502D02*
X2479Y502D01*
X0Y501D02*
X7Y501D01*
X268Y501D02*
X287Y501D01*
X313Y501D02*
X321Y501D01*
X658Y501D02*
X664Y501D01*
X686Y501D02*
X692Y501D01*
X760Y501D02*
X767Y501D01*
X787Y501D02*
X791Y501D01*
X810Y501D02*
X818Y501D01*
X833Y501D02*
X841Y501D01*
X859Y501D02*
X872Y501D01*
X886Y501D02*
X892Y501D01*
X915Y501D02*
X922Y501D01*
X2472Y501D02*
X2479Y501D01*
X0Y500D02*
X7Y500D01*
X268Y500D02*
X286Y500D01*
X311Y500D02*
X321Y500D01*
X658Y500D02*
X664Y500D01*
X686Y500D02*
X692Y500D01*
X760Y500D02*
X768Y500D01*
X810Y500D02*
X818Y500D01*
X832Y500D02*
X840Y500D01*
X859Y500D02*
X873Y500D01*
X886Y500D02*
X892Y500D01*
X914Y500D02*
X921Y500D01*
X2472Y500D02*
X2479Y500D01*
X0Y499D02*
X7Y499D01*
X269Y499D02*
X284Y499D01*
X310Y499D02*
X320Y499D01*
X658Y499D02*
X664Y499D01*
X686Y499D02*
X692Y499D01*
X761Y499D02*
X769Y499D01*
X811Y499D02*
X819Y499D01*
X832Y499D02*
X840Y499D01*
X859Y499D02*
X873Y499D01*
X886Y499D02*
X892Y499D01*
X914Y499D02*
X921Y499D01*
X2472Y499D02*
X2479Y499D01*
X0Y498D02*
X7Y498D01*
X269Y498D02*
X283Y498D01*
X309Y498D02*
X320Y498D01*
X658Y498D02*
X664Y498D01*
X685Y498D02*
X692Y498D01*
X762Y498D02*
X770Y498D01*
X812Y498D02*
X820Y498D01*
X831Y498D02*
X839Y498D01*
X859Y498D02*
X865Y498D01*
X867Y498D02*
X874Y498D01*
X886Y498D02*
X892Y498D01*
X913Y498D02*
X920Y498D01*
X2472Y498D02*
X2479Y498D01*
X0Y497D02*
X7Y497D01*
X270Y497D02*
X282Y497D01*
X309Y497D02*
X319Y497D01*
X658Y497D02*
X664Y497D01*
X685Y497D02*
X691Y497D01*
X762Y497D02*
X770Y497D01*
X813Y497D02*
X821Y497D01*
X830Y497D02*
X838Y497D01*
X859Y497D02*
X865Y497D01*
X867Y497D02*
X874Y497D01*
X886Y497D02*
X892Y497D01*
X913Y497D02*
X920Y497D01*
X2472Y497D02*
X2479Y497D01*
X0Y496D02*
X7Y496D01*
X271Y496D02*
X281Y496D01*
X310Y496D02*
X318Y496D01*
X658Y496D02*
X664Y496D01*
X684Y496D02*
X691Y496D01*
X763Y496D02*
X771Y496D01*
X813Y496D02*
X821Y496D01*
X829Y496D02*
X837Y496D01*
X859Y496D02*
X865Y496D01*
X868Y496D02*
X874Y496D01*
X886Y496D02*
X892Y496D01*
X912Y496D02*
X919Y496D01*
X2472Y496D02*
X2479Y496D01*
X0Y495D02*
X7Y495D01*
X272Y495D02*
X279Y495D01*
X310Y495D02*
X316Y495D01*
X658Y495D02*
X691Y495D01*
X764Y495D02*
X772Y495D01*
X814Y495D02*
X822Y495D01*
X829Y495D02*
X836Y495D01*
X859Y495D02*
X865Y495D01*
X868Y495D02*
X875Y495D01*
X886Y495D02*
X892Y495D01*
X912Y495D02*
X919Y495D01*
X2472Y495D02*
X2479Y495D01*
X0Y494D02*
X7Y494D01*
X274Y494D02*
X276Y494D01*
X312Y494D02*
X313Y494D01*
X658Y494D02*
X690Y494D01*
X765Y494D02*
X773Y494D01*
X815Y494D02*
X823Y494D01*
X828Y494D02*
X836Y494D01*
X859Y494D02*
X865Y494D01*
X869Y494D02*
X875Y494D01*
X886Y494D02*
X892Y494D01*
X911Y494D02*
X918Y494D01*
X2472Y494D02*
X2479Y494D01*
X0Y493D02*
X7Y493D01*
X658Y493D02*
X690Y493D01*
X766Y493D02*
X774Y493D01*
X816Y493D02*
X824Y493D01*
X827Y493D02*
X835Y493D01*
X859Y493D02*
X865Y493D01*
X869Y493D02*
X876Y493D01*
X886Y493D02*
X892Y493D01*
X911Y493D02*
X918Y493D01*
X2472Y493D02*
X2479Y493D01*
X0Y492D02*
X7Y492D01*
X658Y492D02*
X689Y492D01*
X766Y492D02*
X774Y492D01*
X817Y492D02*
X834Y492D01*
X859Y492D02*
X865Y492D01*
X870Y492D02*
X876Y492D01*
X886Y492D02*
X892Y492D01*
X910Y492D02*
X917Y492D01*
X2472Y492D02*
X2479Y492D01*
X0Y491D02*
X7Y491D01*
X658Y491D02*
X688Y491D01*
X767Y491D02*
X775Y491D01*
X817Y491D02*
X833Y491D01*
X859Y491D02*
X865Y491D01*
X870Y491D02*
X877Y491D01*
X886Y491D02*
X892Y491D01*
X910Y491D02*
X917Y491D01*
X2472Y491D02*
X2479Y491D01*
X0Y490D02*
X7Y490D01*
X658Y490D02*
X687Y490D01*
X768Y490D02*
X776Y490D01*
X818Y490D02*
X833Y490D01*
X859Y490D02*
X865Y490D01*
X870Y490D02*
X877Y490D01*
X886Y490D02*
X892Y490D01*
X910Y490D02*
X916Y490D01*
X2472Y490D02*
X2479Y490D01*
X0Y489D02*
X7Y489D01*
X658Y489D02*
X685Y489D01*
X769Y489D02*
X777Y489D01*
X819Y489D02*
X832Y489D01*
X859Y489D02*
X865Y489D01*
X871Y489D02*
X878Y489D01*
X886Y489D02*
X892Y489D01*
X909Y489D02*
X916Y489D01*
X2472Y489D02*
X2479Y489D01*
X0Y488D02*
X7Y488D01*
X658Y488D02*
X664Y488D01*
X670Y488D02*
X677Y488D01*
X769Y488D02*
X777Y488D01*
X820Y488D02*
X831Y488D01*
X859Y488D02*
X865Y488D01*
X871Y488D02*
X878Y488D01*
X886Y488D02*
X892Y488D01*
X909Y488D02*
X915Y488D01*
X2472Y488D02*
X2479Y488D01*
X0Y487D02*
X7Y487D01*
X658Y487D02*
X664Y487D01*
X671Y487D02*
X678Y487D01*
X770Y487D02*
X778Y487D01*
X821Y487D02*
X830Y487D01*
X859Y487D02*
X865Y487D01*
X872Y487D02*
X878Y487D01*
X886Y487D02*
X892Y487D01*
X909Y487D02*
X915Y487D01*
X2472Y487D02*
X2479Y487D01*
X0Y486D02*
X7Y486D01*
X658Y486D02*
X664Y486D01*
X671Y486D02*
X678Y486D01*
X771Y486D02*
X779Y486D01*
X821Y486D02*
X829Y486D01*
X859Y486D02*
X865Y486D01*
X872Y486D02*
X879Y486D01*
X886Y486D02*
X892Y486D01*
X909Y486D02*
X915Y486D01*
X2472Y486D02*
X2479Y486D01*
X0Y485D02*
X7Y485D01*
X658Y485D02*
X664Y485D01*
X672Y485D02*
X679Y485D01*
X772Y485D02*
X780Y485D01*
X822Y485D02*
X829Y485D01*
X859Y485D02*
X865Y485D01*
X873Y485D02*
X879Y485D01*
X886Y485D02*
X892Y485D01*
X909Y485D02*
X915Y485D01*
X2472Y485D02*
X2479Y485D01*
X0Y484D02*
X7Y484D01*
X658Y484D02*
X664Y484D01*
X672Y484D02*
X679Y484D01*
X773Y484D02*
X781Y484D01*
X822Y484D02*
X828Y484D01*
X859Y484D02*
X865Y484D01*
X873Y484D02*
X880Y484D01*
X886Y484D02*
X892Y484D01*
X909Y484D02*
X915Y484D01*
X2472Y484D02*
X2479Y484D01*
X0Y483D02*
X7Y483D01*
X658Y483D02*
X664Y483D01*
X673Y483D02*
X680Y483D01*
X773Y483D02*
X781Y483D01*
X822Y483D02*
X828Y483D01*
X859Y483D02*
X865Y483D01*
X873Y483D02*
X880Y483D01*
X886Y483D02*
X892Y483D01*
X909Y483D02*
X916Y483D01*
X2472Y483D02*
X2479Y483D01*
X0Y482D02*
X7Y482D01*
X658Y482D02*
X664Y482D01*
X673Y482D02*
X681Y482D01*
X774Y482D02*
X782Y482D01*
X822Y482D02*
X828Y482D01*
X859Y482D02*
X865Y482D01*
X874Y482D02*
X881Y482D01*
X886Y482D02*
X892Y482D01*
X910Y482D02*
X916Y482D01*
X2472Y482D02*
X2479Y482D01*
X0Y481D02*
X7Y481D01*
X658Y481D02*
X664Y481D01*
X674Y481D02*
X681Y481D01*
X775Y481D02*
X783Y481D01*
X822Y481D02*
X828Y481D01*
X859Y481D02*
X865Y481D01*
X874Y481D02*
X881Y481D01*
X886Y481D02*
X892Y481D01*
X910Y481D02*
X916Y481D01*
X2472Y481D02*
X2479Y481D01*
X0Y480D02*
X7Y480D01*
X658Y480D02*
X664Y480D01*
X675Y480D02*
X682Y480D01*
X776Y480D02*
X784Y480D01*
X822Y480D02*
X828Y480D01*
X859Y480D02*
X865Y480D01*
X875Y480D02*
X881Y480D01*
X886Y480D02*
X892Y480D01*
X910Y480D02*
X917Y480D01*
X2472Y480D02*
X2479Y480D01*
X0Y479D02*
X7Y479D01*
X658Y479D02*
X664Y479D01*
X675Y479D02*
X682Y479D01*
X776Y479D02*
X784Y479D01*
X822Y479D02*
X828Y479D01*
X859Y479D02*
X865Y479D01*
X875Y479D02*
X882Y479D01*
X886Y479D02*
X892Y479D01*
X911Y479D02*
X917Y479D01*
X2472Y479D02*
X2479Y479D01*
X0Y478D02*
X7Y478D01*
X658Y478D02*
X664Y478D01*
X676Y478D02*
X683Y478D01*
X777Y478D02*
X785Y478D01*
X822Y478D02*
X828Y478D01*
X859Y478D02*
X865Y478D01*
X876Y478D02*
X882Y478D01*
X886Y478D02*
X892Y478D01*
X911Y478D02*
X918Y478D01*
X2472Y478D02*
X2479Y478D01*
X0Y477D02*
X7Y477D01*
X658Y477D02*
X664Y477D01*
X676Y477D02*
X684Y477D01*
X778Y477D02*
X786Y477D01*
X822Y477D02*
X828Y477D01*
X859Y477D02*
X865Y477D01*
X876Y477D02*
X883Y477D01*
X886Y477D02*
X892Y477D01*
X912Y477D02*
X918Y477D01*
X2472Y477D02*
X2479Y477D01*
X0Y476D02*
X7Y476D01*
X658Y476D02*
X664Y476D01*
X677Y476D02*
X684Y476D01*
X779Y476D02*
X787Y476D01*
X822Y476D02*
X828Y476D01*
X859Y476D02*
X865Y476D01*
X877Y476D02*
X883Y476D01*
X886Y476D02*
X892Y476D01*
X912Y476D02*
X919Y476D01*
X2472Y476D02*
X2479Y476D01*
X0Y475D02*
X7Y475D01*
X658Y475D02*
X664Y475D01*
X678Y475D02*
X685Y475D01*
X780Y475D02*
X788Y475D01*
X822Y475D02*
X828Y475D01*
X859Y475D02*
X865Y475D01*
X877Y475D02*
X884Y475D01*
X886Y475D02*
X892Y475D01*
X913Y475D02*
X919Y475D01*
X2472Y475D02*
X2479Y475D01*
X0Y474D02*
X7Y474D01*
X658Y474D02*
X664Y474D01*
X678Y474D02*
X685Y474D01*
X780Y474D02*
X788Y474D01*
X822Y474D02*
X828Y474D01*
X859Y474D02*
X865Y474D01*
X877Y474D02*
X884Y474D01*
X886Y474D02*
X892Y474D01*
X913Y474D02*
X920Y474D01*
X2472Y474D02*
X2479Y474D01*
X0Y473D02*
X7Y473D01*
X658Y473D02*
X664Y473D01*
X679Y473D02*
X686Y473D01*
X781Y473D02*
X789Y473D01*
X822Y473D02*
X828Y473D01*
X859Y473D02*
X865Y473D01*
X878Y473D02*
X892Y473D01*
X914Y473D02*
X920Y473D01*
X2472Y473D02*
X2479Y473D01*
X0Y472D02*
X7Y472D01*
X658Y472D02*
X664Y472D01*
X679Y472D02*
X686Y472D01*
X782Y472D02*
X790Y472D01*
X822Y472D02*
X828Y472D01*
X859Y472D02*
X865Y472D01*
X878Y472D02*
X892Y472D01*
X914Y472D02*
X921Y472D01*
X2472Y472D02*
X2479Y472D01*
X0Y471D02*
X7Y471D01*
X658Y471D02*
X664Y471D01*
X680Y471D02*
X687Y471D01*
X760Y471D02*
X763Y471D01*
X783Y471D02*
X791Y471D01*
X822Y471D02*
X828Y471D01*
X859Y471D02*
X865Y471D01*
X879Y471D02*
X892Y471D01*
X915Y471D02*
X921Y471D01*
X2472Y471D02*
X2479Y471D01*
X0Y470D02*
X7Y470D01*
X658Y470D02*
X664Y470D01*
X680Y470D02*
X688Y470D01*
X759Y470D02*
X764Y470D01*
X783Y470D02*
X791Y470D01*
X822Y470D02*
X828Y470D01*
X859Y470D02*
X865Y470D01*
X879Y470D02*
X892Y470D01*
X915Y470D02*
X922Y470D01*
X2472Y470D02*
X2479Y470D01*
X0Y469D02*
X7Y469D01*
X658Y469D02*
X664Y469D01*
X681Y469D02*
X688Y469D01*
X759Y469D02*
X764Y469D01*
X784Y469D02*
X792Y469D01*
X822Y469D02*
X828Y469D01*
X859Y469D02*
X865Y469D01*
X880Y469D02*
X892Y469D01*
X916Y469D02*
X922Y469D01*
X2472Y469D02*
X2479Y469D01*
X0Y468D02*
X7Y468D01*
X658Y468D02*
X664Y468D01*
X682Y468D02*
X689Y468D01*
X758Y468D02*
X764Y468D01*
X785Y468D02*
X792Y468D01*
X822Y468D02*
X828Y468D01*
X859Y468D02*
X865Y468D01*
X880Y468D02*
X892Y468D01*
X916Y468D02*
X923Y468D01*
X2472Y468D02*
X2479Y468D01*
X0Y467D02*
X7Y467D01*
X658Y467D02*
X664Y467D01*
X682Y467D02*
X689Y467D01*
X759Y467D02*
X765Y467D01*
X786Y467D02*
X792Y467D01*
X822Y467D02*
X828Y467D01*
X859Y467D02*
X865Y467D01*
X880Y467D02*
X892Y467D01*
X917Y467D02*
X924Y467D01*
X2472Y467D02*
X2479Y467D01*
X0Y466D02*
X7Y466D01*
X658Y466D02*
X664Y466D01*
X683Y466D02*
X690Y466D01*
X759Y466D02*
X766Y466D01*
X786Y466D02*
X792Y466D01*
X822Y466D02*
X828Y466D01*
X859Y466D02*
X865Y466D01*
X881Y466D02*
X892Y466D01*
X917Y466D02*
X925Y466D01*
X2472Y466D02*
X2479Y466D01*
X0Y465D02*
X7Y465D01*
X658Y465D02*
X664Y465D01*
X683Y465D02*
X691Y465D01*
X759Y465D02*
X792Y465D01*
X822Y465D02*
X828Y465D01*
X859Y465D02*
X865Y465D01*
X881Y465D02*
X892Y465D01*
X918Y465D02*
X941Y465D01*
X2472Y465D02*
X2479Y465D01*
X0Y464D02*
X7Y464D01*
X658Y464D02*
X664Y464D01*
X684Y464D02*
X691Y464D01*
X759Y464D02*
X791Y464D01*
X822Y464D02*
X828Y464D01*
X859Y464D02*
X865Y464D01*
X882Y464D02*
X892Y464D01*
X918Y464D02*
X942Y464D01*
X2472Y464D02*
X2479Y464D01*
X0Y463D02*
X7Y463D01*
X658Y463D02*
X664Y463D01*
X685Y463D02*
X691Y463D01*
X760Y463D02*
X791Y463D01*
X822Y463D02*
X828Y463D01*
X859Y463D02*
X865Y463D01*
X882Y463D02*
X892Y463D01*
X919Y463D02*
X942Y463D01*
X2472Y463D02*
X2479Y463D01*
X0Y462D02*
X7Y462D01*
X658Y462D02*
X664Y462D01*
X685Y462D02*
X692Y462D01*
X761Y462D02*
X790Y462D01*
X822Y462D02*
X828Y462D01*
X859Y462D02*
X865Y462D01*
X883Y462D02*
X892Y462D01*
X920Y462D02*
X943Y462D01*
X2472Y462D02*
X2479Y462D01*
X0Y461D02*
X7Y461D01*
X658Y461D02*
X664Y461D01*
X686Y461D02*
X691Y461D01*
X762Y461D02*
X790Y461D01*
X823Y461D02*
X828Y461D01*
X859Y461D02*
X865Y461D01*
X883Y461D02*
X892Y461D01*
X921Y461D02*
X942Y461D01*
X2472Y461D02*
X2479Y461D01*
X0Y460D02*
X7Y460D01*
X659Y460D02*
X663Y460D01*
X686Y460D02*
X691Y460D01*
X763Y460D02*
X788Y460D01*
X823Y460D02*
X827Y460D01*
X860Y460D02*
X864Y460D01*
X884Y460D02*
X892Y460D01*
X922Y460D02*
X942Y460D01*
X2472Y460D02*
X2479Y460D01*
X0Y459D02*
X7Y459D01*
X660Y459D02*
X662Y459D01*
X688Y459D02*
X689Y459D01*
X766Y459D02*
X786Y459D01*
X825Y459D02*
X826Y459D01*
X861Y459D02*
X862Y459D01*
X884Y459D02*
X892Y459D01*
X925Y459D02*
X940Y459D01*
X2472Y459D02*
X2479Y459D01*
X0Y458D02*
X7Y458D01*
X710Y458D02*
X740Y458D01*
X2472Y458D02*
X2479Y458D01*
X0Y457D02*
X7Y457D01*
X709Y457D02*
X741Y457D01*
X2472Y457D02*
X2479Y457D01*
X0Y456D02*
X7Y456D01*
X708Y456D02*
X742Y456D01*
X2472Y456D02*
X2479Y456D01*
X0Y455D02*
X7Y455D01*
X708Y455D02*
X742Y455D01*
X2472Y455D02*
X2479Y455D01*
X0Y454D02*
X7Y454D01*
X708Y454D02*
X742Y454D01*
X2472Y454D02*
X2479Y454D01*
X0Y453D02*
X7Y453D01*
X709Y453D02*
X741Y453D01*
X2472Y453D02*
X2479Y453D01*
X0Y452D02*
X7Y452D01*
X711Y452D02*
X739Y452D01*
X2472Y452D02*
X2479Y452D01*
X0Y451D02*
X7Y451D01*
X2472Y451D02*
X2479Y451D01*
X0Y450D02*
X7Y450D01*
X2472Y450D02*
X2479Y450D01*
X0Y449D02*
X7Y449D01*
X2472Y449D02*
X2479Y449D01*
X0Y448D02*
X7Y448D01*
X2472Y448D02*
X2479Y448D01*
X0Y447D02*
X7Y447D01*
X2472Y447D02*
X2479Y447D01*
X0Y446D02*
X7Y446D01*
X2472Y446D02*
X2479Y446D01*
X0Y445D02*
X7Y445D01*
X2472Y445D02*
X2479Y445D01*
X0Y444D02*
X7Y444D01*
X2472Y444D02*
X2479Y444D01*
X0Y443D02*
X7Y443D01*
X2472Y443D02*
X2479Y443D01*
X0Y442D02*
X7Y442D01*
X2472Y442D02*
X2479Y442D01*
X0Y441D02*
X7Y441D01*
X2472Y441D02*
X2479Y441D01*
X0Y440D02*
X7Y440D01*
X2472Y440D02*
X2479Y440D01*
X0Y439D02*
X7Y439D01*
X2472Y439D02*
X2479Y439D01*
X0Y438D02*
X7Y438D01*
X2472Y438D02*
X2479Y438D01*
X0Y437D02*
X7Y437D01*
X2472Y437D02*
X2479Y437D01*
X0Y436D02*
X7Y436D01*
X2472Y436D02*
X2479Y436D01*
X0Y435D02*
X7Y435D01*
X2472Y435D02*
X2479Y435D01*
X0Y434D02*
X7Y434D01*
X2472Y434D02*
X2479Y434D01*
X0Y433D02*
X7Y433D01*
X2472Y433D02*
X2479Y433D01*
X0Y432D02*
X7Y432D01*
X2472Y432D02*
X2479Y432D01*
X0Y431D02*
X7Y431D01*
X2472Y431D02*
X2479Y431D01*
X0Y430D02*
X7Y430D01*
X2472Y430D02*
X2479Y430D01*
X0Y429D02*
X7Y429D01*
X2472Y429D02*
X2479Y429D01*
X0Y428D02*
X7Y428D01*
X2472Y428D02*
X2479Y428D01*
X0Y427D02*
X7Y427D01*
X2472Y427D02*
X2479Y427D01*
X0Y426D02*
X7Y426D01*
X2472Y426D02*
X2479Y426D01*
X0Y425D02*
X7Y425D01*
X2472Y425D02*
X2479Y425D01*
X0Y424D02*
X7Y424D01*
X2472Y424D02*
X2479Y424D01*
X0Y423D02*
X7Y423D01*
X2472Y423D02*
X2479Y423D01*
X0Y422D02*
X7Y422D01*
X2472Y422D02*
X2479Y422D01*
X0Y421D02*
X7Y421D01*
X2472Y421D02*
X2479Y421D01*
X0Y420D02*
X7Y420D01*
X2472Y420D02*
X2479Y420D01*
X0Y419D02*
X7Y419D01*
X2472Y419D02*
X2479Y419D01*
X0Y418D02*
X7Y418D01*
X2472Y418D02*
X2479Y418D01*
X0Y417D02*
X7Y417D01*
X2472Y417D02*
X2479Y417D01*
X0Y416D02*
X7Y416D01*
X2472Y416D02*
X2479Y416D01*
X0Y415D02*
X7Y415D01*
X2472Y415D02*
X2479Y415D01*
X0Y414D02*
X7Y414D01*
X2472Y414D02*
X2479Y414D01*
X0Y413D02*
X7Y413D01*
X2472Y413D02*
X2479Y413D01*
X0Y412D02*
X7Y412D01*
X2472Y412D02*
X2479Y412D01*
X0Y411D02*
X7Y411D01*
X2472Y411D02*
X2479Y411D01*
X0Y410D02*
X7Y410D01*
X2472Y410D02*
X2479Y410D01*
X0Y409D02*
X7Y409D01*
X2472Y409D02*
X2479Y409D01*
X0Y408D02*
X7Y408D01*
X2472Y408D02*
X2479Y408D01*
X0Y407D02*
X7Y407D01*
X2472Y407D02*
X2479Y407D01*
X0Y406D02*
X7Y406D01*
X2472Y406D02*
X2479Y406D01*
X0Y405D02*
X7Y405D01*
X2472Y405D02*
X2479Y405D01*
X0Y404D02*
X7Y404D01*
X2472Y404D02*
X2479Y404D01*
X0Y403D02*
X7Y403D01*
X2472Y403D02*
X2479Y403D01*
X0Y402D02*
X7Y402D01*
X2472Y402D02*
X2479Y402D01*
X0Y401D02*
X7Y401D01*
X2472Y401D02*
X2479Y401D01*
X0Y400D02*
X7Y400D01*
X2472Y400D02*
X2479Y400D01*
X0Y399D02*
X7Y399D01*
X2472Y399D02*
X2479Y399D01*
X0Y398D02*
X7Y398D01*
X2472Y398D02*
X2479Y398D01*
X0Y397D02*
X7Y397D01*
X2472Y397D02*
X2479Y397D01*
X0Y396D02*
X7Y396D01*
X2472Y396D02*
X2479Y396D01*
X0Y395D02*
X7Y395D01*
X2472Y395D02*
X2479Y395D01*
X0Y394D02*
X7Y394D01*
X2472Y394D02*
X2479Y394D01*
X0Y393D02*
X7Y393D01*
X2472Y393D02*
X2479Y393D01*
X0Y392D02*
X7Y392D01*
X2472Y392D02*
X2479Y392D01*
X0Y391D02*
X7Y391D01*
X2472Y391D02*
X2479Y391D01*
X0Y390D02*
X7Y390D01*
X2472Y390D02*
X2479Y390D01*
X0Y389D02*
X7Y389D01*
X2472Y389D02*
X2479Y389D01*
X0Y388D02*
X7Y388D01*
X2472Y388D02*
X2479Y388D01*
X0Y387D02*
X7Y387D01*
X2472Y387D02*
X2479Y387D01*
X0Y386D02*
X7Y386D01*
X2472Y386D02*
X2479Y386D01*
X0Y385D02*
X7Y385D01*
X2472Y385D02*
X2479Y385D01*
X0Y384D02*
X7Y384D01*
X2472Y384D02*
X2479Y384D01*
X0Y383D02*
X7Y383D01*
X2472Y383D02*
X2479Y383D01*
X0Y382D02*
X7Y382D01*
X2472Y382D02*
X2479Y382D01*
X0Y381D02*
X7Y381D01*
X2472Y381D02*
X2479Y381D01*
X0Y380D02*
X7Y380D01*
X2472Y380D02*
X2479Y380D01*
X0Y379D02*
X7Y379D01*
X2472Y379D02*
X2479Y379D01*
X0Y378D02*
X7Y378D01*
X2472Y378D02*
X2479Y378D01*
X0Y377D02*
X7Y377D01*
X2472Y377D02*
X2479Y377D01*
X0Y376D02*
X7Y376D01*
X2472Y376D02*
X2479Y376D01*
X0Y375D02*
X7Y375D01*
X2472Y375D02*
X2479Y375D01*
X0Y374D02*
X7Y374D01*
X2472Y374D02*
X2479Y374D01*
X0Y373D02*
X7Y373D01*
X2472Y373D02*
X2479Y373D01*
X0Y372D02*
X7Y372D01*
X2472Y372D02*
X2479Y372D01*
X0Y371D02*
X7Y371D01*
X2472Y371D02*
X2479Y371D01*
X0Y370D02*
X7Y370D01*
X2472Y370D02*
X2479Y370D01*
X0Y369D02*
X7Y369D01*
X2472Y369D02*
X2479Y369D01*
X0Y368D02*
X7Y368D01*
X2472Y368D02*
X2479Y368D01*
X0Y367D02*
X7Y367D01*
X2472Y367D02*
X2479Y367D01*
X0Y366D02*
X7Y366D01*
X2472Y366D02*
X2479Y366D01*
X0Y365D02*
X7Y365D01*
X2472Y365D02*
X2479Y365D01*
X0Y364D02*
X7Y364D01*
X2472Y364D02*
X2479Y364D01*
X0Y363D02*
X7Y363D01*
X2472Y363D02*
X2479Y363D01*
X0Y362D02*
X7Y362D01*
X2472Y362D02*
X2479Y362D01*
X0Y361D02*
X7Y361D01*
X2472Y361D02*
X2479Y361D01*
X0Y360D02*
X7Y360D01*
X2472Y360D02*
X2479Y360D01*
X0Y359D02*
X7Y359D01*
X2472Y359D02*
X2479Y359D01*
X0Y358D02*
X7Y358D01*
X2472Y358D02*
X2479Y358D01*
X0Y357D02*
X7Y357D01*
X2472Y357D02*
X2479Y357D01*
X0Y356D02*
X7Y356D01*
X2472Y356D02*
X2479Y356D01*
X0Y355D02*
X7Y355D01*
X2472Y355D02*
X2479Y355D01*
X0Y354D02*
X7Y354D01*
X2472Y354D02*
X2479Y354D01*
X0Y353D02*
X7Y353D01*
X2472Y353D02*
X2479Y353D01*
X0Y352D02*
X7Y352D01*
X2472Y352D02*
X2479Y352D01*
X0Y351D02*
X7Y351D01*
X2472Y351D02*
X2479Y351D01*
X0Y350D02*
X7Y350D01*
X2472Y350D02*
X2479Y350D01*
X0Y349D02*
X7Y349D01*
X2472Y349D02*
X2479Y349D01*
X0Y348D02*
X7Y348D01*
X2472Y348D02*
X2479Y348D01*
X0Y347D02*
X7Y347D01*
X2472Y347D02*
X2479Y347D01*
X0Y346D02*
X7Y346D01*
X2472Y346D02*
X2479Y346D01*
X0Y345D02*
X7Y345D01*
X2472Y345D02*
X2479Y345D01*
X0Y344D02*
X7Y344D01*
X2472Y344D02*
X2479Y344D01*
X0Y343D02*
X7Y343D01*
X2472Y343D02*
X2479Y343D01*
X0Y342D02*
X7Y342D01*
X2472Y342D02*
X2479Y342D01*
X0Y341D02*
X7Y341D01*
X2472Y341D02*
X2479Y341D01*
X0Y340D02*
X7Y340D01*
X2472Y340D02*
X2479Y340D01*
X0Y339D02*
X7Y339D01*
X2472Y339D02*
X2479Y339D01*
X0Y338D02*
X7Y338D01*
X2472Y338D02*
X2479Y338D01*
X0Y337D02*
X7Y337D01*
X2472Y337D02*
X2479Y337D01*
X0Y336D02*
X7Y336D01*
X2472Y336D02*
X2479Y336D01*
X0Y335D02*
X7Y335D01*
X2472Y335D02*
X2479Y335D01*
X0Y334D02*
X7Y334D01*
X2472Y334D02*
X2479Y334D01*
X0Y333D02*
X7Y333D01*
X2472Y333D02*
X2479Y333D01*
X0Y332D02*
X7Y332D01*
X2472Y332D02*
X2479Y332D01*
X0Y331D02*
X7Y331D01*
X2472Y331D02*
X2479Y331D01*
X0Y330D02*
X7Y330D01*
X2472Y330D02*
X2479Y330D01*
X0Y329D02*
X7Y329D01*
X2472Y329D02*
X2479Y329D01*
X0Y328D02*
X7Y328D01*
X2472Y328D02*
X2479Y328D01*
X0Y327D02*
X7Y327D01*
X2472Y327D02*
X2479Y327D01*
X0Y326D02*
X7Y326D01*
X2472Y326D02*
X2479Y326D01*
X0Y325D02*
X7Y325D01*
X2472Y325D02*
X2479Y325D01*
X0Y324D02*
X7Y324D01*
X2472Y324D02*
X2479Y324D01*
X0Y323D02*
X7Y323D01*
X2472Y323D02*
X2479Y323D01*
X0Y322D02*
X7Y322D01*
X2472Y322D02*
X2479Y322D01*
X0Y321D02*
X7Y321D01*
X2472Y321D02*
X2479Y321D01*
X0Y320D02*
X7Y320D01*
X2472Y320D02*
X2479Y320D01*
X0Y319D02*
X7Y319D01*
X2472Y319D02*
X2479Y319D01*
X0Y318D02*
X7Y318D01*
X2472Y318D02*
X2479Y318D01*
X0Y317D02*
X7Y317D01*
X2472Y317D02*
X2479Y317D01*
X0Y316D02*
X7Y316D01*
X2472Y316D02*
X2479Y316D01*
X0Y315D02*
X7Y315D01*
X2472Y315D02*
X2479Y315D01*
X0Y314D02*
X7Y314D01*
X2472Y314D02*
X2479Y314D01*
X0Y313D02*
X7Y313D01*
X2472Y313D02*
X2479Y313D01*
X0Y312D02*
X7Y312D01*
X2472Y312D02*
X2479Y312D01*
X0Y311D02*
X7Y311D01*
X2472Y311D02*
X2479Y311D01*
X0Y310D02*
X7Y310D01*
X2472Y310D02*
X2479Y310D01*
X0Y309D02*
X7Y309D01*
X2472Y309D02*
X2479Y309D01*
X0Y308D02*
X7Y308D01*
X2472Y308D02*
X2479Y308D01*
X0Y307D02*
X7Y307D01*
X2472Y307D02*
X2479Y307D01*
X0Y306D02*
X7Y306D01*
X2472Y306D02*
X2479Y306D01*
X0Y305D02*
X7Y305D01*
X2472Y305D02*
X2479Y305D01*
X0Y304D02*
X7Y304D01*
X2472Y304D02*
X2479Y304D01*
X0Y303D02*
X7Y303D01*
X2472Y303D02*
X2479Y303D01*
X0Y302D02*
X7Y302D01*
X2472Y302D02*
X2479Y302D01*
X0Y301D02*
X7Y301D01*
X2472Y301D02*
X2479Y301D01*
X0Y300D02*
X7Y300D01*
X2472Y300D02*
X2479Y300D01*
X0Y299D02*
X7Y299D01*
X2472Y299D02*
X2479Y299D01*
X0Y298D02*
X7Y298D01*
X2472Y298D02*
X2479Y298D01*
X0Y297D02*
X7Y297D01*
X2472Y297D02*
X2479Y297D01*
X0Y296D02*
X7Y296D01*
X2472Y296D02*
X2479Y296D01*
X0Y295D02*
X7Y295D01*
X2472Y295D02*
X2479Y295D01*
X0Y294D02*
X7Y294D01*
X2472Y294D02*
X2479Y294D01*
X0Y293D02*
X7Y293D01*
X2472Y293D02*
X2479Y293D01*
X0Y292D02*
X7Y292D01*
X2472Y292D02*
X2479Y292D01*
X0Y291D02*
X7Y291D01*
X2472Y291D02*
X2479Y291D01*
X0Y290D02*
X7Y290D01*
X2472Y290D02*
X2479Y290D01*
X0Y289D02*
X7Y289D01*
X2472Y289D02*
X2479Y289D01*
X0Y288D02*
X7Y288D01*
X2472Y288D02*
X2479Y288D01*
X0Y287D02*
X7Y287D01*
X2472Y287D02*
X2479Y287D01*
X0Y286D02*
X7Y286D01*
X2472Y286D02*
X2479Y286D01*
X0Y285D02*
X7Y285D01*
X2472Y285D02*
X2479Y285D01*
X0Y284D02*
X7Y284D01*
X2472Y284D02*
X2479Y284D01*
X0Y283D02*
X7Y283D01*
X2472Y283D02*
X2479Y283D01*
X0Y282D02*
X7Y282D01*
X2472Y282D02*
X2479Y282D01*
X0Y281D02*
X7Y281D01*
X2472Y281D02*
X2479Y281D01*
X0Y280D02*
X7Y280D01*
X2472Y280D02*
X2479Y280D01*
X0Y279D02*
X7Y279D01*
X2472Y279D02*
X2479Y279D01*
X0Y278D02*
X7Y278D01*
X2472Y278D02*
X2479Y278D01*
X0Y277D02*
X7Y277D01*
X2472Y277D02*
X2479Y277D01*
X0Y276D02*
X7Y276D01*
X2472Y276D02*
X2479Y276D01*
X0Y275D02*
X7Y275D01*
X2472Y275D02*
X2479Y275D01*
X0Y274D02*
X7Y274D01*
X2472Y274D02*
X2479Y274D01*
X0Y273D02*
X7Y273D01*
X2472Y273D02*
X2479Y273D01*
X0Y272D02*
X7Y272D01*
X2472Y272D02*
X2479Y272D01*
X0Y271D02*
X7Y271D01*
X2472Y271D02*
X2479Y271D01*
X0Y270D02*
X7Y270D01*
X2472Y270D02*
X2479Y270D01*
X0Y269D02*
X7Y269D01*
X2472Y269D02*
X2479Y269D01*
X0Y268D02*
X7Y268D01*
X2472Y268D02*
X2479Y268D01*
X0Y267D02*
X7Y267D01*
X2472Y267D02*
X2479Y267D01*
X0Y266D02*
X7Y266D01*
X2472Y266D02*
X2479Y266D01*
X0Y265D02*
X7Y265D01*
X2472Y265D02*
X2479Y265D01*
X0Y264D02*
X7Y264D01*
X2472Y264D02*
X2479Y264D01*
X0Y263D02*
X7Y263D01*
X2472Y263D02*
X2479Y263D01*
X0Y262D02*
X7Y262D01*
X2472Y262D02*
X2479Y262D01*
X0Y261D02*
X7Y261D01*
X2472Y261D02*
X2479Y261D01*
X0Y260D02*
X7Y260D01*
X2472Y260D02*
X2479Y260D01*
X0Y259D02*
X7Y259D01*
X2472Y259D02*
X2479Y259D01*
X0Y258D02*
X7Y258D01*
X2472Y258D02*
X2479Y258D01*
X0Y257D02*
X7Y257D01*
X2472Y257D02*
X2479Y257D01*
X0Y256D02*
X7Y256D01*
X2472Y256D02*
X2479Y256D01*
X0Y255D02*
X7Y255D01*
X2472Y255D02*
X2479Y255D01*
X0Y254D02*
X7Y254D01*
X2472Y254D02*
X2479Y254D01*
X0Y253D02*
X7Y253D01*
X2472Y253D02*
X2479Y253D01*
X0Y252D02*
X7Y252D01*
X2472Y252D02*
X2479Y252D01*
X0Y251D02*
X7Y251D01*
X2472Y251D02*
X2479Y251D01*
X0Y250D02*
X7Y250D01*
X2472Y250D02*
X2479Y250D01*
X0Y249D02*
X7Y249D01*
X2472Y249D02*
X2479Y249D01*
X0Y248D02*
X7Y248D01*
X2472Y248D02*
X2479Y248D01*
X0Y247D02*
X7Y247D01*
X2472Y247D02*
X2479Y247D01*
X0Y246D02*
X7Y246D01*
X2472Y246D02*
X2479Y246D01*
X0Y245D02*
X7Y245D01*
X2472Y245D02*
X2479Y245D01*
X0Y244D02*
X7Y244D01*
X2472Y244D02*
X2479Y244D01*
X0Y243D02*
X7Y243D01*
X2472Y243D02*
X2479Y243D01*
X0Y242D02*
X7Y242D01*
X2472Y242D02*
X2479Y242D01*
X0Y241D02*
X7Y241D01*
X2472Y241D02*
X2479Y241D01*
X0Y240D02*
X7Y240D01*
X2472Y240D02*
X2479Y240D01*
X0Y239D02*
X7Y239D01*
X2472Y239D02*
X2479Y239D01*
X0Y238D02*
X7Y238D01*
X2472Y238D02*
X2479Y238D01*
X0Y237D02*
X7Y237D01*
X2472Y237D02*
X2479Y237D01*
X0Y236D02*
X7Y236D01*
X2472Y236D02*
X2479Y236D01*
X0Y235D02*
X7Y235D01*
X2472Y235D02*
X2479Y235D01*
X0Y234D02*
X7Y234D01*
X2472Y234D02*
X2479Y234D01*
X0Y233D02*
X7Y233D01*
X2472Y233D02*
X2479Y233D01*
X0Y232D02*
X7Y232D01*
X2472Y232D02*
X2479Y232D01*
X0Y231D02*
X7Y231D01*
X2472Y231D02*
X2479Y231D01*
X0Y230D02*
X7Y230D01*
X2472Y230D02*
X2479Y230D01*
X0Y229D02*
X7Y229D01*
X2472Y229D02*
X2479Y229D01*
X0Y228D02*
X7Y228D01*
X2472Y228D02*
X2479Y228D01*
X0Y227D02*
X7Y227D01*
X2472Y227D02*
X2479Y227D01*
X0Y226D02*
X7Y226D01*
X2472Y226D02*
X2479Y226D01*
X0Y225D02*
X7Y225D01*
X2472Y225D02*
X2479Y225D01*
X0Y224D02*
X7Y224D01*
X2472Y224D02*
X2479Y224D01*
X0Y223D02*
X7Y223D01*
X2472Y223D02*
X2479Y223D01*
X0Y222D02*
X7Y222D01*
X2472Y222D02*
X2479Y222D01*
X0Y221D02*
X7Y221D01*
X2472Y221D02*
X2479Y221D01*
X0Y220D02*
X7Y220D01*
X2472Y220D02*
X2479Y220D01*
X0Y219D02*
X7Y219D01*
X2472Y219D02*
X2479Y219D01*
X0Y218D02*
X7Y218D01*
X2472Y218D02*
X2479Y218D01*
X0Y217D02*
X7Y217D01*
X2472Y217D02*
X2479Y217D01*
X0Y216D02*
X7Y216D01*
X2472Y216D02*
X2479Y216D01*
X0Y215D02*
X7Y215D01*
X2472Y215D02*
X2479Y215D01*
X0Y214D02*
X7Y214D01*
X2472Y214D02*
X2479Y214D01*
X0Y213D02*
X7Y213D01*
X2472Y213D02*
X2479Y213D01*
X0Y212D02*
X7Y212D01*
X2472Y212D02*
X2479Y212D01*
X0Y211D02*
X7Y211D01*
X2472Y211D02*
X2479Y211D01*
X0Y210D02*
X7Y210D01*
X2472Y210D02*
X2479Y210D01*
X0Y209D02*
X7Y209D01*
X2472Y209D02*
X2479Y209D01*
X0Y208D02*
X7Y208D01*
X2472Y208D02*
X2479Y208D01*
X0Y207D02*
X7Y207D01*
X2472Y207D02*
X2479Y207D01*
X0Y206D02*
X7Y206D01*
X2472Y206D02*
X2479Y206D01*
X0Y205D02*
X7Y205D01*
X2472Y205D02*
X2479Y205D01*
X0Y204D02*
X7Y204D01*
X2472Y204D02*
X2479Y204D01*
X0Y203D02*
X7Y203D01*
X2472Y203D02*
X2479Y203D01*
X0Y202D02*
X7Y202D01*
X2472Y202D02*
X2479Y202D01*
X0Y201D02*
X7Y201D01*
X2472Y201D02*
X2479Y201D01*
X0Y200D02*
X7Y200D01*
X2472Y200D02*
X2479Y200D01*
X0Y199D02*
X7Y199D01*
X2472Y199D02*
X2479Y199D01*
X0Y198D02*
X7Y198D01*
X2472Y198D02*
X2479Y198D01*
X0Y197D02*
X7Y197D01*
X2472Y197D02*
X2479Y197D01*
X0Y196D02*
X7Y196D01*
X2472Y196D02*
X2479Y196D01*
X0Y195D02*
X7Y195D01*
X2472Y195D02*
X2479Y195D01*
X0Y194D02*
X7Y194D01*
X2472Y194D02*
X2479Y194D01*
X0Y193D02*
X7Y193D01*
X2472Y193D02*
X2479Y193D01*
X0Y192D02*
X7Y192D01*
X2472Y192D02*
X2479Y192D01*
X0Y191D02*
X7Y191D01*
X2472Y191D02*
X2479Y191D01*
X0Y190D02*
X7Y190D01*
X2472Y190D02*
X2479Y190D01*
X0Y189D02*
X7Y189D01*
X2472Y189D02*
X2479Y189D01*
X0Y188D02*
X7Y188D01*
X2472Y188D02*
X2479Y188D01*
X0Y187D02*
X7Y187D01*
X2472Y187D02*
X2479Y187D01*
X0Y186D02*
X7Y186D01*
X2472Y186D02*
X2479Y186D01*
X0Y185D02*
X7Y185D01*
X2472Y185D02*
X2479Y185D01*
X0Y184D02*
X7Y184D01*
X2472Y184D02*
X2479Y184D01*
X0Y183D02*
X7Y183D01*
X2472Y183D02*
X2479Y183D01*
X0Y182D02*
X7Y182D01*
X2472Y182D02*
X2479Y182D01*
X0Y181D02*
X7Y181D01*
X2472Y181D02*
X2479Y181D01*
X0Y180D02*
X7Y180D01*
X2472Y180D02*
X2479Y180D01*
X0Y179D02*
X7Y179D01*
X2472Y179D02*
X2479Y179D01*
X0Y178D02*
X7Y178D01*
X2472Y178D02*
X2479Y178D01*
X0Y177D02*
X7Y177D01*
X2472Y177D02*
X2479Y177D01*
X0Y176D02*
X7Y176D01*
X2472Y176D02*
X2479Y176D01*
X0Y175D02*
X7Y175D01*
X2472Y175D02*
X2479Y175D01*
X0Y174D02*
X7Y174D01*
X2472Y174D02*
X2479Y174D01*
X0Y173D02*
X7Y173D01*
X2472Y173D02*
X2479Y173D01*
X0Y172D02*
X7Y172D01*
X2472Y172D02*
X2479Y172D01*
X0Y171D02*
X7Y171D01*
X2472Y171D02*
X2479Y171D01*
X0Y170D02*
X7Y170D01*
X2472Y170D02*
X2479Y170D01*
X0Y169D02*
X7Y169D01*
X2472Y169D02*
X2479Y169D01*
X0Y168D02*
X7Y168D01*
X2472Y168D02*
X2479Y168D01*
X0Y167D02*
X7Y167D01*
X2472Y167D02*
X2479Y167D01*
X0Y166D02*
X7Y166D01*
X2472Y166D02*
X2479Y166D01*
X0Y165D02*
X7Y165D01*
X2472Y165D02*
X2479Y165D01*
X0Y164D02*
X7Y164D01*
X2472Y164D02*
X2479Y164D01*
X0Y163D02*
X7Y163D01*
X2472Y163D02*
X2479Y163D01*
X0Y162D02*
X7Y162D01*
X2472Y162D02*
X2479Y162D01*
X0Y161D02*
X7Y161D01*
X2472Y161D02*
X2479Y161D01*
X0Y160D02*
X7Y160D01*
X2472Y160D02*
X2479Y160D01*
X0Y159D02*
X7Y159D01*
X2472Y159D02*
X2479Y159D01*
X0Y158D02*
X7Y158D01*
X2472Y158D02*
X2479Y158D01*
X0Y157D02*
X7Y157D01*
X2472Y157D02*
X2479Y157D01*
X0Y156D02*
X7Y156D01*
X2472Y156D02*
X2479Y156D01*
X0Y155D02*
X7Y155D01*
X2472Y155D02*
X2479Y155D01*
X0Y154D02*
X7Y154D01*
X2472Y154D02*
X2479Y154D01*
X0Y153D02*
X7Y153D01*
X2472Y153D02*
X2479Y153D01*
X0Y152D02*
X7Y152D01*
X2472Y152D02*
X2479Y152D01*
X0Y151D02*
X7Y151D01*
X2472Y151D02*
X2479Y151D01*
X0Y150D02*
X7Y150D01*
X2472Y150D02*
X2479Y150D01*
X0Y149D02*
X7Y149D01*
X2472Y149D02*
X2479Y149D01*
X0Y148D02*
X7Y148D01*
X2472Y148D02*
X2479Y148D01*
X0Y147D02*
X7Y147D01*
X2472Y147D02*
X2479Y147D01*
X0Y146D02*
X7Y146D01*
X2472Y146D02*
X2479Y146D01*
X0Y145D02*
X7Y145D01*
X2472Y145D02*
X2479Y145D01*
X0Y144D02*
X7Y144D01*
X2472Y144D02*
X2479Y144D01*
X0Y143D02*
X7Y143D01*
X2472Y143D02*
X2479Y143D01*
X0Y142D02*
X7Y142D01*
X2472Y142D02*
X2479Y142D01*
X0Y141D02*
X7Y141D01*
X2472Y141D02*
X2479Y141D01*
X0Y140D02*
X7Y140D01*
X2472Y140D02*
X2479Y140D01*
X0Y139D02*
X7Y139D01*
X2472Y139D02*
X2479Y139D01*
X0Y138D02*
X7Y138D01*
X2472Y138D02*
X2479Y138D01*
X0Y137D02*
X7Y137D01*
X2472Y137D02*
X2479Y137D01*
X0Y136D02*
X7Y136D01*
X2472Y136D02*
X2479Y136D01*
X0Y135D02*
X7Y135D01*
X2472Y135D02*
X2479Y135D01*
X0Y134D02*
X7Y134D01*
X2472Y134D02*
X2479Y134D01*
X0Y133D02*
X7Y133D01*
X2472Y133D02*
X2479Y133D01*
X0Y132D02*
X7Y132D01*
X2472Y132D02*
X2479Y132D01*
X0Y131D02*
X7Y131D01*
X2472Y131D02*
X2479Y131D01*
X0Y130D02*
X7Y130D01*
X581Y130D02*
X606Y130D01*
X637Y130D02*
X657Y130D01*
X681Y130D02*
X715Y130D01*
X2472Y130D02*
X2479Y130D01*
X0Y129D02*
X7Y129D01*
X581Y129D02*
X609Y129D01*
X635Y129D02*
X660Y129D01*
X681Y129D02*
X715Y129D01*
X2472Y129D02*
X2479Y129D01*
X0Y128D02*
X7Y128D01*
X581Y128D02*
X610Y128D01*
X634Y128D02*
X661Y128D01*
X681Y128D02*
X715Y128D01*
X2472Y128D02*
X2479Y128D01*
X0Y127D02*
X7Y127D01*
X581Y127D02*
X611Y127D01*
X633Y127D02*
X662Y127D01*
X681Y127D02*
X715Y127D01*
X2472Y127D02*
X2479Y127D01*
X0Y126D02*
X7Y126D01*
X581Y126D02*
X612Y126D01*
X632Y126D02*
X663Y126D01*
X681Y126D02*
X715Y126D01*
X2472Y126D02*
X2479Y126D01*
X0Y125D02*
X7Y125D01*
X581Y125D02*
X613Y125D01*
X632Y125D02*
X664Y125D01*
X681Y125D02*
X715Y125D01*
X2472Y125D02*
X2479Y125D01*
X0Y124D02*
X7Y124D01*
X581Y124D02*
X613Y124D01*
X631Y124D02*
X664Y124D01*
X681Y124D02*
X715Y124D01*
X2472Y124D02*
X2479Y124D01*
X0Y123D02*
X7Y123D01*
X581Y123D02*
X587Y123D01*
X606Y123D02*
X614Y123D01*
X631Y123D02*
X638Y123D01*
X657Y123D02*
X664Y123D01*
X681Y123D02*
X687Y123D01*
X695Y123D02*
X701Y123D01*
X709Y123D02*
X715Y123D01*
X2472Y123D02*
X2479Y123D01*
X0Y122D02*
X7Y122D01*
X581Y122D02*
X587Y122D01*
X607Y122D02*
X614Y122D01*
X631Y122D02*
X637Y122D01*
X658Y122D02*
X665Y122D01*
X681Y122D02*
X687Y122D01*
X695Y122D02*
X701Y122D01*
X709Y122D02*
X715Y122D01*
X2472Y122D02*
X2479Y122D01*
X0Y121D02*
X7Y121D01*
X581Y121D02*
X587Y121D01*
X608Y121D02*
X614Y121D01*
X631Y121D02*
X638Y121D01*
X659Y121D02*
X665Y121D01*
X681Y121D02*
X687Y121D01*
X695Y121D02*
X701Y121D01*
X709Y121D02*
X715Y121D01*
X2472Y121D02*
X2479Y121D01*
X0Y120D02*
X7Y120D01*
X581Y120D02*
X587Y120D01*
X608Y120D02*
X614Y120D01*
X631Y120D02*
X639Y120D01*
X659Y120D02*
X664Y120D01*
X681Y120D02*
X687Y120D01*
X695Y120D02*
X701Y120D01*
X709Y120D02*
X715Y120D01*
X2472Y120D02*
X2479Y120D01*
X0Y119D02*
X7Y119D01*
X581Y119D02*
X587Y119D01*
X608Y119D02*
X614Y119D01*
X632Y119D02*
X639Y119D01*
X659Y119D02*
X664Y119D01*
X682Y119D02*
X687Y119D01*
X695Y119D02*
X701Y119D01*
X709Y119D02*
X714Y119D01*
X2472Y119D02*
X2479Y119D01*
X0Y118D02*
X7Y118D01*
X581Y118D02*
X587Y118D01*
X608Y118D02*
X614Y118D01*
X632Y118D02*
X640Y118D01*
X660Y118D02*
X663Y118D01*
X683Y118D02*
X686Y118D01*
X695Y118D02*
X701Y118D01*
X710Y118D02*
X713Y118D01*
X2472Y118D02*
X2479Y118D01*
X0Y117D02*
X7Y117D01*
X581Y117D02*
X587Y117D01*
X608Y117D02*
X614Y117D01*
X633Y117D02*
X641Y117D01*
X695Y117D02*
X701Y117D01*
X2472Y117D02*
X2479Y117D01*
X0Y116D02*
X7Y116D01*
X581Y116D02*
X587Y116D01*
X608Y116D02*
X614Y116D01*
X634Y116D02*
X642Y116D01*
X695Y116D02*
X701Y116D01*
X2472Y116D02*
X2479Y116D01*
X0Y115D02*
X7Y115D01*
X581Y115D02*
X587Y115D01*
X608Y115D02*
X614Y115D01*
X635Y115D02*
X643Y115D01*
X695Y115D02*
X701Y115D01*
X2472Y115D02*
X2479Y115D01*
X0Y114D02*
X7Y114D01*
X581Y114D02*
X587Y114D01*
X608Y114D02*
X614Y114D01*
X635Y114D02*
X643Y114D01*
X695Y114D02*
X701Y114D01*
X2472Y114D02*
X2479Y114D01*
X0Y113D02*
X7Y113D01*
X581Y113D02*
X587Y113D01*
X606Y113D02*
X614Y113D01*
X636Y113D02*
X644Y113D01*
X695Y113D02*
X701Y113D01*
X2472Y113D02*
X2479Y113D01*
X0Y112D02*
X7Y112D01*
X581Y112D02*
X614Y112D01*
X637Y112D02*
X645Y112D01*
X695Y112D02*
X701Y112D01*
X2472Y112D02*
X2479Y112D01*
X0Y111D02*
X7Y111D01*
X581Y111D02*
X613Y111D01*
X638Y111D02*
X646Y111D01*
X695Y111D02*
X701Y111D01*
X2472Y111D02*
X2479Y111D01*
X0Y110D02*
X7Y110D01*
X581Y110D02*
X612Y110D01*
X638Y110D02*
X646Y110D01*
X695Y110D02*
X701Y110D01*
X2472Y110D02*
X2479Y110D01*
X0Y109D02*
X7Y109D01*
X581Y109D02*
X612Y109D01*
X639Y109D02*
X647Y109D01*
X695Y109D02*
X701Y109D01*
X2472Y109D02*
X2479Y109D01*
X0Y108D02*
X7Y108D01*
X581Y108D02*
X611Y108D01*
X640Y108D02*
X648Y108D01*
X695Y108D02*
X701Y108D01*
X2472Y108D02*
X2479Y108D01*
X0Y107D02*
X7Y107D01*
X581Y107D02*
X609Y107D01*
X641Y107D02*
X649Y107D01*
X695Y107D02*
X701Y107D01*
X2472Y107D02*
X2479Y107D01*
X0Y106D02*
X7Y106D01*
X581Y106D02*
X607Y106D01*
X642Y106D02*
X650Y106D01*
X695Y106D02*
X701Y106D01*
X2472Y106D02*
X2479Y106D01*
X0Y105D02*
X7Y105D01*
X581Y105D02*
X587Y105D01*
X593Y105D02*
X600Y105D01*
X642Y105D02*
X650Y105D01*
X695Y105D02*
X701Y105D01*
X2472Y105D02*
X2479Y105D01*
X0Y104D02*
X7Y104D01*
X581Y104D02*
X587Y104D01*
X594Y104D02*
X601Y104D01*
X643Y104D02*
X651Y104D01*
X695Y104D02*
X701Y104D01*
X2472Y104D02*
X2479Y104D01*
X0Y103D02*
X7Y103D01*
X581Y103D02*
X587Y103D01*
X594Y103D02*
X601Y103D01*
X644Y103D02*
X652Y103D01*
X695Y103D02*
X701Y103D01*
X2472Y103D02*
X2479Y103D01*
X0Y102D02*
X7Y102D01*
X581Y102D02*
X587Y102D01*
X595Y102D02*
X602Y102D01*
X645Y102D02*
X653Y102D01*
X695Y102D02*
X701Y102D01*
X2472Y102D02*
X2479Y102D01*
X0Y101D02*
X7Y101D01*
X581Y101D02*
X587Y101D01*
X595Y101D02*
X603Y101D01*
X645Y101D02*
X653Y101D01*
X695Y101D02*
X701Y101D01*
X2472Y101D02*
X2479Y101D01*
X0Y100D02*
X7Y100D01*
X581Y100D02*
X587Y100D01*
X596Y100D02*
X603Y100D01*
X646Y100D02*
X654Y100D01*
X695Y100D02*
X701Y100D01*
X2472Y100D02*
X2479Y100D01*
X0Y99D02*
X7Y99D01*
X581Y99D02*
X587Y99D01*
X596Y99D02*
X604Y99D01*
X647Y99D02*
X655Y99D01*
X695Y99D02*
X701Y99D01*
X2472Y99D02*
X2479Y99D01*
X0Y98D02*
X7Y98D01*
X581Y98D02*
X587Y98D01*
X597Y98D02*
X604Y98D01*
X648Y98D02*
X656Y98D01*
X695Y98D02*
X701Y98D01*
X2472Y98D02*
X2479Y98D01*
X0Y97D02*
X7Y97D01*
X581Y97D02*
X587Y97D01*
X598Y97D02*
X605Y97D01*
X649Y97D02*
X657Y97D01*
X695Y97D02*
X701Y97D01*
X2472Y97D02*
X2479Y97D01*
X0Y96D02*
X7Y96D01*
X581Y96D02*
X587Y96D01*
X598Y96D02*
X605Y96D01*
X649Y96D02*
X657Y96D01*
X695Y96D02*
X701Y96D01*
X2472Y96D02*
X2479Y96D01*
X0Y95D02*
X7Y95D01*
X581Y95D02*
X587Y95D01*
X599Y95D02*
X606Y95D01*
X650Y95D02*
X658Y95D01*
X695Y95D02*
X701Y95D01*
X2472Y95D02*
X2479Y95D01*
X0Y94D02*
X7Y94D01*
X581Y94D02*
X587Y94D01*
X599Y94D02*
X607Y94D01*
X651Y94D02*
X659Y94D01*
X695Y94D02*
X701Y94D01*
X2472Y94D02*
X2479Y94D01*
X0Y93D02*
X7Y93D01*
X581Y93D02*
X587Y93D01*
X600Y93D02*
X607Y93D01*
X652Y93D02*
X660Y93D01*
X695Y93D02*
X701Y93D01*
X2472Y93D02*
X2479Y93D01*
X0Y92D02*
X7Y92D01*
X581Y92D02*
X587Y92D01*
X601Y92D02*
X608Y92D01*
X652Y92D02*
X660Y92D01*
X695Y92D02*
X701Y92D01*
X2472Y92D02*
X2479Y92D01*
X0Y91D02*
X7Y91D01*
X581Y91D02*
X587Y91D01*
X601Y91D02*
X608Y91D01*
X653Y91D02*
X661Y91D01*
X695Y91D02*
X701Y91D01*
X2472Y91D02*
X2479Y91D01*
X0Y90D02*
X7Y90D01*
X581Y90D02*
X587Y90D01*
X602Y90D02*
X609Y90D01*
X654Y90D02*
X662Y90D01*
X695Y90D02*
X701Y90D01*
X2472Y90D02*
X2479Y90D01*
X0Y89D02*
X7Y89D01*
X581Y89D02*
X587Y89D01*
X602Y89D02*
X610Y89D01*
X655Y89D02*
X663Y89D01*
X695Y89D02*
X701Y89D01*
X2472Y89D02*
X2479Y89D01*
X0Y88D02*
X7Y88D01*
X581Y88D02*
X587Y88D01*
X603Y88D02*
X610Y88D01*
X632Y88D02*
X636Y88D01*
X656Y88D02*
X663Y88D01*
X695Y88D02*
X701Y88D01*
X2472Y88D02*
X2479Y88D01*
X0Y87D02*
X7Y87D01*
X581Y87D02*
X587Y87D01*
X603Y87D02*
X611Y87D01*
X631Y87D02*
X637Y87D01*
X656Y87D02*
X664Y87D01*
X695Y87D02*
X701Y87D01*
X2472Y87D02*
X2479Y87D01*
X0Y86D02*
X7Y86D01*
X581Y86D02*
X587Y86D01*
X604Y86D02*
X611Y86D01*
X631Y86D02*
X637Y86D01*
X657Y86D02*
X664Y86D01*
X695Y86D02*
X701Y86D01*
X2472Y86D02*
X2479Y86D01*
X0Y85D02*
X7Y85D01*
X581Y85D02*
X587Y85D01*
X605Y85D02*
X612Y85D01*
X631Y85D02*
X637Y85D01*
X658Y85D02*
X664Y85D01*
X695Y85D02*
X701Y85D01*
X2472Y85D02*
X2479Y85D01*
X0Y84D02*
X7Y84D01*
X581Y84D02*
X587Y84D01*
X605Y84D02*
X612Y84D01*
X631Y84D02*
X638Y84D01*
X658Y84D02*
X665Y84D01*
X695Y84D02*
X701Y84D01*
X2472Y84D02*
X2479Y84D01*
X0Y83D02*
X7Y83D01*
X581Y83D02*
X587Y83D01*
X606Y83D02*
X613Y83D01*
X631Y83D02*
X664Y83D01*
X695Y83D02*
X701Y83D01*
X2472Y83D02*
X2479Y83D01*
X0Y82D02*
X7Y82D01*
X581Y82D02*
X587Y82D01*
X606Y82D02*
X614Y82D01*
X632Y82D02*
X664Y82D01*
X695Y82D02*
X701Y82D01*
X2472Y82D02*
X2479Y82D01*
X0Y81D02*
X7Y81D01*
X581Y81D02*
X587Y81D01*
X607Y81D02*
X614Y81D01*
X632Y81D02*
X664Y81D01*
X695Y81D02*
X701Y81D01*
X2472Y81D02*
X2479Y81D01*
X0Y80D02*
X7Y80D01*
X581Y80D02*
X587Y80D01*
X608Y80D02*
X614Y80D01*
X633Y80D02*
X664Y80D01*
X695Y80D02*
X701Y80D01*
X2472Y80D02*
X2479Y80D01*
X0Y79D02*
X7Y79D01*
X581Y79D02*
X587Y79D01*
X608Y79D02*
X614Y79D01*
X634Y79D02*
X663Y79D01*
X695Y79D02*
X701Y79D01*
X2472Y79D02*
X2479Y79D01*
X0Y78D02*
X7Y78D01*
X581Y78D02*
X586Y78D01*
X609Y78D02*
X614Y78D01*
X635Y78D02*
X662Y78D01*
X695Y78D02*
X701Y78D01*
X2472Y78D02*
X2479Y78D01*
X0Y77D02*
X7Y77D01*
X582Y77D02*
X586Y77D01*
X610Y77D02*
X613Y77D01*
X636Y77D02*
X660Y77D01*
X696Y77D02*
X700Y77D01*
X2472Y77D02*
X2479Y77D01*
X0Y76D02*
X7Y76D01*
X2472Y76D02*
X2479Y76D01*
X0Y75D02*
X7Y75D01*
X2472Y75D02*
X2479Y75D01*
X0Y74D02*
X7Y74D01*
X2472Y74D02*
X2479Y74D01*
X0Y73D02*
X7Y73D01*
X2472Y73D02*
X2479Y73D01*
X0Y72D02*
X7Y72D01*
X2472Y72D02*
X2479Y72D01*
X0Y71D02*
X7Y71D01*
X2472Y71D02*
X2479Y71D01*
X0Y70D02*
X7Y70D01*
X2472Y70D02*
X2479Y70D01*
X0Y69D02*
X7Y69D01*
X2472Y69D02*
X2479Y69D01*
X0Y68D02*
X7Y68D01*
X2472Y68D02*
X2479Y68D01*
X0Y67D02*
X7Y67D01*
X2472Y67D02*
X2479Y67D01*
X0Y66D02*
X7Y66D01*
X2472Y66D02*
X2479Y66D01*
X0Y65D02*
X7Y65D01*
X2472Y65D02*
X2479Y65D01*
X0Y64D02*
X7Y64D01*
X2472Y64D02*
X2479Y64D01*
X0Y63D02*
X7Y63D01*
X2472Y63D02*
X2479Y63D01*
X0Y62D02*
X7Y62D01*
X2472Y62D02*
X2479Y62D01*
X0Y61D02*
X7Y61D01*
X2472Y61D02*
X2479Y61D01*
X0Y60D02*
X7Y60D01*
X2472Y60D02*
X2479Y60D01*
X0Y59D02*
X7Y59D01*
X2472Y59D02*
X2479Y59D01*
X0Y58D02*
X7Y58D01*
X2472Y58D02*
X2479Y58D01*
X0Y57D02*
X7Y57D01*
X2472Y57D02*
X2479Y57D01*
X0Y56D02*
X7Y56D01*
X2472Y56D02*
X2479Y56D01*
X0Y55D02*
X7Y55D01*
X2472Y55D02*
X2479Y55D01*
X0Y54D02*
X7Y54D01*
X2472Y54D02*
X2479Y54D01*
X0Y53D02*
X7Y53D01*
X2472Y53D02*
X2479Y53D01*
X0Y52D02*
X7Y52D01*
X2472Y52D02*
X2479Y52D01*
X0Y51D02*
X7Y51D01*
X2472Y51D02*
X2479Y51D01*
X0Y50D02*
X7Y50D01*
X2472Y50D02*
X2479Y50D01*
X0Y49D02*
X7Y49D01*
X2472Y49D02*
X2479Y49D01*
X0Y48D02*
X7Y48D01*
X2472Y48D02*
X2479Y48D01*
X0Y47D02*
X7Y47D01*
X2472Y47D02*
X2479Y47D01*
X0Y46D02*
X7Y46D01*
X2472Y46D02*
X2479Y46D01*
X0Y45D02*
X7Y45D01*
X2472Y45D02*
X2479Y45D01*
X0Y44D02*
X7Y44D01*
X2472Y44D02*
X2479Y44D01*
X0Y43D02*
X7Y43D01*
X2472Y43D02*
X2479Y43D01*
X0Y42D02*
X7Y42D01*
X2472Y42D02*
X2479Y42D01*
X0Y41D02*
X7Y41D01*
X2472Y41D02*
X2479Y41D01*
X0Y40D02*
X7Y40D01*
X2472Y40D02*
X2479Y40D01*
X0Y39D02*
X7Y39D01*
X2472Y39D02*
X2479Y39D01*
X0Y38D02*
X7Y38D01*
X2472Y38D02*
X2479Y38D01*
X0Y37D02*
X7Y37D01*
X2472Y37D02*
X2479Y37D01*
X0Y36D02*
X7Y36D01*
X2472Y36D02*
X2479Y36D01*
X0Y35D02*
X7Y35D01*
X2472Y35D02*
X2479Y35D01*
X0Y34D02*
X7Y34D01*
X2472Y34D02*
X2479Y34D01*
X0Y33D02*
X7Y33D01*
X2472Y33D02*
X2479Y33D01*
X0Y32D02*
X7Y32D01*
X2472Y32D02*
X2479Y32D01*
X0Y31D02*
X7Y31D01*
X2472Y31D02*
X2479Y31D01*
X0Y30D02*
X7Y30D01*
X2472Y30D02*
X2479Y30D01*
X0Y29D02*
X7Y29D01*
X2472Y29D02*
X2479Y29D01*
X0Y28D02*
X7Y28D01*
X2472Y28D02*
X2479Y28D01*
X0Y27D02*
X7Y27D01*
X2472Y27D02*
X2479Y27D01*
X0Y26D02*
X7Y26D01*
X2472Y26D02*
X2479Y26D01*
X0Y25D02*
X7Y25D01*
X2472Y25D02*
X2479Y25D01*
X0Y24D02*
X7Y24D01*
X2472Y24D02*
X2479Y24D01*
X0Y23D02*
X7Y23D01*
X2472Y23D02*
X2479Y23D01*
X0Y22D02*
X7Y22D01*
X2472Y22D02*
X2479Y22D01*
X0Y21D02*
X7Y21D01*
X2472Y21D02*
X2479Y21D01*
X0Y20D02*
X7Y20D01*
X2472Y20D02*
X2479Y20D01*
X0Y19D02*
X7Y19D01*
X2472Y19D02*
X2479Y19D01*
X0Y18D02*
X7Y18D01*
X2472Y18D02*
X2479Y18D01*
X0Y17D02*
X7Y17D01*
X2472Y17D02*
X2479Y17D01*
X0Y16D02*
X7Y16D01*
X2472Y16D02*
X2479Y16D01*
X0Y15D02*
X7Y15D01*
X2472Y15D02*
X2479Y15D01*
X0Y14D02*
X7Y14D01*
X2472Y14D02*
X2479Y14D01*
X0Y13D02*
X7Y13D01*
X2472Y13D02*
X2479Y13D01*
X0Y12D02*
X7Y12D01*
X2472Y12D02*
X2479Y12D01*
X0Y11D02*
X7Y11D01*
X2472Y11D02*
X2479Y11D01*
X0Y10D02*
X7Y10D01*
X2472Y10D02*
X2479Y10D01*
X0Y9D02*
X2479Y9D01*
X0Y8D02*
X2479Y8D01*
X0Y7D02*
X2479Y7D01*
X0Y6D02*
X2479Y6D01*
X0Y5D02*
X2479Y5D01*
X0Y4D02*
X2479Y4D01*
X0Y3D02*
X2479Y3D01*
X0Y2D02*
X2479Y2D01*
D02*
G04 End of Silk1*
M02*