G04 MADE WITH FRITZING*
G04 WWW.FRITZING.ORG*
G04 DOUBLE SIDED*
G04 HOLES PLATED*
G04 CONTOUR ON CENTER OF CONTOUR VECTOR*
%ASAXBY*%
%FSLAX23Y23*%
%MOIN*%
%OFA0B0*%
%SFA1.0B1.0*%
%ADD10C,0.075000*%
%ADD11C,0.059200*%
%ADD12C,0.077778*%
%ADD13C,0.062992*%
%ADD14R,0.059200X0.059200*%
%ADD15R,0.062992X0.062992*%
%ADD16C,0.024000*%
%LNCOPPER1*%
G90*
G70*
G54D10*
X581Y783D03*
X981Y783D03*
X581Y583D03*
X981Y583D03*
X781Y183D03*
X525Y183D03*
X781Y360D03*
X525Y360D03*
G54D11*
X781Y1047D03*
X781Y1283D03*
X781Y1205D03*
X781Y1126D03*
G54D12*
X2181Y1083D03*
X2181Y983D03*
X2181Y883D03*
X2181Y783D03*
X2181Y683D03*
X2181Y583D03*
X2181Y483D03*
X2181Y383D03*
X1281Y383D03*
X1281Y483D03*
X1281Y583D03*
X1281Y683D03*
X1281Y783D03*
X1281Y883D03*
X1281Y983D03*
X1281Y1083D03*
X2181Y1083D03*
X2181Y983D03*
X2181Y883D03*
X2181Y783D03*
X2181Y683D03*
X2181Y583D03*
X2181Y483D03*
X2181Y383D03*
X1281Y383D03*
X1281Y483D03*
X1281Y583D03*
X1281Y683D03*
X1281Y783D03*
X1281Y883D03*
X1281Y983D03*
X1281Y1083D03*
G54D13*
X479Y783D03*
X381Y783D03*
X479Y583D03*
X381Y583D03*
G54D14*
X781Y1047D03*
G54D15*
X479Y783D03*
X479Y583D03*
G54D16*
X380Y384D02*
X381Y556D01*
D02*
X497Y365D02*
X380Y384D01*
D02*
X552Y583D02*
X506Y583D01*
D02*
X2082Y1184D02*
X979Y1184D01*
D02*
X979Y1184D02*
X981Y812D01*
D02*
X2079Y782D02*
X2082Y1184D01*
D02*
X2152Y783D02*
X2079Y782D01*
D02*
X1180Y582D02*
X1009Y583D01*
D02*
X1260Y663D02*
X1180Y582D01*
D02*
X782Y483D02*
X1252Y483D01*
D02*
X781Y389D02*
X782Y483D01*
D02*
X809Y183D02*
X2082Y183D01*
D02*
X2082Y183D02*
X2079Y483D01*
D02*
X2079Y483D02*
X2152Y483D01*
D02*
X754Y1283D02*
X380Y1283D01*
D02*
X380Y1283D02*
X381Y810D01*
D02*
X381Y756D02*
X381Y610D01*
D02*
X506Y783D02*
X552Y783D01*
G04 End of Copper1*
M02*