G04 MADE WITH FRITZING*
G04 WWW.FRITZING.ORG*
G04 DOUBLE SIDED*
G04 HOLES PLATED*
G04 CONTOUR ON CENTER OF CONTOUR VECTOR*
%ASAXBY*%
%FSLAX23Y23*%
%MOIN*%
%OFA0B0*%
%SFA1.0B1.0*%
%ADD10C,0.075000*%
%ADD11C,0.077778*%
%ADD12C,0.059200*%
%ADD13C,0.062992*%
%ADD14R,0.059200X0.059200*%
%ADD15R,0.062992X0.062992*%
%ADD16C,0.024000*%
%LNCOPPER0*%
G90*
G70*
G54D10*
X581Y783D03*
X981Y783D03*
X581Y583D03*
X981Y583D03*
G54D11*
X2181Y1083D03*
X2181Y983D03*
X2181Y883D03*
X2181Y783D03*
X2181Y683D03*
X2181Y583D03*
X2181Y483D03*
X2181Y383D03*
X1281Y383D03*
X1281Y483D03*
X1281Y583D03*
X1281Y683D03*
X1281Y783D03*
X1281Y883D03*
X1281Y983D03*
X1281Y1083D03*
X2181Y1083D03*
X2181Y983D03*
X2181Y883D03*
X2181Y783D03*
X2181Y683D03*
X2181Y583D03*
X2181Y483D03*
X2181Y383D03*
X1281Y383D03*
X1281Y483D03*
X1281Y583D03*
X1281Y683D03*
X1281Y783D03*
X1281Y883D03*
X1281Y983D03*
X1281Y1083D03*
G54D10*
X781Y183D03*
X525Y183D03*
X781Y360D03*
X525Y360D03*
G54D12*
X781Y1047D03*
X781Y1283D03*
X781Y1205D03*
X781Y1126D03*
G54D13*
X479Y783D03*
X381Y783D03*
X479Y583D03*
X381Y583D03*
G54D14*
X781Y1047D03*
G54D15*
X479Y783D03*
X479Y583D03*
G54D16*
X782Y885D02*
X781Y1012D01*
D02*
X1252Y883D02*
X782Y885D01*
D02*
X1431Y384D02*
X1310Y383D01*
D02*
X881Y1233D02*
X1431Y1233D01*
D02*
X1431Y1233D02*
X1431Y384D01*
D02*
X807Y1212D02*
X881Y1233D01*
D02*
X881Y1184D02*
X804Y1139D01*
D02*
X1381Y1184D02*
X881Y1184D01*
D02*
X1310Y783D02*
X1381Y782D01*
D02*
X1381Y782D02*
X1381Y1184D01*
G04 End of Copper0*
M02*